M48
;Layer_Color=9474304
;FILE_FORMAT=2:4
INCH,LZ
;TYPE=PLATED
T1F00S00C0.0280
T2F00S00C0.0319
T3F00S00C0.0339
T4F00S00C0.0346
T5F00S00C0.0354
T6F00S00C0.0362
T7F00S00C0.0374
T8F00S00C0.0394
T10F00S00C0.0409
T11F00S00C0.0492
T12F00S00C0.0906
T13F00S00C0.1181
%
T01
X019456Y004951
X022196Y004079
X022406Y005624
X021882Y002598
X0226Y00204
X02477Y001859
X024933Y002767
X02467Y006526
X025684Y00728
X024643Y008317
X02233Y008661
X022535Y011524
X028701Y012835
X02729Y01512
X0304Y01556
X02375Y01924
X01686Y01911
X017811Y020586
X01757Y01578
X0171Y0136
Y0128
X013701Y013079
X013504Y012
X011614Y012504
X012434Y015389
X01184Y016319
X01062Y015856
X01057Y01802
X00825Y01462
X00698Y01509
X00811Y007756
X0045Y01503
X00171Y01546
T02
X002409Y00122
X003409
X004409
X005409
X006409
X007409
X008409
X009409
X010409
X011409
X012409
X013409
X014409
X015409
X016409
X017409
T03
X030937Y017023
Y018023
Y019023
T04
X019433Y002205
X021433Y003205
Y001205
X022866Y018268
X024866Y019268
Y017268
X027077Y018268
X029077Y019268
Y017268
X020685
Y019268
X018685Y018268
T05
X00611Y006016
X00711
X00811
X00911
X01011
X01111
X01211
X01311
X01411
X01511
X01611
Y009016
X01511
X01411
X01311
X01211
X01111
X01011
X00911
X00811
X00711
X00611
X00511
X00411
X00311
Y006016
X00411
X00511
T06
X029925Y009075
X030713
Y010059
X029925
T07
X02761Y008465
X02861
X01622Y018476
Y019476
X012913
Y018476
X009567
Y019476
X00622Y019476
Y018476
X002929Y018476
Y019476
T08
X001575Y003724
Y004724
X021421Y005961
Y008961
Y010547
Y013547
X024134Y010197
X025134
X026134
X020421Y010547
X019421
X018421
Y008961
X019421
X020421
Y005961
X019421
X018421
Y013547
X019421
X020421
X001575Y010445
Y009445
Y008445
X001575Y005724
T10
X00311Y004449
X00411
X00511
X00611
X00711
X00811
X00911
X01011
X01111
X01211
X01311
X01411
X01511
X01611
Y010591
X01511
X01411
X01311
X01211
X01111
X01011
X00911
X00811
X00711
X00611
X00511
X00411
X00311
T11
X019197Y015276
X020197
X021197
T12
X03178Y007197
Y011937
T13
X000866Y000866
X032874
Y020394
X000866
M30
