G04*
G04 #@! TF.GenerationSoftware,Altium Limited,Altium Designer,20.2.5 (213)*
G04*
G04 Layer_Color=8388736*
%FSLAX25Y25*%
%MOIN*%
G70*
G04*
G04 #@! TF.SameCoordinates,0846BD26-53A7-4D4D-980E-E920FDF7FE47*
G04*
G04*
G04 #@! TF.FilePolarity,Negative*
G04*
G01*
G75*
%ADD16R,0.05433X0.08268*%
%ADD17R,0.07099X0.02769*%
%ADD18R,0.08268X0.05433*%
%ADD19R,0.10236X0.03740*%
%ADD20R,0.07887X0.02572*%
%ADD21R,0.09800X0.03000*%
%ADD22C,0.05958*%
%ADD23C,0.06233*%
%ADD24C,0.06115*%
%ADD25R,0.06115X0.06115*%
%ADD26C,0.12611*%
%ADD27C,0.06902*%
%ADD28R,0.06902X0.06902*%
%ADD29O,0.06299X0.18110*%
%ADD30O,0.18110X0.06299*%
%ADD31R,0.05591X0.05591*%
%ADD32C,0.05591*%
%ADD33C,0.13780*%
%ADD34C,0.06102*%
%ADD35R,0.06102X0.06102*%
%ADD36C,0.05709*%
%ADD37R,0.05709X0.05709*%
%ADD38C,0.07480*%
%ADD39R,0.07480X0.07480*%
%ADD40R,0.06102X0.06102*%
%ADD41C,0.06312*%
%ADD42R,0.06312X0.06312*%
%ADD43R,0.05709X0.05709*%
%ADD44C,0.05800*%
D16*
X111949Y174213D02*
D03*
Y138386D02*
D03*
X129587Y174213D02*
D03*
Y138386D02*
D03*
X29272Y139202D02*
D03*
Y175029D02*
D03*
X11634Y139202D02*
D03*
Y175029D02*
D03*
X144331Y174213D02*
D03*
Y138386D02*
D03*
X161968Y174213D02*
D03*
Y138386D02*
D03*
X77795Y174606D02*
D03*
Y138780D02*
D03*
X95433Y174606D02*
D03*
Y138780D02*
D03*
X61768Y139173D02*
D03*
Y175000D02*
D03*
X44130Y139173D02*
D03*
Y175000D02*
D03*
D17*
X226484Y62221D02*
D03*
Y72851D02*
D03*
D18*
X239079Y115236D02*
D03*
X274905D02*
D03*
X239079Y132874D02*
D03*
X274905D02*
D03*
D19*
X288811Y41895D02*
D03*
Y52919D02*
D03*
D20*
X237992Y83169D02*
D03*
Y80610D02*
D03*
Y78051D02*
D03*
Y75492D02*
D03*
Y72933D02*
D03*
Y70374D02*
D03*
Y67815D02*
D03*
Y65256D02*
D03*
Y62697D02*
D03*
Y60138D02*
D03*
Y57579D02*
D03*
Y55020D02*
D03*
Y52461D02*
D03*
Y49902D02*
D03*
X265945D02*
D03*
Y52461D02*
D03*
Y55020D02*
D03*
Y57579D02*
D03*
Y60138D02*
D03*
Y62697D02*
D03*
Y65256D02*
D03*
Y67815D02*
D03*
Y70374D02*
D03*
Y72933D02*
D03*
Y75492D02*
D03*
Y78051D02*
D03*
Y80610D02*
D03*
Y83169D02*
D03*
D21*
X272269Y5221D02*
D03*
Y10221D02*
D03*
Y15221D02*
D03*
Y20221D02*
D03*
Y25221D02*
D03*
Y30221D02*
D03*
Y35221D02*
D03*
Y40221D02*
D03*
X236669D02*
D03*
Y35221D02*
D03*
Y30221D02*
D03*
Y25221D02*
D03*
Y20221D02*
D03*
Y15221D02*
D03*
Y10221D02*
D03*
Y5221D02*
D03*
D22*
X24094Y12205D02*
D03*
X34095D02*
D03*
X44094D02*
D03*
X54094D02*
D03*
X64095D02*
D03*
X74094D02*
D03*
X84095D02*
D03*
X94095D02*
D03*
X104095D02*
D03*
X114094D02*
D03*
X124094D02*
D03*
X134095D02*
D03*
X144095D02*
D03*
X154095D02*
D03*
X164094D02*
D03*
X174094D02*
D03*
D23*
X196850Y192677D02*
D03*
Y172677D02*
D03*
X186850Y182677D02*
D03*
X228661D02*
D03*
X238661Y172677D02*
D03*
Y192677D02*
D03*
X280772D02*
D03*
Y172677D02*
D03*
X270772Y182677D02*
D03*
X194331Y22047D02*
D03*
X204331Y12047D02*
D03*
Y32047D02*
D03*
D24*
X161102Y60158D02*
D03*
X151102D02*
D03*
X141102D02*
D03*
X131102D02*
D03*
X121102D02*
D03*
X111102D02*
D03*
X101102D02*
D03*
X91102D02*
D03*
X81102D02*
D03*
X71102D02*
D03*
X61102D02*
D03*
X51102D02*
D03*
X41102D02*
D03*
X31102D02*
D03*
Y90158D02*
D03*
X41102D02*
D03*
X51102D02*
D03*
X61102D02*
D03*
X71102D02*
D03*
X81102D02*
D03*
X91102D02*
D03*
X101102D02*
D03*
X111102D02*
D03*
X121102D02*
D03*
X131102D02*
D03*
X141102D02*
D03*
X151102D02*
D03*
D25*
X161102D02*
D03*
D26*
X8661Y8661D02*
D03*
Y203937D02*
D03*
X328740Y8661D02*
D03*
Y203937D02*
D03*
D27*
X31102Y105906D02*
D03*
X41102D02*
D03*
X51102D02*
D03*
X61102D02*
D03*
X71102D02*
D03*
X81102D02*
D03*
X91102D02*
D03*
X101102D02*
D03*
X111102D02*
D03*
X121102D02*
D03*
X131102D02*
D03*
X141102D02*
D03*
X151102D02*
D03*
Y44488D02*
D03*
X141102D02*
D03*
X131102D02*
D03*
X121102D02*
D03*
X111102D02*
D03*
X101102D02*
D03*
X91102D02*
D03*
X81102D02*
D03*
X71102D02*
D03*
X61102D02*
D03*
X51102D02*
D03*
X41102D02*
D03*
X31102D02*
D03*
D28*
X161102Y105906D02*
D03*
Y44488D02*
D03*
D29*
X304061Y39533D02*
D03*
X327683D02*
D03*
D30*
X315872Y58037D02*
D03*
D31*
X299252Y100591D02*
D03*
D32*
Y90748D02*
D03*
X307126D02*
D03*
Y100591D02*
D03*
D33*
X317795Y71969D02*
D03*
Y119370D02*
D03*
D34*
X15748Y104449D02*
D03*
Y94449D02*
D03*
X15748Y47244D02*
D03*
Y57244D02*
D03*
X194213Y59606D02*
D03*
X204213D02*
D03*
X214213D02*
D03*
Y89606D02*
D03*
X204213D02*
D03*
X194213D02*
D03*
X184213D02*
D03*
X194213Y105473D02*
D03*
X204213D02*
D03*
X214213D02*
D03*
Y135473D02*
D03*
X204213D02*
D03*
X194213D02*
D03*
X184213D02*
D03*
X251339Y101968D02*
D03*
X241339D02*
D03*
D35*
X15748Y84449D02*
D03*
X15748Y37244D02*
D03*
D36*
X286102Y84646D02*
D03*
X162205Y184764D02*
D03*
X129134D02*
D03*
X95669D02*
D03*
X62205Y184764D02*
D03*
X29291Y184764D02*
D03*
D37*
X276102Y84646D02*
D03*
D38*
X201969Y152756D02*
D03*
X211969D02*
D03*
D39*
X191969D02*
D03*
D40*
X184213Y59606D02*
D03*
Y105473D02*
D03*
X261339Y101968D02*
D03*
D41*
X309366Y170228D02*
D03*
Y180228D02*
D03*
D42*
Y190228D02*
D03*
D43*
X162205Y194764D02*
D03*
X129134D02*
D03*
X95669D02*
D03*
X62205Y194764D02*
D03*
X29291Y194764D02*
D03*
D44*
X135039Y119685D02*
D03*
X137008Y130708D02*
D03*
X70714Y154310D02*
D03*
X80004Y149170D02*
D03*
X109449Y68898D02*
D03*
X121653Y78347D02*
D03*
X172717Y28471D02*
D03*
X194563Y49513D02*
D03*
X245925Y27458D02*
D03*
X180763Y30236D02*
D03*
X248421Y12823D02*
D03*
X106200Y158562D02*
D03*
X118401Y163187D02*
D03*
X81102Y77559D02*
D03*
X225354Y115236D02*
D03*
X221958Y40787D02*
D03*
X224062Y56242D02*
D03*
X105700Y180200D02*
D03*
X124343Y153890D02*
D03*
X246700Y65256D02*
D03*
X171000Y128000D02*
D03*
X223300Y86614D02*
D03*
X218819Y25981D02*
D03*
X116142Y125038D02*
D03*
X178110Y205860D02*
D03*
X287008Y128347D02*
D03*
X256839Y72800D02*
D03*
X304000Y155600D02*
D03*
X171000Y136000D02*
D03*
X168600Y191100D02*
D03*
X246431Y83169D02*
D03*
X17100Y154600D02*
D03*
X226000Y20400D02*
D03*
X45000Y150300D02*
D03*
X175700Y157800D02*
D03*
X272900Y151200D02*
D03*
M02*
