G04*
G04 #@! TF.GenerationSoftware,Altium Limited,Altium Designer,20.2.5 (213)*
G04*
G04 Layer_Color=65535*
%FSLAX25Y25*%
%MOIN*%
G70*
G04*
G04 #@! TF.SameCoordinates,58A5799B-777F-4B07-89FE-91B8D634004C*
G04*
G04*
G04 #@! TF.FilePolarity,Positive*
G04*
G01*
G75*
%ADD10C,0.00984*%
%ADD11C,0.00787*%
%ADD12C,0.00787*%
%ADD13C,0.00600*%
%ADD14C,0.01000*%
%ADD15C,0.00394*%
D10*
X111795Y132087D02*
X111057Y132513D01*
Y131660D01*
X111795Y132087D01*
X281697Y114590D02*
X280959Y115016D01*
Y114164D01*
X281697Y114590D01*
X288878Y100591D02*
X288140Y101017D01*
Y100164D01*
X288878Y100591D01*
X11480Y132903D02*
X10742Y133329D01*
Y132477D01*
X11480Y132903D01*
X16339Y77126D02*
X15600Y77552D01*
Y76700D01*
X16339Y77126D01*
X16339Y29921D02*
X15600Y30347D01*
Y29495D01*
X16339Y29921D01*
X271555Y84646D02*
X270817Y85072D01*
Y84219D01*
X271555Y84646D01*
X186122Y152756D02*
X185384Y153182D01*
Y152330D01*
X186122Y152756D01*
X184724Y51339D02*
X183986Y51765D01*
Y50912D01*
X184724Y51339D01*
Y97205D02*
X183986Y97631D01*
Y96779D01*
X184724Y97205D01*
X269153Y102067D02*
X268415Y102493D01*
Y101641D01*
X269153Y102067D01*
X162697Y199803D02*
X161959Y200229D01*
Y199377D01*
X162697Y199803D01*
X129626D02*
X128888Y200229D01*
Y199377D01*
X129626Y199803D01*
X96161D02*
X95423Y200229D01*
Y199377D01*
X96161Y199803D01*
X62697D02*
X61959Y200229D01*
Y199377D01*
X62697Y199803D01*
X29783D02*
X29045Y200229D01*
Y199377D01*
X29783Y199803D01*
X144177Y132087D02*
X143438Y132513D01*
Y131660D01*
X144177Y132087D01*
X77641Y132480D02*
X76903Y132906D01*
Y132054D01*
X77641Y132480D01*
X43976Y132874D02*
X43238Y133300D01*
Y132448D01*
X43976Y132874D01*
D11*
X275984Y80236D02*
X276666Y79550D01*
X277439Y78968D01*
X278287Y78503D01*
X279193Y78164D01*
X280138Y77957D01*
X281102Y77888D01*
X282067Y77957D01*
X283012Y78164D01*
X283918Y78503D01*
X284766Y78968D01*
X285539Y79550D01*
X286221Y80236D01*
Y89055D02*
X285539Y89741D01*
X284766Y90323D01*
X283918Y90788D01*
X283012Y91128D01*
X282067Y91334D01*
X281102Y91403D01*
X280138Y91334D01*
X279193Y91128D01*
X278287Y90788D01*
X277439Y90323D01*
X276666Y89741D01*
X275984Y89055D01*
X195079Y147835D02*
X195710Y147052D01*
X196431Y146350D01*
X197229Y145739D01*
X198094Y145226D01*
X199014Y144820D01*
X199975Y144526D01*
X200965Y144347D01*
X201968Y144287D01*
X202972Y144347D01*
X203962Y144526D01*
X204923Y144820D01*
X205843Y145226D01*
X206708Y145739D01*
X207506Y146350D01*
X208226Y147052D01*
X208858Y147835D01*
X208858Y157677D02*
X208226Y158459D01*
X207506Y159161D01*
X206708Y159773D01*
X205843Y160285D01*
X204923Y160692D01*
X203962Y160986D01*
X202972Y161165D01*
X201968Y161224D01*
X200965Y161165D01*
X199975Y160986D01*
X199014Y160692D01*
X198094Y160285D01*
X197229Y159773D01*
X196430Y159161D01*
X195710Y158459D01*
X195079Y157677D01*
X157795Y194882D02*
X157109Y194200D01*
X156527Y193427D01*
X156062Y192579D01*
X155723Y191674D01*
X155517Y190728D01*
X155447Y189764D01*
X155517Y188799D01*
X155723Y187854D01*
X156062Y186948D01*
X156527Y186100D01*
X157109Y185327D01*
X157795Y184646D01*
X166614D02*
X167300Y185327D01*
X167882Y186100D01*
X168347Y186948D01*
X168687Y187854D01*
X168893Y188799D01*
X168962Y189764D01*
X168893Y190729D01*
X168687Y191674D01*
X168347Y192579D01*
X167882Y193427D01*
X167300Y194200D01*
X166614Y194882D01*
X124724D02*
X124038Y194200D01*
X123457Y193427D01*
X122991Y192579D01*
X122652Y191674D01*
X122446Y190728D01*
X122376Y189764D01*
X122446Y188799D01*
X122652Y187854D01*
X122991Y186948D01*
X123457Y186100D01*
X124038Y185327D01*
X124724Y184646D01*
X133543D02*
X134229Y185327D01*
X134811Y186100D01*
X135276Y186948D01*
X135616Y187854D01*
X135822Y188799D01*
X135891Y189764D01*
X135822Y190729D01*
X135616Y191674D01*
X135276Y192579D01*
X134811Y193427D01*
X134229Y194200D01*
X133543Y194882D01*
X91260D02*
X90574Y194200D01*
X89992Y193427D01*
X89527Y192579D01*
X89188Y191674D01*
X88981Y190728D01*
X88912Y189764D01*
X88981Y188799D01*
X89188Y187854D01*
X89527Y186948D01*
X89992Y186100D01*
X90574Y185327D01*
X91260Y184646D01*
X100079D02*
X100765Y185327D01*
X101347Y186100D01*
X101812Y186948D01*
X102151Y187854D01*
X102358Y188799D01*
X102427Y189764D01*
X102358Y190729D01*
X102151Y191674D01*
X101812Y192579D01*
X101347Y193427D01*
X100765Y194200D01*
X100079Y194882D01*
X57795D02*
X57109Y194200D01*
X56528Y193427D01*
X56062Y192579D01*
X55723Y191674D01*
X55516Y190728D01*
X55447Y189764D01*
X55516Y188799D01*
X55723Y187854D01*
X56062Y186948D01*
X56528Y186100D01*
X57109Y185327D01*
X57795Y184646D01*
X66614D02*
X67300Y185327D01*
X67882Y186100D01*
X68347Y186948D01*
X68687Y187854D01*
X68893Y188799D01*
X68962Y189764D01*
X68893Y190729D01*
X68686Y191674D01*
X68347Y192579D01*
X67882Y193427D01*
X67300Y194200D01*
X66614Y194882D01*
X24882D02*
X24196Y194200D01*
X23614Y193427D01*
X23149Y192579D01*
X22810Y191674D01*
X22603Y190728D01*
X22534Y189764D01*
X22603Y188799D01*
X22810Y187854D01*
X23149Y186948D01*
X23614Y186100D01*
X24196Y185327D01*
X24882Y184646D01*
X33701D02*
X34387Y185327D01*
X34969Y186100D01*
X35434Y186948D01*
X35773Y187854D01*
X35980Y188799D01*
X36049Y189764D01*
X35980Y190729D01*
X35773Y191674D01*
X35434Y192579D01*
X34969Y193427D01*
X34387Y194200D01*
X33701Y194882D01*
X161102Y95158D02*
X166102D01*
Y55158D02*
Y95158D01*
X26102Y55158D02*
Y95158D01*
X116142Y143898D02*
X125394D01*
X133169D02*
Y168701D01*
X116142D02*
X125394D01*
X108366Y143898D02*
Y168701D01*
X230984Y60036D02*
Y75036D01*
X221984D02*
X230984D01*
X221984Y60036D02*
X230984D01*
X221984D02*
Y75036D01*
X269394Y119429D02*
Y128681D01*
X244590Y136457D02*
X269394D01*
X244590Y119429D02*
Y128681D01*
Y111654D02*
X269394D01*
X283890Y45438D02*
Y49375D01*
X293732Y45438D02*
Y49375D01*
X25098Y101162D02*
X167106D01*
Y110650D01*
X25098D02*
X167106D01*
X25098Y101162D02*
Y110650D01*
X242913Y86614D02*
X261024D01*
Y46457D02*
Y86614D01*
X242913Y46457D02*
X261024D01*
X242913D02*
Y86614D01*
X234449Y85433D02*
X241535D01*
X300912Y21423D02*
Y28017D01*
Y51049D02*
Y57643D01*
X326404D02*
X358392D01*
X300912D02*
X305341D01*
X358392Y21423D02*
Y57643D01*
X300912Y21423D02*
X358392D01*
X290846Y71555D02*
Y119783D01*
X309429D01*
X290846Y71555D02*
X309429D01*
X326772Y119783D02*
X355512D01*
X326772Y71555D02*
X355512D01*
X8051Y144714D02*
Y169517D01*
X15827D02*
X25079D01*
X32854Y144714D02*
Y169517D01*
X15827Y144714D02*
X25079D01*
X10256Y78760D02*
X21240D01*
Y110138D01*
X10256D02*
X21240D01*
X10256Y78760D02*
Y110138D01*
Y31555D02*
Y62933D01*
X21240D01*
Y31555D02*
Y62933D01*
X10256Y31555D02*
X21240D01*
X215591Y163937D02*
Y201417D01*
X178110D02*
X215591D01*
X178110Y163937D02*
Y201417D01*
Y163937D02*
X215591D01*
X185591Y3307D02*
X223071D01*
X185591D02*
Y40787D01*
X223071D01*
Y3307D02*
Y40787D01*
X25098Y39744D02*
Y49232D01*
X167106D01*
Y39744D02*
Y49232D01*
X25098Y39744D02*
X167106D01*
X178819Y95000D02*
X219606D01*
Y54213D02*
Y95000D01*
X178819Y54213D02*
X219606D01*
X178819D02*
Y95000D01*
Y140866D02*
X219606D01*
Y100079D02*
Y140866D01*
X178819Y100079D02*
X219606D01*
X178819D02*
Y140866D01*
X304366Y195720D02*
X314366D01*
X304366Y164736D02*
Y195720D01*
Y164736D02*
X314366D01*
Y195720D01*
X235650Y96476D02*
X267028D01*
X235650D02*
Y107461D01*
X267028D01*
Y96476D02*
Y107461D01*
X262032Y163937D02*
X299512D01*
X262032D02*
Y201417D01*
X299512D01*
Y163937D02*
Y201417D01*
X219921Y163937D02*
X257402D01*
X219921D02*
Y201417D01*
X257402D01*
Y163937D02*
Y201417D01*
X148524Y143898D02*
X157776D01*
X165551D02*
Y168701D01*
X148524D02*
X157776D01*
X140748Y143898D02*
Y168701D01*
X81988Y144291D02*
X91240D01*
X99016D02*
Y169095D01*
X81988D02*
X91240D01*
X74213Y144291D02*
Y169095D01*
X40547Y144685D02*
Y169488D01*
X48323D02*
X57575D01*
X65350Y144685D02*
Y169488D01*
X48323Y144685D02*
X57575D01*
D12*
X207225Y204461D02*
D03*
X214705Y43831D02*
D03*
X291146Y204461D02*
D03*
X249036D02*
D03*
D13*
X255669Y2112D02*
X255288Y2949D01*
X254427Y3271D01*
X253590Y2890D01*
X253268Y2029D01*
X239469Y43321D02*
X269469D01*
X239469Y2121D02*
X255669D01*
X269469D01*
D14*
X8449Y48819D02*
Y57480D01*
Y37008D02*
Y45276D01*
Y96063D02*
Y104724D01*
Y84252D02*
Y92520D01*
X252756Y94094D02*
X262598D01*
X240157D02*
X249213D01*
X320250Y172040D02*
X319251Y173040D01*
X317251D01*
X316252Y172040D01*
Y168041D01*
X317251Y167042D01*
X319251D01*
X320250Y168041D01*
Y170041D01*
X318251D01*
X322250Y167042D02*
Y173040D01*
X326248Y167042D01*
Y173040D01*
X328248D02*
Y167042D01*
X331247D01*
X332246Y168041D01*
Y172040D01*
X331247Y173040D01*
X328248D01*
X228104Y142898D02*
Y138899D01*
Y140898D01*
X222106D01*
X228104Y132901D02*
Y136899D01*
X222106D01*
Y132901D01*
X225105Y136899D02*
Y134900D01*
X222106Y130902D02*
X228104D01*
X226105Y128902D01*
X228104Y126903D01*
X222106D01*
Y124903D02*
X228104D01*
Y121904D01*
X227104Y120905D01*
X225105D01*
X224105Y121904D01*
Y124903D01*
X171991Y95000D02*
X168992D01*
X167992Y94001D01*
Y91001D01*
X171991D01*
X172991Y85003D02*
X173990Y86003D01*
Y88003D01*
X172991Y89002D01*
X168992D01*
X167992Y88003D01*
Y86003D01*
X168992Y85003D01*
X5755Y44793D02*
X3756D01*
X2756Y43794D01*
Y39795D01*
X3756Y38795D01*
X5755D01*
X6755Y39795D01*
Y43794D01*
X5755Y44793D01*
X3937Y56604D02*
X5936D01*
X4937D01*
Y50606D01*
X3937D01*
X5936D01*
X5755Y92037D02*
X3756D01*
X2756Y91038D01*
Y87039D01*
X3756Y86039D01*
X5755D01*
X6755Y87039D01*
Y91038D01*
X5755Y92037D01*
X3937Y103849D02*
X5936D01*
X4937D01*
Y97850D01*
X3937D01*
X5936D01*
X320270Y193132D02*
X316271D01*
Y190133D01*
X318270Y191133D01*
X319270D01*
X320270Y190133D01*
Y188134D01*
X319270Y187134D01*
X317271D01*
X316271Y188134D01*
X316252Y182282D02*
X317251Y183282D01*
X319251D01*
X320250Y182282D01*
Y181282D01*
X319251Y180283D01*
X318251D01*
X319251D01*
X320250Y179283D01*
Y178283D01*
X319251Y177284D01*
X317251D01*
X316252Y178283D01*
X322250Y177284D02*
Y178283D01*
X323249D01*
Y177284D01*
X322250D01*
X327248Y182282D02*
X328248Y183282D01*
X330247D01*
X331247Y182282D01*
Y181282D01*
X330247Y180283D01*
X329247D01*
X330247D01*
X331247Y179283D01*
Y178283D01*
X330247Y177284D01*
X328248D01*
X327248Y178283D01*
X254592Y92125D02*
X253280D01*
X253936D01*
Y88845D01*
X253280Y88189D01*
X252625D01*
X251969Y88845D01*
X255904Y88189D02*
Y90813D01*
X257216Y92125D01*
X258528Y90813D01*
Y88189D01*
Y90157D01*
X255904D01*
X262464Y91469D02*
X261808Y92125D01*
X260496D01*
X259840Y91469D01*
Y88845D01*
X260496Y88189D01*
X261808D01*
X262464Y88845D01*
X263776Y92125D02*
Y88189D01*
Y89501D01*
X266400Y92125D01*
X264432Y90157D01*
X266400Y88189D01*
X236039Y92337D02*
Y89057D01*
X236695Y88402D01*
X238007D01*
X238663Y89057D01*
Y92337D01*
X242599Y91681D02*
X241943Y92337D01*
X240631D01*
X239975Y91681D01*
Y91025D01*
X240631Y90369D01*
X241943D01*
X242599Y89714D01*
Y89057D01*
X241943Y88402D01*
X240631D01*
X239975Y89057D01*
X243911Y92337D02*
Y88402D01*
X245879D01*
X246535Y89057D01*
Y89714D01*
X245879Y90369D01*
X243911D01*
X245879D01*
X246535Y91025D01*
Y91681D01*
X245879Y92337D01*
X243911D01*
X148244Y31615D02*
Y35614D01*
X152243Y31615D01*
X153243D01*
X154242Y32615D01*
Y34615D01*
X153243Y35614D01*
X154242Y29616D02*
Y25617D01*
X153243D01*
X149244Y29616D01*
X148244D01*
X158087Y31615D02*
Y35614D01*
X162085Y31615D01*
X163085D01*
X164085Y32615D01*
Y34615D01*
X163085Y35614D01*
Y29616D02*
X164085Y28616D01*
Y26617D01*
X163085Y25617D01*
X162085D01*
X161086Y26617D01*
X160086Y25617D01*
X159086D01*
X158087Y26617D01*
Y28616D01*
X159086Y29616D01*
X160086D01*
X161086Y28616D01*
X162085Y29616D01*
X163085D01*
X161086Y28616D02*
Y26617D01*
X158480Y116805D02*
Y114806D01*
Y115806D01*
X164478D01*
X163479Y116805D01*
X27772Y35614D02*
Y33615D01*
Y34615D01*
X33770D01*
X32770Y35614D01*
X33770Y26617D02*
Y30616D01*
X30771D01*
X31770Y28616D01*
Y27617D01*
X30771Y26617D01*
X28771D01*
X27772Y27617D01*
Y29616D01*
X28771Y30616D01*
X38008Y35614D02*
Y33615D01*
Y34615D01*
X44006D01*
X43006Y35614D01*
X44006Y26617D02*
X43006Y28616D01*
X41007Y30616D01*
X39008D01*
X38008Y29616D01*
Y27617D01*
X39008Y26617D01*
X40007D01*
X41007Y27617D01*
Y30616D01*
X47850Y35614D02*
Y33615D01*
Y34615D01*
X53848D01*
X52849Y35614D01*
X53848Y30616D02*
Y26617D01*
X52849D01*
X48850Y30616D01*
X47850D01*
X58087Y35614D02*
Y33615D01*
Y34615D01*
X64085D01*
X63085Y35614D01*
Y30616D02*
X64085Y29616D01*
Y27617D01*
X63085Y26617D01*
X62085D01*
X61086Y27617D01*
X60086Y26617D01*
X59086D01*
X58087Y27617D01*
Y29616D01*
X59086Y30616D01*
X60086D01*
X61086Y29616D01*
X62085Y30616D01*
X63085D01*
X61086Y29616D02*
Y27617D01*
X67929Y35614D02*
Y33615D01*
Y34615D01*
X73927D01*
X72927Y35614D01*
X68929Y30616D02*
X67929Y29616D01*
Y27617D01*
X68929Y26617D01*
X72927D01*
X73927Y27617D01*
Y29616D01*
X72927Y30616D01*
X71928D01*
X70928Y29616D01*
Y26617D01*
X78165Y31615D02*
Y35614D01*
X82164Y31615D01*
X83164D01*
X84163Y32615D01*
Y34615D01*
X83164Y35614D01*
Y29616D02*
X84163Y28616D01*
Y26617D01*
X83164Y25617D01*
X79165D01*
X78165Y26617D01*
Y28616D01*
X79165Y29616D01*
X83164D01*
X88008Y31615D02*
Y35614D01*
X92007Y31615D01*
X93006D01*
X94006Y32615D01*
Y34615D01*
X93006Y35614D01*
X88008Y29616D02*
Y27617D01*
Y28616D01*
X94006D01*
X93006Y29616D01*
X98244Y31615D02*
Y35614D01*
X102243Y31615D01*
X103243D01*
X104242Y32615D01*
Y34615D01*
X103243Y35614D01*
X98244Y25617D02*
Y29616D01*
X102243Y25617D01*
X103243D01*
X104242Y26617D01*
Y28616D01*
X103243Y29616D01*
X108087Y31615D02*
Y35614D01*
X112085Y31615D01*
X113085D01*
X114085Y32615D01*
Y34615D01*
X113085Y35614D01*
Y29616D02*
X114085Y28616D01*
Y26617D01*
X113085Y25617D01*
X112085D01*
X111086Y26617D01*
Y27617D01*
Y26617D01*
X110086Y25617D01*
X109086D01*
X108087Y26617D01*
Y28616D01*
X109086Y29616D01*
X117929Y31615D02*
Y35614D01*
X121928Y31615D01*
X122927D01*
X123927Y32615D01*
Y34615D01*
X122927Y35614D01*
X117929Y26617D02*
X123927D01*
X120928Y29616D01*
Y25617D01*
X127772Y31615D02*
Y35614D01*
X131770Y31615D01*
X132770D01*
X133770Y32615D01*
Y34615D01*
X132770Y35614D01*
X133770Y25617D02*
Y29616D01*
X130771D01*
X131770Y27617D01*
Y26617D01*
X130771Y25617D01*
X128771D01*
X127772Y26617D01*
Y28616D01*
X128771Y29616D01*
X138008Y31615D02*
Y35614D01*
X142007Y31615D01*
X143006D01*
X144006Y32615D01*
Y34615D01*
X143006Y35614D01*
X144006Y25617D02*
X143006Y27617D01*
X141007Y29616D01*
X139008D01*
X138008Y28616D01*
Y26617D01*
X139008Y25617D01*
X140007D01*
X141007Y26617D01*
Y29616D01*
X148244Y114806D02*
Y118805D01*
X152243Y114806D01*
X153243D01*
X154242Y115806D01*
Y117805D01*
X153243Y118805D01*
X143006D02*
X144006Y117805D01*
Y115806D01*
X143006Y114806D01*
X142007D01*
X141007Y115806D01*
Y116805D01*
Y115806D01*
X140007Y114806D01*
X139008D01*
X138008Y115806D01*
Y117805D01*
X139008Y118805D01*
X128165Y115806D02*
X134163D01*
X131164Y118805D01*
Y114806D01*
X124321D02*
Y118805D01*
X121322D01*
X122322Y116805D01*
Y115806D01*
X121322Y114806D01*
X119323D01*
X118323Y115806D01*
Y117805D01*
X119323Y118805D01*
X114085Y114806D02*
X113085Y116805D01*
X111086Y118805D01*
X109086D01*
X108087Y117805D01*
Y115806D01*
X109086Y114806D01*
X110086D01*
X111086Y115806D01*
Y118805D01*
X104242D02*
Y114806D01*
X103243D01*
X99244Y118805D01*
X98244D01*
X93006D02*
X94006Y117805D01*
Y115806D01*
X93006Y114806D01*
X92007D01*
X91007Y115806D01*
X90007Y114806D01*
X89008D01*
X88008Y115806D01*
Y117805D01*
X89008Y118805D01*
X90007D01*
X91007Y117805D01*
X92007Y118805D01*
X93006D01*
X91007Y117805D02*
Y115806D01*
X79165Y118805D02*
X78165Y117805D01*
Y115806D01*
X79165Y114806D01*
X83164D01*
X84163Y115806D01*
Y117805D01*
X83164Y118805D01*
X82164D01*
X81164Y117805D01*
Y114806D01*
X68323Y123803D02*
Y121804D01*
Y122803D01*
X74321D01*
X73321Y123803D01*
Y118805D02*
X74321Y117805D01*
Y115806D01*
X73321Y114806D01*
X69323D01*
X68323Y115806D01*
Y117805D01*
X69323Y118805D01*
X73321D01*
X58087Y121804D02*
Y119804D01*
Y120804D01*
X64085D01*
X63085Y121804D01*
X58087Y116805D02*
Y114806D01*
Y115806D01*
X64085D01*
X63085Y116805D01*
X47850Y123803D02*
Y121804D01*
Y122803D01*
X53848D01*
X52849Y123803D01*
X47850Y114806D02*
Y118805D01*
X51849Y114806D01*
X52849D01*
X53848Y115806D01*
Y117805D01*
X52849Y118805D01*
X38008Y123803D02*
Y121804D01*
Y122803D01*
X44006D01*
X43006Y123803D01*
Y118805D02*
X44006Y117805D01*
Y115806D01*
X43006Y114806D01*
X42007D01*
X41007Y115806D01*
Y116805D01*
Y115806D01*
X40007Y114806D01*
X39008D01*
X38008Y115806D01*
Y117805D01*
X39008Y118805D01*
X28559Y123803D02*
Y121804D01*
Y122803D01*
X34557D01*
X33557Y123803D01*
X28559Y115806D02*
X34557D01*
X31558Y118805D01*
Y114806D01*
X226529Y92369D02*
X232527D01*
Y89370D01*
X231527Y88371D01*
X229528D01*
X228528Y89370D01*
Y92369D01*
Y90370D02*
X226529Y88371D01*
X231527Y86371D02*
X232527Y85372D01*
Y83372D01*
X231527Y82373D01*
X230527D01*
X229528Y83372D01*
Y84372D01*
Y83372D01*
X228528Y82373D01*
X227528D01*
X226529Y83372D01*
Y85372D01*
X227528Y86371D01*
X231527Y80373D02*
X232527Y79374D01*
Y77374D01*
X231527Y76375D01*
X227528D01*
X226529Y77374D01*
Y79374D01*
X227528Y80373D01*
X231527D01*
X287654Y62577D02*
X286654Y63577D01*
X284655D01*
X283655Y62577D01*
Y58578D01*
X284655Y57579D01*
X286654D01*
X287654Y58578D01*
X289653Y62577D02*
X290653Y63577D01*
X292652D01*
X293652Y62577D01*
Y61577D01*
X292652Y60578D01*
X291652D01*
X292652D01*
X293652Y59578D01*
Y58578D01*
X292652Y57579D01*
X290653D01*
X289653Y58578D01*
X272248Y73813D02*
X274247D01*
X273248D01*
Y67815D01*
X272248D01*
X274247D01*
X281245Y72813D02*
X280245Y73813D01*
X278246D01*
X277246Y72813D01*
Y68815D01*
X278246Y67815D01*
X280245D01*
X281245Y68815D01*
X287243Y73813D02*
X285244Y72813D01*
X283244Y70814D01*
Y68815D01*
X284244Y67815D01*
X286244D01*
X287243Y68815D01*
Y69814D01*
X286244Y70814D01*
X283244D01*
X278983Y100978D02*
X276984D01*
X275984Y99979D01*
Y95980D01*
X276984Y94980D01*
X278983D01*
X279983Y95980D01*
Y99979D01*
X278983Y100978D01*
X281982Y94980D02*
Y100978D01*
X285981Y94980D01*
Y100978D01*
X292520Y130014D02*
Y125015D01*
X293519Y124016D01*
X295519D01*
X296518Y125015D01*
Y130014D01*
X302517Y129014D02*
X301517Y130014D01*
X299517D01*
X298518Y129014D01*
Y128015D01*
X299517Y127015D01*
X301517D01*
X302517Y126015D01*
Y125015D01*
X301517Y124016D01*
X299517D01*
X298518Y125015D01*
X304516Y130014D02*
Y124016D01*
X307515D01*
X308514Y125015D01*
Y126015D01*
X307515Y127015D01*
X304516D01*
X307515D01*
X308514Y128015D01*
Y129014D01*
X307515Y130014D01*
X304516D01*
X229353Y105604D02*
X227354D01*
X228353D01*
Y100606D01*
X227354Y99606D01*
X226354D01*
X225354Y100606D01*
X231352Y99606D02*
X233352D01*
X232352D01*
Y105604D01*
X231352Y104605D01*
X307936Y204423D02*
X305936D01*
X306936D01*
Y199425D01*
X305936Y198425D01*
X304937D01*
X303937Y199425D01*
X313934Y198425D02*
X309935D01*
X313934Y202424D01*
Y203424D01*
X312934Y204423D01*
X310935D01*
X309935Y203424D01*
X12267Y118109D02*
X11267Y119108D01*
X9267D01*
X8268Y118109D01*
Y117109D01*
X9267Y116109D01*
X11267D01*
X12267Y115110D01*
Y114110D01*
X11267Y113110D01*
X9267D01*
X8268Y114110D01*
X14266Y119108D02*
Y113110D01*
X16265Y115110D01*
X18264Y113110D01*
Y119108D01*
X24263D02*
X20264D01*
Y116109D01*
X22263Y117109D01*
X23263D01*
X24263Y116109D01*
Y114110D01*
X23263Y113110D01*
X21264D01*
X20264Y114110D01*
X11479Y71140D02*
X10479Y72140D01*
X8480D01*
X7480Y71140D01*
Y70140D01*
X8480Y69141D01*
X10479D01*
X11479Y68141D01*
Y67141D01*
X10479Y66142D01*
X8480D01*
X7480Y67141D01*
X13478Y72140D02*
Y66142D01*
X15478Y68141D01*
X17477Y66142D01*
Y72140D01*
X22476Y66142D02*
Y72140D01*
X19476Y69141D01*
X23475D01*
X169291Y70866D02*
X175289D01*
X173290Y68867D01*
X175289Y66867D01*
X169291D01*
X175289Y60869D02*
Y64868D01*
X169291D01*
Y60869D01*
X172290Y64868D02*
Y62869D01*
X169291Y58870D02*
X175289D01*
X173290Y56871D01*
X175289Y54871D01*
X169291D01*
X166220Y24895D02*
Y18898D01*
X170219D01*
X176217Y23896D02*
X175218Y24895D01*
X173218D01*
X172219Y23896D01*
Y19897D01*
X173218Y18898D01*
X175218D01*
X176217Y19897D01*
X178217Y24895D02*
Y18898D01*
X181216D01*
X182215Y19897D01*
Y23896D01*
X181216Y24895D01*
X178217D01*
X173448Y47337D02*
X171448D01*
X172448D01*
Y42338D01*
X171448Y41339D01*
X170449D01*
X169449Y42338D01*
X179446Y47337D02*
X175447D01*
Y44338D01*
X177446Y45337D01*
X178446D01*
X179446Y44338D01*
Y42338D01*
X178446Y41339D01*
X176447D01*
X175447Y42338D01*
X170928Y119384D02*
X168929D01*
X169928D01*
Y114385D01*
X168929Y113386D01*
X167929D01*
X166929Y114385D01*
X175926Y113386D02*
Y119384D01*
X172927Y116385D01*
X176926D01*
X301280Y18857D02*
Y12859D01*
X304279D01*
X305278Y13859D01*
Y17858D01*
X304279Y18857D01*
X301280D01*
X311276Y17858D02*
X310277Y18857D01*
X308277D01*
X307278Y17858D01*
Y13859D01*
X308277Y12859D01*
X310277D01*
X311276Y13859D01*
X281709Y9919D02*
X283708D01*
X282708D01*
Y3921D01*
X281709D01*
X283708D01*
X290706Y8920D02*
X289706Y9919D01*
X287707D01*
X286707Y8920D01*
Y4921D01*
X287707Y3921D01*
X289706D01*
X290706Y4921D01*
X295704Y3921D02*
Y9919D01*
X292705Y6920D01*
X296704D01*
X218898Y155604D02*
Y149606D01*
X221897D01*
X222896Y150606D01*
Y151606D01*
X221897Y152605D01*
X218898D01*
X221897D01*
X222896Y153605D01*
Y154605D01*
X221897Y155604D01*
X218898D01*
X224896D02*
X226895D01*
X225895D01*
Y149606D01*
X224896D01*
X226895D01*
X229894D02*
Y150606D01*
X230894D01*
Y149606D01*
X229894D01*
X234892Y155604D02*
Y149606D01*
X238891D01*
X244889Y155604D02*
X240890D01*
Y149606D01*
X244889D01*
X240890Y152605D02*
X242890D01*
X246888Y155604D02*
Y149606D01*
X249887D01*
X250887Y150606D01*
Y154605D01*
X249887Y155604D01*
X246888D01*
X18504Y208360D02*
Y202362D01*
X22503D01*
X28501Y208360D02*
X24502D01*
Y202362D01*
X28501D01*
X24502Y205361D02*
X26501D01*
X30500Y208360D02*
Y202362D01*
X33499D01*
X34499Y203362D01*
Y207361D01*
X33499Y208360D01*
X30500D01*
X40497D02*
X36498D01*
Y205361D01*
X38497Y206361D01*
X39497D01*
X40497Y205361D01*
Y203362D01*
X39497Y202362D01*
X37498D01*
X36498Y203362D01*
X51181Y208360D02*
Y202362D01*
X55180D01*
X61178Y208360D02*
X57179D01*
Y202362D01*
X61178D01*
X57179Y205361D02*
X59179D01*
X63177Y208360D02*
Y202362D01*
X66176D01*
X67176Y203362D01*
Y207361D01*
X66176Y208360D01*
X63177D01*
X72174Y202362D02*
Y208360D01*
X69175Y205361D01*
X73174D01*
X85039Y208360D02*
Y202362D01*
X89038D01*
X95036Y208360D02*
X91037D01*
Y202362D01*
X95036D01*
X91037Y205361D02*
X93037D01*
X97035Y208360D02*
Y202362D01*
X100034D01*
X101034Y203362D01*
Y207361D01*
X100034Y208360D01*
X97035D01*
X103033Y207361D02*
X104033Y208360D01*
X106033D01*
X107032Y207361D01*
Y206361D01*
X106033Y205361D01*
X105033D01*
X106033D01*
X107032Y204362D01*
Y203362D01*
X106033Y202362D01*
X104033D01*
X103033Y203362D01*
X118110Y208360D02*
Y202362D01*
X122109D01*
X128107Y208360D02*
X124108D01*
Y202362D01*
X128107D01*
X124108Y205361D02*
X126108D01*
X130106Y208360D02*
Y202362D01*
X133105D01*
X134105Y203362D01*
Y207361D01*
X133105Y208360D01*
X130106D01*
X140103Y202362D02*
X136104D01*
X140103Y206361D01*
Y207361D01*
X139103Y208360D01*
X137104D01*
X136104Y207361D01*
X151969Y208360D02*
Y202362D01*
X155967D01*
X161965Y208360D02*
X157967D01*
Y202362D01*
X161965D01*
X157967Y205361D02*
X159966D01*
X163965Y208360D02*
Y202362D01*
X166964D01*
X167963Y203362D01*
Y207361D01*
X166964Y208360D01*
X163965D01*
X169963Y202362D02*
X171962D01*
X170962D01*
Y208360D01*
X169963Y207361D01*
X6673Y188704D02*
Y182706D01*
X9672D01*
X10672Y183706D01*
Y184705D01*
X9672Y185705D01*
X6673D01*
X9672D01*
X10672Y186705D01*
Y187704D01*
X9672Y188704D01*
X6673D01*
X16670D02*
X12671D01*
Y185705D01*
X14671Y186705D01*
X15670D01*
X16670Y185705D01*
Y183706D01*
X15670Y182706D01*
X13671D01*
X12671Y183706D01*
X40795Y188923D02*
Y182924D01*
X43794D01*
X44793Y183924D01*
Y184924D01*
X43794Y185924D01*
X40795D01*
X43794D01*
X44793Y186923D01*
Y187923D01*
X43794Y188923D01*
X40795D01*
X49792Y182924D02*
Y188923D01*
X46793Y185924D01*
X50791D01*
X74387Y188516D02*
Y182518D01*
X77386D01*
X78386Y183518D01*
Y184518D01*
X77386Y185517D01*
X74387D01*
X77386D01*
X78386Y186517D01*
Y187516D01*
X77386Y188516D01*
X74387D01*
X80386Y187516D02*
X81385Y188516D01*
X83385D01*
X84384Y187516D01*
Y186517D01*
X83385Y185517D01*
X82385D01*
X83385D01*
X84384Y184518D01*
Y183518D01*
X83385Y182518D01*
X81385D01*
X80386Y183518D01*
X108550Y188135D02*
Y182137D01*
X111549D01*
X112548Y183137D01*
Y184136D01*
X111549Y185136D01*
X108550D01*
X111549D01*
X112548Y186136D01*
Y187135D01*
X111549Y188135D01*
X108550D01*
X118546Y182137D02*
X114548D01*
X118546Y186136D01*
Y187135D01*
X117547Y188135D01*
X115547D01*
X114548Y187135D01*
X140950Y188135D02*
Y182137D01*
X143949D01*
X144948Y183137D01*
Y184136D01*
X143949Y185136D01*
X140950D01*
X143949D01*
X144948Y186136D01*
Y187135D01*
X143949Y188135D01*
X140950D01*
X146948Y182137D02*
X148947D01*
X147947D01*
Y188135D01*
X146948Y187135D01*
X243100Y138971D02*
Y144969D01*
X246099D01*
X247099Y143969D01*
Y141970D01*
X246099Y140970D01*
X243100D01*
X245099D02*
X247099Y138971D01*
X253097Y144969D02*
X249098D01*
Y138971D01*
X253097D01*
X249098Y141970D02*
X251097D01*
X259095Y143969D02*
X258095Y144969D01*
X256096D01*
X255096Y143969D01*
Y142969D01*
X256096Y141970D01*
X258095D01*
X259095Y140970D01*
Y139970D01*
X258095Y138971D01*
X256096D01*
X255096Y139970D01*
X265093Y144969D02*
X261094D01*
Y138971D01*
X265093D01*
X261094Y141970D02*
X263093D01*
X267092Y144969D02*
X271091D01*
X269092D01*
Y138971D01*
X190945Y49305D02*
Y43307D01*
X193944D01*
X194944Y44307D01*
Y45306D01*
X193944Y46306D01*
X190945D01*
X193944D01*
X194944Y47306D01*
Y48305D01*
X193944Y49305D01*
X190945D01*
X196943Y43307D02*
Y49305D01*
X199942D01*
X200942Y48305D01*
Y46306D01*
X199942Y45306D01*
X196943D01*
X198942D02*
X200942Y43307D01*
X202941Y49305D02*
X206940D01*
X204940D01*
Y43307D01*
X269197Y203346D02*
Y209345D01*
X272196D01*
X273196Y208345D01*
Y206346D01*
X272196Y205346D01*
X269197D01*
X278194Y209345D02*
X276195D01*
X275195Y208345D01*
Y204346D01*
X276195Y203346D01*
X278194D01*
X279194Y204346D01*
Y208345D01*
X278194Y209345D01*
X281193D02*
X285192D01*
X283193D01*
Y203346D01*
X287191Y208345D02*
X288191Y209345D01*
X290190D01*
X291190Y208345D01*
Y207345D01*
X290190Y206346D01*
X289191D01*
X290190D01*
X291190Y205346D01*
Y204346D01*
X290190Y203346D01*
X288191D01*
X287191Y204346D01*
X226378Y203346D02*
Y209345D01*
X229377D01*
X230377Y208345D01*
Y206346D01*
X229377Y205346D01*
X226378D01*
X235375Y209345D02*
X233376D01*
X232376Y208345D01*
Y204346D01*
X233376Y203346D01*
X235375D01*
X236375Y204346D01*
Y208345D01*
X235375Y209345D01*
X238374D02*
X242373D01*
X240373D01*
Y203346D01*
X248371D02*
X244372D01*
X248371Y207345D01*
Y208345D01*
X247371Y209345D01*
X245372D01*
X244372Y208345D01*
X186614Y203150D02*
Y209148D01*
X189613D01*
X190613Y208148D01*
Y206149D01*
X189613Y205149D01*
X186614D01*
X195611Y209148D02*
X193612D01*
X192612Y208148D01*
Y204149D01*
X193612Y203150D01*
X195611D01*
X196611Y204149D01*
Y208148D01*
X195611Y209148D01*
X198610D02*
X202609D01*
X200610D01*
Y203150D01*
X204608D02*
X206608D01*
X205608D01*
Y209148D01*
X204608Y208148D01*
D15*
X19094Y7205D02*
X179094D01*
X19094D02*
Y17205D01*
X179094D01*
Y7205D02*
Y17205D01*
M02*
