G04*
G04 #@! TF.GenerationSoftware,Altium Limited,Altium Designer,20.2.5 (213)*
G04*
G04 Layer_Color=8388736*
%FSLAX25Y25*%
%MOIN*%
G70*
G04*
G04 #@! TF.SameCoordinates,58A5799B-777F-4B07-89FE-91B8D634004C*
G04*
G04*
G04 #@! TF.FilePolarity,Positive*
G04*
G01*
G75*
%ADD11C,0.00787*%
G36*
X120768Y158491D02*
X120764D01*
X120749D01*
X120728D01*
X120698Y158494D01*
X120666Y158498D01*
X120629Y158505D01*
X120593Y158512D01*
X120553Y158527D01*
X120549D01*
X120546Y158530D01*
X120524Y158538D01*
X120491Y158552D01*
X120447Y158574D01*
X120396Y158603D01*
X120338Y158640D01*
X120280Y158680D01*
X120218Y158731D01*
X120214D01*
X120211Y158738D01*
X120189Y158756D01*
X120156Y158789D01*
X120109Y158836D01*
X120054Y158891D01*
X119989Y158960D01*
X119916Y159044D01*
X119840Y159135D01*
X119836Y159138D01*
X119825Y159153D01*
X119807Y159175D01*
X119785Y159200D01*
X119756Y159233D01*
X119723Y159273D01*
X119687Y159313D01*
X119647Y159360D01*
X119559Y159451D01*
X119472Y159542D01*
X119428Y159586D01*
X119385Y159626D01*
X119344Y159663D01*
X119304Y159692D01*
X119301D01*
X119297Y159699D01*
X119286Y159706D01*
X119272Y159713D01*
X119232Y159739D01*
X119184Y159768D01*
X119126Y159794D01*
X119064Y159819D01*
X118995Y159834D01*
X118930Y159841D01*
X118926D01*
X118922D01*
X118900Y159837D01*
X118864Y159834D01*
X118824Y159823D01*
X118773Y159808D01*
X118722Y159783D01*
X118671Y159750D01*
X118620Y159706D01*
X118613Y159699D01*
X118598Y159681D01*
X118580Y159655D01*
X118555Y159615D01*
X118533Y159564D01*
X118511Y159506D01*
X118496Y159437D01*
X118493Y159360D01*
Y159339D01*
X118496Y159324D01*
X118500Y159280D01*
X118511Y159229D01*
X118526Y159175D01*
X118551Y159113D01*
X118584Y159055D01*
X118627Y159000D01*
X118635Y158993D01*
X118653Y158978D01*
X118682Y158956D01*
X118726Y158935D01*
X118777Y158909D01*
X118842Y158887D01*
X118915Y158873D01*
X118999Y158865D01*
X118966Y158549D01*
X118962D01*
X118951Y158552D01*
X118933D01*
X118908Y158556D01*
X118878Y158563D01*
X118846Y158571D01*
X118806Y158581D01*
X118766Y158592D01*
X118678Y158622D01*
X118591Y158665D01*
X118547Y158691D01*
X118504Y158723D01*
X118464Y158756D01*
X118427Y158793D01*
X118423Y158796D01*
X118420Y158803D01*
X118409Y158814D01*
X118398Y158833D01*
X118384Y158854D01*
X118369Y158880D01*
X118351Y158909D01*
X118333Y158946D01*
X118314Y158985D01*
X118296Y159029D01*
X118282Y159076D01*
X118267Y159127D01*
X118256Y159182D01*
X118245Y159240D01*
X118242Y159302D01*
X118238Y159368D01*
Y159404D01*
X118242Y159430D01*
X118245Y159459D01*
X118249Y159495D01*
X118256Y159535D01*
X118263Y159575D01*
X118289Y159670D01*
X118325Y159765D01*
X118347Y159812D01*
X118373Y159859D01*
X118405Y159903D01*
X118442Y159943D01*
X118445Y159947D01*
X118449Y159954D01*
X118464Y159961D01*
X118478Y159976D01*
X118496Y159994D01*
X118522Y160012D01*
X118547Y160030D01*
X118580Y160052D01*
X118649Y160088D01*
X118737Y160125D01*
X118780Y160139D01*
X118831Y160147D01*
X118882Y160154D01*
X118937Y160158D01*
X118944D01*
X118962D01*
X118991Y160154D01*
X119031Y160150D01*
X119075Y160143D01*
X119126Y160128D01*
X119181Y160114D01*
X119235Y160092D01*
X119243Y160088D01*
X119261Y160081D01*
X119290Y160067D01*
X119330Y160045D01*
X119374Y160016D01*
X119428Y159979D01*
X119483Y159936D01*
X119545Y159885D01*
X119552Y159877D01*
X119574Y159859D01*
X119592Y159841D01*
X119610Y159823D01*
X119632Y159801D01*
X119661Y159772D01*
X119690Y159743D01*
X119723Y159706D01*
X119759Y159670D01*
X119799Y159626D01*
X119840Y159579D01*
X119887Y159528D01*
X119934Y159470D01*
X119985Y159411D01*
X119989Y159408D01*
X119996Y159400D01*
X120007Y159386D01*
X120021Y159368D01*
X120043Y159346D01*
X120065Y159320D01*
X120113Y159262D01*
X120167Y159200D01*
X120222Y159142D01*
X120269Y159091D01*
X120287Y159069D01*
X120305Y159051D01*
X120309Y159047D01*
X120320Y159037D01*
X120334Y159022D01*
X120356Y159004D01*
X120382Y158985D01*
X120407Y158964D01*
X120469Y158920D01*
Y160161D01*
X120768D01*
Y158491D01*
D02*
G37*
G36*
X120102Y158199D02*
X120145Y158192D01*
X120196Y158185D01*
X120251Y158170D01*
X120309Y158152D01*
X120367Y158126D01*
X120375Y158123D01*
X120393Y158112D01*
X120418Y158097D01*
X120455Y158075D01*
X120491Y158046D01*
X120531Y158017D01*
X120571Y157981D01*
X120604Y157941D01*
X120607Y157937D01*
X120618Y157923D01*
X120633Y157897D01*
X120648Y157864D01*
X120669Y157824D01*
X120691Y157777D01*
X120709Y157726D01*
X120728Y157664D01*
Y157657D01*
X120735Y157635D01*
X120739Y157599D01*
X120746Y157551D01*
X120753Y157493D01*
X120760Y157424D01*
X120764Y157348D01*
X120768Y157260D01*
Y156299D01*
X118249D01*
Y157289D01*
X118252Y157315D01*
Y157344D01*
X118260Y157409D01*
X118267Y157482D01*
X118282Y157559D01*
X118300Y157635D01*
X118325Y157704D01*
Y157708D01*
X118329Y157712D01*
X118340Y157733D01*
X118358Y157766D01*
X118384Y157802D01*
X118416Y157846D01*
X118456Y157894D01*
X118507Y157937D01*
X118562Y157977D01*
X118569Y157981D01*
X118591Y157992D01*
X118620Y158010D01*
X118664Y158028D01*
X118715Y158046D01*
X118769Y158065D01*
X118831Y158075D01*
X118893Y158079D01*
X118900D01*
X118919D01*
X118951Y158075D01*
X118991Y158068D01*
X119039Y158057D01*
X119090Y158039D01*
X119141Y158017D01*
X119195Y157988D01*
X119202Y157984D01*
X119217Y157974D01*
X119246Y157952D01*
X119275Y157923D01*
X119312Y157886D01*
X119352Y157843D01*
X119388Y157788D01*
X119424Y157726D01*
Y157730D01*
X119428Y157737D01*
X119432Y157748D01*
X119439Y157763D01*
X119454Y157806D01*
X119479Y157857D01*
X119512Y157912D01*
X119552Y157974D01*
X119599Y158028D01*
X119658Y158079D01*
X119665Y158083D01*
X119687Y158097D01*
X119719Y158119D01*
X119763Y158141D01*
X119821Y158163D01*
X119883Y158185D01*
X119956Y158199D01*
X120036Y158203D01*
X120040D01*
X120043D01*
X120065D01*
X120102Y158199D01*
D02*
G37*
G36*
X251237Y124095D02*
X251270D01*
X251306Y124092D01*
X251350Y124088D01*
X251441Y124073D01*
X251536Y124059D01*
X251630Y124033D01*
X251721Y124001D01*
X251725D01*
X251732Y123997D01*
X251743Y123990D01*
X251758Y123982D01*
X251801Y123961D01*
X251852Y123928D01*
X251911Y123884D01*
X251972Y123833D01*
X252031Y123771D01*
X252085Y123702D01*
Y123698D01*
X252093Y123691D01*
X252096Y123680D01*
X252107Y123666D01*
X252114Y123647D01*
X252125Y123626D01*
X252151Y123571D01*
X252176Y123502D01*
X252198Y123425D01*
X252213Y123338D01*
X252220Y123247D01*
X251907Y123218D01*
Y123222D01*
Y123225D01*
X251903Y123236D01*
Y123251D01*
X251896Y123284D01*
X251885Y123331D01*
X251870Y123378D01*
X251856Y123433D01*
X251831Y123484D01*
X251805Y123531D01*
X251801Y123535D01*
X251790Y123549D01*
X251772Y123575D01*
X251743Y123600D01*
X251707Y123633D01*
X251667Y123666D01*
X251612Y123698D01*
X251554Y123728D01*
X251550D01*
X251547Y123731D01*
X251536Y123735D01*
X251525Y123739D01*
X251488Y123749D01*
X251441Y123764D01*
X251383Y123779D01*
X251317Y123790D01*
X251244Y123797D01*
X251164Y123800D01*
X251132D01*
X251095Y123797D01*
X251051Y123793D01*
X251001Y123786D01*
X250942Y123779D01*
X250884Y123764D01*
X250830Y123746D01*
X250822Y123742D01*
X250804Y123735D01*
X250779Y123720D01*
X250746Y123706D01*
X250713Y123680D01*
X250677Y123655D01*
X250640Y123626D01*
X250611Y123589D01*
X250607Y123586D01*
X250600Y123571D01*
X250589Y123553D01*
X250575Y123524D01*
X250560Y123495D01*
X250549Y123458D01*
X250542Y123418D01*
X250538Y123374D01*
Y123371D01*
Y123353D01*
X250542Y123331D01*
X250546Y123302D01*
X250556Y123273D01*
X250567Y123236D01*
X250586Y123200D01*
X250611Y123167D01*
X250615Y123163D01*
X250626Y123152D01*
X250640Y123138D01*
X250666Y123116D01*
X250695Y123094D01*
X250735Y123069D01*
X250782Y123043D01*
X250837Y123021D01*
X250840Y123018D01*
X250859Y123014D01*
X250888Y123003D01*
X250906Y123000D01*
X250931Y122992D01*
X250957Y122981D01*
X250990Y122974D01*
X251026Y122963D01*
X251070Y122952D01*
X251113Y122941D01*
X251164Y122927D01*
X251223Y122912D01*
X251285Y122898D01*
X251288D01*
X251299Y122894D01*
X251317Y122890D01*
X251339Y122883D01*
X251368Y122876D01*
X251401Y122869D01*
X251474Y122847D01*
X251554Y122821D01*
X251638Y122796D01*
X251710Y122770D01*
X251743Y122756D01*
X251772Y122741D01*
X251776D01*
X251780Y122738D01*
X251801Y122723D01*
X251834Y122705D01*
X251870Y122676D01*
X251914Y122643D01*
X251958Y122603D01*
X252002Y122555D01*
X252038Y122505D01*
X252042Y122497D01*
X252052Y122479D01*
X252067Y122450D01*
X252082Y122414D01*
X252096Y122366D01*
X252111Y122312D01*
X252122Y122253D01*
X252125Y122192D01*
Y122188D01*
Y122184D01*
Y122173D01*
Y122159D01*
X252118Y122122D01*
X252111Y122075D01*
X252100Y122020D01*
X252082Y121959D01*
X252056Y121897D01*
X252020Y121835D01*
Y121831D01*
X252016Y121827D01*
X251998Y121806D01*
X251972Y121777D01*
X251940Y121740D01*
X251896Y121700D01*
X251841Y121656D01*
X251776Y121616D01*
X251703Y121580D01*
X251699D01*
X251692Y121576D01*
X251681Y121573D01*
X251667Y121565D01*
X251648Y121558D01*
X251623Y121551D01*
X251568Y121536D01*
X251499Y121522D01*
X251419Y121507D01*
X251335Y121496D01*
X251241Y121493D01*
X251193D01*
X251168Y121496D01*
X251143D01*
X251073Y121504D01*
X250997Y121514D01*
X250917Y121533D01*
X250830Y121555D01*
X250749Y121584D01*
X250746D01*
X250739Y121587D01*
X250728Y121595D01*
X250713Y121602D01*
X250677Y121620D01*
X250629Y121653D01*
X250575Y121689D01*
X250520Y121737D01*
X250469Y121791D01*
X250422Y121853D01*
Y121857D01*
X250418Y121860D01*
X250411Y121871D01*
X250404Y121882D01*
X250385Y121918D01*
X250364Y121966D01*
X250338Y122024D01*
X250320Y122093D01*
X250302Y122166D01*
X250294Y122246D01*
X250615Y122272D01*
Y122268D01*
Y122261D01*
X250618Y122250D01*
X250622Y122232D01*
X250633Y122192D01*
X250647Y122137D01*
X250669Y122079D01*
X250702Y122020D01*
X250742Y121966D01*
X250793Y121915D01*
X250800Y121911D01*
X250819Y121897D01*
X250855Y121875D01*
X250902Y121853D01*
X250964Y121831D01*
X251037Y121809D01*
X251128Y121795D01*
X251230Y121791D01*
X251281D01*
X251303Y121795D01*
X251332Y121798D01*
X251397Y121806D01*
X251470Y121820D01*
X251543Y121838D01*
X251612Y121868D01*
X251641Y121886D01*
X251670Y121904D01*
X251678Y121908D01*
X251692Y121922D01*
X251714Y121948D01*
X251736Y121977D01*
X251761Y122017D01*
X251783Y122061D01*
X251798Y122111D01*
X251805Y122170D01*
Y122177D01*
Y122192D01*
X251801Y122217D01*
X251794Y122246D01*
X251783Y122283D01*
X251765Y122319D01*
X251743Y122355D01*
X251710Y122392D01*
X251707Y122395D01*
X251689Y122406D01*
X251674Y122417D01*
X251659Y122424D01*
X251638Y122435D01*
X251612Y122450D01*
X251579Y122461D01*
X251543Y122475D01*
X251503Y122490D01*
X251456Y122508D01*
X251405Y122523D01*
X251346Y122541D01*
X251281Y122555D01*
X251208Y122574D01*
X251204D01*
X251190Y122577D01*
X251168Y122581D01*
X251143Y122588D01*
X251110Y122596D01*
X251070Y122607D01*
X251030Y122617D01*
X250986Y122628D01*
X250891Y122654D01*
X250800Y122679D01*
X250757Y122694D01*
X250717Y122708D01*
X250680Y122719D01*
X250651Y122734D01*
X250647D01*
X250640Y122738D01*
X250629Y122745D01*
X250615Y122752D01*
X250575Y122774D01*
X250527Y122803D01*
X250473Y122843D01*
X250418Y122887D01*
X250367Y122938D01*
X250324Y122992D01*
X250320Y123000D01*
X250305Y123018D01*
X250291Y123051D01*
X250269Y123094D01*
X250251Y123145D01*
X250233Y123207D01*
X250222Y123276D01*
X250218Y123349D01*
Y123353D01*
Y123356D01*
Y123367D01*
Y123382D01*
X250225Y123422D01*
X250233Y123473D01*
X250247Y123531D01*
X250265Y123593D01*
X250294Y123658D01*
X250334Y123728D01*
Y123731D01*
X250338Y123735D01*
X250356Y123757D01*
X250382Y123790D01*
X250418Y123826D01*
X250465Y123870D01*
X250524Y123917D01*
X250589Y123961D01*
X250666Y124001D01*
X250669D01*
X250677Y124004D01*
X250688Y124008D01*
X250702Y124015D01*
X250724Y124022D01*
X250749Y124033D01*
X250808Y124048D01*
X250877Y124066D01*
X250960Y124084D01*
X251051Y124095D01*
X251150Y124099D01*
X251208D01*
X251237Y124095D01*
D02*
G37*
G36*
X256992Y121536D02*
X255824D01*
X255794Y121540D01*
X255762D01*
X255685Y121544D01*
X255605Y121555D01*
X255518Y121565D01*
X255438Y121584D01*
X255398Y121595D01*
X255365Y121606D01*
X255361D01*
X255358Y121609D01*
X255336Y121620D01*
X255303Y121635D01*
X255263Y121660D01*
X255219Y121693D01*
X255172Y121737D01*
X255128Y121788D01*
X255085Y121846D01*
Y121849D01*
X255081Y121853D01*
X255066Y121875D01*
X255052Y121911D01*
X255030Y121959D01*
X255012Y122013D01*
X254994Y122079D01*
X254983Y122148D01*
X254979Y122224D01*
Y122228D01*
Y122235D01*
Y122250D01*
X254983Y122268D01*
Y122293D01*
X254986Y122319D01*
X255001Y122381D01*
X255023Y122454D01*
X255052Y122530D01*
X255096Y122607D01*
X255125Y122643D01*
X255154Y122679D01*
X255157Y122683D01*
X255161Y122687D01*
X255172Y122697D01*
X255187Y122708D01*
X255205Y122723D01*
X255227Y122738D01*
X255256Y122756D01*
X255285Y122778D01*
X255321Y122796D01*
X255361Y122814D01*
X255405Y122836D01*
X255452Y122854D01*
X255507Y122869D01*
X255561Y122887D01*
X255623Y122898D01*
X255689Y122909D01*
X255682Y122912D01*
X255667Y122919D01*
X255645Y122934D01*
X255616Y122949D01*
X255551Y122989D01*
X255518Y123014D01*
X255489Y123036D01*
X255481Y123043D01*
X255463Y123062D01*
X255434Y123091D01*
X255398Y123127D01*
X255358Y123178D01*
X255310Y123233D01*
X255263Y123298D01*
X255212Y123371D01*
X254779Y124055D01*
X255194D01*
X255525Y123531D01*
Y123527D01*
X255532Y123520D01*
X255540Y123509D01*
X255551Y123495D01*
X255576Y123455D01*
X255609Y123404D01*
X255649Y123349D01*
X255689Y123291D01*
X255729Y123236D01*
X255765Y123185D01*
X255769Y123182D01*
X255780Y123167D01*
X255798Y123145D01*
X255824Y123120D01*
X255878Y123065D01*
X255907Y123040D01*
X255936Y123018D01*
X255940Y123014D01*
X255947Y123011D01*
X255962Y123003D01*
X255984Y122992D01*
X256006Y122981D01*
X256031Y122970D01*
X256089Y122952D01*
X256093D01*
X256100Y122949D01*
X256115D01*
X256133Y122945D01*
X256158Y122941D01*
X256188D01*
X256228Y122938D01*
X256657D01*
Y124055D01*
X256992D01*
Y121536D01*
D02*
G37*
G36*
X254451D02*
X252628D01*
Y121835D01*
X254116D01*
Y122603D01*
X252722D01*
Y122901D01*
X254116D01*
Y123757D01*
X252569D01*
Y124055D01*
X254451D01*
Y121536D01*
D02*
G37*
G36*
X249756D02*
X247932D01*
Y121835D01*
X249421D01*
Y122603D01*
X248027D01*
Y122901D01*
X249421D01*
Y123757D01*
X247874D01*
Y124055D01*
X249756D01*
Y121536D01*
D02*
G37*
G36*
X246771Y121835D02*
X247601D01*
Y121536D01*
X245606D01*
Y121835D01*
X246436D01*
Y124055D01*
X246771D01*
Y121835D01*
D02*
G37*
G36*
X290154Y47403D02*
X290190D01*
X290227Y47400D01*
X290274Y47396D01*
X290321Y47389D01*
X290427Y47370D01*
X290544Y47345D01*
X290660Y47309D01*
X290773Y47258D01*
X290776Y47254D01*
X290787Y47250D01*
X290802Y47243D01*
X290820Y47229D01*
X290846Y47214D01*
X290875Y47196D01*
X290940Y47148D01*
X291013Y47087D01*
X291086Y47014D01*
X291159Y46930D01*
X291220Y46832D01*
X291224Y46828D01*
X291228Y46817D01*
X291235Y46803D01*
X291246Y46784D01*
X291257Y46755D01*
X291268Y46726D01*
X291282Y46690D01*
X291297Y46650D01*
X291312Y46606D01*
X291326Y46559D01*
X291348Y46457D01*
X291366Y46340D01*
X291373Y46220D01*
Y46184D01*
X291370Y46158D01*
X291366Y46126D01*
X291363Y46086D01*
X291359Y46046D01*
X291348Y45998D01*
X291326Y45900D01*
X291293Y45791D01*
X291271Y45736D01*
X291246Y45685D01*
X291213Y45634D01*
X291180Y45583D01*
X291177Y45580D01*
X291173Y45572D01*
X291162Y45558D01*
X291144Y45540D01*
X291126Y45521D01*
X291100Y45496D01*
X291071Y45470D01*
X291042Y45441D01*
X291006Y45412D01*
X290962Y45383D01*
X290918Y45350D01*
X290871Y45321D01*
X290816Y45296D01*
X290762Y45267D01*
X290704Y45245D01*
X290638Y45223D01*
X290562Y45551D01*
X290565D01*
X290573Y45554D01*
X290587Y45561D01*
X290605Y45569D01*
X290627Y45576D01*
X290656Y45587D01*
X290715Y45616D01*
X290780Y45652D01*
X290846Y45696D01*
X290908Y45751D01*
X290962Y45809D01*
X290969Y45816D01*
X290984Y45838D01*
X291002Y45874D01*
X291028Y45922D01*
X291050Y45984D01*
X291071Y46053D01*
X291086Y46137D01*
X291090Y46227D01*
Y46257D01*
X291086Y46275D01*
Y46300D01*
X291082Y46329D01*
X291071Y46399D01*
X291057Y46475D01*
X291031Y46555D01*
X290995Y46639D01*
X290948Y46715D01*
Y46719D01*
X290940Y46722D01*
X290922Y46748D01*
X290893Y46781D01*
X290849Y46821D01*
X290795Y46868D01*
X290733Y46912D01*
X290656Y46952D01*
X290573Y46988D01*
X290569D01*
X290562Y46992D01*
X290551Y46995D01*
X290533Y46999D01*
X290511Y47006D01*
X290485Y47014D01*
X290423Y47025D01*
X290351Y47039D01*
X290270Y47054D01*
X290183Y47061D01*
X290089Y47065D01*
X290085D01*
X290074D01*
X290056D01*
X290034D01*
X290008Y47061D01*
X289976D01*
X289939Y47057D01*
X289899Y47054D01*
X289812Y47043D01*
X289717Y47025D01*
X289623Y47003D01*
X289528Y46974D01*
X289524D01*
X289517Y46970D01*
X289506Y46963D01*
X289488Y46955D01*
X289444Y46934D01*
X289393Y46901D01*
X289335Y46861D01*
X289273Y46810D01*
X289218Y46752D01*
X289168Y46683D01*
Y46679D01*
X289164Y46672D01*
X289157Y46661D01*
X289149Y46646D01*
X289142Y46628D01*
X289131Y46606D01*
X289109Y46555D01*
X289088Y46490D01*
X289069Y46417D01*
X289055Y46337D01*
X289051Y46253D01*
Y46227D01*
X289055Y46206D01*
Y46180D01*
X289058Y46155D01*
X289073Y46089D01*
X289091Y46013D01*
X289120Y45936D01*
X289160Y45856D01*
X289182Y45816D01*
X289211Y45780D01*
X289215Y45776D01*
X289218Y45772D01*
X289229Y45762D01*
X289240Y45747D01*
X289259Y45733D01*
X289280Y45714D01*
X289302Y45692D01*
X289331Y45674D01*
X289364Y45652D01*
X289401Y45627D01*
X289437Y45605D01*
X289481Y45583D01*
X289528Y45565D01*
X289579Y45547D01*
X289633Y45529D01*
X289692Y45514D01*
X289608Y45179D01*
X289604D01*
X289590Y45183D01*
X289568Y45190D01*
X289539Y45201D01*
X289506Y45212D01*
X289466Y45226D01*
X289422Y45245D01*
X289375Y45267D01*
X289273Y45318D01*
X289171Y45383D01*
X289120Y45423D01*
X289069Y45463D01*
X289026Y45507D01*
X288982Y45558D01*
X288978Y45561D01*
X288971Y45569D01*
X288964Y45587D01*
X288949Y45605D01*
X288931Y45634D01*
X288913Y45663D01*
X288895Y45703D01*
X288876Y45743D01*
X288855Y45791D01*
X288836Y45842D01*
X288818Y45896D01*
X288800Y45954D01*
X288785Y46016D01*
X288778Y46082D01*
X288771Y46151D01*
X288767Y46224D01*
Y46264D01*
X288771Y46293D01*
Y46326D01*
X288774Y46366D01*
X288782Y46409D01*
X288789Y46460D01*
X288807Y46566D01*
X288836Y46675D01*
X288876Y46784D01*
X288902Y46835D01*
X288931Y46886D01*
X288935Y46890D01*
X288938Y46897D01*
X288949Y46912D01*
X288964Y46926D01*
X288978Y46948D01*
X289000Y46974D01*
X289026Y47003D01*
X289055Y47032D01*
X289088Y47061D01*
X289120Y47094D01*
X289204Y47159D01*
X289302Y47221D01*
X289411Y47276D01*
X289415D01*
X289426Y47283D01*
X289444Y47287D01*
X289466Y47298D01*
X289495Y47305D01*
X289532Y47316D01*
X289572Y47330D01*
X289615Y47341D01*
X289663Y47352D01*
X289717Y47367D01*
X289830Y47385D01*
X289957Y47400D01*
X290089Y47407D01*
X290092D01*
X290107D01*
X290128D01*
X290154Y47403D01*
D02*
G37*
G36*
X289517Y44582D02*
X289513D01*
X289506Y44579D01*
X289492Y44575D01*
X289473Y44571D01*
X289452Y44568D01*
X289426Y44560D01*
X289371Y44542D01*
X289306Y44517D01*
X289244Y44484D01*
X289186Y44447D01*
X289135Y44404D01*
X289131Y44397D01*
X289117Y44382D01*
X289098Y44353D01*
X289080Y44317D01*
X289058Y44273D01*
X289040Y44218D01*
X289026Y44156D01*
X289022Y44091D01*
Y44069D01*
X289026Y44054D01*
X289029Y44014D01*
X289040Y43963D01*
X289058Y43905D01*
X289084Y43843D01*
X289120Y43781D01*
X289171Y43723D01*
X289178Y43716D01*
X289200Y43698D01*
X289233Y43676D01*
X289277Y43647D01*
X289331Y43618D01*
X289393Y43596D01*
X289466Y43578D01*
X289546Y43570D01*
X289550D01*
X289557D01*
X289568D01*
X289582Y43574D01*
X289623Y43578D01*
X289670Y43589D01*
X289728Y43603D01*
X289786Y43628D01*
X289845Y43665D01*
X289899Y43712D01*
X289907Y43720D01*
X289921Y43738D01*
X289943Y43767D01*
X289968Y43807D01*
X289994Y43858D01*
X290016Y43920D01*
X290030Y43989D01*
X290037Y44065D01*
Y44098D01*
X290034Y44124D01*
X290030Y44156D01*
X290023Y44193D01*
X290016Y44236D01*
X290005Y44284D01*
X290278Y44247D01*
Y44229D01*
X290274Y44215D01*
Y44167D01*
X290281Y44127D01*
X290289Y44080D01*
X290300Y44025D01*
X290318Y43963D01*
X290343Y43905D01*
X290376Y43843D01*
Y43840D01*
X290380Y43836D01*
X290394Y43818D01*
X290420Y43792D01*
X290453Y43763D01*
X290500Y43734D01*
X290554Y43709D01*
X290616Y43690D01*
X290653Y43683D01*
X290693D01*
X290696D01*
X290700D01*
X290722D01*
X290751Y43690D01*
X290791Y43698D01*
X290835Y43712D01*
X290882Y43731D01*
X290929Y43760D01*
X290973Y43800D01*
X290977Y43803D01*
X290991Y43821D01*
X291009Y43847D01*
X291031Y43880D01*
X291050Y43923D01*
X291068Y43974D01*
X291082Y44033D01*
X291086Y44098D01*
Y44127D01*
X291079Y44160D01*
X291071Y44204D01*
X291057Y44251D01*
X291038Y44298D01*
X291009Y44349D01*
X290973Y44397D01*
X290969Y44400D01*
X290951Y44415D01*
X290926Y44437D01*
X290889Y44462D01*
X290842Y44488D01*
X290784Y44513D01*
X290715Y44535D01*
X290634Y44550D01*
X290689Y44859D01*
X290693D01*
X290704Y44855D01*
X290718Y44852D01*
X290740Y44848D01*
X290766Y44841D01*
X290795Y44830D01*
X290864Y44808D01*
X290944Y44772D01*
X291024Y44728D01*
X291100Y44673D01*
X291170Y44604D01*
X291173Y44600D01*
X291177Y44593D01*
X291184Y44582D01*
X291195Y44568D01*
X291210Y44550D01*
X291224Y44524D01*
X291239Y44499D01*
X291257Y44466D01*
X291286Y44393D01*
X291315Y44309D01*
X291333Y44211D01*
X291341Y44160D01*
Y44069D01*
X291337Y44029D01*
X291330Y43982D01*
X291319Y43923D01*
X291301Y43858D01*
X291279Y43792D01*
X291250Y43727D01*
Y43723D01*
X291246Y43720D01*
X291235Y43698D01*
X291213Y43665D01*
X291188Y43628D01*
X291151Y43585D01*
X291111Y43541D01*
X291064Y43497D01*
X291009Y43461D01*
X291002Y43457D01*
X290984Y43446D01*
X290951Y43432D01*
X290911Y43414D01*
X290864Y43396D01*
X290809Y43381D01*
X290747Y43370D01*
X290686Y43366D01*
X290678D01*
X290656D01*
X290627Y43370D01*
X290587Y43377D01*
X290540Y43388D01*
X290489Y43407D01*
X290438Y43428D01*
X290387Y43457D01*
X290380Y43461D01*
X290365Y43472D01*
X290340Y43494D01*
X290311Y43523D01*
X290278Y43559D01*
X290241Y43603D01*
X290209Y43654D01*
X290176Y43716D01*
Y43712D01*
X290172Y43705D01*
X290169Y43694D01*
X290165Y43679D01*
X290150Y43639D01*
X290128Y43589D01*
X290099Y43530D01*
X290063Y43472D01*
X290016Y43417D01*
X289961Y43366D01*
X289954Y43363D01*
X289932Y43348D01*
X289896Y43326D01*
X289848Y43305D01*
X289790Y43283D01*
X289721Y43261D01*
X289641Y43246D01*
X289553Y43243D01*
X289550D01*
X289539D01*
X289521D01*
X289499Y43246D01*
X289470Y43250D01*
X289437Y43257D01*
X289401Y43264D01*
X289360Y43272D01*
X289273Y43301D01*
X289226Y43323D01*
X289182Y43345D01*
X289135Y43374D01*
X289088Y43407D01*
X289040Y43443D01*
X288997Y43487D01*
X288993Y43490D01*
X288986Y43497D01*
X288975Y43512D01*
X288960Y43530D01*
X288942Y43552D01*
X288924Y43581D01*
X288902Y43614D01*
X288884Y43654D01*
X288862Y43694D01*
X288840Y43741D01*
X288822Y43789D01*
X288804Y43843D01*
X288789Y43902D01*
X288778Y43963D01*
X288771Y44025D01*
X288767Y44094D01*
Y44127D01*
X288771Y44149D01*
X288774Y44178D01*
X288778Y44211D01*
X288785Y44247D01*
X288793Y44287D01*
X288814Y44375D01*
X288851Y44466D01*
X288873Y44513D01*
X288898Y44557D01*
X288931Y44600D01*
X288964Y44644D01*
X288967Y44648D01*
X288975Y44655D01*
X288986Y44666D01*
X289000Y44677D01*
X289018Y44695D01*
X289044Y44713D01*
X289069Y44735D01*
X289102Y44757D01*
X289139Y44779D01*
X289175Y44801D01*
X289262Y44841D01*
X289364Y44873D01*
X289419Y44884D01*
X289477Y44892D01*
X289517Y44582D01*
D02*
G37*
G36*
X287588Y140150D02*
X287716Y140136D01*
X287828Y140117D01*
X287883Y140103D01*
X287930Y140092D01*
X287974Y140081D01*
X288014Y140067D01*
X288051Y140056D01*
X288080Y140048D01*
X288102Y140037D01*
X288120Y140034D01*
X288131Y140026D01*
X288134D01*
X288244Y139972D01*
X288342Y139910D01*
X288425Y139844D01*
X288458Y139812D01*
X288491Y139783D01*
X288520Y139753D01*
X288546Y139724D01*
X288567Y139699D01*
X288582Y139677D01*
X288597Y139662D01*
X288608Y139648D01*
X288611Y139641D01*
X288615Y139637D01*
X288644Y139586D01*
X288669Y139535D01*
X288709Y139426D01*
X288738Y139317D01*
X288757Y139211D01*
X288764Y139160D01*
X288771Y139116D01*
X288775Y139076D01*
Y139044D01*
X288779Y139014D01*
Y138974D01*
X288775Y138902D01*
X288768Y138832D01*
X288760Y138767D01*
X288746Y138705D01*
X288728Y138647D01*
X288709Y138592D01*
X288691Y138541D01*
X288669Y138494D01*
X288651Y138454D01*
X288633Y138414D01*
X288615Y138385D01*
X288597Y138356D01*
X288582Y138338D01*
X288575Y138319D01*
X288567Y138312D01*
X288564Y138308D01*
X288520Y138257D01*
X288476Y138214D01*
X288425Y138174D01*
X288374Y138134D01*
X288273Y138068D01*
X288171Y138017D01*
X288123Y137995D01*
X288080Y137977D01*
X288040Y137963D01*
X288007Y137952D01*
X287978Y137941D01*
X287956Y137933D01*
X287941Y137930D01*
X287938D01*
X287854Y138265D01*
X287912Y138279D01*
X287967Y138297D01*
X288018Y138316D01*
X288065Y138334D01*
X288109Y138356D01*
X288145Y138377D01*
X288182Y138403D01*
X288214Y138425D01*
X288244Y138443D01*
X288265Y138465D01*
X288287Y138483D01*
X288305Y138498D01*
X288316Y138512D01*
X288327Y138523D01*
X288331Y138527D01*
X288334Y138530D01*
X288364Y138567D01*
X288386Y138607D01*
X288425Y138687D01*
X288455Y138763D01*
X288473Y138840D01*
X288487Y138905D01*
X288491Y138931D01*
Y138956D01*
X288495Y138978D01*
Y139004D01*
X288491Y139087D01*
X288476Y139167D01*
X288458Y139240D01*
X288436Y139306D01*
X288415Y139357D01*
X288404Y139378D01*
X288396Y139397D01*
X288389Y139411D01*
X288382Y139422D01*
X288378Y139429D01*
Y139433D01*
X288327Y139502D01*
X288273Y139560D01*
X288211Y139611D01*
X288153Y139652D01*
X288102Y139684D01*
X288058Y139706D01*
X288040Y139713D01*
X288029Y139721D01*
X288021Y139724D01*
X288018D01*
X287923Y139753D01*
X287828Y139775D01*
X287734Y139794D01*
X287647Y139804D01*
X287607Y139808D01*
X287570Y139812D01*
X287537D01*
X287512Y139815D01*
X287490D01*
X287472D01*
X287461D01*
X287457D01*
X287363Y139812D01*
X287275Y139804D01*
X287195Y139790D01*
X287122Y139775D01*
X287060Y139764D01*
X287035Y139757D01*
X287013Y139750D01*
X286995Y139746D01*
X286984Y139743D01*
X286977Y139739D01*
X286973D01*
X286889Y139702D01*
X286813Y139662D01*
X286751Y139619D01*
X286697Y139571D01*
X286653Y139531D01*
X286624Y139499D01*
X286606Y139473D01*
X286598Y139470D01*
Y139466D01*
X286551Y139389D01*
X286514Y139306D01*
X286489Y139226D01*
X286474Y139149D01*
X286463Y139080D01*
X286460Y139051D01*
Y139025D01*
X286456Y139007D01*
Y138978D01*
X286460Y138887D01*
X286474Y138803D01*
X286496Y138734D01*
X286518Y138672D01*
X286544Y138625D01*
X286562Y138589D01*
X286576Y138567D01*
X286584Y138559D01*
X286638Y138501D01*
X286700Y138447D01*
X286766Y138403D01*
X286831Y138367D01*
X286889Y138338D01*
X286918Y138327D01*
X286940Y138319D01*
X286959Y138312D01*
X286973Y138305D01*
X286980Y138301D01*
X286984D01*
X286908Y137973D01*
X286842Y137995D01*
X286784Y138017D01*
X286729Y138046D01*
X286675Y138072D01*
X286627Y138101D01*
X286584Y138134D01*
X286540Y138163D01*
X286504Y138192D01*
X286474Y138221D01*
X286445Y138247D01*
X286420Y138272D01*
X286402Y138290D01*
X286384Y138308D01*
X286372Y138323D01*
X286369Y138330D01*
X286365Y138334D01*
X286333Y138385D01*
X286300Y138436D01*
X286274Y138487D01*
X286252Y138541D01*
X286220Y138651D01*
X286198Y138749D01*
X286187Y138796D01*
X286183Y138836D01*
X286180Y138876D01*
X286176Y138909D01*
X286172Y138934D01*
Y138971D01*
X286180Y139091D01*
X286198Y139207D01*
X286220Y139309D01*
X286234Y139357D01*
X286249Y139400D01*
X286263Y139440D01*
X286278Y139477D01*
X286289Y139506D01*
X286300Y139535D01*
X286311Y139553D01*
X286318Y139568D01*
X286322Y139579D01*
X286325Y139582D01*
X286387Y139681D01*
X286460Y139764D01*
X286533Y139837D01*
X286606Y139899D01*
X286671Y139946D01*
X286700Y139965D01*
X286726Y139979D01*
X286744Y139994D01*
X286758Y140001D01*
X286769Y140005D01*
X286773Y140008D01*
X286886Y140059D01*
X287002Y140096D01*
X287119Y140121D01*
X287224Y140139D01*
X287272Y140147D01*
X287319Y140150D01*
X287355Y140154D01*
X287392D01*
X287417Y140157D01*
X287439D01*
X287454D01*
X287457D01*
X287588Y140150D01*
D02*
G37*
G36*
X287115Y137355D02*
X287090Y137300D01*
X287064Y137246D01*
X287039Y137195D01*
X287017Y137151D01*
X286999Y137114D01*
X286984Y137093D01*
X286980Y137089D01*
Y137085D01*
X286940Y137020D01*
X286900Y136962D01*
X286864Y136911D01*
X286831Y136871D01*
X286806Y136834D01*
X286784Y136812D01*
X286769Y136794D01*
X286766Y136791D01*
X288735D01*
Y136481D01*
X286205D01*
Y136681D01*
X286267Y136718D01*
X286325Y136758D01*
X286384Y136805D01*
X286434Y136849D01*
X286478Y136892D01*
X286514Y136925D01*
X286525Y136940D01*
X286536Y136951D01*
X286540Y136954D01*
X286544Y136958D01*
X286606Y137034D01*
X286664Y137111D01*
X286715Y137184D01*
X286755Y137256D01*
X286791Y137318D01*
X286806Y137344D01*
X286817Y137366D01*
X286827Y137384D01*
X286831Y137398D01*
X286839Y137406D01*
Y137409D01*
X287137D01*
X287115Y137355D01*
D02*
G37*
G36*
X328873Y45971D02*
X328895Y45963D01*
X328924Y45953D01*
X328957Y45942D01*
X328996Y45927D01*
X329040Y45909D01*
X329087Y45887D01*
X329189Y45836D01*
X329291Y45771D01*
X329342Y45731D01*
X329393Y45691D01*
X329437Y45647D01*
X329481Y45596D01*
X329484Y45592D01*
X329491Y45585D01*
X329499Y45567D01*
X329513Y45549D01*
X329532Y45519D01*
X329550Y45490D01*
X329568Y45450D01*
X329586Y45410D01*
X329608Y45363D01*
X329626Y45312D01*
X329644Y45257D01*
X329663Y45199D01*
X329677Y45137D01*
X329684Y45072D01*
X329692Y45003D01*
X329695Y44930D01*
Y44890D01*
X329692Y44861D01*
Y44828D01*
X329688Y44788D01*
X329681Y44744D01*
X329674Y44693D01*
X329655Y44588D01*
X329626Y44478D01*
X329586Y44369D01*
X329561Y44318D01*
X329532Y44267D01*
X329528Y44264D01*
X329524Y44256D01*
X329513Y44242D01*
X329499Y44227D01*
X329484Y44205D01*
X329462Y44180D01*
X329437Y44151D01*
X329408Y44122D01*
X329375Y44093D01*
X329342Y44060D01*
X329259Y43994D01*
X329160Y43932D01*
X329051Y43878D01*
X329047D01*
X329036Y43870D01*
X329018Y43867D01*
X328996Y43856D01*
X328967Y43849D01*
X328931Y43838D01*
X328891Y43823D01*
X328847Y43812D01*
X328800Y43801D01*
X328745Y43787D01*
X328632Y43769D01*
X328505Y43754D01*
X328374Y43747D01*
X328370D01*
X328356D01*
X328334D01*
X328309Y43750D01*
X328272D01*
X328236Y43754D01*
X328188Y43758D01*
X328141Y43765D01*
X328035Y43783D01*
X327919Y43809D01*
X327803Y43845D01*
X327690Y43896D01*
X327686Y43900D01*
X327675Y43903D01*
X327661Y43911D01*
X327642Y43925D01*
X327617Y43940D01*
X327588Y43958D01*
X327522Y44005D01*
X327449Y44067D01*
X327377Y44140D01*
X327304Y44224D01*
X327242Y44322D01*
X327238Y44326D01*
X327235Y44336D01*
X327227Y44351D01*
X327217Y44369D01*
X327206Y44398D01*
X327195Y44427D01*
X327180Y44464D01*
X327166Y44504D01*
X327151Y44548D01*
X327136Y44595D01*
X327115Y44697D01*
X327096Y44813D01*
X327089Y44933D01*
Y44970D01*
X327093Y44995D01*
X327096Y45028D01*
X327100Y45068D01*
X327104Y45108D01*
X327115Y45155D01*
X327136Y45254D01*
X327169Y45363D01*
X327191Y45417D01*
X327217Y45469D01*
X327249Y45519D01*
X327282Y45570D01*
X327286Y45574D01*
X327289Y45581D01*
X327300Y45596D01*
X327319Y45614D01*
X327337Y45632D01*
X327362Y45658D01*
X327391Y45683D01*
X327420Y45712D01*
X327457Y45742D01*
X327501Y45771D01*
X327544Y45803D01*
X327591Y45832D01*
X327646Y45858D01*
X327701Y45887D01*
X327759Y45909D01*
X327824Y45931D01*
X327901Y45603D01*
X327897D01*
X327890Y45599D01*
X327875Y45592D01*
X327857Y45585D01*
X327835Y45578D01*
X327806Y45567D01*
X327748Y45538D01*
X327682Y45501D01*
X327617Y45458D01*
X327555Y45403D01*
X327501Y45345D01*
X327493Y45337D01*
X327479Y45316D01*
X327460Y45279D01*
X327435Y45232D01*
X327413Y45170D01*
X327391Y45101D01*
X327377Y45017D01*
X327373Y44926D01*
Y44897D01*
X327377Y44879D01*
Y44853D01*
X327380Y44824D01*
X327391Y44755D01*
X327406Y44679D01*
X327431Y44598D01*
X327468Y44515D01*
X327515Y44438D01*
Y44435D01*
X327522Y44431D01*
X327540Y44406D01*
X327570Y44373D01*
X327613Y44333D01*
X327668Y44286D01*
X327730Y44242D01*
X327806Y44202D01*
X327890Y44165D01*
X327894D01*
X327901Y44162D01*
X327912Y44158D01*
X327930Y44154D01*
X327952Y44147D01*
X327977Y44140D01*
X328039Y44129D01*
X328112Y44114D01*
X328192Y44100D01*
X328279Y44093D01*
X328374Y44089D01*
X328378D01*
X328389D01*
X328407D01*
X328429D01*
X328454Y44093D01*
X328487D01*
X328523Y44096D01*
X328563Y44100D01*
X328651Y44111D01*
X328745Y44129D01*
X328840Y44151D01*
X328935Y44180D01*
X328938D01*
X328945Y44184D01*
X328957Y44191D01*
X328975Y44198D01*
X329018Y44220D01*
X329069Y44253D01*
X329128Y44293D01*
X329189Y44344D01*
X329244Y44402D01*
X329295Y44471D01*
Y44475D01*
X329299Y44482D01*
X329306Y44493D01*
X329313Y44508D01*
X329321Y44526D01*
X329331Y44548D01*
X329353Y44598D01*
X329375Y44664D01*
X329393Y44737D01*
X329408Y44817D01*
X329412Y44901D01*
Y44926D01*
X329408Y44948D01*
Y44973D01*
X329404Y44999D01*
X329390Y45064D01*
X329371Y45141D01*
X329342Y45217D01*
X329302Y45297D01*
X329280Y45337D01*
X329251Y45374D01*
X329248Y45377D01*
X329244Y45381D01*
X329233Y45392D01*
X329222Y45407D01*
X329204Y45421D01*
X329182Y45439D01*
X329160Y45461D01*
X329131Y45479D01*
X329098Y45501D01*
X329062Y45527D01*
X329026Y45549D01*
X328982Y45570D01*
X328935Y45589D01*
X328884Y45607D01*
X328829Y45625D01*
X328771Y45640D01*
X328854Y45974D01*
X328858D01*
X328873Y45971D01*
D02*
G37*
G36*
X328454Y43383D02*
X328483D01*
X328552Y43379D01*
X328632Y43368D01*
X328716Y43357D01*
X328804Y43339D01*
X328891Y43317D01*
X328895D01*
X328902Y43314D01*
X328913Y43310D01*
X328927Y43306D01*
X328967Y43292D01*
X329018Y43270D01*
X329077Y43248D01*
X329135Y43219D01*
X329197Y43183D01*
X329255Y43146D01*
X329262Y43143D01*
X329280Y43128D01*
X329306Y43106D01*
X329339Y43077D01*
X329375Y43044D01*
X329412Y43004D01*
X329451Y42964D01*
X329484Y42917D01*
X329488Y42910D01*
X329499Y42895D01*
X329513Y42869D01*
X329532Y42833D01*
X329553Y42789D01*
X329572Y42739D01*
X329593Y42680D01*
X329612Y42615D01*
Y42607D01*
X329615Y42597D01*
X329619Y42586D01*
X329623Y42549D01*
X329630Y42498D01*
X329637Y42440D01*
X329644Y42371D01*
X329648Y42294D01*
X329652Y42211D01*
Y41304D01*
X327133D01*
Y42273D01*
X327136Y42338D01*
X327140Y42411D01*
X327147Y42484D01*
X327158Y42557D01*
X327169Y42618D01*
Y42622D01*
X327173Y42629D01*
Y42640D01*
X327180Y42655D01*
X327191Y42695D01*
X327209Y42746D01*
X327235Y42804D01*
X327268Y42866D01*
X327304Y42928D01*
X327351Y42986D01*
X327355Y42990D01*
X327359Y42993D01*
X327369Y43004D01*
X327380Y43019D01*
X327417Y43055D01*
X327468Y43099D01*
X327530Y43146D01*
X327602Y43197D01*
X327686Y43244D01*
X327781Y43284D01*
X327784D01*
X327792Y43288D01*
X327806Y43295D01*
X327828Y43299D01*
X327853Y43310D01*
X327883Y43317D01*
X327915Y43325D01*
X327956Y43335D01*
X327995Y43346D01*
X328043Y43354D01*
X328145Y43372D01*
X328258Y43383D01*
X328381Y43386D01*
X328385D01*
X328392D01*
X328411D01*
X328429D01*
X328454Y43383D01*
D02*
G37*
G36*
X324137Y102440D02*
X324181Y102432D01*
X324232Y102425D01*
X324286Y102411D01*
X324344Y102392D01*
X324403Y102367D01*
X324410Y102363D01*
X324428Y102352D01*
X324454Y102338D01*
X324490Y102316D01*
X324527Y102287D01*
X324567Y102258D01*
X324607Y102221D01*
X324639Y102181D01*
X324643Y102178D01*
X324654Y102163D01*
X324669Y102138D01*
X324683Y102105D01*
X324705Y102065D01*
X324727Y102017D01*
X324745Y101967D01*
X324763Y101905D01*
Y101897D01*
X324770Y101875D01*
X324774Y101839D01*
X324781Y101792D01*
X324789Y101734D01*
X324796Y101664D01*
X324799Y101588D01*
X324803Y101501D01*
Y100540D01*
X322284D01*
Y101530D01*
X322288Y101555D01*
Y101584D01*
X322295Y101650D01*
X322303Y101723D01*
X322317Y101799D01*
X322335Y101875D01*
X322361Y101945D01*
Y101948D01*
X322364Y101952D01*
X322375Y101974D01*
X322393Y102006D01*
X322419Y102043D01*
X322452Y102087D01*
X322492Y102134D01*
X322543Y102178D01*
X322597Y102218D01*
X322605Y102221D01*
X322626Y102232D01*
X322656Y102250D01*
X322699Y102269D01*
X322750Y102287D01*
X322805Y102305D01*
X322867Y102316D01*
X322929Y102320D01*
X322936D01*
X322954D01*
X322987Y102316D01*
X323027Y102309D01*
X323074Y102298D01*
X323125Y102279D01*
X323176Y102258D01*
X323231Y102229D01*
X323238Y102225D01*
X323253Y102214D01*
X323282Y102192D01*
X323311Y102163D01*
X323347Y102127D01*
X323387Y102083D01*
X323424Y102028D01*
X323460Y101967D01*
Y101970D01*
X323464Y101977D01*
X323467Y101988D01*
X323475Y102003D01*
X323489Y102047D01*
X323515Y102097D01*
X323547Y102152D01*
X323587Y102214D01*
X323635Y102269D01*
X323693Y102320D01*
X323700Y102323D01*
X323722Y102338D01*
X323755Y102360D01*
X323798Y102381D01*
X323857Y102403D01*
X323919Y102425D01*
X323991Y102440D01*
X324072Y102443D01*
X324075D01*
X324079D01*
X324101D01*
X324137Y102440D01*
D02*
G37*
G36*
X324170Y100088D02*
X324221Y100081D01*
X324279Y100066D01*
X324341Y100048D01*
X324406Y100019D01*
X324476Y99979D01*
X324479D01*
X324483Y99975D01*
X324505Y99957D01*
X324537Y99932D01*
X324574Y99895D01*
X324618Y99848D01*
X324665Y99790D01*
X324709Y99724D01*
X324748Y99648D01*
Y99644D01*
X324752Y99637D01*
X324756Y99626D01*
X324763Y99611D01*
X324770Y99590D01*
X324781Y99564D01*
X324796Y99506D01*
X324814Y99437D01*
X324832Y99353D01*
X324843Y99262D01*
X324847Y99164D01*
Y99105D01*
X324843Y99076D01*
Y99044D01*
X324840Y99007D01*
X324836Y98963D01*
X324821Y98873D01*
X324807Y98778D01*
X324781Y98683D01*
X324748Y98592D01*
Y98589D01*
X324745Y98581D01*
X324738Y98570D01*
X324730Y98556D01*
X324709Y98512D01*
X324676Y98461D01*
X324632Y98403D01*
X324581Y98341D01*
X324519Y98283D01*
X324450Y98228D01*
X324446D01*
X324439Y98221D01*
X324428Y98217D01*
X324414Y98206D01*
X324395Y98199D01*
X324374Y98188D01*
X324319Y98163D01*
X324250Y98137D01*
X324173Y98115D01*
X324086Y98101D01*
X323995Y98093D01*
X323966Y98407D01*
X323970D01*
X323973D01*
X323984Y98410D01*
X323999D01*
X324031Y98418D01*
X324079Y98428D01*
X324126Y98443D01*
X324181Y98457D01*
X324232Y98483D01*
X324279Y98509D01*
X324283Y98512D01*
X324297Y98523D01*
X324323Y98541D01*
X324348Y98570D01*
X324381Y98607D01*
X324414Y98647D01*
X324446Y98701D01*
X324476Y98760D01*
Y98763D01*
X324479Y98767D01*
X324483Y98778D01*
X324486Y98789D01*
X324497Y98825D01*
X324512Y98873D01*
X324527Y98931D01*
X324537Y98996D01*
X324545Y99069D01*
X324548Y99149D01*
Y99182D01*
X324545Y99218D01*
X324541Y99262D01*
X324534Y99313D01*
X324527Y99371D01*
X324512Y99429D01*
X324494Y99484D01*
X324490Y99491D01*
X324483Y99510D01*
X324468Y99535D01*
X324454Y99568D01*
X324428Y99600D01*
X324403Y99637D01*
X324374Y99673D01*
X324337Y99702D01*
X324334Y99706D01*
X324319Y99713D01*
X324301Y99724D01*
X324272Y99739D01*
X324243Y99753D01*
X324206Y99764D01*
X324166Y99772D01*
X324123Y99775D01*
X324119D01*
X324101D01*
X324079Y99772D01*
X324050Y99768D01*
X324021Y99757D01*
X323984Y99746D01*
X323948Y99728D01*
X323915Y99702D01*
X323911Y99699D01*
X323900Y99688D01*
X323886Y99673D01*
X323864Y99648D01*
X323842Y99619D01*
X323817Y99579D01*
X323791Y99531D01*
X323769Y99477D01*
X323766Y99473D01*
X323762Y99455D01*
X323751Y99426D01*
X323748Y99408D01*
X323740Y99382D01*
X323729Y99357D01*
X323722Y99324D01*
X323711Y99287D01*
X323700Y99244D01*
X323689Y99200D01*
X323675Y99149D01*
X323660Y99091D01*
X323646Y99029D01*
Y99025D01*
X323642Y99014D01*
X323638Y98996D01*
X323631Y98974D01*
X323624Y98945D01*
X323617Y98913D01*
X323595Y98840D01*
X323569Y98760D01*
X323544Y98676D01*
X323518Y98603D01*
X323504Y98570D01*
X323489Y98541D01*
Y98538D01*
X323485Y98534D01*
X323471Y98512D01*
X323453Y98479D01*
X323424Y98443D01*
X323391Y98399D01*
X323351Y98356D01*
X323304Y98312D01*
X323253Y98276D01*
X323245Y98272D01*
X323227Y98261D01*
X323198Y98246D01*
X323162Y98232D01*
X323114Y98217D01*
X323060Y98203D01*
X323001Y98192D01*
X322939Y98188D01*
X322936D01*
X322932D01*
X322921D01*
X322907D01*
X322870Y98195D01*
X322823Y98203D01*
X322768Y98214D01*
X322707Y98232D01*
X322645Y98257D01*
X322583Y98294D01*
X322579D01*
X322575Y98297D01*
X322554Y98316D01*
X322524Y98341D01*
X322488Y98374D01*
X322448Y98418D01*
X322404Y98472D01*
X322364Y98538D01*
X322328Y98610D01*
Y98614D01*
X322324Y98621D01*
X322321Y98632D01*
X322313Y98647D01*
X322306Y98665D01*
X322299Y98690D01*
X322284Y98745D01*
X322270Y98814D01*
X322255Y98894D01*
X322244Y98978D01*
X322241Y99073D01*
Y99120D01*
X322244Y99146D01*
Y99171D01*
X322252Y99240D01*
X322262Y99317D01*
X322281Y99397D01*
X322303Y99484D01*
X322332Y99564D01*
Y99568D01*
X322335Y99575D01*
X322342Y99586D01*
X322350Y99600D01*
X322368Y99637D01*
X322401Y99684D01*
X322437Y99739D01*
X322484Y99793D01*
X322539Y99844D01*
X322601Y99892D01*
X322605D01*
X322608Y99895D01*
X322619Y99903D01*
X322630Y99910D01*
X322667Y99928D01*
X322714Y99950D01*
X322772Y99975D01*
X322841Y99994D01*
X322914Y100012D01*
X322994Y100019D01*
X323020Y99699D01*
X323016D01*
X323009D01*
X322998Y99695D01*
X322979Y99691D01*
X322939Y99681D01*
X322885Y99666D01*
X322827Y99644D01*
X322768Y99611D01*
X322714Y99571D01*
X322663Y99520D01*
X322659Y99513D01*
X322645Y99495D01*
X322623Y99458D01*
X322601Y99411D01*
X322579Y99349D01*
X322557Y99277D01*
X322543Y99186D01*
X322539Y99084D01*
Y99033D01*
X322543Y99011D01*
X322546Y98982D01*
X322554Y98916D01*
X322568Y98843D01*
X322586Y98771D01*
X322616Y98701D01*
X322634Y98672D01*
X322652Y98643D01*
X322656Y98636D01*
X322670Y98621D01*
X322696Y98599D01*
X322725Y98578D01*
X322765Y98552D01*
X322808Y98530D01*
X322859Y98516D01*
X322918Y98509D01*
X322925D01*
X322939D01*
X322965Y98512D01*
X322994Y98519D01*
X323030Y98530D01*
X323067Y98549D01*
X323103Y98570D01*
X323140Y98603D01*
X323143Y98607D01*
X323154Y98625D01*
X323165Y98640D01*
X323172Y98654D01*
X323183Y98676D01*
X323198Y98701D01*
X323209Y98734D01*
X323223Y98771D01*
X323238Y98811D01*
X323256Y98858D01*
X323271Y98909D01*
X323289Y98967D01*
X323304Y99033D01*
X323322Y99105D01*
Y99109D01*
X323325Y99124D01*
X323329Y99146D01*
X323336Y99171D01*
X323343Y99204D01*
X323354Y99244D01*
X323365Y99284D01*
X323376Y99327D01*
X323402Y99422D01*
X323427Y99513D01*
X323442Y99557D01*
X323456Y99597D01*
X323467Y99633D01*
X323482Y99662D01*
Y99666D01*
X323485Y99673D01*
X323493Y99684D01*
X323500Y99699D01*
X323522Y99739D01*
X323551Y99786D01*
X323591Y99841D01*
X323635Y99895D01*
X323686Y99946D01*
X323740Y99990D01*
X323748Y99994D01*
X323766Y100008D01*
X323798Y100023D01*
X323842Y100045D01*
X323893Y100063D01*
X323955Y100081D01*
X324024Y100092D01*
X324097Y100095D01*
X324101D01*
X324104D01*
X324115D01*
X324130D01*
X324170Y100088D01*
D02*
G37*
G36*
X323835Y97646D02*
X323871D01*
X323915Y97642D01*
X323959Y97638D01*
X324057Y97628D01*
X324159Y97613D01*
X324257Y97591D01*
X324305Y97577D01*
X324348Y97562D01*
X324352D01*
X324359Y97558D01*
X324370Y97551D01*
X324384Y97544D01*
X324425Y97522D01*
X324476Y97489D01*
X324534Y97446D01*
X324592Y97395D01*
X324654Y97329D01*
X324709Y97249D01*
Y97245D01*
X324716Y97238D01*
X324719Y97227D01*
X324730Y97209D01*
X324741Y97187D01*
X324752Y97158D01*
X324763Y97129D01*
X324778Y97092D01*
X324792Y97053D01*
X324803Y97009D01*
X324814Y96961D01*
X324825Y96907D01*
X324832Y96852D01*
X324840Y96794D01*
X324847Y96663D01*
Y96630D01*
X324843Y96605D01*
Y96576D01*
X324840Y96539D01*
X324836Y96499D01*
X324832Y96459D01*
X324818Y96368D01*
X324796Y96270D01*
X324767Y96175D01*
X324727Y96084D01*
Y96081D01*
X324719Y96073D01*
X324712Y96062D01*
X324705Y96048D01*
X324676Y96008D01*
X324636Y95960D01*
X324585Y95906D01*
X324527Y95855D01*
X324454Y95804D01*
X324374Y95764D01*
X324370D01*
X324363Y95760D01*
X324348Y95757D01*
X324330Y95749D01*
X324308Y95742D01*
X324279Y95735D01*
X324246Y95724D01*
X324206Y95717D01*
X324163Y95709D01*
X324115Y95698D01*
X324064Y95691D01*
X324010Y95684D01*
X323948Y95677D01*
X323882Y95673D01*
X323813Y95669D01*
X323740D01*
X322284D01*
Y96004D01*
X323740D01*
X323744D01*
X323755D01*
X323773D01*
X323795D01*
X323820Y96008D01*
X323853D01*
X323922Y96012D01*
X324002Y96019D01*
X324082Y96030D01*
X324159Y96044D01*
X324192Y96052D01*
X324224Y96062D01*
X324232Y96066D01*
X324250Y96073D01*
X324275Y96092D01*
X324312Y96113D01*
X324348Y96139D01*
X324388Y96175D01*
X324428Y96219D01*
X324461Y96270D01*
X324465Y96277D01*
X324476Y96295D01*
X324486Y96328D01*
X324501Y96372D01*
X324519Y96423D01*
X324530Y96488D01*
X324541Y96557D01*
X324545Y96634D01*
Y96670D01*
X324541Y96692D01*
Y96725D01*
X324537Y96758D01*
X324523Y96838D01*
X324505Y96925D01*
X324476Y97009D01*
X324435Y97089D01*
X324410Y97125D01*
X324381Y97158D01*
X324377Y97162D01*
X324374Y97165D01*
X324363Y97173D01*
X324348Y97184D01*
X324326Y97194D01*
X324305Y97209D01*
X324272Y97224D01*
X324239Y97238D01*
X324199Y97253D01*
X324152Y97264D01*
X324097Y97278D01*
X324039Y97289D01*
X323973Y97300D01*
X323904Y97307D01*
X323824Y97315D01*
X323740D01*
X322284D01*
Y97650D01*
X323740D01*
X323744D01*
X323759D01*
X323777D01*
X323802D01*
X323835Y97646D01*
D02*
G37*
G36*
X19659Y161018D02*
X19688Y161014D01*
X19721Y161010D01*
X19761Y161003D01*
X19801Y160996D01*
X19896Y160974D01*
X19994Y160937D01*
X20045Y160916D01*
X20092Y160887D01*
X20143Y160857D01*
X20191Y160821D01*
X20194Y160817D01*
X20205Y160810D01*
X20220Y160795D01*
X20238Y160777D01*
X20260Y160752D01*
X20289Y160723D01*
X20314Y160686D01*
X20344Y160646D01*
X20373Y160603D01*
X20398Y160552D01*
X20424Y160497D01*
X20449Y160439D01*
X20467Y160377D01*
X20482Y160308D01*
X20493Y160235D01*
X20496Y160159D01*
Y160126D01*
X20493Y160100D01*
X20489Y160071D01*
X20486Y160038D01*
X20482Y159998D01*
X20471Y159958D01*
X20449Y159867D01*
X20416Y159776D01*
X20395Y159729D01*
X20369Y159682D01*
X20340Y159638D01*
X20307Y159594D01*
X20304Y159591D01*
X20300Y159583D01*
X20285Y159576D01*
X20271Y159562D01*
X20253Y159543D01*
X20231Y159525D01*
X20202Y159503D01*
X20169Y159485D01*
X20136Y159463D01*
X20096Y159441D01*
X20009Y159401D01*
X19907Y159369D01*
X19852Y159358D01*
X19794Y159350D01*
X19769Y159674D01*
X19772D01*
X19779D01*
X19790Y159678D01*
X19808Y159682D01*
X19849Y159693D01*
X19903Y159707D01*
X19958Y159729D01*
X20020Y159758D01*
X20074Y159794D01*
X20125Y159838D01*
X20129Y159845D01*
X20143Y159860D01*
X20162Y159889D01*
X20183Y159929D01*
X20205Y159973D01*
X20223Y160027D01*
X20238Y160089D01*
X20242Y160159D01*
Y160180D01*
X20238Y160195D01*
X20234Y160239D01*
X20220Y160290D01*
X20202Y160351D01*
X20173Y160413D01*
X20129Y160479D01*
X20103Y160508D01*
X20074Y160537D01*
X20071Y160541D01*
X20067Y160544D01*
X20056Y160552D01*
X20045Y160563D01*
X20005Y160588D01*
X19954Y160617D01*
X19892Y160643D01*
X19816Y160668D01*
X19725Y160686D01*
X19678Y160694D01*
X19626D01*
X19623D01*
X19616D01*
X19601D01*
X19583Y160690D01*
X19561D01*
X19535Y160686D01*
X19477Y160675D01*
X19408Y160657D01*
X19339Y160632D01*
X19273Y160595D01*
X19212Y160544D01*
X19208D01*
X19204Y160537D01*
X19186Y160519D01*
X19161Y160486D01*
X19131Y160442D01*
X19106Y160384D01*
X19081Y160319D01*
X19062Y160242D01*
X19055Y160198D01*
Y160129D01*
X19059Y160100D01*
X19062Y160064D01*
X19073Y160020D01*
X19084Y159976D01*
X19102Y159929D01*
X19124Y159882D01*
X19128Y159878D01*
X19135Y159864D01*
X19153Y159842D01*
X19172Y159813D01*
X19197Y159784D01*
X19230Y159754D01*
X19263Y159722D01*
X19303Y159696D01*
X19263Y159405D01*
X17967Y159649D01*
Y160901D01*
X18261D01*
Y159893D01*
X18942Y159758D01*
X18939Y159762D01*
X18935Y159769D01*
X18928Y159780D01*
X18917Y159798D01*
X18906Y159820D01*
X18891Y159845D01*
X18862Y159904D01*
X18833Y159976D01*
X18808Y160057D01*
X18789Y160144D01*
X18782Y160188D01*
Y160268D01*
X18786Y160290D01*
X18789Y160319D01*
X18793Y160351D01*
X18800Y160388D01*
X18811Y160428D01*
X18837Y160515D01*
X18855Y160563D01*
X18880Y160610D01*
X18906Y160657D01*
X18935Y160705D01*
X18971Y160748D01*
X19011Y160792D01*
X19015Y160795D01*
X19022Y160803D01*
X19033Y160814D01*
X19051Y160828D01*
X19077Y160846D01*
X19102Y160865D01*
X19135Y160887D01*
X19172Y160908D01*
X19212Y160926D01*
X19255Y160948D01*
X19306Y160967D01*
X19357Y160985D01*
X19412Y160999D01*
X19474Y161010D01*
X19535Y161018D01*
X19601Y161021D01*
X19605D01*
X19616D01*
X19634D01*
X19659Y161018D01*
D02*
G37*
G36*
X19787Y159016D02*
X19830Y159008D01*
X19881Y159001D01*
X19936Y158986D01*
X19994Y158968D01*
X20052Y158943D01*
X20060Y158939D01*
X20078Y158928D01*
X20103Y158914D01*
X20140Y158892D01*
X20176Y158863D01*
X20216Y158834D01*
X20256Y158797D01*
X20289Y158757D01*
X20293Y158753D01*
X20304Y158739D01*
X20318Y158713D01*
X20333Y158681D01*
X20355Y158641D01*
X20376Y158593D01*
X20395Y158542D01*
X20413Y158480D01*
Y158473D01*
X20420Y158451D01*
X20424Y158415D01*
X20431Y158368D01*
X20438Y158309D01*
X20446Y158240D01*
X20449Y158164D01*
X20453Y158076D01*
Y157115D01*
X17934D01*
Y158106D01*
X17938Y158131D01*
Y158160D01*
X17945Y158226D01*
X17952Y158299D01*
X17967Y158375D01*
X17985Y158451D01*
X18010Y158520D01*
Y158524D01*
X18014Y158528D01*
X18025Y158550D01*
X18043Y158582D01*
X18069Y158619D01*
X18101Y158662D01*
X18141Y158710D01*
X18192Y158753D01*
X18247Y158793D01*
X18254Y158797D01*
X18276Y158808D01*
X18305Y158826D01*
X18349Y158844D01*
X18400Y158863D01*
X18454Y158881D01*
X18516Y158892D01*
X18578Y158895D01*
X18586D01*
X18604D01*
X18636Y158892D01*
X18677Y158885D01*
X18724Y158874D01*
X18775Y158855D01*
X18826Y158834D01*
X18880Y158804D01*
X18888Y158801D01*
X18902Y158790D01*
X18931Y158768D01*
X18960Y158739D01*
X18997Y158703D01*
X19037Y158659D01*
X19073Y158604D01*
X19110Y158542D01*
Y158546D01*
X19113Y158553D01*
X19117Y158564D01*
X19124Y158579D01*
X19139Y158622D01*
X19164Y158673D01*
X19197Y158728D01*
X19237Y158790D01*
X19284Y158844D01*
X19343Y158895D01*
X19350Y158899D01*
X19372Y158914D01*
X19405Y158935D01*
X19448Y158957D01*
X19506Y158979D01*
X19568Y159001D01*
X19641Y159016D01*
X19721Y159019D01*
X19725D01*
X19728D01*
X19750D01*
X19787Y159016D01*
D02*
G37*
G36*
X14955Y101773D02*
X14984Y101769D01*
X15016Y101765D01*
X15056Y101758D01*
X15097Y101751D01*
X15191Y101729D01*
X15289Y101692D01*
X15340Y101671D01*
X15388Y101641D01*
X15439Y101612D01*
X15486Y101576D01*
X15490Y101572D01*
X15501Y101565D01*
X15515Y101550D01*
X15533Y101532D01*
X15555Y101507D01*
X15584Y101478D01*
X15610Y101441D01*
X15639Y101401D01*
X15668Y101358D01*
X15694Y101307D01*
X15719Y101252D01*
X15744Y101194D01*
X15763Y101132D01*
X15777Y101063D01*
X15788Y100990D01*
X15792Y100914D01*
Y100881D01*
X15788Y100855D01*
X15785Y100826D01*
X15781Y100793D01*
X15777Y100753D01*
X15766Y100713D01*
X15744Y100622D01*
X15712Y100531D01*
X15690Y100484D01*
X15664Y100437D01*
X15635Y100393D01*
X15603Y100349D01*
X15599Y100346D01*
X15595Y100338D01*
X15581Y100331D01*
X15566Y100317D01*
X15548Y100298D01*
X15526Y100280D01*
X15497Y100258D01*
X15464Y100240D01*
X15431Y100218D01*
X15391Y100197D01*
X15304Y100156D01*
X15202Y100124D01*
X15147Y100113D01*
X15089Y100105D01*
X15064Y100429D01*
X15067D01*
X15075D01*
X15086Y100433D01*
X15104Y100437D01*
X15144Y100448D01*
X15198Y100462D01*
X15253Y100484D01*
X15315Y100513D01*
X15370Y100549D01*
X15420Y100593D01*
X15424Y100601D01*
X15439Y100615D01*
X15457Y100644D01*
X15479Y100684D01*
X15501Y100728D01*
X15519Y100783D01*
X15533Y100844D01*
X15537Y100914D01*
Y100935D01*
X15533Y100950D01*
X15530Y100994D01*
X15515Y101045D01*
X15497Y101106D01*
X15468Y101168D01*
X15424Y101234D01*
X15399Y101263D01*
X15370Y101292D01*
X15366Y101296D01*
X15362Y101299D01*
X15351Y101307D01*
X15340Y101318D01*
X15300Y101343D01*
X15249Y101372D01*
X15188Y101398D01*
X15111Y101423D01*
X15020Y101441D01*
X14973Y101449D01*
X14922D01*
X14918D01*
X14911D01*
X14896D01*
X14878Y101445D01*
X14856D01*
X14831Y101441D01*
X14773Y101430D01*
X14703Y101412D01*
X14634Y101387D01*
X14569Y101350D01*
X14507Y101299D01*
X14503D01*
X14500Y101292D01*
X14481Y101274D01*
X14456Y101241D01*
X14427Y101198D01*
X14401Y101139D01*
X14376Y101074D01*
X14358Y100997D01*
X14350Y100954D01*
Y100884D01*
X14354Y100855D01*
X14358Y100819D01*
X14368Y100775D01*
X14379Y100732D01*
X14398Y100684D01*
X14420Y100637D01*
X14423Y100633D01*
X14430Y100619D01*
X14449Y100597D01*
X14467Y100568D01*
X14492Y100539D01*
X14525Y100510D01*
X14558Y100477D01*
X14598Y100451D01*
X14558Y100160D01*
X13262Y100404D01*
Y101656D01*
X13557D01*
Y100648D01*
X14238Y100513D01*
X14234Y100517D01*
X14230Y100524D01*
X14223Y100535D01*
X14212Y100553D01*
X14201Y100575D01*
X14187Y100601D01*
X14157Y100659D01*
X14128Y100732D01*
X14103Y100812D01*
X14085Y100899D01*
X14077Y100943D01*
Y101023D01*
X14081Y101045D01*
X14085Y101074D01*
X14088Y101106D01*
X14096Y101143D01*
X14106Y101183D01*
X14132Y101270D01*
X14150Y101318D01*
X14176Y101365D01*
X14201Y101412D01*
X14230Y101460D01*
X14267Y101503D01*
X14307Y101547D01*
X14310Y101550D01*
X14318Y101558D01*
X14329Y101569D01*
X14347Y101583D01*
X14372Y101602D01*
X14398Y101620D01*
X14430Y101641D01*
X14467Y101663D01*
X14507Y101682D01*
X14550Y101703D01*
X14602Y101722D01*
X14652Y101740D01*
X14707Y101754D01*
X14769Y101765D01*
X14831Y101773D01*
X14896Y101776D01*
X14900D01*
X14911D01*
X14929D01*
X14955Y101773D01*
D02*
G37*
G36*
X15748Y99228D02*
Y98901D01*
X13830Y98373D01*
X13826D01*
X13819Y98369D01*
X13808Y98365D01*
X13790Y98362D01*
X13750Y98351D01*
X13702Y98340D01*
X13651Y98326D01*
X13604Y98311D01*
X13564Y98300D01*
X13546Y98296D01*
X13535Y98293D01*
X13539D01*
X13542Y98289D01*
X13564Y98286D01*
X13597Y98278D01*
X13637Y98267D01*
X13680Y98256D01*
X13732Y98242D01*
X13782Y98231D01*
X13830Y98216D01*
X15748Y97685D01*
Y97335D01*
X13229Y96677D01*
Y97022D01*
X14882Y97397D01*
X14885D01*
X14893Y97401D01*
X14907Y97405D01*
X14925Y97408D01*
X14951Y97412D01*
X14976Y97419D01*
X15009Y97426D01*
X15046Y97434D01*
X15122Y97452D01*
X15209Y97470D01*
X15304Y97488D01*
X15399Y97506D01*
X15395D01*
X15380Y97510D01*
X15362Y97517D01*
X15333Y97521D01*
X15304Y97528D01*
X15268Y97539D01*
X15188Y97557D01*
X15107Y97579D01*
X15067Y97587D01*
X15031Y97597D01*
X14998Y97605D01*
X14969Y97612D01*
X14947Y97619D01*
X14933Y97623D01*
X13229Y98100D01*
Y98504D01*
X14507Y98861D01*
X14511D01*
X14529Y98868D01*
X14554Y98875D01*
X14587Y98882D01*
X14631Y98893D01*
X14678Y98908D01*
X14732Y98922D01*
X14794Y98937D01*
X14864Y98955D01*
X14933Y98970D01*
X15082Y99002D01*
X15238Y99035D01*
X15399Y99061D01*
X15395D01*
X15388Y99064D01*
X15373D01*
X15355Y99072D01*
X15333Y99075D01*
X15308Y99083D01*
X15275Y99086D01*
X15238Y99097D01*
X15158Y99115D01*
X15064Y99137D01*
X14962Y99159D01*
X14849Y99188D01*
X13229Y99581D01*
Y99920D01*
X15748Y99228D01*
D02*
G37*
G36*
X15115Y96444D02*
X15166Y96436D01*
X15224Y96422D01*
X15286Y96404D01*
X15351Y96374D01*
X15420Y96334D01*
X15424D01*
X15428Y96331D01*
X15450Y96313D01*
X15482Y96287D01*
X15519Y96251D01*
X15562Y96203D01*
X15610Y96145D01*
X15653Y96080D01*
X15694Y96003D01*
Y95999D01*
X15697Y95992D01*
X15701Y95981D01*
X15708Y95967D01*
X15715Y95945D01*
X15726Y95919D01*
X15741Y95861D01*
X15759Y95792D01*
X15777Y95708D01*
X15788Y95617D01*
X15792Y95519D01*
Y95461D01*
X15788Y95432D01*
Y95399D01*
X15785Y95363D01*
X15781Y95319D01*
X15766Y95228D01*
X15752Y95133D01*
X15726Y95039D01*
X15694Y94948D01*
Y94944D01*
X15690Y94937D01*
X15683Y94926D01*
X15675Y94911D01*
X15653Y94867D01*
X15621Y94816D01*
X15577Y94758D01*
X15526Y94696D01*
X15464Y94638D01*
X15395Y94584D01*
X15391D01*
X15384Y94576D01*
X15373Y94573D01*
X15359Y94562D01*
X15340Y94554D01*
X15318Y94543D01*
X15264Y94518D01*
X15195Y94493D01*
X15118Y94471D01*
X15031Y94456D01*
X14940Y94449D01*
X14911Y94762D01*
X14915D01*
X14918D01*
X14929Y94766D01*
X14944D01*
X14976Y94773D01*
X15024Y94784D01*
X15071Y94798D01*
X15126Y94813D01*
X15177Y94838D01*
X15224Y94864D01*
X15227Y94867D01*
X15242Y94878D01*
X15268Y94897D01*
X15293Y94926D01*
X15326Y94962D01*
X15359Y95002D01*
X15391Y95057D01*
X15420Y95115D01*
Y95119D01*
X15424Y95122D01*
X15428Y95133D01*
X15431Y95144D01*
X15442Y95180D01*
X15457Y95228D01*
X15471Y95286D01*
X15482Y95352D01*
X15490Y95424D01*
X15493Y95504D01*
Y95537D01*
X15490Y95574D01*
X15486Y95617D01*
X15479Y95668D01*
X15471Y95727D01*
X15457Y95785D01*
X15439Y95839D01*
X15435Y95847D01*
X15428Y95865D01*
X15413Y95890D01*
X15399Y95923D01*
X15373Y95956D01*
X15348Y95992D01*
X15318Y96029D01*
X15282Y96058D01*
X15279Y96061D01*
X15264Y96069D01*
X15246Y96080D01*
X15217Y96094D01*
X15188Y96109D01*
X15151Y96120D01*
X15111Y96127D01*
X15067Y96131D01*
X15064D01*
X15046D01*
X15024Y96127D01*
X14995Y96123D01*
X14965Y96112D01*
X14929Y96101D01*
X14893Y96083D01*
X14860Y96058D01*
X14856Y96054D01*
X14845Y96043D01*
X14831Y96029D01*
X14809Y96003D01*
X14787Y95974D01*
X14762Y95934D01*
X14736Y95887D01*
X14714Y95832D01*
X14711Y95828D01*
X14707Y95810D01*
X14696Y95781D01*
X14693Y95763D01*
X14685Y95737D01*
X14674Y95712D01*
X14667Y95679D01*
X14656Y95643D01*
X14645Y95599D01*
X14634Y95555D01*
X14620Y95504D01*
X14605Y95446D01*
X14591Y95384D01*
Y95381D01*
X14587Y95370D01*
X14583Y95352D01*
X14576Y95330D01*
X14569Y95301D01*
X14561Y95268D01*
X14540Y95195D01*
X14514Y95115D01*
X14489Y95031D01*
X14463Y94959D01*
X14449Y94926D01*
X14434Y94897D01*
Y94893D01*
X14430Y94889D01*
X14416Y94867D01*
X14398Y94835D01*
X14368Y94798D01*
X14336Y94755D01*
X14296Y94711D01*
X14248Y94667D01*
X14197Y94631D01*
X14190Y94627D01*
X14172Y94616D01*
X14143Y94602D01*
X14106Y94587D01*
X14059Y94573D01*
X14005Y94558D01*
X13946Y94547D01*
X13884Y94543D01*
X13881D01*
X13877D01*
X13866D01*
X13852D01*
X13815Y94551D01*
X13768Y94558D01*
X13713Y94569D01*
X13651Y94587D01*
X13589Y94613D01*
X13528Y94649D01*
X13524D01*
X13520Y94653D01*
X13499Y94671D01*
X13469Y94696D01*
X13433Y94729D01*
X13393Y94773D01*
X13349Y94827D01*
X13309Y94893D01*
X13273Y94966D01*
Y94969D01*
X13269Y94977D01*
X13266Y94988D01*
X13258Y95002D01*
X13251Y95020D01*
X13244Y95046D01*
X13229Y95100D01*
X13215Y95170D01*
X13200Y95250D01*
X13189Y95333D01*
X13185Y95428D01*
Y95475D01*
X13189Y95501D01*
Y95526D01*
X13196Y95596D01*
X13207Y95672D01*
X13226Y95752D01*
X13247Y95839D01*
X13276Y95919D01*
Y95923D01*
X13280Y95930D01*
X13287Y95941D01*
X13295Y95956D01*
X13313Y95992D01*
X13346Y96040D01*
X13382Y96094D01*
X13429Y96149D01*
X13484Y96200D01*
X13546Y96247D01*
X13550D01*
X13553Y96251D01*
X13564Y96258D01*
X13575Y96265D01*
X13611Y96284D01*
X13659Y96305D01*
X13717Y96331D01*
X13786Y96349D01*
X13859Y96367D01*
X13939Y96374D01*
X13964Y96054D01*
X13961D01*
X13954D01*
X13943Y96051D01*
X13924Y96047D01*
X13884Y96036D01*
X13830Y96021D01*
X13771Y95999D01*
X13713Y95967D01*
X13659Y95927D01*
X13608Y95876D01*
X13604Y95868D01*
X13589Y95850D01*
X13568Y95814D01*
X13546Y95767D01*
X13524Y95705D01*
X13502Y95632D01*
X13488Y95541D01*
X13484Y95439D01*
Y95388D01*
X13488Y95366D01*
X13491Y95337D01*
X13499Y95271D01*
X13513Y95199D01*
X13531Y95126D01*
X13560Y95057D01*
X13579Y95028D01*
X13597Y94999D01*
X13600Y94991D01*
X13615Y94977D01*
X13641Y94955D01*
X13670Y94933D01*
X13710Y94907D01*
X13753Y94886D01*
X13804Y94871D01*
X13862Y94864D01*
X13870D01*
X13884D01*
X13910Y94867D01*
X13939Y94875D01*
X13975Y94886D01*
X14012Y94904D01*
X14048Y94926D01*
X14085Y94959D01*
X14088Y94962D01*
X14099Y94980D01*
X14110Y94995D01*
X14117Y95009D01*
X14128Y95031D01*
X14143Y95057D01*
X14154Y95090D01*
X14168Y95126D01*
X14183Y95166D01*
X14201Y95213D01*
X14216Y95264D01*
X14234Y95323D01*
X14248Y95388D01*
X14267Y95461D01*
Y95464D01*
X14270Y95479D01*
X14274Y95501D01*
X14281Y95526D01*
X14288Y95559D01*
X14299Y95599D01*
X14310Y95639D01*
X14321Y95683D01*
X14347Y95777D01*
X14372Y95868D01*
X14387Y95912D01*
X14401Y95952D01*
X14412Y95989D01*
X14427Y96018D01*
Y96021D01*
X14430Y96029D01*
X14438Y96040D01*
X14445Y96054D01*
X14467Y96094D01*
X14496Y96141D01*
X14536Y96196D01*
X14580Y96251D01*
X14631Y96302D01*
X14685Y96345D01*
X14693Y96349D01*
X14711Y96364D01*
X14743Y96378D01*
X14787Y96400D01*
X14838Y96418D01*
X14900Y96436D01*
X14969Y96447D01*
X15042Y96451D01*
X15046D01*
X15049D01*
X15060D01*
X15075D01*
X15115Y96444D01*
D02*
G37*
G36*
X15144Y54200D02*
X15748D01*
Y53891D01*
X15144D01*
Y52795D01*
X14860D01*
X13229Y53949D01*
Y54200D01*
X14860D01*
Y54542D01*
X15144D01*
Y54200D01*
D02*
G37*
G36*
X15748Y52023D02*
Y51696D01*
X13830Y51168D01*
X13826D01*
X13819Y51164D01*
X13808Y51161D01*
X13790Y51157D01*
X13750Y51146D01*
X13702Y51135D01*
X13651Y51121D01*
X13604Y51106D01*
X13564Y51095D01*
X13546Y51092D01*
X13535Y51088D01*
X13539D01*
X13542Y51084D01*
X13564Y51081D01*
X13597Y51073D01*
X13637Y51063D01*
X13680Y51051D01*
X13732Y51037D01*
X13782Y51026D01*
X13830Y51012D01*
X15748Y50480D01*
Y50131D01*
X13229Y49472D01*
Y49818D01*
X14882Y50192D01*
X14885D01*
X14893Y50196D01*
X14907Y50200D01*
X14925Y50203D01*
X14951Y50207D01*
X14976Y50214D01*
X15009Y50222D01*
X15045Y50229D01*
X15122Y50247D01*
X15209Y50265D01*
X15304Y50283D01*
X15399Y50302D01*
X15395D01*
X15380Y50305D01*
X15362Y50313D01*
X15333Y50316D01*
X15304Y50323D01*
X15268Y50334D01*
X15188Y50353D01*
X15107Y50375D01*
X15067Y50382D01*
X15031Y50393D01*
X14998Y50400D01*
X14969Y50407D01*
X14947Y50415D01*
X14933Y50418D01*
X13229Y50895D01*
Y51299D01*
X14507Y51656D01*
X14510D01*
X14529Y51663D01*
X14554Y51670D01*
X14587Y51678D01*
X14630Y51688D01*
X14678Y51703D01*
X14732Y51718D01*
X14794Y51732D01*
X14863Y51750D01*
X14933Y51765D01*
X15082Y51798D01*
X15238Y51831D01*
X15399Y51856D01*
X15395D01*
X15388Y51860D01*
X15373D01*
X15355Y51867D01*
X15333Y51871D01*
X15308Y51878D01*
X15275Y51881D01*
X15238Y51892D01*
X15158Y51911D01*
X15064Y51932D01*
X14962Y51954D01*
X14849Y51983D01*
X13229Y52377D01*
Y52715D01*
X15748Y52023D01*
D02*
G37*
G36*
X15115Y49239D02*
X15166Y49231D01*
X15224Y49217D01*
X15286Y49199D01*
X15351Y49170D01*
X15420Y49130D01*
X15424D01*
X15428Y49126D01*
X15450Y49108D01*
X15482Y49082D01*
X15519Y49046D01*
X15562Y48999D01*
X15610Y48940D01*
X15653Y48875D01*
X15693Y48798D01*
Y48795D01*
X15697Y48788D01*
X15701Y48777D01*
X15708Y48762D01*
X15715Y48740D01*
X15726Y48715D01*
X15741Y48656D01*
X15759Y48587D01*
X15777Y48504D01*
X15788Y48412D01*
X15792Y48314D01*
Y48256D01*
X15788Y48227D01*
Y48194D01*
X15784Y48158D01*
X15781Y48114D01*
X15766Y48023D01*
X15752Y47928D01*
X15726Y47834D01*
X15693Y47743D01*
Y47739D01*
X15690Y47732D01*
X15683Y47721D01*
X15675Y47706D01*
X15653Y47663D01*
X15621Y47612D01*
X15577Y47554D01*
X15526Y47492D01*
X15464Y47433D01*
X15395Y47379D01*
X15391D01*
X15384Y47372D01*
X15373Y47368D01*
X15359Y47357D01*
X15340Y47350D01*
X15318Y47339D01*
X15264Y47313D01*
X15195Y47288D01*
X15118Y47266D01*
X15031Y47251D01*
X14940Y47244D01*
X14911Y47557D01*
X14915D01*
X14918D01*
X14929Y47561D01*
X14944D01*
X14976Y47568D01*
X15024Y47579D01*
X15071Y47594D01*
X15126Y47608D01*
X15177Y47634D01*
X15224Y47659D01*
X15227Y47663D01*
X15242Y47674D01*
X15268Y47692D01*
X15293Y47721D01*
X15326Y47757D01*
X15359Y47797D01*
X15391Y47852D01*
X15420Y47910D01*
Y47914D01*
X15424Y47918D01*
X15428Y47928D01*
X15431Y47939D01*
X15442Y47976D01*
X15457Y48023D01*
X15471Y48081D01*
X15482Y48147D01*
X15490Y48220D01*
X15493Y48300D01*
Y48333D01*
X15490Y48369D01*
X15486Y48412D01*
X15479Y48463D01*
X15471Y48522D01*
X15457Y48580D01*
X15439Y48635D01*
X15435Y48642D01*
X15428Y48660D01*
X15413Y48686D01*
X15399Y48718D01*
X15373Y48751D01*
X15348Y48788D01*
X15318Y48824D01*
X15282Y48853D01*
X15279Y48857D01*
X15264Y48864D01*
X15246Y48875D01*
X15217Y48889D01*
X15188Y48904D01*
X15151Y48915D01*
X15111Y48922D01*
X15067Y48926D01*
X15064D01*
X15045D01*
X15024Y48922D01*
X14995Y48919D01*
X14965Y48908D01*
X14929Y48897D01*
X14893Y48878D01*
X14860Y48853D01*
X14856Y48849D01*
X14845Y48838D01*
X14831Y48824D01*
X14809Y48798D01*
X14787Y48769D01*
X14762Y48729D01*
X14736Y48682D01*
X14714Y48627D01*
X14711Y48624D01*
X14707Y48605D01*
X14696Y48576D01*
X14692Y48558D01*
X14685Y48533D01*
X14674Y48507D01*
X14667Y48474D01*
X14656Y48438D01*
X14645Y48394D01*
X14634Y48351D01*
X14620Y48300D01*
X14605Y48241D01*
X14591Y48180D01*
Y48176D01*
X14587Y48165D01*
X14583Y48147D01*
X14576Y48125D01*
X14569Y48096D01*
X14561Y48063D01*
X14539Y47990D01*
X14514Y47910D01*
X14489Y47826D01*
X14463Y47754D01*
X14449Y47721D01*
X14434Y47692D01*
Y47688D01*
X14430Y47684D01*
X14416Y47663D01*
X14398Y47630D01*
X14368Y47594D01*
X14336Y47550D01*
X14296Y47506D01*
X14248Y47462D01*
X14197Y47426D01*
X14190Y47422D01*
X14172Y47412D01*
X14143Y47397D01*
X14106Y47382D01*
X14059Y47368D01*
X14005Y47353D01*
X13946Y47342D01*
X13884Y47339D01*
X13881D01*
X13877D01*
X13866D01*
X13852D01*
X13815Y47346D01*
X13768Y47353D01*
X13713Y47364D01*
X13651Y47382D01*
X13589Y47408D01*
X13528Y47444D01*
X13524D01*
X13520Y47448D01*
X13498Y47466D01*
X13469Y47492D01*
X13433Y47524D01*
X13393Y47568D01*
X13349Y47623D01*
X13309Y47688D01*
X13273Y47761D01*
Y47765D01*
X13269Y47772D01*
X13265Y47783D01*
X13258Y47797D01*
X13251Y47816D01*
X13244Y47841D01*
X13229Y47896D01*
X13215Y47965D01*
X13200Y48045D01*
X13189Y48129D01*
X13185Y48223D01*
Y48271D01*
X13189Y48296D01*
Y48322D01*
X13196Y48391D01*
X13207Y48467D01*
X13226Y48547D01*
X13247Y48635D01*
X13276Y48715D01*
Y48718D01*
X13280Y48726D01*
X13287Y48737D01*
X13295Y48751D01*
X13313Y48788D01*
X13346Y48835D01*
X13382Y48889D01*
X13429Y48944D01*
X13484Y48995D01*
X13546Y49042D01*
X13550D01*
X13553Y49046D01*
X13564Y49053D01*
X13575Y49060D01*
X13611Y49079D01*
X13659Y49101D01*
X13717Y49126D01*
X13786Y49144D01*
X13859Y49162D01*
X13939Y49170D01*
X13964Y48849D01*
X13961D01*
X13953D01*
X13943Y48846D01*
X13924Y48842D01*
X13884Y48831D01*
X13830Y48817D01*
X13771Y48795D01*
X13713Y48762D01*
X13659Y48722D01*
X13608Y48671D01*
X13604Y48664D01*
X13589Y48645D01*
X13568Y48609D01*
X13546Y48562D01*
X13524Y48500D01*
X13502Y48427D01*
X13488Y48336D01*
X13484Y48234D01*
Y48183D01*
X13488Y48161D01*
X13491Y48132D01*
X13498Y48067D01*
X13513Y47994D01*
X13531Y47921D01*
X13560Y47852D01*
X13579Y47823D01*
X13597Y47794D01*
X13600Y47787D01*
X13615Y47772D01*
X13641Y47750D01*
X13670Y47728D01*
X13710Y47703D01*
X13753Y47681D01*
X13804Y47666D01*
X13862Y47659D01*
X13870D01*
X13884D01*
X13910Y47663D01*
X13939Y47670D01*
X13975Y47681D01*
X14012Y47699D01*
X14048Y47721D01*
X14085Y47754D01*
X14088Y47757D01*
X14099Y47776D01*
X14110Y47790D01*
X14117Y47805D01*
X14128Y47826D01*
X14143Y47852D01*
X14154Y47885D01*
X14168Y47921D01*
X14183Y47961D01*
X14201Y48008D01*
X14216Y48059D01*
X14234Y48118D01*
X14248Y48183D01*
X14267Y48256D01*
Y48260D01*
X14270Y48274D01*
X14274Y48296D01*
X14281Y48322D01*
X14288Y48354D01*
X14299Y48394D01*
X14310Y48434D01*
X14321Y48478D01*
X14347Y48573D01*
X14372Y48664D01*
X14387Y48707D01*
X14401Y48747D01*
X14412Y48784D01*
X14427Y48813D01*
Y48817D01*
X14430Y48824D01*
X14438Y48835D01*
X14445Y48849D01*
X14467Y48889D01*
X14496Y48937D01*
X14536Y48991D01*
X14580Y49046D01*
X14630Y49097D01*
X14685Y49141D01*
X14692Y49144D01*
X14711Y49159D01*
X14743Y49173D01*
X14787Y49195D01*
X14838Y49213D01*
X14900Y49231D01*
X14969Y49242D01*
X15042Y49246D01*
X15045D01*
X15049D01*
X15060D01*
X15075D01*
X15115Y49239D01*
D02*
G37*
G36*
X285922Y84646D02*
X285576D01*
X284258Y86622D01*
Y84646D01*
X283938D01*
Y87164D01*
X284280D01*
X285601Y85184D01*
Y87164D01*
X285922D01*
Y84646D01*
D02*
G37*
G36*
X282365Y87205D02*
X282398D01*
X282431Y87201D01*
X282475Y87194D01*
X282518Y87186D01*
X282613Y87168D01*
X282722Y87139D01*
X282828Y87095D01*
X282882Y87070D01*
X282937Y87041D01*
X282941Y87037D01*
X282948Y87033D01*
X282962Y87023D01*
X282984Y87012D01*
X283006Y86993D01*
X283035Y86972D01*
X283097Y86921D01*
X283163Y86855D01*
X283235Y86775D01*
X283305Y86680D01*
X283363Y86575D01*
Y86571D01*
X283370Y86560D01*
X283377Y86546D01*
X283385Y86524D01*
X283399Y86495D01*
X283410Y86462D01*
X283425Y86422D01*
X283439Y86378D01*
X283450Y86331D01*
X283465Y86280D01*
X283479Y86222D01*
X283490Y86164D01*
X283505Y86036D01*
X283512Y85898D01*
Y85894D01*
Y85880D01*
Y85861D01*
X283508Y85832D01*
Y85799D01*
X283505Y85760D01*
X283498Y85716D01*
X283494Y85668D01*
X283476Y85563D01*
X283447Y85447D01*
X283406Y85330D01*
X283385Y85272D01*
X283355Y85214D01*
Y85210D01*
X283348Y85199D01*
X283341Y85184D01*
X283326Y85163D01*
X283312Y85137D01*
X283294Y85112D01*
X283243Y85042D01*
X283181Y84970D01*
X283108Y84893D01*
X283021Y84820D01*
X282919Y84755D01*
X282915D01*
X282908Y84748D01*
X282890Y84740D01*
X282868Y84729D01*
X282842Y84719D01*
X282813Y84708D01*
X282777Y84693D01*
X282737Y84678D01*
X282693Y84664D01*
X282646Y84649D01*
X282540Y84627D01*
X282427Y84609D01*
X282307Y84602D01*
X282271D01*
X282249Y84606D01*
X282216D01*
X282180Y84613D01*
X282140Y84617D01*
X282092Y84624D01*
X281994Y84646D01*
X281889Y84675D01*
X281779Y84719D01*
X281725Y84744D01*
X281670Y84773D01*
X281667Y84777D01*
X281659Y84780D01*
X281645Y84791D01*
X281623Y84806D01*
X281601Y84820D01*
X281576Y84842D01*
X281514Y84897D01*
X281445Y84962D01*
X281372Y85042D01*
X281306Y85133D01*
X281244Y85239D01*
Y85243D01*
X281237Y85254D01*
X281230Y85268D01*
X281223Y85290D01*
X281212Y85319D01*
X281201Y85352D01*
X281186Y85388D01*
X281175Y85428D01*
X281161Y85476D01*
X281146Y85523D01*
X281124Y85632D01*
X281110Y85745D01*
X281102Y85869D01*
Y85872D01*
Y85876D01*
Y85898D01*
X281106Y85931D01*
Y85974D01*
X281113Y86025D01*
X281121Y86087D01*
X281132Y86156D01*
X281146Y86229D01*
X281161Y86305D01*
X281182Y86386D01*
X281212Y86466D01*
X281244Y86549D01*
X281281Y86629D01*
X281328Y86710D01*
X281379Y86782D01*
X281437Y86852D01*
X281441Y86855D01*
X281452Y86866D01*
X281474Y86884D01*
X281499Y86906D01*
X281532Y86935D01*
X281572Y86964D01*
X281619Y86997D01*
X281674Y87030D01*
X281732Y87063D01*
X281798Y87095D01*
X281870Y87125D01*
X281947Y87154D01*
X282031Y87176D01*
X282118Y87194D01*
X282209Y87205D01*
X282307Y87208D01*
X282340D01*
X282365Y87205D01*
D02*
G37*
G36*
X198580Y152403D02*
X198226D01*
Y152756D01*
X198580D01*
Y152403D01*
D02*
G37*
G36*
X201968Y150237D02*
X200978D01*
X200953Y150241D01*
X200924D01*
X200858Y150248D01*
X200785Y150255D01*
X200709Y150270D01*
X200633Y150288D01*
X200563Y150313D01*
X200560D01*
X200556Y150317D01*
X200534Y150328D01*
X200501Y150346D01*
X200465Y150372D01*
X200421Y150404D01*
X200374Y150444D01*
X200330Y150495D01*
X200290Y150550D01*
X200287Y150557D01*
X200276Y150579D01*
X200258Y150608D01*
X200239Y150652D01*
X200221Y150703D01*
X200203Y150758D01*
X200192Y150819D01*
X200188Y150881D01*
Y150889D01*
Y150907D01*
X200192Y150940D01*
X200199Y150979D01*
X200210Y151027D01*
X200229Y151078D01*
X200250Y151129D01*
X200279Y151183D01*
X200283Y151191D01*
X200294Y151205D01*
X200316Y151234D01*
X200345Y151263D01*
X200381Y151300D01*
X200425Y151340D01*
X200480Y151376D01*
X200541Y151413D01*
X200538D01*
X200531Y151416D01*
X200520Y151420D01*
X200505Y151427D01*
X200462Y151442D01*
X200411Y151467D01*
X200356Y151500D01*
X200294Y151540D01*
X200239Y151587D01*
X200188Y151646D01*
X200185Y151653D01*
X200170Y151675D01*
X200148Y151707D01*
X200127Y151751D01*
X200105Y151810D01*
X200083Y151871D01*
X200068Y151944D01*
X200065Y152024D01*
Y152028D01*
Y152032D01*
Y152053D01*
X200068Y152090D01*
X200076Y152133D01*
X200083Y152184D01*
X200097Y152239D01*
X200116Y152297D01*
X200141Y152356D01*
X200145Y152363D01*
X200156Y152381D01*
X200170Y152406D01*
X200192Y152443D01*
X200221Y152479D01*
X200250Y152519D01*
X200287Y152559D01*
X200327Y152592D01*
X200330Y152596D01*
X200345Y152607D01*
X200371Y152621D01*
X200403Y152636D01*
X200443Y152658D01*
X200491Y152679D01*
X200541Y152698D01*
X200603Y152716D01*
X200611D01*
X200633Y152723D01*
X200669Y152727D01*
X200716Y152734D01*
X200775Y152741D01*
X200844Y152749D01*
X200920Y152752D01*
X201008Y152756D01*
X201968D01*
Y150237D01*
D02*
G37*
G36*
X199551D02*
X199217D01*
Y152756D01*
X199551D01*
Y150237D01*
D02*
G37*
G36*
X197662D02*
X197327D01*
Y152457D01*
X196086D01*
Y152756D01*
X197662D01*
Y150237D01*
D02*
G37*
G36*
X195686D02*
X193862D01*
Y150536D01*
X195351D01*
Y151304D01*
X193957D01*
Y151602D01*
X195351D01*
Y152457D01*
X193804D01*
Y152756D01*
X195686D01*
Y150237D01*
D02*
G37*
G36*
X193342D02*
X192373D01*
X192308Y150241D01*
X192235Y150244D01*
X192162Y150251D01*
X192089Y150262D01*
X192028Y150273D01*
X192024D01*
X192017Y150277D01*
X192006D01*
X191991Y150284D01*
X191951Y150295D01*
X191900Y150313D01*
X191842Y150339D01*
X191780Y150372D01*
X191718Y150408D01*
X191660Y150455D01*
X191656Y150459D01*
X191653Y150463D01*
X191642Y150474D01*
X191627Y150485D01*
X191591Y150521D01*
X191547Y150572D01*
X191500Y150634D01*
X191449Y150707D01*
X191402Y150790D01*
X191361Y150885D01*
Y150889D01*
X191358Y150896D01*
X191350Y150910D01*
X191347Y150932D01*
X191336Y150958D01*
X191329Y150987D01*
X191321Y151020D01*
X191311Y151060D01*
X191300Y151100D01*
X191292Y151147D01*
X191274Y151249D01*
X191263Y151362D01*
X191260Y151486D01*
Y151489D01*
Y151496D01*
Y151515D01*
Y151533D01*
X191263Y151558D01*
Y151587D01*
X191267Y151657D01*
X191278Y151737D01*
X191289Y151820D01*
X191307Y151908D01*
X191329Y151995D01*
Y151999D01*
X191332Y152006D01*
X191336Y152017D01*
X191340Y152032D01*
X191354Y152071D01*
X191376Y152122D01*
X191398Y152181D01*
X191427Y152239D01*
X191463Y152301D01*
X191500Y152359D01*
X191503Y152366D01*
X191518Y152385D01*
X191540Y152410D01*
X191569Y152443D01*
X191602Y152479D01*
X191642Y152516D01*
X191682Y152556D01*
X191729Y152588D01*
X191736Y152592D01*
X191751Y152603D01*
X191776Y152618D01*
X191813Y152636D01*
X191857Y152658D01*
X191908Y152676D01*
X191966Y152698D01*
X192031Y152716D01*
X192039D01*
X192049Y152719D01*
X192060Y152723D01*
X192097Y152727D01*
X192148Y152734D01*
X192206Y152741D01*
X192275Y152749D01*
X192351Y152752D01*
X192435Y152756D01*
X193342D01*
Y150237D01*
D02*
G37*
G36*
X206897Y74606D02*
X206576D01*
Y76714D01*
X205841Y74606D01*
X205543D01*
X204815Y76750D01*
Y74606D01*
X204494D01*
Y77125D01*
X204993D01*
X205590Y75338D01*
Y75334D01*
X205593Y75327D01*
X205597Y75316D01*
X205604Y75298D01*
X205619Y75254D01*
X205637Y75200D01*
X205655Y75138D01*
X205677Y75076D01*
X205695Y75018D01*
X205710Y74967D01*
X205714Y74974D01*
X205717Y74992D01*
X205728Y75025D01*
X205743Y75069D01*
X205761Y75127D01*
X205786Y75196D01*
X205812Y75276D01*
X205845Y75371D01*
X206449Y77125D01*
X206897D01*
Y74606D01*
D02*
G37*
G36*
X201615D02*
X201295D01*
Y76714D01*
X200559Y74606D01*
X200261D01*
X199533Y76750D01*
Y74606D01*
X199213D01*
Y77125D01*
X199711D01*
X200308Y75338D01*
Y75334D01*
X200312Y75327D01*
X200315Y75316D01*
X200323Y75298D01*
X200337Y75254D01*
X200356Y75200D01*
X200374Y75138D01*
X200396Y75076D01*
X200414Y75018D01*
X200428Y74967D01*
X200432Y74974D01*
X200436Y74992D01*
X200447Y75025D01*
X200461Y75069D01*
X200479Y75127D01*
X200505Y75196D01*
X200530Y75276D01*
X200563Y75371D01*
X201167Y77125D01*
X201615D01*
Y74606D01*
D02*
G37*
G36*
X203985Y76827D02*
X202496D01*
Y76059D01*
X203890D01*
Y75760D01*
X202496D01*
Y74905D01*
X204043D01*
Y74606D01*
X202161D01*
Y77125D01*
X203985D01*
Y76827D01*
D02*
G37*
G36*
X206292Y120472D02*
X205972D01*
Y122580D01*
X205237Y120472D01*
X204938D01*
X204210Y122616D01*
Y120472D01*
X203890D01*
Y122991D01*
X204389D01*
X204986Y121204D01*
Y121200D01*
X204989Y121193D01*
X204993Y121182D01*
X205000Y121164D01*
X205015Y121120D01*
X205033Y121066D01*
X205051Y121004D01*
X205073Y120942D01*
X205091Y120884D01*
X205106Y120833D01*
X205109Y120840D01*
X205113Y120858D01*
X205124Y120891D01*
X205138Y120935D01*
X205157Y120993D01*
X205182Y121062D01*
X205208Y121142D01*
X205240Y121237D01*
X205845Y122991D01*
X206292D01*
Y120472D01*
D02*
G37*
G36*
X207923Y122988D02*
X207985Y122984D01*
X208050Y122980D01*
X208112Y122973D01*
X208167Y122966D01*
X208174D01*
X208200Y122959D01*
X208232Y122951D01*
X208276Y122940D01*
X208324Y122922D01*
X208375Y122900D01*
X208429Y122875D01*
X208476Y122846D01*
X208484Y122842D01*
X208498Y122831D01*
X208520Y122809D01*
X208549Y122784D01*
X208582Y122751D01*
X208615Y122707D01*
X208651Y122660D01*
X208680Y122606D01*
X208684Y122598D01*
X208691Y122580D01*
X208706Y122547D01*
X208720Y122504D01*
X208731Y122453D01*
X208746Y122394D01*
X208753Y122329D01*
X208757Y122260D01*
Y122256D01*
Y122245D01*
Y122231D01*
X208753Y122205D01*
X208749Y122180D01*
X208746Y122147D01*
X208738Y122110D01*
X208731Y122070D01*
X208706Y121987D01*
X208691Y121943D01*
X208669Y121896D01*
X208644Y121848D01*
X208618Y121805D01*
X208586Y121761D01*
X208549Y121717D01*
X208546Y121714D01*
X208538Y121706D01*
X208527Y121695D01*
X208509Y121685D01*
X208487Y121666D01*
X208458Y121648D01*
X208422Y121626D01*
X208382Y121608D01*
X208334Y121586D01*
X208280Y121564D01*
X208222Y121546D01*
X208152Y121532D01*
X208080Y121517D01*
X208000Y121506D01*
X207909Y121499D01*
X207814Y121495D01*
X207170D01*
Y120472D01*
X206835D01*
Y122991D01*
X207869D01*
X207923Y122988D01*
D02*
G37*
G36*
X203380Y122693D02*
X201892D01*
Y121925D01*
X203286D01*
Y121626D01*
X201892D01*
Y120771D01*
X203439D01*
Y120472D01*
X201557D01*
Y122991D01*
X203380D01*
Y122693D01*
D02*
G37*
G36*
X201207D02*
X200377D01*
Y120472D01*
X200043D01*
Y122693D01*
X199213D01*
Y122991D01*
X201207D01*
Y122693D01*
D02*
G37*
G36*
X250709Y102008D02*
X250738Y102005D01*
X250767Y102001D01*
X250844Y101987D01*
X250924Y101965D01*
X251007Y101932D01*
X251051Y101910D01*
X251091Y101885D01*
X251127Y101856D01*
X251164Y101823D01*
X251167Y101819D01*
X251171Y101816D01*
X251178Y101801D01*
X251189Y101786D01*
X251204Y101768D01*
X251218Y101743D01*
X251233Y101714D01*
X251251Y101681D01*
X251266Y101645D01*
X251280Y101601D01*
X251295Y101557D01*
X251309Y101506D01*
X251317Y101452D01*
X251328Y101390D01*
X251331Y101328D01*
Y101259D01*
X251029Y101215D01*
Y101219D01*
Y101226D01*
Y101240D01*
X251026Y101262D01*
X251022Y101284D01*
Y101310D01*
X251011Y101372D01*
X251000Y101437D01*
X250978Y101503D01*
X250956Y101561D01*
X250942Y101586D01*
X250924Y101608D01*
X250920Y101612D01*
X250905Y101623D01*
X250884Y101641D01*
X250854Y101659D01*
X250814Y101681D01*
X250771Y101695D01*
X250716Y101710D01*
X250658Y101714D01*
X250636D01*
X250614Y101710D01*
X250581Y101706D01*
X250549Y101699D01*
X250512Y101692D01*
X250476Y101677D01*
X250440Y101659D01*
X250436Y101655D01*
X250425Y101648D01*
X250410Y101634D01*
X250389Y101619D01*
X250370Y101593D01*
X250348Y101568D01*
X250330Y101539D01*
X250316Y101503D01*
Y101499D01*
X250308Y101484D01*
X250305Y101459D01*
X250297Y101426D01*
X250290Y101382D01*
X250287Y101328D01*
X250279Y101262D01*
Y101186D01*
Y99450D01*
X249944D01*
Y101168D01*
Y101171D01*
Y101182D01*
Y101197D01*
Y101219D01*
X249948Y101248D01*
Y101277D01*
X249955Y101346D01*
X249963Y101426D01*
X249977Y101510D01*
X249999Y101586D01*
X250025Y101659D01*
Y101663D01*
X250028Y101666D01*
X250039Y101688D01*
X250057Y101717D01*
X250083Y101757D01*
X250119Y101797D01*
X250159Y101841D01*
X250210Y101885D01*
X250268Y101921D01*
X250276Y101925D01*
X250297Y101936D01*
X250330Y101950D01*
X250378Y101965D01*
X250436Y101983D01*
X250501Y101998D01*
X250574Y102008D01*
X250654Y102012D01*
X250687D01*
X250709Y102008D01*
D02*
G37*
G36*
X248670Y99999D02*
X248674Y100003D01*
X248692Y100017D01*
X248714Y100039D01*
X248750Y100065D01*
X248791Y100098D01*
X248842Y100134D01*
X248900Y100174D01*
X248965Y100214D01*
X248969D01*
X248973Y100218D01*
X248994Y100232D01*
X249031Y100250D01*
X249075Y100272D01*
X249126Y100298D01*
X249180Y100323D01*
X249235Y100349D01*
X249289Y100371D01*
Y100072D01*
X249286D01*
X249278Y100065D01*
X249264Y100061D01*
X249246Y100050D01*
X249224Y100039D01*
X249198Y100025D01*
X249136Y99988D01*
X249064Y99948D01*
X248991Y99897D01*
X248914Y99839D01*
X248838Y99777D01*
X248834Y99774D01*
X248831Y99770D01*
X248820Y99759D01*
X248805Y99748D01*
X248772Y99712D01*
X248729Y99668D01*
X248685Y99617D01*
X248638Y99559D01*
X248598Y99501D01*
X248561Y99439D01*
X248361D01*
Y101968D01*
X248670D01*
Y99999D01*
D02*
G37*
G36*
X226902Y74651D02*
X226963Y74644D01*
X227025Y74633D01*
X227080Y74618D01*
X227131Y74600D01*
X227182Y74582D01*
X227225Y74560D01*
X227266Y74542D01*
X227302Y74520D01*
X227335Y74498D01*
X227360Y74480D01*
X227386Y74462D01*
X227404Y74447D01*
X227415Y74436D01*
X227422Y74429D01*
X227426Y74426D01*
X227466Y74382D01*
X227502Y74338D01*
X227531Y74291D01*
X227557Y74243D01*
X227582Y74196D01*
X227600Y74149D01*
X227626Y74062D01*
X227637Y74021D01*
X227644Y73985D01*
X227648Y73952D01*
X227651Y73923D01*
X227655Y73901D01*
Y73821D01*
X227648Y73778D01*
X227629Y73690D01*
X227604Y73610D01*
X227575Y73537D01*
X227546Y73479D01*
X227531Y73454D01*
X227520Y73432D01*
X227509Y73414D01*
X227502Y73403D01*
X227499Y73395D01*
X227495Y73392D01*
X228175Y73526D01*
Y74535D01*
X228470D01*
Y73282D01*
X227174Y73039D01*
X227134Y73330D01*
X227174Y73355D01*
X227207Y73388D01*
X227240Y73417D01*
X227266Y73446D01*
X227284Y73475D01*
X227302Y73497D01*
X227309Y73512D01*
X227313Y73515D01*
X227335Y73563D01*
X227353Y73610D01*
X227364Y73654D01*
X227375Y73698D01*
X227378Y73734D01*
X227382Y73763D01*
Y73832D01*
X227375Y73876D01*
X227357Y73952D01*
X227331Y74018D01*
X227306Y74076D01*
X227276Y74120D01*
X227251Y74152D01*
X227233Y74171D01*
X227229Y74178D01*
X227225D01*
X227164Y74229D01*
X227098Y74265D01*
X227029Y74291D01*
X226960Y74309D01*
X226902Y74320D01*
X226876Y74324D01*
X226854D01*
X226836Y74327D01*
X226821D01*
X226814D01*
X226811D01*
X226760D01*
X226712Y74320D01*
X226621Y74302D01*
X226545Y74276D01*
X226483Y74251D01*
X226432Y74222D01*
X226392Y74196D01*
X226381Y74185D01*
X226370Y74178D01*
X226366Y74174D01*
X226363Y74171D01*
X226334Y74142D01*
X226308Y74112D01*
X226265Y74047D01*
X226235Y73985D01*
X226217Y73923D01*
X226203Y73872D01*
X226199Y73829D01*
X226195Y73814D01*
Y73792D01*
X226199Y73723D01*
X226214Y73661D01*
X226232Y73606D01*
X226254Y73563D01*
X226275Y73523D01*
X226294Y73494D01*
X226308Y73479D01*
X226312Y73472D01*
X226363Y73428D01*
X226417Y73392D01*
X226479Y73363D01*
X226534Y73341D01*
X226589Y73326D01*
X226628Y73315D01*
X226647Y73312D01*
X226658Y73308D01*
X226665D01*
X226669D01*
X226643Y72984D01*
X226585Y72991D01*
X226530Y73002D01*
X226428Y73035D01*
X226341Y73075D01*
X226301Y73097D01*
X226268Y73119D01*
X226235Y73137D01*
X226206Y73159D01*
X226185Y73177D01*
X226166Y73195D01*
X226152Y73210D01*
X226137Y73217D01*
X226133Y73224D01*
X226130Y73228D01*
X226097Y73272D01*
X226068Y73315D01*
X226043Y73363D01*
X226021Y73410D01*
X225988Y73501D01*
X225966Y73592D01*
X225955Y73632D01*
X225952Y73672D01*
X225948Y73705D01*
X225944Y73734D01*
X225941Y73759D01*
Y73792D01*
X225944Y73869D01*
X225955Y73941D01*
X225970Y74010D01*
X225988Y74072D01*
X226013Y74131D01*
X226039Y74185D01*
X226064Y74236D01*
X226093Y74280D01*
X226123Y74320D01*
X226148Y74356D01*
X226177Y74385D01*
X226199Y74411D01*
X226217Y74429D01*
X226232Y74444D01*
X226243Y74451D01*
X226246Y74455D01*
X226294Y74491D01*
X226345Y74520D01*
X226392Y74549D01*
X226443Y74571D01*
X226541Y74607D01*
X226636Y74629D01*
X226676Y74637D01*
X226716Y74644D01*
X226749Y74647D01*
X226778Y74651D01*
X226803Y74655D01*
X226821D01*
X226832D01*
X226836D01*
X226902Y74651D01*
D02*
G37*
G36*
X226865Y72365D02*
X226807Y72351D01*
X226752Y72333D01*
X226701Y72314D01*
X226654Y72296D01*
X226610Y72274D01*
X226574Y72252D01*
X226537Y72227D01*
X226505Y72205D01*
X226476Y72187D01*
X226454Y72165D01*
X226432Y72147D01*
X226414Y72132D01*
X226403Y72118D01*
X226392Y72107D01*
X226388Y72103D01*
X226385Y72100D01*
X226356Y72063D01*
X226334Y72023D01*
X226294Y71943D01*
X226265Y71867D01*
X226246Y71790D01*
X226232Y71725D01*
X226228Y71699D01*
Y71674D01*
X226224Y71652D01*
Y71626D01*
X226228Y71543D01*
X226243Y71463D01*
X226261Y71390D01*
X226283Y71324D01*
X226305Y71273D01*
X226315Y71251D01*
X226323Y71233D01*
X226330Y71219D01*
X226337Y71208D01*
X226341Y71200D01*
Y71197D01*
X226392Y71128D01*
X226447Y71069D01*
X226508Y71018D01*
X226567Y70978D01*
X226618Y70946D01*
X226661Y70924D01*
X226679Y70916D01*
X226690Y70909D01*
X226698Y70906D01*
X226701D01*
X226796Y70876D01*
X226891Y70855D01*
X226985Y70836D01*
X227073Y70825D01*
X227113Y70822D01*
X227149Y70818D01*
X227182D01*
X227207Y70815D01*
X227229D01*
X227247D01*
X227258D01*
X227262D01*
X227357Y70818D01*
X227444Y70825D01*
X227524Y70840D01*
X227597Y70855D01*
X227659Y70866D01*
X227684Y70873D01*
X227706Y70880D01*
X227724Y70884D01*
X227735Y70887D01*
X227742Y70891D01*
X227746D01*
X227830Y70927D01*
X227906Y70968D01*
X227968Y71011D01*
X228023Y71058D01*
X228066Y71099D01*
X228095Y71131D01*
X228114Y71157D01*
X228121Y71160D01*
Y71164D01*
X228168Y71241D01*
X228205Y71324D01*
X228230Y71404D01*
X228245Y71481D01*
X228256Y71550D01*
X228259Y71579D01*
Y71605D01*
X228263Y71623D01*
Y71652D01*
X228259Y71743D01*
X228245Y71826D01*
X228223Y71896D01*
X228201Y71958D01*
X228175Y72005D01*
X228157Y72041D01*
X228143Y72063D01*
X228135Y72070D01*
X228081Y72129D01*
X228019Y72183D01*
X227954Y72227D01*
X227888Y72263D01*
X227830Y72292D01*
X227801Y72303D01*
X227779Y72311D01*
X227761Y72318D01*
X227746Y72325D01*
X227739Y72329D01*
X227735D01*
X227812Y72656D01*
X227877Y72635D01*
X227935Y72613D01*
X227990Y72584D01*
X228045Y72558D01*
X228092Y72529D01*
X228135Y72496D01*
X228179Y72467D01*
X228216Y72438D01*
X228245Y72409D01*
X228274Y72383D01*
X228299Y72358D01*
X228317Y72340D01*
X228336Y72322D01*
X228347Y72307D01*
X228350Y72300D01*
X228354Y72296D01*
X228387Y72245D01*
X228419Y72194D01*
X228445Y72143D01*
X228467Y72089D01*
X228500Y71979D01*
X228521Y71881D01*
X228532Y71834D01*
X228536Y71794D01*
X228539Y71754D01*
X228543Y71721D01*
X228547Y71696D01*
Y71659D01*
X228539Y71539D01*
X228521Y71422D01*
X228500Y71321D01*
X228485Y71273D01*
X228470Y71230D01*
X228456Y71189D01*
X228441Y71153D01*
X228430Y71124D01*
X228419Y71095D01*
X228409Y71077D01*
X228401Y71062D01*
X228398Y71051D01*
X228394Y71048D01*
X228332Y70949D01*
X228259Y70866D01*
X228186Y70793D01*
X228114Y70731D01*
X228048Y70684D01*
X228019Y70665D01*
X227993Y70651D01*
X227975Y70636D01*
X227961Y70629D01*
X227950Y70625D01*
X227946Y70622D01*
X227833Y70571D01*
X227717Y70534D01*
X227600Y70509D01*
X227495Y70491D01*
X227448Y70483D01*
X227400Y70480D01*
X227364Y70476D01*
X227327D01*
X227302Y70472D01*
X227280D01*
X227266D01*
X227262D01*
X227131Y70480D01*
X227004Y70494D01*
X226891Y70512D01*
X226836Y70527D01*
X226789Y70538D01*
X226745Y70549D01*
X226705Y70563D01*
X226669Y70574D01*
X226639Y70582D01*
X226618Y70593D01*
X226599Y70596D01*
X226589Y70604D01*
X226585D01*
X226476Y70658D01*
X226377Y70720D01*
X226294Y70785D01*
X226261Y70818D01*
X226228Y70847D01*
X226199Y70876D01*
X226173Y70906D01*
X226152Y70931D01*
X226137Y70953D01*
X226123Y70968D01*
X226112Y70982D01*
X226108Y70989D01*
X226104Y70993D01*
X226075Y71044D01*
X226050Y71095D01*
X226010Y71204D01*
X225981Y71313D01*
X225962Y71419D01*
X225955Y71470D01*
X225948Y71513D01*
X225944Y71553D01*
Y71586D01*
X225941Y71615D01*
Y71655D01*
X225944Y71728D01*
X225952Y71797D01*
X225959Y71863D01*
X225973Y71925D01*
X225992Y71983D01*
X226010Y72038D01*
X226028Y72089D01*
X226050Y72136D01*
X226068Y72176D01*
X226086Y72216D01*
X226104Y72245D01*
X226123Y72274D01*
X226137Y72292D01*
X226144Y72311D01*
X226152Y72318D01*
X226155Y72322D01*
X226199Y72373D01*
X226243Y72416D01*
X226294Y72456D01*
X226345Y72496D01*
X226447Y72562D01*
X226549Y72613D01*
X226596Y72635D01*
X226639Y72653D01*
X226679Y72667D01*
X226712Y72678D01*
X226741Y72689D01*
X226763Y72697D01*
X226778Y72700D01*
X226781D01*
X226865Y72365D01*
D02*
G37*
G36*
X300468Y9095D02*
X300538Y9088D01*
X300603Y9081D01*
X300665Y9066D01*
X300723Y9048D01*
X300778Y9030D01*
X300829Y9011D01*
X300876Y8990D01*
X300916Y8971D01*
X300956Y8953D01*
X300985Y8935D01*
X301014Y8917D01*
X301033Y8902D01*
X301051Y8895D01*
X301058Y8888D01*
X301062Y8884D01*
X301113Y8840D01*
X301156Y8797D01*
X301196Y8746D01*
X301236Y8695D01*
X301302Y8593D01*
X301353Y8491D01*
X301375Y8444D01*
X301393Y8400D01*
X301408Y8360D01*
X301418Y8327D01*
X301429Y8298D01*
X301437Y8276D01*
X301440Y8262D01*
Y8258D01*
X301105Y8174D01*
X301091Y8232D01*
X301073Y8287D01*
X301054Y8338D01*
X301036Y8385D01*
X301014Y8429D01*
X300993Y8465D01*
X300967Y8502D01*
X300945Y8535D01*
X300927Y8564D01*
X300905Y8586D01*
X300887Y8607D01*
X300872Y8626D01*
X300858Y8636D01*
X300847Y8647D01*
X300843Y8651D01*
X300840Y8655D01*
X300803Y8684D01*
X300763Y8706D01*
X300683Y8746D01*
X300607Y8775D01*
X300530Y8793D01*
X300465Y8808D01*
X300439Y8811D01*
X300414D01*
X300392Y8815D01*
X300366D01*
X300283Y8811D01*
X300203Y8797D01*
X300130Y8778D01*
X300064Y8757D01*
X300013Y8735D01*
X299992Y8724D01*
X299973Y8717D01*
X299959Y8709D01*
X299948Y8702D01*
X299941Y8698D01*
X299937D01*
X299868Y8647D01*
X299810Y8593D01*
X299759Y8531D01*
X299719Y8473D01*
X299686Y8422D01*
X299664Y8378D01*
X299657Y8360D01*
X299649Y8349D01*
X299646Y8342D01*
Y8338D01*
X299617Y8243D01*
X299595Y8149D01*
X299577Y8054D01*
X299566Y7967D01*
X299562Y7927D01*
X299558Y7890D01*
Y7858D01*
X299555Y7832D01*
Y7810D01*
Y7792D01*
Y7781D01*
Y7778D01*
X299558Y7683D01*
X299566Y7596D01*
X299580Y7515D01*
X299595Y7443D01*
X299606Y7381D01*
X299613Y7355D01*
X299620Y7333D01*
X299624Y7315D01*
X299628Y7304D01*
X299631Y7297D01*
Y7293D01*
X299668Y7210D01*
X299708Y7133D01*
X299751Y7071D01*
X299799Y7017D01*
X299839Y6973D01*
X299871Y6944D01*
X299897Y6926D01*
X299901Y6918D01*
X299904D01*
X299981Y6871D01*
X300064Y6835D01*
X300144Y6809D01*
X300221Y6795D01*
X300290Y6784D01*
X300319Y6780D01*
X300345D01*
X300363Y6776D01*
X300392D01*
X300483Y6780D01*
X300567Y6795D01*
X300636Y6816D01*
X300698Y6838D01*
X300745Y6864D01*
X300781Y6882D01*
X300803Y6897D01*
X300811Y6904D01*
X300869Y6959D01*
X300923Y7020D01*
X300967Y7086D01*
X301004Y7151D01*
X301033Y7210D01*
X301044Y7239D01*
X301051Y7261D01*
X301058Y7279D01*
X301065Y7293D01*
X301069Y7301D01*
Y7304D01*
X301397Y7228D01*
X301375Y7162D01*
X301353Y7104D01*
X301324Y7050D01*
X301298Y6995D01*
X301269Y6948D01*
X301236Y6904D01*
X301207Y6860D01*
X301178Y6824D01*
X301149Y6795D01*
X301124Y6766D01*
X301098Y6740D01*
X301080Y6722D01*
X301062Y6704D01*
X301047Y6693D01*
X301040Y6689D01*
X301036Y6685D01*
X300985Y6653D01*
X300934Y6620D01*
X300883Y6594D01*
X300829Y6573D01*
X300720Y6540D01*
X300621Y6518D01*
X300574Y6507D01*
X300534Y6504D01*
X300494Y6500D01*
X300461Y6496D01*
X300436Y6493D01*
X300399D01*
X300279Y6500D01*
X300163Y6518D01*
X300061Y6540D01*
X300013Y6554D01*
X299970Y6569D01*
X299930Y6584D01*
X299893Y6598D01*
X299864Y6609D01*
X299835Y6620D01*
X299817Y6631D01*
X299802Y6638D01*
X299791Y6642D01*
X299788Y6645D01*
X299689Y6707D01*
X299606Y6780D01*
X299533Y6853D01*
X299471Y6926D01*
X299424Y6991D01*
X299406Y7020D01*
X299391Y7046D01*
X299376Y7064D01*
X299369Y7079D01*
X299365Y7090D01*
X299362Y7093D01*
X299311Y7206D01*
X299274Y7322D01*
X299249Y7439D01*
X299231Y7544D01*
X299223Y7592D01*
X299220Y7639D01*
X299216Y7676D01*
Y7712D01*
X299213Y7737D01*
Y7759D01*
Y7774D01*
Y7778D01*
X299220Y7908D01*
X299234Y8036D01*
X299253Y8149D01*
X299267Y8203D01*
X299278Y8251D01*
X299289Y8294D01*
X299304Y8334D01*
X299314Y8371D01*
X299322Y8400D01*
X299333Y8422D01*
X299336Y8440D01*
X299344Y8451D01*
Y8455D01*
X299398Y8564D01*
X299460Y8662D01*
X299526Y8746D01*
X299558Y8778D01*
X299587Y8811D01*
X299617Y8840D01*
X299646Y8866D01*
X299671Y8888D01*
X299693Y8902D01*
X299708Y8917D01*
X299722Y8928D01*
X299729Y8931D01*
X299733Y8935D01*
X299784Y8964D01*
X299835Y8990D01*
X299944Y9030D01*
X300053Y9059D01*
X300159Y9077D01*
X300210Y9084D01*
X300254Y9092D01*
X300294Y9095D01*
X300326D01*
X300356Y9099D01*
X300396D01*
X300468Y9095D01*
D02*
G37*
G36*
X303024Y8451D02*
X303366D01*
Y8167D01*
X303024D01*
Y6536D01*
X302772D01*
X301619Y8167D01*
Y8451D01*
X302714D01*
Y9055D01*
X303024D01*
Y8451D01*
D02*
G37*
G36*
X299287Y114607D02*
X299357Y114600D01*
X299422Y114592D01*
X299484Y114578D01*
X299542Y114560D01*
X299597Y114541D01*
X299648Y114523D01*
X299695Y114501D01*
X299735Y114483D01*
X299775Y114465D01*
X299804Y114447D01*
X299833Y114429D01*
X299851Y114414D01*
X299870Y114407D01*
X299877Y114400D01*
X299881Y114396D01*
X299932Y114352D01*
X299975Y114309D01*
X300015Y114258D01*
X300055Y114207D01*
X300121Y114105D01*
X300172Y114003D01*
X300194Y113955D01*
X300212Y113912D01*
X300226Y113872D01*
X300237Y113839D01*
X300248Y113810D01*
X300255Y113788D01*
X300259Y113773D01*
Y113770D01*
X299924Y113686D01*
X299910Y113744D01*
X299891Y113799D01*
X299873Y113850D01*
X299855Y113897D01*
X299833Y113941D01*
X299812Y113977D01*
X299786Y114014D01*
X299764Y114046D01*
X299746Y114076D01*
X299724Y114097D01*
X299706Y114119D01*
X299691Y114137D01*
X299677Y114148D01*
X299666Y114159D01*
X299662Y114163D01*
X299659Y114166D01*
X299622Y114196D01*
X299582Y114217D01*
X299502Y114258D01*
X299426Y114287D01*
X299349Y114305D01*
X299284Y114319D01*
X299258Y114323D01*
X299233D01*
X299211Y114327D01*
X299185D01*
X299102Y114323D01*
X299022Y114309D01*
X298949Y114290D01*
X298883Y114269D01*
X298832Y114247D01*
X298811Y114236D01*
X298792Y114228D01*
X298778Y114221D01*
X298767Y114214D01*
X298760Y114210D01*
X298756D01*
X298687Y114159D01*
X298628Y114105D01*
X298577Y114043D01*
X298537Y113985D01*
X298505Y113934D01*
X298483Y113890D01*
X298476Y113872D01*
X298468Y113861D01*
X298465Y113854D01*
Y113850D01*
X298435Y113755D01*
X298414Y113661D01*
X298395Y113566D01*
X298385Y113479D01*
X298381Y113438D01*
X298377Y113402D01*
Y113369D01*
X298374Y113344D01*
Y113322D01*
Y113304D01*
Y113293D01*
Y113289D01*
X298377Y113195D01*
X298385Y113107D01*
X298399Y113027D01*
X298414Y112954D01*
X298425Y112892D01*
X298432Y112867D01*
X298439Y112845D01*
X298443Y112827D01*
X298446Y112816D01*
X298450Y112809D01*
Y112805D01*
X298486Y112722D01*
X298527Y112645D01*
X298570Y112583D01*
X298618Y112529D01*
X298658Y112485D01*
X298690Y112456D01*
X298716Y112437D01*
X298720Y112430D01*
X298723D01*
X298799Y112383D01*
X298883Y112346D01*
X298963Y112321D01*
X299040Y112306D01*
X299109Y112296D01*
X299138Y112292D01*
X299164D01*
X299182Y112288D01*
X299211D01*
X299302Y112292D01*
X299386Y112306D01*
X299455Y112328D01*
X299517Y112350D01*
X299564Y112376D01*
X299600Y112394D01*
X299622Y112408D01*
X299629Y112416D01*
X299688Y112470D01*
X299742Y112532D01*
X299786Y112598D01*
X299822Y112663D01*
X299851Y112722D01*
X299862Y112751D01*
X299870Y112772D01*
X299877Y112791D01*
X299884Y112805D01*
X299888Y112812D01*
Y112816D01*
X300216Y112740D01*
X300194Y112674D01*
X300172Y112616D01*
X300143Y112561D01*
X300117Y112507D01*
X300088Y112459D01*
X300055Y112416D01*
X300026Y112372D01*
X299997Y112336D01*
X299968Y112306D01*
X299942Y112277D01*
X299917Y112252D01*
X299899Y112234D01*
X299881Y112215D01*
X299866Y112205D01*
X299859Y112201D01*
X299855Y112197D01*
X299804Y112164D01*
X299753Y112132D01*
X299702Y112106D01*
X299648Y112084D01*
X299538Y112052D01*
X299440Y112030D01*
X299393Y112019D01*
X299353Y112015D01*
X299313Y112012D01*
X299280Y112008D01*
X299254Y112004D01*
X299218D01*
X299098Y112012D01*
X298981Y112030D01*
X298880Y112052D01*
X298832Y112066D01*
X298789Y112081D01*
X298749Y112095D01*
X298712Y112110D01*
X298683Y112121D01*
X298654Y112132D01*
X298636Y112143D01*
X298621Y112150D01*
X298610Y112154D01*
X298607Y112157D01*
X298508Y112219D01*
X298425Y112292D01*
X298352Y112365D01*
X298290Y112437D01*
X298243Y112503D01*
X298224Y112532D01*
X298210Y112558D01*
X298195Y112576D01*
X298188Y112590D01*
X298184Y112601D01*
X298181Y112605D01*
X298130Y112718D01*
X298093Y112834D01*
X298068Y112951D01*
X298050Y113056D01*
X298042Y113104D01*
X298039Y113151D01*
X298035Y113187D01*
Y113224D01*
X298031Y113249D01*
Y113271D01*
Y113286D01*
Y113289D01*
X298039Y113420D01*
X298053Y113548D01*
X298072Y113661D01*
X298086Y113715D01*
X298097Y113762D01*
X298108Y113806D01*
X298123Y113846D01*
X298133Y113883D01*
X298141Y113912D01*
X298152Y113934D01*
X298155Y113952D01*
X298163Y113963D01*
Y113966D01*
X298217Y114076D01*
X298279Y114174D01*
X298344Y114258D01*
X298377Y114290D01*
X298406Y114323D01*
X298435Y114352D01*
X298465Y114378D01*
X298490Y114400D01*
X298512Y114414D01*
X298527Y114429D01*
X298541Y114439D01*
X298548Y114443D01*
X298552Y114447D01*
X298603Y114476D01*
X298654Y114501D01*
X298763Y114541D01*
X298872Y114571D01*
X298978Y114589D01*
X299029Y114596D01*
X299073Y114603D01*
X299113Y114607D01*
X299145D01*
X299174Y114611D01*
X299215D01*
X299287Y114607D01*
D02*
G37*
G36*
X302170Y114269D02*
X300929D01*
X300973Y114207D01*
X300994Y114181D01*
X301013Y114156D01*
X301031Y114134D01*
X301045Y114119D01*
X301056Y114108D01*
X301060Y114105D01*
X301078Y114086D01*
X301100Y114068D01*
X301151Y114021D01*
X301209Y113966D01*
X301271Y113912D01*
X301329Y113864D01*
X301355Y113843D01*
X301377Y113821D01*
X301395Y113806D01*
X301409Y113795D01*
X301417Y113788D01*
X301420Y113784D01*
X301479Y113733D01*
X301537Y113686D01*
X301588Y113639D01*
X301635Y113599D01*
X301679Y113559D01*
X301715Y113522D01*
X301752Y113489D01*
X301781Y113460D01*
X301810Y113431D01*
X301832Y113409D01*
X301850Y113391D01*
X301868Y113373D01*
X301886Y113351D01*
X301893Y113344D01*
X301944Y113282D01*
X301988Y113227D01*
X302025Y113173D01*
X302054Y113129D01*
X302076Y113089D01*
X302090Y113060D01*
X302097Y113042D01*
X302101Y113034D01*
X302123Y112980D01*
X302137Y112925D01*
X302152Y112874D01*
X302159Y112831D01*
X302163Y112791D01*
X302167Y112761D01*
Y112743D01*
Y112736D01*
X302163Y112681D01*
X302156Y112630D01*
X302148Y112580D01*
X302134Y112536D01*
X302097Y112449D01*
X302061Y112379D01*
X302039Y112346D01*
X302021Y112321D01*
X302003Y112296D01*
X301985Y112277D01*
X301970Y112263D01*
X301963Y112248D01*
X301955Y112245D01*
X301952Y112241D01*
X301912Y112205D01*
X301868Y112172D01*
X301821Y112146D01*
X301773Y112125D01*
X301679Y112088D01*
X301584Y112063D01*
X301544Y112055D01*
X301504Y112048D01*
X301468Y112044D01*
X301438Y112041D01*
X301413Y112037D01*
X301377D01*
X301311Y112041D01*
X301249Y112044D01*
X301191Y112055D01*
X301136Y112066D01*
X301085Y112081D01*
X301038Y112095D01*
X300994Y112114D01*
X300954Y112132D01*
X300918Y112150D01*
X300889Y112168D01*
X300863Y112183D01*
X300842Y112197D01*
X300823Y112208D01*
X300813Y112219D01*
X300805Y112223D01*
X300801Y112226D01*
X300765Y112263D01*
X300732Y112303D01*
X300700Y112346D01*
X300674Y112390D01*
X300630Y112478D01*
X300601Y112565D01*
X300590Y112605D01*
X300580Y112645D01*
X300572Y112678D01*
X300565Y112707D01*
X300561Y112732D01*
Y112751D01*
X300558Y112761D01*
Y112765D01*
X300874Y112798D01*
X300882Y112714D01*
X300896Y112641D01*
X300918Y112576D01*
X300943Y112525D01*
X300965Y112481D01*
X300987Y112452D01*
X301002Y112434D01*
X301009Y112427D01*
X301064Y112383D01*
X301122Y112350D01*
X301184Y112325D01*
X301238Y112310D01*
X301289Y112299D01*
X301333Y112296D01*
X301347Y112292D01*
X301369D01*
X301446Y112296D01*
X301515Y112310D01*
X301573Y112332D01*
X301624Y112354D01*
X301664Y112379D01*
X301690Y112398D01*
X301708Y112412D01*
X301715Y112419D01*
X301759Y112470D01*
X301792Y112521D01*
X301817Y112572D01*
X301832Y112623D01*
X301843Y112663D01*
X301846Y112700D01*
X301850Y112722D01*
Y112725D01*
Y112729D01*
X301843Y112794D01*
X301828Y112863D01*
X301802Y112925D01*
X301777Y112984D01*
X301748Y113031D01*
X301723Y113071D01*
X301715Y113085D01*
X301708Y113096D01*
X301701Y113100D01*
Y113104D01*
X301672Y113144D01*
X301635Y113184D01*
X301595Y113227D01*
X301551Y113271D01*
X301460Y113358D01*
X301369Y113446D01*
X301322Y113486D01*
X301282Y113522D01*
X301242Y113555D01*
X301209Y113584D01*
X301184Y113606D01*
X301162Y113624D01*
X301147Y113635D01*
X301144Y113639D01*
X301053Y113715D01*
X300969Y113788D01*
X300900Y113854D01*
X300845Y113908D01*
X300798Y113955D01*
X300765Y113988D01*
X300747Y114010D01*
X300740Y114014D01*
Y114017D01*
X300689Y114079D01*
X300649Y114137D01*
X300612Y114196D01*
X300583Y114247D01*
X300561Y114290D01*
X300547Y114323D01*
X300539Y114345D01*
X300536Y114348D01*
Y114352D01*
X300521Y114392D01*
X300514Y114429D01*
X300507Y114465D01*
X300503Y114498D01*
X300499Y114527D01*
Y114549D01*
Y114563D01*
Y114567D01*
X302170D01*
Y114269D01*
D02*
G37*
G36*
X164724Y189429D02*
X162503D01*
Y188188D01*
X162205D01*
Y189764D01*
X164724D01*
Y189429D01*
D02*
G37*
G36*
Y185964D02*
X164425D01*
Y187452D01*
X163657D01*
Y186058D01*
X163359D01*
Y187452D01*
X162503D01*
Y185905D01*
X162205D01*
Y187787D01*
X164724D01*
Y185964D01*
D02*
G37*
G36*
Y184475D02*
X164720Y184409D01*
X164716Y184336D01*
X164709Y184264D01*
X164698Y184191D01*
X164687Y184129D01*
Y184125D01*
X164684Y184118D01*
Y184107D01*
X164676Y184093D01*
X164665Y184053D01*
X164647Y184002D01*
X164622Y183943D01*
X164589Y183881D01*
X164552Y183820D01*
X164505Y183761D01*
X164502Y183758D01*
X164498Y183754D01*
X164487Y183743D01*
X164476Y183729D01*
X164440Y183692D01*
X164389Y183649D01*
X164327Y183601D01*
X164254Y183550D01*
X164170Y183503D01*
X164076Y183463D01*
X164072D01*
X164065Y183459D01*
X164050Y183452D01*
X164028Y183448D01*
X164003Y183438D01*
X163974Y183430D01*
X163941Y183423D01*
X163901Y183412D01*
X163861Y183401D01*
X163814Y183394D01*
X163712Y183376D01*
X163599Y183365D01*
X163475Y183361D01*
X163471D01*
X163464D01*
X163446D01*
X163428D01*
X163402Y183365D01*
X163373D01*
X163304Y183368D01*
X163224Y183379D01*
X163140Y183390D01*
X163053Y183408D01*
X162966Y183430D01*
X162962D01*
X162955Y183434D01*
X162944Y183438D01*
X162929Y183441D01*
X162889Y183456D01*
X162838Y183477D01*
X162780Y183499D01*
X162722Y183528D01*
X162660Y183565D01*
X162601Y183601D01*
X162594Y183605D01*
X162576Y183619D01*
X162550Y183641D01*
X162518Y183670D01*
X162481Y183703D01*
X162445Y183743D01*
X162405Y183783D01*
X162372Y183831D01*
X162369Y183838D01*
X162358Y183852D01*
X162343Y183878D01*
X162325Y183914D01*
X162303Y183958D01*
X162285Y184009D01*
X162263Y184067D01*
X162245Y184133D01*
Y184140D01*
X162241Y184151D01*
X162238Y184162D01*
X162234Y184198D01*
X162227Y184249D01*
X162219Y184307D01*
X162212Y184377D01*
X162208Y184453D01*
X162205Y184537D01*
Y185443D01*
X164724D01*
Y184475D01*
D02*
G37*
G36*
X164101Y182790D02*
X164108Y182782D01*
X164112Y182768D01*
X164123Y182749D01*
X164134Y182728D01*
X164148Y182702D01*
X164185Y182640D01*
X164225Y182568D01*
X164276Y182495D01*
X164334Y182418D01*
X164396Y182342D01*
X164400Y182338D01*
X164403Y182334D01*
X164414Y182324D01*
X164425Y182309D01*
X164462Y182276D01*
X164505Y182233D01*
X164556Y182189D01*
X164614Y182142D01*
X164673Y182102D01*
X164734Y182065D01*
Y181865D01*
X162205D01*
Y182174D01*
X164174D01*
X164170Y182178D01*
X164156Y182196D01*
X164134Y182218D01*
X164108Y182255D01*
X164076Y182294D01*
X164039Y182345D01*
X163999Y182404D01*
X163959Y182469D01*
Y182473D01*
X163956Y182476D01*
X163941Y182498D01*
X163923Y182535D01*
X163901Y182578D01*
X163875Y182629D01*
X163850Y182684D01*
X163824Y182739D01*
X163803Y182793D01*
X164101D01*
Y182790D01*
D02*
G37*
G36*
X131653Y189429D02*
X129432D01*
Y188188D01*
X129134D01*
Y189764D01*
X131653D01*
Y189429D01*
D02*
G37*
G36*
Y185964D02*
X131354D01*
Y187452D01*
X130586D01*
Y186058D01*
X130288D01*
Y187452D01*
X129432D01*
Y185905D01*
X129134D01*
Y187787D01*
X131653D01*
Y185964D01*
D02*
G37*
G36*
Y184475D02*
X131649Y184409D01*
X131646Y184336D01*
X131638Y184264D01*
X131627Y184191D01*
X131616Y184129D01*
Y184125D01*
X131613Y184118D01*
Y184107D01*
X131605Y184093D01*
X131595Y184053D01*
X131576Y184002D01*
X131551Y183943D01*
X131518Y183881D01*
X131482Y183820D01*
X131434Y183761D01*
X131431Y183758D01*
X131427Y183754D01*
X131416Y183743D01*
X131405Y183729D01*
X131369Y183692D01*
X131318Y183649D01*
X131256Y183601D01*
X131183Y183550D01*
X131099Y183503D01*
X131005Y183463D01*
X131001D01*
X130994Y183459D01*
X130979Y183452D01*
X130957Y183448D01*
X130932Y183438D01*
X130903Y183430D01*
X130870Y183423D01*
X130830Y183412D01*
X130790Y183401D01*
X130743Y183394D01*
X130641Y183376D01*
X130528Y183365D01*
X130404Y183361D01*
X130401D01*
X130393D01*
X130375D01*
X130357D01*
X130331Y183365D01*
X130302D01*
X130233Y183368D01*
X130153Y183379D01*
X130069Y183390D01*
X129982Y183408D01*
X129895Y183430D01*
X129891D01*
X129884Y183434D01*
X129873Y183438D01*
X129858Y183441D01*
X129818Y183456D01*
X129767Y183477D01*
X129709Y183499D01*
X129651Y183528D01*
X129589Y183565D01*
X129531Y183601D01*
X129523Y183605D01*
X129505Y183619D01*
X129480Y183641D01*
X129447Y183670D01*
X129411Y183703D01*
X129374Y183743D01*
X129334Y183783D01*
X129301Y183831D01*
X129298Y183838D01*
X129287Y183852D01*
X129272Y183878D01*
X129254Y183914D01*
X129232Y183958D01*
X129214Y184009D01*
X129192Y184067D01*
X129174Y184133D01*
Y184140D01*
X129170Y184151D01*
X129167Y184162D01*
X129163Y184198D01*
X129156Y184249D01*
X129148Y184307D01*
X129141Y184377D01*
X129138Y184453D01*
X129134Y184537D01*
Y185443D01*
X131653D01*
Y184475D01*
D02*
G37*
G36*
X129203Y183070D02*
X129236Y183066D01*
X129272Y183059D01*
X129309Y183052D01*
X129349Y183037D01*
X129352D01*
X129356Y183033D01*
X129378Y183026D01*
X129411Y183012D01*
X129454Y182990D01*
X129505Y182961D01*
X129563Y182924D01*
X129622Y182884D01*
X129683Y182833D01*
X129687D01*
X129691Y182826D01*
X129713Y182808D01*
X129745Y182775D01*
X129793Y182728D01*
X129847Y182673D01*
X129913Y182604D01*
X129986Y182520D01*
X130062Y182429D01*
X130066Y182425D01*
X130077Y182411D01*
X130095Y182389D01*
X130117Y182364D01*
X130146Y182331D01*
X130178Y182291D01*
X130215Y182251D01*
X130255Y182203D01*
X130342Y182113D01*
X130430Y182021D01*
X130473Y181978D01*
X130517Y181938D01*
X130557Y181901D01*
X130597Y181872D01*
X130601D01*
X130604Y181865D01*
X130615Y181858D01*
X130630Y181850D01*
X130670Y181825D01*
X130717Y181796D01*
X130775Y181770D01*
X130837Y181745D01*
X130906Y181730D01*
X130972Y181723D01*
X130976D01*
X130979D01*
X131001Y181727D01*
X131038Y181730D01*
X131078Y181741D01*
X131129Y181756D01*
X131179Y181781D01*
X131230Y181814D01*
X131281Y181858D01*
X131289Y181865D01*
X131303Y181883D01*
X131322Y181909D01*
X131347Y181949D01*
X131369Y182000D01*
X131391Y182058D01*
X131405Y182127D01*
X131409Y182203D01*
Y182225D01*
X131405Y182240D01*
X131402Y182284D01*
X131391Y182334D01*
X131376Y182389D01*
X131351Y182451D01*
X131318Y182509D01*
X131274Y182564D01*
X131267Y182571D01*
X131249Y182586D01*
X131220Y182607D01*
X131176Y182629D01*
X131125Y182655D01*
X131059Y182677D01*
X130987Y182691D01*
X130903Y182699D01*
X130936Y183015D01*
X130939D01*
X130950Y183012D01*
X130968D01*
X130994Y183008D01*
X131023Y183001D01*
X131056Y182993D01*
X131096Y182983D01*
X131136Y182972D01*
X131223Y182942D01*
X131311Y182899D01*
X131354Y182873D01*
X131398Y182841D01*
X131438Y182808D01*
X131474Y182771D01*
X131478Y182768D01*
X131482Y182760D01*
X131493Y182749D01*
X131503Y182731D01*
X131518Y182710D01*
X131533Y182684D01*
X131551Y182655D01*
X131569Y182618D01*
X131587Y182578D01*
X131605Y182535D01*
X131620Y182487D01*
X131634Y182437D01*
X131646Y182382D01*
X131656Y182324D01*
X131660Y182262D01*
X131664Y182196D01*
Y182160D01*
X131660Y182134D01*
X131656Y182105D01*
X131653Y182069D01*
X131646Y182029D01*
X131638Y181989D01*
X131613Y181894D01*
X131576Y181799D01*
X131554Y181752D01*
X131529Y181705D01*
X131496Y181661D01*
X131460Y181621D01*
X131456Y181617D01*
X131453Y181610D01*
X131438Y181603D01*
X131423Y181588D01*
X131405Y181570D01*
X131380Y181552D01*
X131354Y181534D01*
X131322Y181512D01*
X131252Y181475D01*
X131165Y181439D01*
X131121Y181424D01*
X131070Y181417D01*
X131019Y181410D01*
X130965Y181406D01*
X130957D01*
X130939D01*
X130910Y181410D01*
X130870Y181414D01*
X130826Y181421D01*
X130775Y181436D01*
X130721Y181450D01*
X130666Y181472D01*
X130659Y181475D01*
X130641Y181483D01*
X130612Y181497D01*
X130572Y181519D01*
X130528Y181548D01*
X130473Y181585D01*
X130419Y181628D01*
X130357Y181679D01*
X130350Y181687D01*
X130328Y181705D01*
X130310Y181723D01*
X130291Y181741D01*
X130270Y181763D01*
X130240Y181792D01*
X130211Y181821D01*
X130178Y181858D01*
X130142Y181894D01*
X130102Y181938D01*
X130062Y181985D01*
X130015Y182036D01*
X129967Y182094D01*
X129917Y182152D01*
X129913Y182156D01*
X129905Y182164D01*
X129895Y182178D01*
X129880Y182196D01*
X129858Y182218D01*
X129836Y182244D01*
X129789Y182302D01*
X129735Y182364D01*
X129680Y182422D01*
X129632Y182473D01*
X129614Y182495D01*
X129596Y182513D01*
X129593Y182517D01*
X129582Y182527D01*
X129567Y182542D01*
X129545Y182560D01*
X129520Y182578D01*
X129494Y182600D01*
X129432Y182644D01*
Y181403D01*
X129134D01*
Y183073D01*
X129138D01*
X129152D01*
X129174D01*
X129203Y183070D01*
D02*
G37*
G36*
X98188Y189429D02*
X95968D01*
Y188188D01*
X95669D01*
Y189764D01*
X98188D01*
Y189429D01*
D02*
G37*
G36*
Y185964D02*
X97890D01*
Y187452D01*
X97122D01*
Y186058D01*
X96823D01*
Y187452D01*
X95968D01*
Y185905D01*
X95669D01*
Y187787D01*
X98188D01*
Y185964D01*
D02*
G37*
G36*
Y184475D02*
X98185Y184409D01*
X98181Y184336D01*
X98174Y184264D01*
X98163Y184191D01*
X98152Y184129D01*
Y184125D01*
X98148Y184118D01*
Y184107D01*
X98141Y184093D01*
X98130Y184053D01*
X98112Y184002D01*
X98086Y183943D01*
X98053Y183881D01*
X98017Y183820D01*
X97970Y183761D01*
X97966Y183758D01*
X97962Y183754D01*
X97952Y183743D01*
X97941Y183729D01*
X97904Y183692D01*
X97853Y183649D01*
X97791Y183601D01*
X97719Y183550D01*
X97635Y183503D01*
X97540Y183463D01*
X97537D01*
X97529Y183459D01*
X97515Y183452D01*
X97493Y183448D01*
X97467Y183438D01*
X97438Y183430D01*
X97406Y183423D01*
X97365Y183412D01*
X97325Y183401D01*
X97278Y183394D01*
X97176Y183376D01*
X97063Y183365D01*
X96940Y183361D01*
X96936D01*
X96929D01*
X96911D01*
X96892D01*
X96867Y183365D01*
X96838D01*
X96769Y183368D01*
X96688Y183379D01*
X96605Y183390D01*
X96517Y183408D01*
X96430Y183430D01*
X96426D01*
X96419Y183434D01*
X96408Y183438D01*
X96394Y183441D01*
X96354Y183456D01*
X96303Y183477D01*
X96244Y183499D01*
X96186Y183528D01*
X96124Y183565D01*
X96066Y183601D01*
X96059Y183605D01*
X96041Y183619D01*
X96015Y183641D01*
X95982Y183670D01*
X95946Y183703D01*
X95910Y183743D01*
X95869Y183783D01*
X95837Y183831D01*
X95833Y183838D01*
X95822Y183852D01*
X95808Y183878D01*
X95789Y183914D01*
X95768Y183958D01*
X95749Y184009D01*
X95727Y184067D01*
X95709Y184133D01*
Y184140D01*
X95706Y184151D01*
X95702Y184162D01*
X95698Y184198D01*
X95691Y184249D01*
X95684Y184307D01*
X95677Y184377D01*
X95673Y184453D01*
X95669Y184537D01*
Y185443D01*
X98188D01*
Y184475D01*
D02*
G37*
G36*
X96376Y182717D02*
X96372D01*
X96364Y182713D01*
X96350Y182710D01*
X96332Y182706D01*
X96310Y182702D01*
X96285Y182695D01*
X96230Y182677D01*
X96164Y182651D01*
X96102Y182618D01*
X96044Y182582D01*
X95993Y182538D01*
X95990Y182531D01*
X95975Y182517D01*
X95957Y182487D01*
X95939Y182451D01*
X95917Y182407D01*
X95899Y182353D01*
X95884Y182291D01*
X95880Y182225D01*
Y182203D01*
X95884Y182189D01*
X95888Y182149D01*
X95899Y182098D01*
X95917Y182040D01*
X95942Y181978D01*
X95979Y181916D01*
X96030Y181858D01*
X96037Y181850D01*
X96059Y181832D01*
X96092Y181810D01*
X96135Y181781D01*
X96190Y181752D01*
X96252Y181730D01*
X96324Y181712D01*
X96405Y181705D01*
X96408D01*
X96416D01*
X96426D01*
X96441Y181709D01*
X96481Y181712D01*
X96528Y181723D01*
X96587Y181738D01*
X96645Y181763D01*
X96703Y181799D01*
X96758Y181847D01*
X96765Y181854D01*
X96780Y181872D01*
X96801Y181901D01*
X96827Y181941D01*
X96852Y181992D01*
X96874Y182054D01*
X96889Y182123D01*
X96896Y182200D01*
Y182233D01*
X96892Y182258D01*
X96889Y182291D01*
X96881Y182327D01*
X96874Y182371D01*
X96863Y182418D01*
X97136Y182382D01*
Y182364D01*
X97133Y182349D01*
Y182302D01*
X97140Y182262D01*
X97147Y182214D01*
X97158Y182160D01*
X97176Y182098D01*
X97202Y182040D01*
X97234Y181978D01*
Y181974D01*
X97238Y181971D01*
X97253Y181952D01*
X97278Y181927D01*
X97311Y181898D01*
X97358Y181869D01*
X97413Y181843D01*
X97475Y181825D01*
X97511Y181818D01*
X97551D01*
X97555D01*
X97558D01*
X97580D01*
X97609Y181825D01*
X97650Y181832D01*
X97693Y181847D01*
X97740Y181865D01*
X97788Y181894D01*
X97831Y181934D01*
X97835Y181938D01*
X97850Y181956D01*
X97868Y181982D01*
X97890Y182014D01*
X97908Y182058D01*
X97926Y182109D01*
X97941Y182167D01*
X97944Y182233D01*
Y182262D01*
X97937Y182294D01*
X97930Y182338D01*
X97915Y182386D01*
X97897Y182433D01*
X97868Y182484D01*
X97831Y182531D01*
X97828Y182535D01*
X97810Y182549D01*
X97784Y182571D01*
X97748Y182597D01*
X97700Y182622D01*
X97642Y182648D01*
X97573Y182669D01*
X97493Y182684D01*
X97548Y182993D01*
X97551D01*
X97562Y182990D01*
X97577Y182986D01*
X97598Y182983D01*
X97624Y182975D01*
X97653Y182964D01*
X97722Y182942D01*
X97802Y182906D01*
X97882Y182862D01*
X97959Y182808D01*
X98028Y182739D01*
X98032Y182735D01*
X98035Y182728D01*
X98043Y182717D01*
X98053Y182702D01*
X98068Y182684D01*
X98083Y182659D01*
X98097Y182633D01*
X98115Y182600D01*
X98145Y182527D01*
X98174Y182444D01*
X98192Y182345D01*
X98199Y182294D01*
Y182203D01*
X98195Y182164D01*
X98188Y182116D01*
X98177Y182058D01*
X98159Y181992D01*
X98137Y181927D01*
X98108Y181861D01*
Y181858D01*
X98104Y181854D01*
X98093Y181832D01*
X98072Y181799D01*
X98046Y181763D01*
X98010Y181719D01*
X97970Y181676D01*
X97922Y181632D01*
X97868Y181596D01*
X97861Y181592D01*
X97842Y181581D01*
X97810Y181567D01*
X97770Y181548D01*
X97722Y181530D01*
X97668Y181516D01*
X97606Y181505D01*
X97544Y181501D01*
X97537D01*
X97515D01*
X97486Y181505D01*
X97446Y181512D01*
X97398Y181523D01*
X97347Y181541D01*
X97296Y181563D01*
X97245Y181592D01*
X97238Y181596D01*
X97224Y181606D01*
X97198Y181628D01*
X97169Y181658D01*
X97136Y181694D01*
X97100Y181738D01*
X97067Y181789D01*
X97034Y181850D01*
Y181847D01*
X97031Y181840D01*
X97027Y181829D01*
X97023Y181814D01*
X97009Y181774D01*
X96987Y181723D01*
X96958Y181665D01*
X96921Y181606D01*
X96874Y181552D01*
X96820Y181501D01*
X96812Y181497D01*
X96790Y181483D01*
X96754Y181461D01*
X96707Y181439D01*
X96649Y181417D01*
X96579Y181395D01*
X96499Y181381D01*
X96412Y181377D01*
X96408D01*
X96397D01*
X96379D01*
X96357Y181381D01*
X96328Y181385D01*
X96295Y181392D01*
X96259Y181399D01*
X96219Y181406D01*
X96132Y181436D01*
X96084Y181457D01*
X96041Y181479D01*
X95993Y181508D01*
X95946Y181541D01*
X95899Y181577D01*
X95855Y181621D01*
X95851Y181625D01*
X95844Y181632D01*
X95833Y181647D01*
X95819Y181665D01*
X95800Y181687D01*
X95782Y181716D01*
X95760Y181748D01*
X95742Y181789D01*
X95720Y181829D01*
X95698Y181876D01*
X95680Y181923D01*
X95662Y181978D01*
X95648Y182036D01*
X95636Y182098D01*
X95629Y182160D01*
X95626Y182229D01*
Y182262D01*
X95629Y182284D01*
X95633Y182313D01*
X95636Y182345D01*
X95644Y182382D01*
X95651Y182422D01*
X95673Y182509D01*
X95709Y182600D01*
X95731Y182648D01*
X95757Y182691D01*
X95789Y182735D01*
X95822Y182779D01*
X95826Y182782D01*
X95833Y182790D01*
X95844Y182800D01*
X95859Y182811D01*
X95877Y182830D01*
X95902Y182848D01*
X95928Y182870D01*
X95960Y182891D01*
X95997Y182913D01*
X96033Y182935D01*
X96121Y182975D01*
X96223Y183008D01*
X96277Y183019D01*
X96335Y183026D01*
X96376Y182717D01*
D02*
G37*
G36*
X64724Y189429D02*
X62503D01*
Y188188D01*
X62205D01*
Y189764D01*
X64724D01*
Y189429D01*
D02*
G37*
G36*
Y185964D02*
X64425D01*
Y187452D01*
X63657D01*
Y186058D01*
X63359D01*
Y187452D01*
X62503D01*
Y185905D01*
X62205D01*
Y187787D01*
X64724D01*
Y185964D01*
D02*
G37*
G36*
Y184475D02*
X64720Y184409D01*
X64716Y184336D01*
X64709Y184264D01*
X64698Y184191D01*
X64687Y184129D01*
Y184125D01*
X64684Y184118D01*
Y184107D01*
X64676Y184093D01*
X64665Y184053D01*
X64647Y184002D01*
X64622Y183943D01*
X64589Y183881D01*
X64552Y183820D01*
X64505Y183761D01*
X64502Y183758D01*
X64498Y183754D01*
X64487Y183743D01*
X64476Y183729D01*
X64440Y183692D01*
X64389Y183649D01*
X64327Y183601D01*
X64254Y183550D01*
X64170Y183503D01*
X64076Y183463D01*
X64072D01*
X64065Y183459D01*
X64050Y183452D01*
X64028Y183448D01*
X64003Y183438D01*
X63974Y183430D01*
X63941Y183423D01*
X63901Y183412D01*
X63861Y183401D01*
X63814Y183394D01*
X63712Y183376D01*
X63599Y183365D01*
X63475Y183361D01*
X63471D01*
X63464D01*
X63446D01*
X63428D01*
X63402Y183365D01*
X63373D01*
X63304Y183368D01*
X63224Y183379D01*
X63140Y183390D01*
X63053Y183408D01*
X62966Y183430D01*
X62962D01*
X62955Y183434D01*
X62944Y183438D01*
X62929Y183441D01*
X62889Y183456D01*
X62838Y183477D01*
X62780Y183499D01*
X62722Y183528D01*
X62660Y183565D01*
X62602Y183601D01*
X62594Y183605D01*
X62576Y183619D01*
X62550Y183641D01*
X62518Y183670D01*
X62481Y183703D01*
X62445Y183743D01*
X62405Y183783D01*
X62372Y183831D01*
X62369Y183838D01*
X62358Y183852D01*
X62343Y183878D01*
X62325Y183914D01*
X62303Y183958D01*
X62285Y184009D01*
X62263Y184067D01*
X62245Y184133D01*
Y184140D01*
X62241Y184151D01*
X62238Y184162D01*
X62234Y184198D01*
X62227Y184249D01*
X62219Y184307D01*
X62212Y184377D01*
X62208Y184453D01*
X62205Y184537D01*
Y185443D01*
X64724D01*
Y184475D01*
D02*
G37*
G36*
Y181982D02*
Y181730D01*
X63093D01*
Y181388D01*
X62809D01*
Y181730D01*
X62205D01*
Y182040D01*
X62809D01*
Y183135D01*
X63093D01*
X64724Y181982D01*
D02*
G37*
G36*
X31810Y189429D02*
X29590D01*
Y188188D01*
X29291D01*
Y189764D01*
X31810D01*
Y189429D01*
D02*
G37*
G36*
Y185964D02*
X31512D01*
Y187452D01*
X30744D01*
Y186058D01*
X30445D01*
Y187452D01*
X29590D01*
Y185905D01*
X29291D01*
Y187787D01*
X31810D01*
Y185964D01*
D02*
G37*
G36*
Y184475D02*
X31807Y184409D01*
X31803Y184336D01*
X31796Y184264D01*
X31785Y184191D01*
X31774Y184129D01*
Y184125D01*
X31770Y184118D01*
Y184107D01*
X31763Y184093D01*
X31752Y184053D01*
X31734Y184002D01*
X31708Y183943D01*
X31676Y183881D01*
X31639Y183820D01*
X31592Y183761D01*
X31588Y183758D01*
X31585Y183754D01*
X31574Y183743D01*
X31563Y183729D01*
X31526Y183692D01*
X31475Y183649D01*
X31413Y183601D01*
X31341Y183550D01*
X31257Y183503D01*
X31162Y183463D01*
X31159D01*
X31151Y183459D01*
X31137Y183452D01*
X31115Y183448D01*
X31090Y183438D01*
X31060Y183430D01*
X31028Y183423D01*
X30988Y183412D01*
X30948Y183401D01*
X30900Y183394D01*
X30798Y183376D01*
X30685Y183365D01*
X30562Y183361D01*
X30558D01*
X30551D01*
X30533D01*
X30514D01*
X30489Y183365D01*
X30460D01*
X30391Y183368D01*
X30311Y183379D01*
X30227Y183390D01*
X30139Y183408D01*
X30052Y183430D01*
X30048D01*
X30041Y183434D01*
X30030Y183438D01*
X30016Y183441D01*
X29976Y183456D01*
X29925Y183477D01*
X29866Y183499D01*
X29808Y183528D01*
X29746Y183565D01*
X29688Y183601D01*
X29681Y183605D01*
X29663Y183619D01*
X29637Y183641D01*
X29604Y183670D01*
X29568Y183703D01*
X29532Y183743D01*
X29492Y183783D01*
X29459Y183831D01*
X29455Y183838D01*
X29444Y183852D01*
X29430Y183878D01*
X29412Y183914D01*
X29390Y183958D01*
X29372Y184009D01*
X29350Y184067D01*
X29331Y184133D01*
Y184140D01*
X29328Y184151D01*
X29324Y184162D01*
X29320Y184198D01*
X29313Y184249D01*
X29306Y184307D01*
X29299Y184377D01*
X29295Y184453D01*
X29291Y184537D01*
Y185443D01*
X31810D01*
Y184475D01*
D02*
G37*
G36*
X29976Y182706D02*
X29972D01*
X29965D01*
X29954Y182702D01*
X29936Y182699D01*
X29896Y182688D01*
X29841Y182673D01*
X29786Y182651D01*
X29725Y182622D01*
X29670Y182586D01*
X29619Y182542D01*
X29615Y182535D01*
X29601Y182520D01*
X29583Y182491D01*
X29561Y182451D01*
X29539Y182407D01*
X29521Y182353D01*
X29506Y182291D01*
X29502Y182222D01*
Y182200D01*
X29506Y182185D01*
X29510Y182142D01*
X29524Y182091D01*
X29543Y182029D01*
X29572Y181967D01*
X29615Y181901D01*
X29641Y181872D01*
X29670Y181843D01*
X29674Y181840D01*
X29677Y181836D01*
X29688Y181829D01*
X29699Y181818D01*
X29739Y181792D01*
X29790Y181763D01*
X29852Y181738D01*
X29928Y181712D01*
X30019Y181694D01*
X30067Y181687D01*
X30118D01*
X30121D01*
X30129D01*
X30143D01*
X30161Y181690D01*
X30183D01*
X30209Y181694D01*
X30267Y181705D01*
X30336Y181723D01*
X30405Y181748D01*
X30471Y181785D01*
X30533Y181836D01*
X30536D01*
X30540Y181843D01*
X30558Y181861D01*
X30584Y181894D01*
X30613Y181938D01*
X30638Y181996D01*
X30664Y182062D01*
X30682Y182138D01*
X30689Y182182D01*
Y182251D01*
X30685Y182280D01*
X30682Y182316D01*
X30671Y182360D01*
X30660Y182404D01*
X30642Y182451D01*
X30620Y182498D01*
X30616Y182502D01*
X30609Y182517D01*
X30591Y182538D01*
X30573Y182568D01*
X30547Y182597D01*
X30514Y182626D01*
X30482Y182659D01*
X30442Y182684D01*
X30482Y182975D01*
X31778Y182731D01*
Y181479D01*
X31483D01*
Y182487D01*
X30802Y182622D01*
X30806Y182618D01*
X30809Y182611D01*
X30817Y182600D01*
X30828Y182582D01*
X30838Y182560D01*
X30853Y182535D01*
X30882Y182476D01*
X30911Y182404D01*
X30937Y182324D01*
X30955Y182236D01*
X30962Y182193D01*
Y182113D01*
X30959Y182091D01*
X30955Y182062D01*
X30951Y182029D01*
X30944Y181992D01*
X30933Y181952D01*
X30908Y181865D01*
X30889Y181818D01*
X30864Y181770D01*
X30838Y181723D01*
X30809Y181676D01*
X30773Y181632D01*
X30733Y181588D01*
X30729Y181585D01*
X30722Y181577D01*
X30711Y181567D01*
X30693Y181552D01*
X30667Y181534D01*
X30642Y181516D01*
X30609Y181494D01*
X30573Y181472D01*
X30533Y181454D01*
X30489Y181432D01*
X30438Y181414D01*
X30387Y181395D01*
X30332Y181381D01*
X30271Y181370D01*
X30209Y181363D01*
X30143Y181359D01*
X30139D01*
X30129D01*
X30110D01*
X30085Y181363D01*
X30056Y181366D01*
X30023Y181370D01*
X29983Y181377D01*
X29943Y181385D01*
X29848Y181406D01*
X29750Y181443D01*
X29699Y181465D01*
X29652Y181494D01*
X29601Y181523D01*
X29553Y181559D01*
X29550Y181563D01*
X29539Y181570D01*
X29524Y181585D01*
X29506Y181603D01*
X29484Y181628D01*
X29455Y181658D01*
X29430Y181694D01*
X29401Y181734D01*
X29372Y181778D01*
X29346Y181829D01*
X29320Y181883D01*
X29295Y181941D01*
X29277Y182003D01*
X29262Y182072D01*
X29251Y182145D01*
X29248Y182222D01*
Y182255D01*
X29251Y182280D01*
X29255Y182309D01*
X29259Y182342D01*
X29262Y182382D01*
X29273Y182422D01*
X29295Y182513D01*
X29328Y182604D01*
X29350Y182651D01*
X29375Y182699D01*
X29404Y182742D01*
X29437Y182786D01*
X29441Y182790D01*
X29444Y182797D01*
X29459Y182804D01*
X29473Y182819D01*
X29492Y182837D01*
X29513Y182855D01*
X29543Y182877D01*
X29575Y182895D01*
X29608Y182917D01*
X29648Y182939D01*
X29735Y182979D01*
X29837Y183012D01*
X29892Y183022D01*
X29950Y183030D01*
X29976Y182706D01*
D02*
G37*
G36*
X153150Y159390D02*
X151180D01*
X151184Y159386D01*
X151198Y159368D01*
X151220Y159346D01*
X151246Y159309D01*
X151279Y159269D01*
X151315Y159219D01*
X151355Y159160D01*
X151395Y159095D01*
Y159091D01*
X151399Y159087D01*
X151413Y159066D01*
X151432Y159029D01*
X151453Y158985D01*
X151479Y158935D01*
X151504Y158880D01*
X151530Y158825D01*
X151552Y158771D01*
X151253D01*
Y158774D01*
X151246Y158782D01*
X151242Y158796D01*
X151231Y158814D01*
X151220Y158836D01*
X151206Y158862D01*
X151169Y158924D01*
X151129Y158996D01*
X151078Y159069D01*
X151020Y159146D01*
X150958Y159222D01*
X150955Y159226D01*
X150951Y159229D01*
X150940Y159240D01*
X150929Y159255D01*
X150893Y159288D01*
X150849Y159331D01*
X150798Y159375D01*
X150740Y159422D01*
X150682Y159462D01*
X150620Y159499D01*
Y159699D01*
X153150D01*
Y159390D01*
D02*
G37*
G36*
X152483Y158199D02*
X152527Y158192D01*
X152578Y158185D01*
X152633Y158170D01*
X152691Y158152D01*
X152749Y158126D01*
X152756Y158123D01*
X152775Y158112D01*
X152800Y158097D01*
X152837Y158075D01*
X152873Y158046D01*
X152913Y158017D01*
X152953Y157981D01*
X152986Y157941D01*
X152989Y157937D01*
X153000Y157923D01*
X153015Y157897D01*
X153029Y157864D01*
X153051Y157824D01*
X153073Y157777D01*
X153091Y157726D01*
X153110Y157664D01*
Y157657D01*
X153117Y157635D01*
X153121Y157599D01*
X153128Y157551D01*
X153135Y157493D01*
X153142Y157424D01*
X153146Y157348D01*
X153150Y157260D01*
Y156299D01*
X150631D01*
Y157289D01*
X150634Y157315D01*
Y157344D01*
X150642Y157409D01*
X150649Y157482D01*
X150663Y157559D01*
X150682Y157635D01*
X150707Y157704D01*
Y157708D01*
X150711Y157712D01*
X150722Y157733D01*
X150740Y157766D01*
X150765Y157802D01*
X150798Y157846D01*
X150838Y157894D01*
X150889Y157937D01*
X150944Y157977D01*
X150951Y157981D01*
X150973Y157992D01*
X151002Y158010D01*
X151046Y158028D01*
X151097Y158046D01*
X151151Y158065D01*
X151213Y158075D01*
X151275Y158079D01*
X151282D01*
X151301D01*
X151333Y158075D01*
X151373Y158068D01*
X151421Y158057D01*
X151471Y158039D01*
X151523Y158017D01*
X151577Y157988D01*
X151584Y157984D01*
X151599Y157974D01*
X151628Y157952D01*
X151657Y157923D01*
X151694Y157886D01*
X151734Y157843D01*
X151770Y157788D01*
X151806Y157726D01*
Y157730D01*
X151810Y157737D01*
X151814Y157748D01*
X151821Y157763D01*
X151836Y157806D01*
X151861Y157857D01*
X151894Y157912D01*
X151934Y157974D01*
X151981Y158028D01*
X152039Y158079D01*
X152047Y158083D01*
X152068Y158097D01*
X152101Y158119D01*
X152145Y158141D01*
X152203Y158163D01*
X152265Y158185D01*
X152338Y158199D01*
X152418Y158203D01*
X152422D01*
X152425D01*
X152447D01*
X152483Y158199D01*
D02*
G37*
G36*
X85926Y160577D02*
X85955Y160573D01*
X85988Y160566D01*
X86024Y160559D01*
X86064Y160551D01*
X86152Y160522D01*
X86199Y160500D01*
X86243Y160478D01*
X86290Y160449D01*
X86338Y160417D01*
X86385Y160380D01*
X86428Y160337D01*
X86432Y160333D01*
X86439Y160326D01*
X86450Y160311D01*
X86465Y160293D01*
X86483Y160271D01*
X86501Y160242D01*
X86523Y160209D01*
X86541Y160169D01*
X86563Y160129D01*
X86585Y160082D01*
X86603Y160034D01*
X86621Y159980D01*
X86636Y159922D01*
X86647Y159860D01*
X86654Y159798D01*
X86658Y159729D01*
Y159696D01*
X86654Y159674D01*
X86651Y159645D01*
X86647Y159612D01*
X86640Y159576D01*
X86632Y159536D01*
X86611Y159448D01*
X86574Y159357D01*
X86552Y159310D01*
X86527Y159266D01*
X86494Y159223D01*
X86461Y159179D01*
X86458Y159175D01*
X86450Y159168D01*
X86439Y159157D01*
X86425Y159146D01*
X86407Y159128D01*
X86381Y159110D01*
X86356Y159088D01*
X86323Y159066D01*
X86287Y159044D01*
X86250Y159022D01*
X86163Y158983D01*
X86061Y158950D01*
X86006Y158939D01*
X85948Y158932D01*
X85908Y159241D01*
X85912D01*
X85919Y159245D01*
X85934Y159248D01*
X85952Y159252D01*
X85974Y159256D01*
X85999Y159263D01*
X86054Y159281D01*
X86119Y159306D01*
X86181Y159339D01*
X86239Y159376D01*
X86290Y159419D01*
X86294Y159426D01*
X86308Y159441D01*
X86327Y159470D01*
X86345Y159507D01*
X86367Y159550D01*
X86385Y159605D01*
X86399Y159667D01*
X86403Y159732D01*
Y159754D01*
X86399Y159769D01*
X86396Y159809D01*
X86385Y159860D01*
X86367Y159918D01*
X86341Y159980D01*
X86305Y160042D01*
X86254Y160100D01*
X86247Y160107D01*
X86225Y160125D01*
X86192Y160147D01*
X86148Y160176D01*
X86094Y160205D01*
X86032Y160227D01*
X85959Y160246D01*
X85879Y160253D01*
X85875D01*
X85868D01*
X85857D01*
X85843Y160249D01*
X85802Y160246D01*
X85755Y160235D01*
X85697Y160220D01*
X85639Y160195D01*
X85580Y160158D01*
X85526Y160111D01*
X85518Y160104D01*
X85504Y160085D01*
X85482Y160056D01*
X85457Y160016D01*
X85431Y159965D01*
X85409Y159903D01*
X85395Y159834D01*
X85387Y159758D01*
Y159725D01*
X85391Y159699D01*
X85395Y159667D01*
X85402Y159630D01*
X85409Y159587D01*
X85420Y159539D01*
X85147Y159576D01*
Y159594D01*
X85151Y159608D01*
Y159656D01*
X85144Y159696D01*
X85136Y159743D01*
X85125Y159798D01*
X85107Y159860D01*
X85082Y159918D01*
X85049Y159980D01*
Y159984D01*
X85045Y159987D01*
X85031Y160005D01*
X85005Y160031D01*
X84973Y160060D01*
X84925Y160089D01*
X84871Y160115D01*
X84809Y160133D01*
X84772Y160140D01*
X84732D01*
X84729D01*
X84725D01*
X84703D01*
X84674Y160133D01*
X84634Y160125D01*
X84590Y160111D01*
X84543Y160093D01*
X84496Y160064D01*
X84452Y160023D01*
X84448Y160020D01*
X84434Y160002D01*
X84416Y159976D01*
X84394Y159943D01*
X84376Y159900D01*
X84357Y159849D01*
X84343Y159791D01*
X84339Y159725D01*
Y159696D01*
X84346Y159663D01*
X84354Y159619D01*
X84368Y159572D01*
X84386Y159525D01*
X84416Y159474D01*
X84452Y159426D01*
X84456Y159423D01*
X84474Y159408D01*
X84499Y159387D01*
X84536Y159361D01*
X84583Y159335D01*
X84641Y159310D01*
X84711Y159288D01*
X84790Y159274D01*
X84736Y158964D01*
X84732D01*
X84721Y158968D01*
X84707Y158972D01*
X84685Y158975D01*
X84659Y158983D01*
X84630Y158993D01*
X84561Y159015D01*
X84481Y159052D01*
X84401Y159095D01*
X84325Y159150D01*
X84255Y159219D01*
X84252Y159223D01*
X84248Y159230D01*
X84241Y159241D01*
X84230Y159256D01*
X84215Y159274D01*
X84201Y159299D01*
X84186Y159325D01*
X84168Y159357D01*
X84139Y159430D01*
X84110Y159514D01*
X84092Y159612D01*
X84084Y159663D01*
Y159754D01*
X84088Y159794D01*
X84095Y159842D01*
X84106Y159900D01*
X84124Y159965D01*
X84146Y160031D01*
X84175Y160096D01*
Y160100D01*
X84179Y160104D01*
X84190Y160125D01*
X84212Y160158D01*
X84237Y160195D01*
X84274Y160238D01*
X84314Y160282D01*
X84361Y160326D01*
X84416Y160362D01*
X84423Y160366D01*
X84441Y160377D01*
X84474Y160391D01*
X84514Y160409D01*
X84561Y160427D01*
X84616Y160442D01*
X84678Y160453D01*
X84740Y160457D01*
X84747D01*
X84769D01*
X84798Y160453D01*
X84838Y160446D01*
X84885Y160435D01*
X84936Y160417D01*
X84987Y160395D01*
X85038Y160366D01*
X85045Y160362D01*
X85060Y160351D01*
X85085Y160329D01*
X85115Y160300D01*
X85147Y160264D01*
X85184Y160220D01*
X85216Y160169D01*
X85249Y160107D01*
Y160111D01*
X85253Y160118D01*
X85256Y160129D01*
X85260Y160144D01*
X85275Y160184D01*
X85296Y160235D01*
X85326Y160293D01*
X85362Y160351D01*
X85409Y160406D01*
X85464Y160457D01*
X85471Y160460D01*
X85493Y160475D01*
X85529Y160497D01*
X85577Y160519D01*
X85635Y160540D01*
X85704Y160562D01*
X85784Y160577D01*
X85872Y160580D01*
X85875D01*
X85886D01*
X85904D01*
X85926Y160577D01*
D02*
G37*
G36*
X85948Y158593D02*
X85992Y158586D01*
X86043Y158578D01*
X86097Y158564D01*
X86155Y158546D01*
X86214Y158520D01*
X86221Y158517D01*
X86239Y158506D01*
X86265Y158491D01*
X86301Y158469D01*
X86338Y158440D01*
X86378Y158411D01*
X86418Y158375D01*
X86450Y158335D01*
X86454Y158331D01*
X86465Y158316D01*
X86480Y158291D01*
X86494Y158258D01*
X86516Y158218D01*
X86538Y158171D01*
X86556Y158120D01*
X86574Y158058D01*
Y158051D01*
X86581Y158029D01*
X86585Y157992D01*
X86592Y157945D01*
X86600Y157887D01*
X86607Y157818D01*
X86611Y157741D01*
X86614Y157654D01*
Y156693D01*
X84095D01*
Y157683D01*
X84099Y157709D01*
Y157738D01*
X84106Y157803D01*
X84114Y157876D01*
X84128Y157952D01*
X84146Y158029D01*
X84172Y158098D01*
Y158102D01*
X84175Y158105D01*
X84186Y158127D01*
X84205Y158160D01*
X84230Y158196D01*
X84263Y158240D01*
X84303Y158287D01*
X84354Y158331D01*
X84408Y158371D01*
X84416Y158375D01*
X84438Y158386D01*
X84467Y158404D01*
X84510Y158422D01*
X84561Y158440D01*
X84616Y158458D01*
X84678Y158469D01*
X84740Y158473D01*
X84747D01*
X84765D01*
X84798Y158469D01*
X84838Y158462D01*
X84885Y158451D01*
X84936Y158433D01*
X84987Y158411D01*
X85042Y158382D01*
X85049Y158378D01*
X85063Y158367D01*
X85093Y158345D01*
X85122Y158316D01*
X85158Y158280D01*
X85198Y158236D01*
X85235Y158182D01*
X85271Y158120D01*
Y158123D01*
X85275Y158131D01*
X85278Y158142D01*
X85286Y158156D01*
X85300Y158200D01*
X85326Y158251D01*
X85358Y158305D01*
X85398Y158367D01*
X85446Y158422D01*
X85504Y158473D01*
X85511Y158476D01*
X85533Y158491D01*
X85566Y158513D01*
X85610Y158535D01*
X85668Y158557D01*
X85730Y158578D01*
X85802Y158593D01*
X85883Y158597D01*
X85886D01*
X85890D01*
X85912D01*
X85948Y158593D01*
D02*
G37*
G36*
X52345Y160621D02*
X52949D01*
Y160312D01*
X52345D01*
Y159216D01*
X52061D01*
X50430Y160370D01*
Y160621D01*
X52061D01*
Y160963D01*
X52345D01*
Y160621D01*
D02*
G37*
G36*
X52283Y158987D02*
X52327Y158979D01*
X52377Y158972D01*
X52432Y158958D01*
X52490Y158939D01*
X52548Y158914D01*
X52556Y158910D01*
X52574Y158899D01*
X52600Y158885D01*
X52636Y158863D01*
X52672Y158834D01*
X52712Y158805D01*
X52752Y158768D01*
X52785Y158728D01*
X52789Y158725D01*
X52800Y158710D01*
X52814Y158685D01*
X52829Y158652D01*
X52851Y158612D01*
X52873Y158564D01*
X52891Y158513D01*
X52909Y158452D01*
Y158444D01*
X52916Y158423D01*
X52920Y158386D01*
X52927Y158339D01*
X52934Y158281D01*
X52942Y158211D01*
X52945Y158135D01*
X52949Y158048D01*
Y157087D01*
X50430D01*
Y158077D01*
X50434Y158102D01*
Y158131D01*
X50441Y158197D01*
X50448Y158270D01*
X50463Y158346D01*
X50481Y158423D01*
X50507Y158492D01*
Y158495D01*
X50510Y158499D01*
X50521Y158521D01*
X50539Y158554D01*
X50565Y158590D01*
X50598Y158634D01*
X50638Y158681D01*
X50688Y158725D01*
X50743Y158765D01*
X50750Y158768D01*
X50772Y158779D01*
X50801Y158797D01*
X50845Y158816D01*
X50896Y158834D01*
X50951Y158852D01*
X51012Y158863D01*
X51074Y158867D01*
X51082D01*
X51100D01*
X51133Y158863D01*
X51173Y158856D01*
X51220Y158845D01*
X51271Y158826D01*
X51322Y158805D01*
X51376Y158776D01*
X51384Y158772D01*
X51398Y158761D01*
X51427Y158739D01*
X51456Y158710D01*
X51493Y158674D01*
X51533Y158630D01*
X51569Y158575D01*
X51606Y158513D01*
Y158517D01*
X51609Y158524D01*
X51613Y158535D01*
X51620Y158550D01*
X51635Y158594D01*
X51660Y158644D01*
X51693Y158699D01*
X51733Y158761D01*
X51780Y158816D01*
X51839Y158867D01*
X51846Y158870D01*
X51868Y158885D01*
X51901Y158907D01*
X51944Y158929D01*
X52003Y158950D01*
X52064Y158972D01*
X52137Y158987D01*
X52217Y158990D01*
X52221D01*
X52225D01*
X52246D01*
X52283Y158987D01*
D02*
G37*
%LPC*%
G36*
X120036Y157861D02*
X120029D01*
X120014D01*
X119985Y157857D01*
X119952Y157850D01*
X119916Y157843D01*
X119876Y157828D01*
X119836Y157810D01*
X119796Y157784D01*
X119792Y157781D01*
X119778Y157770D01*
X119759Y157755D01*
X119738Y157733D01*
X119712Y157704D01*
X119687Y157668D01*
X119665Y157628D01*
X119647Y157580D01*
X119643Y157573D01*
X119639Y157559D01*
X119632Y157526D01*
X119625Y157486D01*
X119617Y157435D01*
X119610Y157373D01*
X119603Y157297D01*
Y156634D01*
X120469D01*
Y157351D01*
X120466Y157428D01*
X120462Y157460D01*
X120458Y157490D01*
Y157493D01*
X120455Y157508D01*
X120451Y157529D01*
X120444Y157555D01*
X120422Y157617D01*
X120393Y157679D01*
X120389Y157682D01*
X120382Y157693D01*
X120371Y157708D01*
X120356Y157726D01*
X120334Y157744D01*
X120313Y157770D01*
X120284Y157788D01*
X120251Y157810D01*
X120247Y157813D01*
X120236Y157817D01*
X120214Y157824D01*
X120189Y157835D01*
X120160Y157846D01*
X120123Y157853D01*
X120080Y157857D01*
X120036Y157861D01*
D02*
G37*
G36*
X118933Y157752D02*
X118926D01*
X118911D01*
X118889Y157748D01*
X118860Y157744D01*
X118824Y157737D01*
X118788Y157726D01*
X118751Y157712D01*
X118715Y157690D01*
X118711Y157686D01*
X118700Y157679D01*
X118682Y157664D01*
X118664Y157646D01*
X118642Y157621D01*
X118620Y157591D01*
X118598Y157555D01*
X118584Y157515D01*
Y157511D01*
X118576Y157493D01*
X118573Y157468D01*
X118565Y157428D01*
X118558Y157373D01*
X118555Y157311D01*
X118547Y157231D01*
Y156634D01*
X119304D01*
Y157253D01*
X119301Y157300D01*
X119297Y157351D01*
X119293Y157402D01*
X119286Y157453D01*
X119279Y157493D01*
X119275Y157500D01*
X119272Y157515D01*
X119261Y157537D01*
X119246Y157566D01*
X119232Y157595D01*
X119210Y157628D01*
X119181Y157661D01*
X119151Y157686D01*
X119148Y157690D01*
X119137Y157697D01*
X119115Y157708D01*
X119090Y157719D01*
X119061Y157730D01*
X119024Y157741D01*
X118980Y157748D01*
X118933Y157752D01*
D02*
G37*
G36*
X256657Y122650D02*
X255907D01*
X255864Y122646D01*
X255813Y122643D01*
X255754Y122639D01*
X255696Y122632D01*
X255638Y122621D01*
X255587Y122607D01*
X255580Y122603D01*
X255565Y122596D01*
X255543Y122585D01*
X255514Y122570D01*
X255481Y122548D01*
X255449Y122523D01*
X255416Y122490D01*
X255390Y122454D01*
X255387Y122450D01*
X255380Y122435D01*
X255369Y122414D01*
X255354Y122384D01*
X255343Y122352D01*
X255332Y122315D01*
X255325Y122272D01*
X255321Y122228D01*
Y122224D01*
Y122221D01*
X255325Y122199D01*
X255328Y122166D01*
X255336Y122122D01*
X255354Y122079D01*
X255376Y122028D01*
X255409Y121980D01*
X255452Y121933D01*
X255460Y121929D01*
X255478Y121915D01*
X255507Y121897D01*
X255554Y121875D01*
X255609Y121853D01*
X255682Y121835D01*
X255765Y121820D01*
X255864Y121817D01*
X256657D01*
Y122650D01*
D02*
G37*
G36*
X328374Y43044D02*
X328370D01*
X328356D01*
X328338D01*
X328309Y43041D01*
X328276D01*
X328239Y43037D01*
X328196Y43033D01*
X328152Y43030D01*
X328054Y43012D01*
X327952Y42990D01*
X327857Y42957D01*
X327810Y42935D01*
X327770Y42913D01*
X327766D01*
X327759Y42906D01*
X327748Y42899D01*
X327733Y42891D01*
X327697Y42862D01*
X327653Y42826D01*
X327606Y42779D01*
X327559Y42724D01*
X327519Y42662D01*
X327486Y42597D01*
X327482Y42589D01*
X327479Y42571D01*
X327468Y42538D01*
X327457Y42491D01*
X327449Y42433D01*
X327439Y42360D01*
X327435Y42316D01*
Y42269D01*
X327431Y42222D01*
Y41639D01*
X329353D01*
Y42236D01*
X329350Y42262D01*
X329346Y42316D01*
X329342Y42378D01*
X329335Y42444D01*
X329324Y42509D01*
X329310Y42564D01*
X329306Y42571D01*
X329302Y42589D01*
X329291Y42615D01*
X329277Y42647D01*
X329255Y42684D01*
X329233Y42720D01*
X329208Y42757D01*
X329179Y42793D01*
X329171Y42797D01*
X329157Y42811D01*
X329131Y42833D01*
X329095Y42859D01*
X329047Y42888D01*
X328993Y42921D01*
X328931Y42950D01*
X328862Y42975D01*
X328858D01*
X328851Y42979D01*
X328840Y42982D01*
X328825Y42986D01*
X328807Y42990D01*
X328782Y42997D01*
X328756Y43004D01*
X328727Y43012D01*
X328654Y43022D01*
X328571Y43033D01*
X328476Y43041D01*
X328374Y43044D01*
D02*
G37*
G36*
X324072Y102101D02*
X324064D01*
X324050D01*
X324021Y102097D01*
X323988Y102090D01*
X323951Y102083D01*
X323911Y102068D01*
X323871Y102050D01*
X323831Y102025D01*
X323828Y102021D01*
X323813Y102010D01*
X323795Y101996D01*
X323773Y101974D01*
X323748Y101945D01*
X323722Y101908D01*
X323700Y101868D01*
X323682Y101821D01*
X323678Y101814D01*
X323675Y101799D01*
X323668Y101766D01*
X323660Y101726D01*
X323653Y101675D01*
X323646Y101613D01*
X323638Y101537D01*
Y100874D01*
X324505D01*
Y101592D01*
X324501Y101668D01*
X324497Y101701D01*
X324494Y101730D01*
Y101734D01*
X324490Y101748D01*
X324486Y101770D01*
X324479Y101795D01*
X324457Y101857D01*
X324428Y101919D01*
X324425Y101923D01*
X324417Y101934D01*
X324406Y101948D01*
X324392Y101967D01*
X324370Y101985D01*
X324348Y102010D01*
X324319Y102028D01*
X324286Y102050D01*
X324283Y102054D01*
X324272Y102058D01*
X324250Y102065D01*
X324224Y102076D01*
X324195Y102087D01*
X324159Y102094D01*
X324115Y102097D01*
X324072Y102101D01*
D02*
G37*
G36*
X322969Y101992D02*
X322961D01*
X322947D01*
X322925Y101988D01*
X322896Y101985D01*
X322859Y101977D01*
X322823Y101967D01*
X322787Y101952D01*
X322750Y101930D01*
X322746Y101926D01*
X322736Y101919D01*
X322717Y101905D01*
X322699Y101886D01*
X322677Y101861D01*
X322656Y101832D01*
X322634Y101795D01*
X322619Y101755D01*
Y101752D01*
X322612Y101734D01*
X322608Y101708D01*
X322601Y101668D01*
X322594Y101613D01*
X322590Y101551D01*
X322583Y101471D01*
Y100874D01*
X323340D01*
Y101493D01*
X323336Y101541D01*
X323333Y101592D01*
X323329Y101643D01*
X323322Y101693D01*
X323314Y101734D01*
X323311Y101741D01*
X323307Y101755D01*
X323296Y101777D01*
X323282Y101806D01*
X323267Y101836D01*
X323245Y101868D01*
X323216Y101901D01*
X323187Y101926D01*
X323183Y101930D01*
X323172Y101937D01*
X323151Y101948D01*
X323125Y101959D01*
X323096Y101970D01*
X323060Y101981D01*
X323016Y101988D01*
X322969Y101992D01*
D02*
G37*
G36*
X19721Y158677D02*
X19714D01*
X19699D01*
X19670Y158673D01*
X19637Y158666D01*
X19601Y158659D01*
X19561Y158644D01*
X19521Y158626D01*
X19481Y158601D01*
X19477Y158597D01*
X19463Y158586D01*
X19444Y158572D01*
X19423Y158550D01*
X19397Y158520D01*
X19372Y158484D01*
X19350Y158444D01*
X19332Y158397D01*
X19328Y158389D01*
X19324Y158375D01*
X19317Y158342D01*
X19310Y158302D01*
X19303Y158251D01*
X19295Y158189D01*
X19288Y158113D01*
Y157450D01*
X20154D01*
Y158167D01*
X20151Y158244D01*
X20147Y158277D01*
X20143Y158306D01*
Y158309D01*
X20140Y158324D01*
X20136Y158346D01*
X20129Y158371D01*
X20107Y158433D01*
X20078Y158495D01*
X20074Y158499D01*
X20067Y158510D01*
X20056Y158524D01*
X20042Y158542D01*
X20020Y158561D01*
X19998Y158586D01*
X19969Y158604D01*
X19936Y158626D01*
X19932Y158630D01*
X19921Y158633D01*
X19899Y158641D01*
X19874Y158651D01*
X19845Y158662D01*
X19808Y158670D01*
X19765Y158673D01*
X19721Y158677D01*
D02*
G37*
G36*
X18618Y158568D02*
X18611D01*
X18596D01*
X18575Y158564D01*
X18545Y158561D01*
X18509Y158553D01*
X18473Y158542D01*
X18436Y158528D01*
X18400Y158506D01*
X18396Y158502D01*
X18385Y158495D01*
X18367Y158480D01*
X18349Y158462D01*
X18327Y158437D01*
X18305Y158408D01*
X18283Y158371D01*
X18269Y158331D01*
Y158328D01*
X18261Y158309D01*
X18258Y158284D01*
X18251Y158244D01*
X18243Y158189D01*
X18240Y158127D01*
X18232Y158047D01*
Y157450D01*
X18990D01*
Y158069D01*
X18986Y158116D01*
X18982Y158167D01*
X18979Y158218D01*
X18971Y158269D01*
X18964Y158309D01*
X18960Y158317D01*
X18957Y158331D01*
X18946Y158353D01*
X18931Y158382D01*
X18917Y158411D01*
X18895Y158444D01*
X18866Y158477D01*
X18837Y158502D01*
X18833Y158506D01*
X18822Y158513D01*
X18800Y158524D01*
X18775Y158535D01*
X18746Y158546D01*
X18709Y158557D01*
X18666Y158564D01*
X18618Y158568D01*
D02*
G37*
G36*
X14860Y53891D02*
X13732D01*
X14860Y53097D01*
Y53891D01*
D02*
G37*
G36*
X282307Y86921D02*
X282274D01*
X282249Y86917D01*
X282216Y86913D01*
X282183Y86906D01*
X282143Y86899D01*
X282100Y86892D01*
X282005Y86862D01*
X281954Y86841D01*
X281903Y86819D01*
X281849Y86790D01*
X281798Y86757D01*
X281747Y86721D01*
X281699Y86677D01*
X281696Y86673D01*
X281688Y86666D01*
X281678Y86651D01*
X281659Y86629D01*
X281641Y86604D01*
X281619Y86571D01*
X281597Y86531D01*
X281572Y86484D01*
X281550Y86433D01*
X281525Y86371D01*
X281503Y86305D01*
X281485Y86233D01*
X281466Y86153D01*
X281455Y86062D01*
X281448Y85967D01*
X281445Y85865D01*
Y85861D01*
Y85847D01*
Y85821D01*
X281448Y85789D01*
X281452Y85752D01*
X281459Y85709D01*
X281466Y85658D01*
X281474Y85607D01*
X281503Y85490D01*
X281525Y85432D01*
X281546Y85370D01*
X281576Y85312D01*
X281608Y85254D01*
X281645Y85199D01*
X281688Y85148D01*
X281692Y85144D01*
X281699Y85137D01*
X281714Y85123D01*
X281732Y85108D01*
X281758Y85086D01*
X281787Y85064D01*
X281819Y85042D01*
X281856Y85017D01*
X281899Y84992D01*
X281947Y84970D01*
X281998Y84948D01*
X282052Y84926D01*
X282111Y84911D01*
X282169Y84897D01*
X282234Y84890D01*
X282304Y84886D01*
X282322D01*
X282340Y84890D01*
X282365D01*
X282398Y84893D01*
X282435Y84900D01*
X282478Y84908D01*
X282522Y84919D01*
X282573Y84933D01*
X282620Y84951D01*
X282675Y84970D01*
X282726Y84995D01*
X282777Y85028D01*
X282828Y85061D01*
X282879Y85101D01*
X282926Y85148D01*
X282930Y85152D01*
X282937Y85159D01*
X282948Y85177D01*
X282966Y85199D01*
X282984Y85224D01*
X283002Y85257D01*
X283024Y85297D01*
X283050Y85341D01*
X283072Y85392D01*
X283093Y85450D01*
X283112Y85512D01*
X283134Y85577D01*
X283148Y85650D01*
X283159Y85730D01*
X283166Y85814D01*
X283170Y85901D01*
Y85905D01*
Y85916D01*
Y85931D01*
Y85952D01*
X283166Y85978D01*
Y86011D01*
X283163Y86043D01*
X283155Y86084D01*
X283144Y86167D01*
X283126Y86255D01*
X283101Y86349D01*
X283064Y86436D01*
Y86440D01*
X283061Y86448D01*
X283053Y86458D01*
X283046Y86473D01*
X283021Y86517D01*
X282988Y86568D01*
X282944Y86626D01*
X282890Y86684D01*
X282828Y86742D01*
X282759Y86793D01*
X282755D01*
X282751Y86800D01*
X282740Y86804D01*
X282722Y86815D01*
X282704Y86822D01*
X282682Y86833D01*
X282628Y86859D01*
X282562Y86881D01*
X282486Y86902D01*
X282398Y86917D01*
X282307Y86921D01*
D02*
G37*
G36*
X201634Y152457D02*
X200917D01*
X200840Y152454D01*
X200807Y152450D01*
X200778Y152446D01*
X200775D01*
X200760Y152443D01*
X200738Y152439D01*
X200713Y152432D01*
X200651Y152410D01*
X200589Y152381D01*
X200585Y152377D01*
X200574Y152370D01*
X200560Y152359D01*
X200541Y152345D01*
X200523Y152323D01*
X200498Y152301D01*
X200480Y152272D01*
X200458Y152239D01*
X200454Y152235D01*
X200450Y152224D01*
X200443Y152203D01*
X200432Y152177D01*
X200421Y152148D01*
X200414Y152112D01*
X200411Y152068D01*
X200407Y152024D01*
Y152017D01*
Y152002D01*
X200411Y151973D01*
X200418Y151941D01*
X200425Y151904D01*
X200440Y151864D01*
X200458Y151824D01*
X200483Y151784D01*
X200487Y151780D01*
X200498Y151766D01*
X200512Y151748D01*
X200534Y151726D01*
X200563Y151700D01*
X200600Y151675D01*
X200640Y151653D01*
X200687Y151635D01*
X200694Y151631D01*
X200709Y151628D01*
X200742Y151620D01*
X200782Y151613D01*
X200833Y151606D01*
X200895Y151598D01*
X200971Y151591D01*
X201634D01*
Y152457D01*
D02*
G37*
G36*
Y151293D02*
X201015D01*
X200967Y151289D01*
X200917Y151285D01*
X200866Y151282D01*
X200815Y151274D01*
X200775Y151267D01*
X200767Y151263D01*
X200753Y151260D01*
X200731Y151249D01*
X200702Y151234D01*
X200673Y151220D01*
X200640Y151198D01*
X200607Y151169D01*
X200582Y151140D01*
X200578Y151136D01*
X200571Y151125D01*
X200560Y151103D01*
X200549Y151078D01*
X200538Y151049D01*
X200527Y151012D01*
X200520Y150969D01*
X200516Y150921D01*
Y150914D01*
Y150900D01*
X200520Y150878D01*
X200523Y150848D01*
X200531Y150812D01*
X200541Y150776D01*
X200556Y150739D01*
X200578Y150703D01*
X200582Y150699D01*
X200589Y150688D01*
X200603Y150670D01*
X200622Y150652D01*
X200647Y150630D01*
X200676Y150608D01*
X200713Y150586D01*
X200753Y150572D01*
X200756D01*
X200775Y150565D01*
X200800Y150561D01*
X200840Y150554D01*
X200895Y150546D01*
X200957Y150543D01*
X201037Y150536D01*
X201634D01*
Y151293D01*
D02*
G37*
G36*
X193007Y152457D02*
X192410D01*
X192384Y152454D01*
X192330Y152450D01*
X192268Y152446D01*
X192202Y152439D01*
X192137Y152428D01*
X192082Y152414D01*
X192075Y152410D01*
X192057Y152406D01*
X192031Y152395D01*
X191999Y152381D01*
X191962Y152359D01*
X191926Y152337D01*
X191889Y152312D01*
X191853Y152283D01*
X191849Y152275D01*
X191835Y152261D01*
X191813Y152235D01*
X191787Y152199D01*
X191758Y152152D01*
X191726Y152097D01*
X191696Y152035D01*
X191671Y151966D01*
Y151962D01*
X191667Y151955D01*
X191664Y151944D01*
X191660Y151930D01*
X191656Y151911D01*
X191649Y151886D01*
X191642Y151860D01*
X191635Y151831D01*
X191623Y151759D01*
X191613Y151675D01*
X191605Y151580D01*
X191602Y151478D01*
Y151475D01*
Y151460D01*
Y151442D01*
X191605Y151413D01*
Y151380D01*
X191609Y151344D01*
X191613Y151300D01*
X191616Y151256D01*
X191635Y151158D01*
X191656Y151056D01*
X191689Y150961D01*
X191711Y150914D01*
X191733Y150874D01*
Y150870D01*
X191740Y150863D01*
X191747Y150852D01*
X191755Y150838D01*
X191784Y150801D01*
X191820Y150758D01*
X191867Y150710D01*
X191922Y150663D01*
X191984Y150623D01*
X192049Y150590D01*
X192057Y150586D01*
X192075Y150583D01*
X192108Y150572D01*
X192155Y150561D01*
X192213Y150554D01*
X192286Y150543D01*
X192330Y150539D01*
X192377D01*
X192424Y150536D01*
X193007D01*
Y152457D01*
D02*
G37*
G36*
X207890Y122693D02*
X207170D01*
Y121794D01*
X207847D01*
X207872Y121797D01*
X207898D01*
X207927Y121801D01*
X207996Y121808D01*
X208072Y121823D01*
X208149Y121845D01*
X208218Y121874D01*
X208251Y121892D01*
X208276Y121914D01*
X208283Y121921D01*
X208298Y121936D01*
X208320Y121965D01*
X208345Y122001D01*
X208371Y122049D01*
X208393Y122107D01*
X208407Y122172D01*
X208415Y122249D01*
Y122252D01*
Y122256D01*
Y122274D01*
X208411Y122307D01*
X208404Y122343D01*
X208396Y122383D01*
X208382Y122431D01*
X208360Y122474D01*
X208334Y122518D01*
X208331Y122522D01*
X208320Y122536D01*
X208302Y122555D01*
X208280Y122580D01*
X208247Y122606D01*
X208211Y122627D01*
X208171Y122649D01*
X208123Y122667D01*
X208120D01*
X208105Y122671D01*
X208083Y122675D01*
X208054Y122682D01*
X208011Y122686D01*
X207956Y122689D01*
X207890Y122693D01*
D02*
G37*
G36*
X302714Y8167D02*
X301921D01*
X302714Y7039D01*
Y8167D01*
D02*
G37*
G36*
X164425Y185108D02*
X162503D01*
Y184511D01*
X162507Y184486D01*
X162511Y184431D01*
X162514Y184369D01*
X162521Y184304D01*
X162532Y184238D01*
X162547Y184184D01*
X162550Y184176D01*
X162554Y184158D01*
X162565Y184133D01*
X162580Y184100D01*
X162601Y184063D01*
X162623Y184027D01*
X162649Y183991D01*
X162678Y183954D01*
X162685Y183951D01*
X162700Y183936D01*
X162725Y183914D01*
X162762Y183889D01*
X162809Y183860D01*
X162864Y183827D01*
X162925Y183798D01*
X162995Y183772D01*
X162998D01*
X163005Y183769D01*
X163016Y183765D01*
X163031Y183761D01*
X163049Y183758D01*
X163075Y183750D01*
X163100Y183743D01*
X163129Y183736D01*
X163202Y183725D01*
X163286Y183714D01*
X163380Y183707D01*
X163482Y183703D01*
X163486D01*
X163501D01*
X163519D01*
X163548Y183707D01*
X163581D01*
X163617Y183711D01*
X163661Y183714D01*
X163704Y183718D01*
X163803Y183736D01*
X163905Y183758D01*
X163999Y183791D01*
X164047Y183812D01*
X164087Y183834D01*
X164090D01*
X164097Y183842D01*
X164108Y183849D01*
X164123Y183856D01*
X164159Y183885D01*
X164203Y183922D01*
X164250Y183969D01*
X164298Y184023D01*
X164338Y184085D01*
X164371Y184151D01*
X164374Y184158D01*
X164378Y184176D01*
X164389Y184209D01*
X164400Y184256D01*
X164407Y184315D01*
X164418Y184388D01*
X164421Y184431D01*
Y184478D01*
X164425Y184526D01*
Y185108D01*
D02*
G37*
G36*
X131354D02*
X129432D01*
Y184511D01*
X129436Y184486D01*
X129440Y184431D01*
X129443Y184369D01*
X129451Y184304D01*
X129462Y184238D01*
X129476Y184184D01*
X129480Y184176D01*
X129483Y184158D01*
X129494Y184133D01*
X129509Y184100D01*
X129531Y184063D01*
X129552Y184027D01*
X129578Y183991D01*
X129607Y183954D01*
X129614Y183951D01*
X129629Y183936D01*
X129654Y183914D01*
X129691Y183889D01*
X129738Y183860D01*
X129793Y183827D01*
X129855Y183798D01*
X129924Y183772D01*
X129927D01*
X129935Y183769D01*
X129946Y183765D01*
X129960Y183761D01*
X129978Y183758D01*
X130004Y183750D01*
X130029Y183743D01*
X130058Y183736D01*
X130131Y183725D01*
X130215Y183714D01*
X130310Y183707D01*
X130412Y183703D01*
X130415D01*
X130430D01*
X130448D01*
X130477Y183707D01*
X130510D01*
X130546Y183711D01*
X130590Y183714D01*
X130633Y183718D01*
X130732Y183736D01*
X130834Y183758D01*
X130928Y183791D01*
X130976Y183812D01*
X131016Y183834D01*
X131019D01*
X131027Y183842D01*
X131038Y183849D01*
X131052Y183856D01*
X131088Y183885D01*
X131132Y183922D01*
X131179Y183969D01*
X131227Y184023D01*
X131267Y184085D01*
X131300Y184151D01*
X131303Y184158D01*
X131307Y184176D01*
X131318Y184209D01*
X131329Y184256D01*
X131336Y184315D01*
X131347Y184388D01*
X131351Y184431D01*
Y184478D01*
X131354Y184526D01*
Y185108D01*
D02*
G37*
G36*
X97890D02*
X95968D01*
Y184511D01*
X95971Y184486D01*
X95975Y184431D01*
X95979Y184369D01*
X95986Y184304D01*
X95997Y184238D01*
X96012Y184184D01*
X96015Y184176D01*
X96019Y184158D01*
X96030Y184133D01*
X96044Y184100D01*
X96066Y184063D01*
X96088Y184027D01*
X96113Y183991D01*
X96143Y183954D01*
X96150Y183951D01*
X96164Y183936D01*
X96190Y183914D01*
X96226Y183889D01*
X96273Y183860D01*
X96328Y183827D01*
X96390Y183798D01*
X96459Y183772D01*
X96463D01*
X96470Y183769D01*
X96481Y183765D01*
X96496Y183761D01*
X96514Y183758D01*
X96539Y183750D01*
X96565Y183743D01*
X96594Y183736D01*
X96667Y183725D01*
X96750Y183714D01*
X96845Y183707D01*
X96947Y183703D01*
X96951D01*
X96965D01*
X96983D01*
X97013Y183707D01*
X97045D01*
X97082Y183711D01*
X97125Y183714D01*
X97169Y183718D01*
X97267Y183736D01*
X97369Y183758D01*
X97464Y183791D01*
X97511Y183812D01*
X97551Y183834D01*
X97555D01*
X97562Y183842D01*
X97573Y183849D01*
X97588Y183856D01*
X97624Y183885D01*
X97668Y183922D01*
X97715Y183969D01*
X97762Y184023D01*
X97802Y184085D01*
X97835Y184151D01*
X97839Y184158D01*
X97842Y184176D01*
X97853Y184209D01*
X97864Y184256D01*
X97872Y184315D01*
X97882Y184388D01*
X97886Y184431D01*
Y184478D01*
X97890Y184526D01*
Y185108D01*
D02*
G37*
G36*
X64425D02*
X62503D01*
Y184511D01*
X62507Y184486D01*
X62511Y184431D01*
X62514Y184369D01*
X62521Y184304D01*
X62532Y184238D01*
X62547Y184184D01*
X62550Y184176D01*
X62554Y184158D01*
X62565Y184133D01*
X62580Y184100D01*
X62602Y184063D01*
X62623Y184027D01*
X62649Y183991D01*
X62678Y183954D01*
X62685Y183951D01*
X62700Y183936D01*
X62725Y183914D01*
X62762Y183889D01*
X62809Y183860D01*
X62864Y183827D01*
X62925Y183798D01*
X62995Y183772D01*
X62998D01*
X63006Y183769D01*
X63016Y183765D01*
X63031Y183761D01*
X63049Y183758D01*
X63075Y183750D01*
X63100Y183743D01*
X63129Y183736D01*
X63202Y183725D01*
X63286Y183714D01*
X63380Y183707D01*
X63482Y183703D01*
X63486D01*
X63501D01*
X63519D01*
X63548Y183707D01*
X63581D01*
X63617Y183711D01*
X63661Y183714D01*
X63704Y183718D01*
X63803Y183736D01*
X63905Y183758D01*
X63999Y183791D01*
X64047Y183812D01*
X64087Y183834D01*
X64090D01*
X64097Y183842D01*
X64108Y183849D01*
X64123Y183856D01*
X64159Y183885D01*
X64203Y183922D01*
X64250Y183969D01*
X64298Y184023D01*
X64338Y184085D01*
X64371Y184151D01*
X64374Y184158D01*
X64378Y184176D01*
X64389Y184209D01*
X64400Y184256D01*
X64407Y184315D01*
X64418Y184388D01*
X64421Y184431D01*
Y184478D01*
X64425Y184526D01*
Y185108D01*
D02*
G37*
G36*
X63093Y182833D02*
Y182040D01*
X64221D01*
X63093Y182833D01*
D02*
G37*
G36*
X31512Y185108D02*
X29590D01*
Y184511D01*
X29594Y184486D01*
X29597Y184431D01*
X29601Y184369D01*
X29608Y184304D01*
X29619Y184238D01*
X29634Y184184D01*
X29637Y184176D01*
X29641Y184158D01*
X29652Y184133D01*
X29666Y184100D01*
X29688Y184063D01*
X29710Y184027D01*
X29735Y183991D01*
X29765Y183954D01*
X29772Y183951D01*
X29786Y183936D01*
X29812Y183914D01*
X29848Y183889D01*
X29896Y183860D01*
X29950Y183827D01*
X30012Y183798D01*
X30081Y183772D01*
X30085D01*
X30092Y183769D01*
X30103Y183765D01*
X30118Y183761D01*
X30136Y183758D01*
X30161Y183750D01*
X30187Y183743D01*
X30216Y183736D01*
X30289Y183725D01*
X30373Y183714D01*
X30467Y183707D01*
X30569Y183703D01*
X30573D01*
X30587D01*
X30605D01*
X30635Y183707D01*
X30667D01*
X30704Y183711D01*
X30747Y183714D01*
X30791Y183718D01*
X30889Y183736D01*
X30991Y183758D01*
X31086Y183791D01*
X31133Y183812D01*
X31173Y183834D01*
X31177D01*
X31184Y183842D01*
X31195Y183849D01*
X31210Y183856D01*
X31246Y183885D01*
X31290Y183922D01*
X31337Y183969D01*
X31384Y184023D01*
X31424Y184085D01*
X31457Y184151D01*
X31461Y184158D01*
X31464Y184176D01*
X31475Y184209D01*
X31486Y184256D01*
X31494Y184315D01*
X31504Y184388D01*
X31508Y184431D01*
Y184478D01*
X31512Y184526D01*
Y185108D01*
D02*
G37*
G36*
X152418Y157861D02*
X152411D01*
X152396D01*
X152367Y157857D01*
X152334Y157850D01*
X152298Y157843D01*
X152258Y157828D01*
X152218Y157810D01*
X152178Y157784D01*
X152174Y157781D01*
X152160Y157770D01*
X152141Y157755D01*
X152120Y157733D01*
X152094Y157704D01*
X152068Y157668D01*
X152047Y157628D01*
X152028Y157580D01*
X152025Y157573D01*
X152021Y157559D01*
X152014Y157526D01*
X152007Y157486D01*
X151999Y157435D01*
X151992Y157373D01*
X151985Y157297D01*
Y156634D01*
X152851D01*
Y157351D01*
X152848Y157428D01*
X152844Y157460D01*
X152840Y157490D01*
Y157493D01*
X152837Y157508D01*
X152833Y157529D01*
X152826Y157555D01*
X152804Y157617D01*
X152775Y157679D01*
X152771Y157682D01*
X152764Y157693D01*
X152753Y157708D01*
X152738Y157726D01*
X152716Y157744D01*
X152695Y157770D01*
X152665Y157788D01*
X152633Y157810D01*
X152629Y157813D01*
X152618Y157817D01*
X152596Y157824D01*
X152571Y157835D01*
X152542Y157846D01*
X152505Y157853D01*
X152462Y157857D01*
X152418Y157861D01*
D02*
G37*
G36*
X151315Y157752D02*
X151308D01*
X151293D01*
X151271Y157748D01*
X151242Y157744D01*
X151206Y157737D01*
X151169Y157726D01*
X151133Y157712D01*
X151097Y157690D01*
X151093Y157686D01*
X151082Y157679D01*
X151064Y157664D01*
X151046Y157646D01*
X151024Y157621D01*
X151002Y157591D01*
X150980Y157555D01*
X150966Y157515D01*
Y157511D01*
X150958Y157493D01*
X150955Y157468D01*
X150947Y157428D01*
X150940Y157373D01*
X150936Y157311D01*
X150929Y157231D01*
Y156634D01*
X151686D01*
Y157253D01*
X151683Y157300D01*
X151679Y157351D01*
X151675Y157402D01*
X151668Y157453D01*
X151661Y157493D01*
X151657Y157500D01*
X151654Y157515D01*
X151643Y157537D01*
X151628Y157566D01*
X151613Y157595D01*
X151592Y157628D01*
X151562Y157661D01*
X151533Y157686D01*
X151530Y157690D01*
X151519Y157697D01*
X151497Y157708D01*
X151471Y157719D01*
X151442Y157730D01*
X151406Y157741D01*
X151362Y157748D01*
X151315Y157752D01*
D02*
G37*
G36*
X85883Y158255D02*
X85875D01*
X85861D01*
X85832Y158251D01*
X85799Y158244D01*
X85762Y158236D01*
X85722Y158222D01*
X85682Y158203D01*
X85642Y158178D01*
X85639Y158174D01*
X85624Y158163D01*
X85606Y158149D01*
X85584Y158127D01*
X85559Y158098D01*
X85533Y158062D01*
X85511Y158021D01*
X85493Y157974D01*
X85489Y157967D01*
X85486Y157952D01*
X85479Y157920D01*
X85471Y157879D01*
X85464Y157829D01*
X85457Y157767D01*
X85449Y157690D01*
Y157028D01*
X86316D01*
Y157745D01*
X86312Y157821D01*
X86308Y157854D01*
X86305Y157883D01*
Y157887D01*
X86301Y157901D01*
X86298Y157923D01*
X86290Y157949D01*
X86268Y158011D01*
X86239Y158072D01*
X86236Y158076D01*
X86228Y158087D01*
X86217Y158102D01*
X86203Y158120D01*
X86181Y158138D01*
X86159Y158163D01*
X86130Y158182D01*
X86097Y158203D01*
X86094Y158207D01*
X86083Y158211D01*
X86061Y158218D01*
X86035Y158229D01*
X86006Y158240D01*
X85970Y158247D01*
X85926Y158251D01*
X85883Y158255D01*
D02*
G37*
G36*
X84780Y158145D02*
X84772D01*
X84758D01*
X84736Y158142D01*
X84707Y158138D01*
X84670Y158131D01*
X84634Y158120D01*
X84598Y158105D01*
X84561Y158083D01*
X84558Y158080D01*
X84547Y158072D01*
X84528Y158058D01*
X84510Y158040D01*
X84488Y158014D01*
X84467Y157985D01*
X84445Y157949D01*
X84430Y157909D01*
Y157905D01*
X84423Y157887D01*
X84419Y157861D01*
X84412Y157821D01*
X84405Y157767D01*
X84401Y157705D01*
X84394Y157625D01*
Y157028D01*
X85151D01*
Y157647D01*
X85147Y157694D01*
X85144Y157745D01*
X85140Y157796D01*
X85133Y157847D01*
X85125Y157887D01*
X85122Y157894D01*
X85118Y157909D01*
X85107Y157931D01*
X85093Y157960D01*
X85078Y157989D01*
X85056Y158021D01*
X85027Y158054D01*
X84998Y158080D01*
X84994Y158083D01*
X84983Y158091D01*
X84962Y158102D01*
X84936Y158113D01*
X84907Y158123D01*
X84871Y158134D01*
X84827Y158142D01*
X84780Y158145D01*
D02*
G37*
G36*
X52061Y160312D02*
X50932D01*
X52061Y159518D01*
Y160312D01*
D02*
G37*
G36*
X52217Y158648D02*
X52210D01*
X52195D01*
X52166Y158644D01*
X52134Y158637D01*
X52097Y158630D01*
X52057Y158615D01*
X52017Y158597D01*
X51977Y158572D01*
X51973Y158568D01*
X51959Y158557D01*
X51941Y158543D01*
X51919Y158521D01*
X51893Y158492D01*
X51868Y158455D01*
X51846Y158415D01*
X51828Y158368D01*
X51824Y158361D01*
X51820Y158346D01*
X51813Y158313D01*
X51806Y158273D01*
X51799Y158222D01*
X51791Y158160D01*
X51784Y158084D01*
Y157422D01*
X52650D01*
Y158139D01*
X52647Y158215D01*
X52643Y158248D01*
X52640Y158277D01*
Y158281D01*
X52636Y158295D01*
X52632Y158317D01*
X52625Y158342D01*
X52603Y158404D01*
X52574Y158466D01*
X52570Y158470D01*
X52563Y158481D01*
X52552Y158495D01*
X52538Y158513D01*
X52516Y158532D01*
X52494Y158557D01*
X52465Y158575D01*
X52432Y158597D01*
X52428Y158601D01*
X52417Y158605D01*
X52396Y158612D01*
X52370Y158623D01*
X52341Y158634D01*
X52305Y158641D01*
X52261Y158644D01*
X52217Y158648D01*
D02*
G37*
G36*
X51114Y158539D02*
X51107D01*
X51092D01*
X51071Y158535D01*
X51042Y158532D01*
X51005Y158524D01*
X50969Y158513D01*
X50932Y158499D01*
X50896Y158477D01*
X50892Y158474D01*
X50881Y158466D01*
X50863Y158452D01*
X50845Y158433D01*
X50823Y158408D01*
X50801Y158379D01*
X50779Y158342D01*
X50765Y158302D01*
Y158299D01*
X50758Y158281D01*
X50754Y158255D01*
X50747Y158215D01*
X50739Y158160D01*
X50736Y158098D01*
X50728Y158019D01*
Y157422D01*
X51486D01*
Y158040D01*
X51482Y158088D01*
X51478Y158139D01*
X51475Y158189D01*
X51467Y158240D01*
X51460Y158281D01*
X51456Y158288D01*
X51453Y158302D01*
X51442Y158324D01*
X51427Y158353D01*
X51413Y158382D01*
X51391Y158415D01*
X51362Y158448D01*
X51333Y158474D01*
X51329Y158477D01*
X51318Y158484D01*
X51296Y158495D01*
X51271Y158506D01*
X51242Y158517D01*
X51205Y158528D01*
X51162Y158535D01*
X51114Y158539D01*
D02*
G37*
%LPD*%
D11*
X107972Y133858D02*
X133563D01*
Y178740D01*
X107972D02*
X133563D01*
X107972Y133858D02*
Y178740D01*
X279433Y111260D02*
Y136851D01*
X234551D02*
X279433D01*
X234551Y111260D02*
Y136851D01*
Y111260D02*
X279433D01*
X283102Y55281D02*
X294520D01*
X283102Y39533D02*
Y55281D01*
Y39533D02*
X294520D01*
Y55281D01*
X283026Y148032D02*
X294444D01*
Y132283D02*
Y148032D01*
X283026Y132283D02*
X294444D01*
X283026D02*
Y148032D01*
X300518Y21029D02*
Y61580D01*
X358786D01*
Y21029D02*
Y61580D01*
X300518Y21029D02*
X358786D01*
X290453Y64685D02*
Y126654D01*
X359154D01*
Y64685D02*
Y126654D01*
X290453Y64685D02*
X359154D01*
X7658Y134674D02*
Y179556D01*
X33248D01*
Y134674D02*
Y179556D01*
X7658Y134674D02*
X33248D01*
X9862Y78366D02*
X21634D01*
Y110532D01*
X9862D02*
X21634D01*
X9862Y78366D02*
Y110532D01*
Y31161D02*
Y63327D01*
X21634D01*
Y31161D02*
Y63327D01*
X9862Y31161D02*
X21634D01*
X187835Y143898D02*
X216102D01*
X187835D02*
Y161614D01*
X216102D01*
Y143898D02*
Y161614D01*
X178425Y95394D02*
X220000D01*
Y53819D02*
Y95394D01*
X178425Y53819D02*
X220000D01*
X178425D02*
Y95394D01*
Y141260D02*
X220000D01*
Y99685D02*
Y141260D01*
X178425Y99685D02*
X220000D01*
X178425D02*
Y141260D01*
X235256Y96083D02*
X267421D01*
X235256D02*
Y107854D01*
X267421D01*
Y96083D02*
Y107854D01*
X221063Y61811D02*
X230906D01*
X221063D02*
Y79134D01*
X230906D01*
Y61811D02*
Y79134D01*
X290354Y2165D02*
Y15945D01*
X308071D01*
Y2165D02*
Y15945D01*
X290354Y2165D02*
X308071D01*
X289173Y107677D02*
Y121457D01*
X306890D01*
Y107677D02*
Y121457D01*
X289173Y107677D02*
X306890D01*
X140354Y133858D02*
X165945D01*
Y178740D01*
X140354D02*
X165945D01*
X140354Y133858D02*
Y178740D01*
X73819Y134252D02*
X99409D01*
Y179134D01*
X73819D02*
X99409D01*
X73819Y134252D02*
Y179134D01*
X40154Y134646D02*
Y179528D01*
X65744D01*
Y134646D02*
Y179528D01*
X40154Y134646D02*
X65744D01*
M02*
