G04*
G04 #@! TF.GenerationSoftware,Altium Limited,Altium Designer,20.2.5 (213)*
G04*
G04 Layer_Color=32896*
%FSLAX25Y25*%
%MOIN*%
G70*
G04*
G04 #@! TF.SameCoordinates,0846BD26-53A7-4D4D-980E-E920FDF7FE47*
G04*
G04*
G04 #@! TF.FilePolarity,Positive*
G04*
G01*
G75*
%ADD12C,0.00787*%
%ADD74C,0.00591*%
D12*
X108366Y143898D02*
X133169D01*
Y168701D01*
X108366D02*
X133169D01*
X108366Y143898D02*
Y168701D01*
X269394Y111654D02*
Y136457D01*
X244590D02*
X269394D01*
X244590Y111654D02*
Y136457D01*
Y111654D02*
X269394D01*
X8051Y144714D02*
Y169517D01*
X32854D01*
Y144714D02*
Y169517D01*
X8051Y144714D02*
X32854D01*
X178819Y95000D02*
X219606D01*
Y54213D02*
Y95000D01*
X178819Y54213D02*
X219606D01*
X178819D02*
Y95000D01*
Y140866D02*
X219606D01*
Y100079D02*
Y140866D01*
X178819Y100079D02*
X219606D01*
X178819D02*
Y140866D01*
X222441Y63583D02*
X229528D01*
X222441D02*
Y77362D01*
X229528D01*
Y63583D02*
Y77362D01*
X140748Y143898D02*
X165551D01*
Y168701D01*
X140748D02*
X165551D01*
X140748Y143898D02*
Y168701D01*
X74213Y144291D02*
X99016D01*
Y169095D01*
X74213D02*
X99016D01*
X74213Y144291D02*
Y169095D01*
X40547Y144685D02*
Y169488D01*
X65350D01*
Y144685D02*
Y169488D01*
X40547Y144685D02*
X65350D01*
D74*
X287854Y84646D02*
X287779Y85652D01*
X287554Y86636D01*
X287186Y87575D01*
X286681Y88449D01*
X286052Y89238D01*
X285312Y89925D01*
X284478Y90493D01*
X283569Y90931D01*
X282605Y91228D01*
X281607Y91379D01*
X280598D01*
X279600Y91228D01*
X278636Y90931D01*
X277726Y90493D01*
X276893Y89925D01*
X276153Y89238D01*
X275524Y88449D01*
X275019Y87575D01*
X274650Y86636D01*
X274426Y85652D01*
X274350Y84646D01*
X274426Y83639D01*
X274650Y82656D01*
X275019Y81716D01*
X275524Y80842D01*
X276153Y80053D01*
X276893Y79367D01*
X277726Y78798D01*
X278636Y78360D01*
X279600Y78063D01*
X280598Y77913D01*
X281607D01*
X282605Y78063D01*
X283569Y78360D01*
X284478Y78798D01*
X285312Y79367D01*
X286052Y80053D01*
X286681Y80842D01*
X287186Y81716D01*
X287554Y82656D01*
X287779Y83639D01*
X287854Y84646D01*
X210433Y152756D02*
X210374Y153757D01*
X210196Y154744D01*
X209903Y155703D01*
X209499Y156621D01*
X208989Y157485D01*
X208380Y158282D01*
X207682Y159001D01*
X206903Y159633D01*
X206055Y160169D01*
X205150Y160600D01*
X204200Y160921D01*
X203218Y161128D01*
X202219Y161217D01*
X201217Y161187D01*
X200225Y161039D01*
X199258Y160775D01*
X198328Y160398D01*
X197450Y159914D01*
X196635Y159329D01*
X195895Y158652D01*
X195240Y157892D01*
X194680Y157060D01*
X194222Y156168D01*
X193873Y155228D01*
X193637Y154253D01*
X193519Y153257D01*
Y152254D01*
X193637Y151259D01*
X193873Y150284D01*
X194222Y149344D01*
X194680Y148451D01*
X195240Y147620D01*
X195895Y146860D01*
X196635Y146183D01*
X197450Y145598D01*
X198328Y145114D01*
X199258Y144737D01*
X200225Y144473D01*
X201217Y144325D01*
X202219Y144295D01*
X203218Y144384D01*
X204200Y144591D01*
X205150Y144912D01*
X206055Y145343D01*
X206903Y145879D01*
X207682Y146510D01*
X208380Y147230D01*
X208989Y148027D01*
X209499Y148891D01*
X209903Y149809D01*
X210196Y150768D01*
X210374Y151755D01*
X210433Y152756D01*
X168957Y189764D02*
X168881Y190770D01*
X168657Y191754D01*
X168288Y192693D01*
X167783Y193567D01*
X167154Y194356D01*
X166414Y195043D01*
X165581Y195611D01*
X164672Y196049D01*
X163707Y196346D01*
X162709Y196497D01*
X161700D01*
X160702Y196346D01*
X159738Y196049D01*
X158829Y195611D01*
X157995Y195043D01*
X157255Y194356D01*
X156626Y193567D01*
X156121Y192693D01*
X155753Y191754D01*
X155528Y190770D01*
X155453Y189764D01*
X155528Y188757D01*
X155753Y187774D01*
X156121Y186834D01*
X156626Y185960D01*
X157255Y185171D01*
X157995Y184485D01*
X158829Y183916D01*
X159738Y183478D01*
X160702Y183181D01*
X161700Y183031D01*
X162709D01*
X163707Y183181D01*
X164672Y183478D01*
X165581Y183916D01*
X166414Y184485D01*
X167154Y185171D01*
X167783Y185960D01*
X168288Y186834D01*
X168657Y187774D01*
X168881Y188758D01*
X168957Y189764D01*
X135886D02*
X135810Y190770D01*
X135586Y191754D01*
X135217Y192693D01*
X134713Y193567D01*
X134083Y194356D01*
X133344Y195043D01*
X132510Y195611D01*
X131601Y196049D01*
X130636Y196346D01*
X129638Y196497D01*
X128629D01*
X127631Y196346D01*
X126667Y196049D01*
X125758Y195611D01*
X124924Y195043D01*
X124184Y194356D01*
X123555Y193567D01*
X123050Y192693D01*
X122682Y191754D01*
X122457Y190770D01*
X122382Y189764D01*
X122457Y188757D01*
X122682Y187774D01*
X123050Y186834D01*
X123555Y185960D01*
X124184Y185171D01*
X124924Y184485D01*
X125758Y183916D01*
X126667Y183478D01*
X127631Y183181D01*
X128629Y183031D01*
X129638D01*
X130636Y183181D01*
X131601Y183478D01*
X132510Y183916D01*
X133344Y184485D01*
X134083Y185171D01*
X134713Y185960D01*
X135217Y186834D01*
X135586Y187774D01*
X135810Y188758D01*
X135886Y189764D01*
X102421D02*
X102346Y190770D01*
X102121Y191754D01*
X101753Y192693D01*
X101248Y193567D01*
X100619Y194356D01*
X99879Y195043D01*
X99045Y195611D01*
X98136Y196049D01*
X97172Y196346D01*
X96174Y196497D01*
X95165D01*
X94167Y196346D01*
X93203Y196049D01*
X92293Y195611D01*
X91460Y195043D01*
X90720Y194356D01*
X90091Y193567D01*
X89586Y192693D01*
X89217Y191754D01*
X88993Y190770D01*
X88917Y189764D01*
X88993Y188757D01*
X89217Y187774D01*
X89586Y186834D01*
X90091Y185960D01*
X90720Y185171D01*
X91460Y184485D01*
X92293Y183916D01*
X93203Y183478D01*
X94167Y183181D01*
X95165Y183031D01*
X96174D01*
X97172Y183181D01*
X98136Y183478D01*
X99045Y183916D01*
X99879Y184485D01*
X100619Y185171D01*
X101248Y185960D01*
X101753Y186834D01*
X102121Y187774D01*
X102346Y188758D01*
X102421Y189764D01*
X68957D02*
X68881Y190770D01*
X68657Y191754D01*
X68288Y192693D01*
X67783Y193567D01*
X67154Y194356D01*
X66414Y195043D01*
X65581Y195611D01*
X64671Y196049D01*
X63707Y196346D01*
X62709Y196497D01*
X61700D01*
X60702Y196346D01*
X59738Y196049D01*
X58829Y195611D01*
X57995Y195043D01*
X57255Y194356D01*
X56626Y193567D01*
X56121Y192693D01*
X55753Y191754D01*
X55528Y190770D01*
X55453Y189764D01*
X55528Y188757D01*
X55753Y187774D01*
X56121Y186834D01*
X56626Y185960D01*
X57255Y185171D01*
X57995Y184485D01*
X58829Y183916D01*
X59738Y183478D01*
X60702Y183181D01*
X61700Y183031D01*
X62709D01*
X63707Y183181D01*
X64671Y183478D01*
X65581Y183916D01*
X66414Y184485D01*
X67154Y185171D01*
X67783Y185960D01*
X68288Y186834D01*
X68657Y187774D01*
X68881Y188758D01*
X68957Y189764D01*
X36043D02*
X35968Y190770D01*
X35743Y191754D01*
X35375Y192693D01*
X34870Y193567D01*
X34241Y194356D01*
X33501Y195043D01*
X32667Y195611D01*
X31758Y196049D01*
X30794Y196346D01*
X29796Y196497D01*
X28787D01*
X27789Y196346D01*
X26825Y196049D01*
X25915Y195611D01*
X25082Y195043D01*
X24342Y194356D01*
X23713Y193567D01*
X23208Y192693D01*
X22839Y191754D01*
X22615Y190770D01*
X22539Y189764D01*
X22615Y188757D01*
X22839Y187774D01*
X23208Y186834D01*
X23713Y185960D01*
X24342Y185171D01*
X25082Y184485D01*
X25915Y183916D01*
X26825Y183478D01*
X27789Y183181D01*
X28787Y183031D01*
X29796D01*
X30794Y183181D01*
X31758Y183478D01*
X32667Y183916D01*
X33501Y184485D01*
X34241Y185171D01*
X34870Y185960D01*
X35375Y186834D01*
X35743Y187774D01*
X35968Y188758D01*
X36043Y189764D01*
X283890Y53706D02*
X293732D01*
X283890Y41108D02*
Y53706D01*
Y41108D02*
X293732D01*
Y53706D01*
X283814Y146457D02*
X293656D01*
Y133858D02*
Y146457D01*
X283814Y133858D02*
X293656D01*
X283814D02*
Y146457D01*
X300912Y21423D02*
Y57643D01*
X358392D01*
Y21423D02*
Y57643D01*
X300912Y21423D02*
X358392D01*
X290846Y71555D02*
Y119783D01*
X358760D01*
Y71555D02*
Y119783D01*
X290846Y71555D02*
X358760D01*
X358268Y64685D02*
Y126654D01*
X10256Y78760D02*
X21240D01*
Y110138D01*
X10256D02*
X21240D01*
X10256Y78760D02*
Y110138D01*
Y31555D02*
Y62933D01*
X21240D01*
Y31555D02*
Y62933D01*
X10256Y31555D02*
X21240D01*
X235650Y96476D02*
X267028D01*
X235650D02*
Y107461D01*
X267028D01*
Y96476D02*
Y107461D01*
X292323Y3543D02*
Y14567D01*
X306102D01*
Y3543D02*
Y14567D01*
X292323Y3543D02*
X306102D01*
X291142Y109055D02*
Y120079D01*
X304921D01*
Y109055D02*
Y120079D01*
X291142Y109055D02*
X304921D01*
M02*
