G04*
G04 #@! TF.GenerationSoftware,Altium Limited,Altium Designer,20.2.5 (213)*
G04*
G04 Layer_Physical_Order=2*
G04 Layer_Color=16711680*
%FSLAX25Y25*%
%MOIN*%
G70*
G04*
G04 #@! TF.SameCoordinates,58A5799B-777F-4B07-89FE-91B8D634004C*
G04*
G04*
G04 #@! TF.FilePolarity,Positive*
G04*
G01*
G75*
%ADD14C,0.01000*%
%ADD19R,0.10236X0.03740*%
%ADD27O,0.06299X0.18110*%
%ADD28O,0.18110X0.06299*%
%ADD29R,0.05591X0.05591*%
%ADD30C,0.05591*%
%ADD31C,0.13780*%
%ADD32C,0.06102*%
%ADD33R,0.06102X0.06102*%
%ADD34C,0.05709*%
%ADD35R,0.05709X0.05709*%
%ADD36C,0.07480*%
%ADD37R,0.07480X0.07480*%
%ADD40R,0.06102X0.06102*%
%ADD43R,0.05709X0.05709*%
%ADD48C,0.02000*%
%ADD49C,0.05315*%
%ADD50R,0.05315X0.05315*%
%ADD51C,0.11811*%
%ADD52C,0.05433*%
%ADD53C,0.05158*%
%ADD54C,0.05512*%
%ADD55R,0.05512X0.05512*%
%ADD56C,0.05000*%
%ADD57R,0.01968X0.06299*%
%ADD58R,0.04409X0.02284*%
%ADD59R,0.01968X0.09843*%
%ADD60R,0.06929X0.12559*%
%ADD61R,0.06929X0.03701*%
%ADD62R,0.09843X0.01968*%
%ADD63R,0.07087X0.03937*%
%ADD64R,0.05512X0.11024*%
%ADD65C,0.01500*%
G36*
X259166Y179289D02*
Y162024D01*
X256283D01*
Y159029D01*
X246079D01*
Y162024D01*
X234236D01*
Y161569D01*
X182194D01*
X176418Y167345D01*
X175921Y167677D01*
X175336Y167793D01*
X169748D01*
X169163Y167677D01*
X168667Y167345D01*
X165454Y164133D01*
X165122Y163637D01*
X165006Y163051D01*
Y140465D01*
X165122Y139879D01*
X165454Y139383D01*
X167688Y137149D01*
X167590Y136914D01*
X167470Y136000D01*
X167590Y135086D01*
X167943Y134235D01*
X168140Y133978D01*
X167919Y133529D01*
X163854D01*
X162750Y134634D01*
Y138567D01*
X163205D01*
Y150409D01*
X159236D01*
Y138567D01*
X159691D01*
Y134000D01*
X159807Y133415D01*
X160139Y132919D01*
X162139Y130919D01*
X162635Y130587D01*
X162876Y130539D01*
X162826Y130039D01*
X147923D01*
X147731Y130501D01*
X154788Y137558D01*
X155230Y138220D01*
X155299Y138567D01*
X155331D01*
Y138724D01*
X155386Y139000D01*
Y144488D01*
Y147355D01*
X161951Y153921D01*
X163205D01*
Y155798D01*
X163260Y156074D01*
Y166337D01*
X166143Y169221D01*
X199055D01*
X203357Y164919D01*
X204019Y164477D01*
X204799Y164322D01*
X210244D01*
X211024Y164477D01*
X211686Y164919D01*
X216009Y169242D01*
X216451Y169904D01*
X216606Y170684D01*
Y185544D01*
X225546D01*
X225793Y185044D01*
X225415Y184552D01*
X225041Y183647D01*
X224979Y183177D01*
X228661D01*
X232344D01*
X232282Y183647D01*
X231908Y184552D01*
X231530Y185044D01*
X231777Y185544D01*
X243567D01*
X244348Y185699D01*
X245009Y186141D01*
X247897Y189029D01*
X248661Y188929D01*
X249426Y189029D01*
X259166Y179289D01*
D02*
G37*
G36*
X326814Y210569D02*
X326085Y210348D01*
X324885Y209706D01*
X323834Y208844D01*
X322971Y207792D01*
X322329Y206592D01*
X321935Y205291D01*
X321801Y203937D01*
X321935Y202583D01*
X322329Y201282D01*
X322971Y200082D01*
X323834Y199030D01*
X324885Y198168D01*
X326085Y197526D01*
X327386Y197131D01*
X328740Y196998D01*
X330094Y197131D01*
X331396Y197526D01*
X332595Y198168D01*
X333647Y199030D01*
X334510Y200082D01*
X335151Y201282D01*
X335372Y202011D01*
X335872Y201937D01*
Y162565D01*
X335410Y162374D01*
X316113Y181670D01*
X315452Y182112D01*
X314672Y182268D01*
X312535D01*
X312044Y182907D01*
X311260Y183509D01*
X310346Y183888D01*
X309366Y184017D01*
X308385Y183888D01*
X307471Y183509D01*
X306687Y182907D01*
X306085Y182123D01*
X305706Y181209D01*
X305577Y180228D01*
X305706Y179248D01*
X306085Y178334D01*
X306687Y177550D01*
X307471Y176948D01*
X308385Y176569D01*
X309366Y176440D01*
X310346Y176569D01*
X311260Y176948D01*
X312044Y177550D01*
X312535Y178189D01*
X313827D01*
X332862Y159154D01*
Y156414D01*
X332362Y156365D01*
X332319Y156585D01*
X331987Y157081D01*
X326322Y162747D01*
X325826Y163078D01*
X325240Y163195D01*
X276457D01*
X275871Y163078D01*
X275375Y162747D01*
X271507Y158879D01*
X271279Y158931D01*
X271020Y159098D01*
Y161510D01*
X270903Y162095D01*
X270571Y162591D01*
X267232Y165931D01*
Y180364D01*
X267732Y180534D01*
X268121Y180026D01*
X268898Y179431D01*
X269802Y179056D01*
X270272Y178994D01*
Y182677D01*
Y186360D01*
X269802Y186298D01*
X268898Y185924D01*
X268121Y185328D01*
X267525Y184552D01*
X267374Y184185D01*
X266810Y184130D01*
X266784Y184168D01*
X264718Y186233D01*
Y188961D01*
X265173D01*
Y200803D01*
X261205D01*
Y188961D01*
X261660D01*
Y185600D01*
X261776Y185015D01*
X262108Y184519D01*
X264173Y182453D01*
Y165298D01*
X264289Y164712D01*
X264621Y164216D01*
X266352Y162486D01*
X266160Y162024D01*
X263244D01*
Y180134D01*
X263244Y180134D01*
X263089Y180914D01*
X262647Y181576D01*
X262647Y181576D01*
X252309Y191913D01*
X252410Y192677D01*
X252282Y193647D01*
X252097Y194095D01*
X259505Y201503D01*
X279062D01*
X287124Y193441D01*
X287023Y192677D01*
X287151Y191707D01*
X287525Y190803D01*
X288121Y190026D01*
X288897Y189431D01*
X289802Y189056D01*
X290772Y188929D01*
X291536Y189029D01*
X291779Y188786D01*
X292440Y188344D01*
X293221Y188189D01*
X293221Y188189D01*
X305610D01*
Y186472D01*
X313122D01*
Y193984D01*
X305610D01*
Y192268D01*
X294846D01*
X294516Y192643D01*
X294520Y192677D01*
X294393Y193647D01*
X294018Y194552D01*
X293423Y195328D01*
X292646Y195924D01*
X291742Y196298D01*
X290772Y196426D01*
X290008Y196325D01*
X281349Y204984D01*
X280687Y205426D01*
X279907Y205581D01*
X258660D01*
X257880Y205426D01*
X257218Y204984D01*
X248660Y196426D01*
X247691Y196298D01*
X246787Y195924D01*
X246011Y195328D01*
X245415Y194552D01*
X245040Y193647D01*
X244913Y192677D01*
X245013Y191913D01*
X242723Y189622D01*
X240410D01*
X240164Y190122D01*
X240557Y190635D01*
X240910Y191486D01*
X241030Y192400D01*
X240910Y193314D01*
X240557Y194165D01*
X239996Y194896D01*
X239265Y195457D01*
X238414Y195810D01*
X237500Y195930D01*
X236586Y195810D01*
X235735Y195457D01*
X235004Y194896D01*
X234443Y194165D01*
X234345Y193929D01*
X233677D01*
Y200803D01*
X229709D01*
Y189622D01*
X223047D01*
Y200803D01*
X222500D01*
X222476Y200922D01*
X222144Y201418D01*
X216621Y206942D01*
X216125Y207273D01*
X215540Y207389D01*
X181265D01*
X181167Y207625D01*
X180606Y208356D01*
X179875Y208917D01*
X179024Y209270D01*
X178110Y209390D01*
X177197Y209270D01*
X176345Y208917D01*
X175614Y208356D01*
X175053Y207625D01*
X174700Y206774D01*
X174580Y205860D01*
X174700Y204946D01*
X175053Y204095D01*
X175614Y203364D01*
X176345Y202803D01*
X177197Y202450D01*
X178110Y202330D01*
X179024Y202450D01*
X179875Y202803D01*
X180606Y203364D01*
X181167Y204095D01*
X181265Y204331D01*
X214906D01*
X219079Y200158D01*
Y189622D01*
X212789D01*
X210498Y191913D01*
X210599Y192677D01*
X210471Y193647D01*
X210097Y194552D01*
X209501Y195328D01*
X208725Y195924D01*
X207821Y196298D01*
X206850Y196426D01*
X205880Y196298D01*
X204976Y195924D01*
X204200Y195328D01*
X203604Y194552D01*
X203229Y193647D01*
X203102Y192677D01*
X203229Y191707D01*
X203604Y190803D01*
X204200Y190026D01*
X204976Y189431D01*
X205880Y189056D01*
X206850Y188929D01*
X207615Y189029D01*
X210503Y186141D01*
X211164Y185699D01*
X211945Y185544D01*
X212528D01*
Y171529D01*
X209399Y168400D01*
X205644D01*
X205280Y168764D01*
X205563Y169188D01*
X205880Y169056D01*
X206850Y168929D01*
X207821Y169056D01*
X208725Y169431D01*
X209501Y170027D01*
X210097Y170803D01*
X210471Y171707D01*
X210599Y172677D01*
X210471Y173647D01*
X210097Y174551D01*
X209501Y175328D01*
X208725Y175924D01*
X207821Y176298D01*
X206850Y176426D01*
X205880Y176298D01*
X205535Y176155D01*
X191945Y189746D01*
Y200803D01*
X187976D01*
Y188961D01*
X188562D01*
X188879Y188486D01*
X203372Y173992D01*
X203229Y173647D01*
X203102Y172677D01*
X203229Y171707D01*
X203361Y171390D01*
X202937Y171107D01*
X201342Y172702D01*
X200680Y173144D01*
X199900Y173299D01*
X165299D01*
X164518Y173144D01*
X163857Y172702D01*
X159778Y168623D01*
X159336Y167962D01*
X159181Y167182D01*
Y156919D01*
X152672Y150409D01*
X151362D01*
Y148476D01*
X151307Y148200D01*
Y144488D01*
Y139845D01*
X140692Y129229D01*
X140268Y129513D01*
X140418Y129873D01*
X140538Y130787D01*
X140418Y131701D01*
X140065Y132552D01*
X139504Y133283D01*
X138859Y133778D01*
Y151471D01*
X138742Y152056D01*
X138411Y152552D01*
X135413Y155550D01*
X135252Y155658D01*
Y156610D01*
X129872D01*
Y157327D01*
X135252D01*
Y161347D01*
X135752Y161554D01*
X138545Y158761D01*
X139041Y158429D01*
X139626Y158313D01*
X140732D01*
Y153921D01*
X144701D01*
Y165764D01*
X140732D01*
Y161438D01*
X140232Y161399D01*
X136081Y165550D01*
X135585Y165882D01*
X135252Y165948D01*
Y166610D01*
X130204D01*
X130075Y166827D01*
X130358Y167327D01*
X135252D01*
Y171610D01*
X133465D01*
X133460Y171634D01*
X133129Y172130D01*
X132633Y172462D01*
X132155Y172557D01*
X126289Y178423D01*
X126535Y178884D01*
X126600Y178871D01*
X141367D01*
X151817Y168420D01*
Y165764D01*
X151362D01*
Y157608D01*
X144163Y150409D01*
X140732D01*
Y138567D01*
X144701D01*
Y146621D01*
X152001Y153921D01*
X155331D01*
Y165764D01*
X154876D01*
Y169054D01*
X154759Y169639D01*
X154428Y170135D01*
X143081Y181481D01*
X142585Y181813D01*
X142000Y181929D01*
X132447D01*
X132201Y182429D01*
X132501Y182820D01*
X132889Y183758D01*
X132956Y184264D01*
X129134D01*
Y185264D01*
X132956D01*
X132889Y185770D01*
X132501Y186708D01*
X132038Y187310D01*
X132217Y187850D01*
X132220Y187853D01*
X132399Y187887D01*
X136919Y183367D01*
X137415Y183036D01*
X138000Y182919D01*
X139354D01*
Y182465D01*
X151197D01*
Y186433D01*
X139354D01*
Y185978D01*
X138634D01*
X133930Y190681D01*
X133434Y191013D01*
X132988Y191102D01*
Y198618D01*
X125279D01*
Y196293D01*
X121382D01*
X121085Y196492D01*
X120500Y196608D01*
X118166D01*
Y197063D01*
X106323D01*
Y193094D01*
X118166D01*
Y193549D01*
X119933D01*
X120229Y193351D01*
X120815Y193234D01*
X125279D01*
Y191129D01*
X99524D01*
Y198618D01*
X91815D01*
Y196293D01*
X87882D01*
X87585Y196492D01*
X87000Y196608D01*
X84662D01*
Y197063D01*
X72819D01*
Y193094D01*
X84662D01*
Y193549D01*
X86433D01*
X86730Y193351D01*
X87315Y193234D01*
X91815D01*
Y191129D01*
X75500D01*
X74915Y191013D01*
X74419Y190681D01*
X63367Y179629D01*
X61300D01*
X60715Y179513D01*
X60219Y179181D01*
X35752Y154715D01*
X35252Y154922D01*
Y166551D01*
X31284D01*
Y156497D01*
X29616D01*
X29031Y156381D01*
X28535Y156049D01*
X25819Y153333D01*
X25487Y152837D01*
X25371Y152252D01*
Y116235D01*
X17319Y108183D01*
X16806Y108396D01*
X15748Y108535D01*
X14690Y108396D01*
X13705Y107988D01*
X13129Y107546D01*
X12629Y107793D01*
Y171047D01*
X17021D01*
Y175016D01*
X6254D01*
Y176184D01*
X8097Y178027D01*
X20453D01*
X21038Y178143D01*
X21534Y178475D01*
X24122Y181063D01*
X24453Y181559D01*
X24570Y182144D01*
Y186578D01*
X26245Y188252D01*
X26704Y188202D01*
X26857Y187754D01*
X26542Y187513D01*
X25925Y186708D01*
X25536Y185770D01*
X25470Y185264D01*
X29291D01*
X33113D01*
X33046Y185770D01*
X32658Y186708D01*
X32040Y187513D01*
X31704Y187771D01*
X31874Y188271D01*
X35566D01*
X39748Y184089D01*
Y182465D01*
X51591D01*
Y186433D01*
X41730D01*
X37281Y190881D01*
X36785Y191213D01*
X36200Y191329D01*
X33146D01*
Y198618D01*
X25437D01*
Y196293D01*
X20415D01*
X19829Y196177D01*
X19333Y195845D01*
X14440Y190952D01*
X14108Y190456D01*
X13992Y189870D01*
Y185645D01*
X5179D01*
Y181677D01*
X17021D01*
Y183998D01*
X17051Y184145D01*
Y189237D01*
X21048Y193234D01*
X25437D01*
Y191291D01*
X25044Y191213D01*
X24548Y190881D01*
X21959Y188293D01*
X21628Y187796D01*
X21511Y187211D01*
Y182778D01*
X19819Y181086D01*
X7464D01*
X6878Y180969D01*
X6382Y180638D01*
X3643Y177899D01*
X3311Y177402D01*
X3195Y176817D01*
Y173031D01*
X3195Y48268D01*
X3311Y47683D01*
X3643Y47186D01*
X11697Y39132D01*
Y33193D01*
X19799D01*
Y40377D01*
X20261Y40568D01*
X22011Y38819D01*
X22507Y38487D01*
X23092Y38371D01*
X42054D01*
X42246Y37909D01*
X38919Y34581D01*
X38587Y34085D01*
X38471Y33500D01*
Y10100D01*
X38587Y9515D01*
X38919Y9019D01*
X40246Y7691D01*
X40054Y7229D01*
X37028D01*
X35754Y8503D01*
X35828Y9049D01*
X35899Y9079D01*
X36647Y9652D01*
X37220Y10400D01*
X37581Y11271D01*
X37704Y12205D01*
X37581Y13139D01*
X37220Y14010D01*
X36647Y14757D01*
X35899Y15331D01*
X35029Y15691D01*
X34094Y15814D01*
X33160Y15691D01*
X32290Y15331D01*
X31542Y14757D01*
X30968Y14010D01*
X30608Y13139D01*
X30485Y12205D01*
X30608Y11271D01*
X30968Y10400D01*
X31542Y9652D01*
X32290Y9079D01*
X32565Y8965D01*
Y8000D01*
X32681Y7415D01*
X33013Y6919D01*
X35313Y4619D01*
X35809Y4287D01*
X36394Y4171D01*
X124000D01*
X124585Y4287D01*
X125081Y4619D01*
X130569Y10106D01*
X131230Y10060D01*
X131542Y9652D01*
X132290Y9079D01*
X133160Y8718D01*
X134094Y8595D01*
X135029Y8718D01*
X135899Y9079D01*
X136647Y9652D01*
X137220Y10400D01*
X137581Y11271D01*
X137704Y12205D01*
X137581Y13139D01*
X137220Y14010D01*
X137020Y14271D01*
X137267Y14771D01*
X140922D01*
X141169Y14271D01*
X140968Y14010D01*
X140608Y13139D01*
X140485Y12205D01*
X140608Y11271D01*
X140968Y10400D01*
X141542Y9652D01*
X142290Y9079D01*
X142565Y8965D01*
Y8000D01*
X142681Y7415D01*
X143013Y6919D01*
X147940Y1991D01*
X147749Y1529D01*
X10661D01*
X10587Y2029D01*
X11317Y2251D01*
X12517Y2892D01*
X13568Y3755D01*
X14431Y4806D01*
X15072Y6006D01*
X15467Y7308D01*
X15600Y8661D01*
X15467Y10015D01*
X15072Y11317D01*
X14431Y12517D01*
X13568Y13568D01*
X12517Y14431D01*
X11317Y15072D01*
X10015Y15467D01*
X8661Y15600D01*
X7308Y15467D01*
X6006Y15072D01*
X4806Y14431D01*
X3755Y13568D01*
X2892Y12517D01*
X2251Y11317D01*
X2029Y10587D01*
X1529Y10661D01*
Y201937D01*
X2029Y202011D01*
X2251Y201282D01*
X2892Y200082D01*
X3755Y199030D01*
X4806Y198168D01*
X6006Y197526D01*
X7308Y197131D01*
X8661Y196998D01*
X10015Y197131D01*
X11317Y197526D01*
X12517Y198168D01*
X13568Y199030D01*
X14431Y200082D01*
X15072Y201282D01*
X15467Y202583D01*
X15600Y203937D01*
X15467Y205291D01*
X15072Y206592D01*
X14431Y207792D01*
X13568Y208844D01*
X12517Y209706D01*
X11317Y210348D01*
X10587Y210569D01*
X10661Y211069D01*
X326740D01*
X326814Y210569D01*
D02*
G37*
G36*
X105146Y187609D02*
X104619Y187081D01*
X104287Y186585D01*
X104171Y186000D01*
Y183355D01*
X103935Y183257D01*
X103204Y182696D01*
X102643Y181965D01*
X102290Y181114D01*
X102170Y180200D01*
X102290Y179286D01*
X102643Y178435D01*
X103204Y177704D01*
X103692Y177329D01*
X103522Y176829D01*
X97282D01*
X88581Y185530D01*
X88085Y185862D01*
X87500Y185978D01*
X84662D01*
Y186433D01*
X75149D01*
X74958Y186895D01*
X76134Y188071D01*
X92870D01*
X93030Y187597D01*
X92920Y187513D01*
X92302Y186708D01*
X91914Y185770D01*
X91847Y185264D01*
X95669D01*
X99491D01*
X99424Y185770D01*
X99036Y186708D01*
X98418Y187513D01*
X98308Y187597D01*
X98469Y188071D01*
X104954D01*
X105146Y187609D01*
D02*
G37*
G36*
X128842Y171543D02*
Y168554D01*
X128381Y168363D01*
X120362Y176381D01*
X119866Y176713D01*
X119281Y176829D01*
X107878D01*
X107708Y177329D01*
X108196Y177704D01*
X108757Y178435D01*
X109110Y179286D01*
X109230Y180200D01*
X109110Y181114D01*
X108757Y181965D01*
X108718Y182016D01*
X108939Y182465D01*
X117921D01*
X128842Y171543D01*
D02*
G37*
G36*
X117552Y167358D02*
X117297Y166820D01*
X116728Y166745D01*
X115877Y166393D01*
X115146Y165832D01*
X114964Y165596D01*
X114464Y165766D01*
Y166610D01*
X108055D01*
Y162327D01*
X110641D01*
X110836Y162110D01*
X110613Y161610D01*
X108055D01*
X108055Y161610D01*
X107618Y161763D01*
X107114Y161972D01*
X106200Y162092D01*
X105286Y161972D01*
X104484Y161640D01*
X104115Y161774D01*
X103984Y161839D01*
Y164070D01*
X107344Y167429D01*
X108055D01*
Y167327D01*
X114464D01*
Y167429D01*
X117507D01*
X117552Y167358D01*
D02*
G37*
G36*
X72819Y184103D02*
Y182465D01*
X84662D01*
Y182919D01*
X86866D01*
X95567Y174219D01*
X96064Y173887D01*
X96649Y173771D01*
X102112D01*
X102160Y173708D01*
X102297Y173271D01*
X98860Y169833D01*
X98528Y169337D01*
X98412Y168752D01*
Y166945D01*
X95457D01*
Y166545D01*
X94995Y166354D01*
X92007Y169342D01*
X91345Y169784D01*
X90565Y169939D01*
X72128D01*
X71348Y169784D01*
X70687Y169342D01*
X67305Y165960D01*
X66843Y166151D01*
Y166551D01*
X62874D01*
Y160906D01*
X62819Y160630D01*
Y155403D01*
X58058Y150642D01*
X57616Y149980D01*
X57461Y149200D01*
Y140845D01*
X56675Y140058D01*
X56213Y140250D01*
Y151197D01*
X53273D01*
Y154709D01*
X56213D01*
Y166551D01*
X52621D01*
X52414Y167051D01*
X61933Y176571D01*
X64000D01*
X64585Y176687D01*
X65081Y177019D01*
X72357Y184294D01*
X72819Y184103D01*
D02*
G37*
G36*
X232619Y156419D02*
X233115Y156087D01*
X233700Y155971D01*
X267892D01*
X268059Y155711D01*
X268111Y155483D01*
X266914Y154285D01*
X216466D01*
X216109Y155147D01*
X215477Y155971D01*
X215695Y156471D01*
X232566D01*
X232619Y156419D01*
D02*
G37*
G36*
X180479Y158958D02*
X180975Y158626D01*
X181561Y158510D01*
X184394D01*
X184585Y158048D01*
X176427Y149890D01*
X176096Y149394D01*
X175979Y148809D01*
Y131494D01*
X175517Y131302D01*
X173751Y133069D01*
X173714Y133113D01*
X173669Y133729D01*
X174057Y134235D01*
X174410Y135086D01*
X174530Y136000D01*
X174410Y136914D01*
X174057Y137765D01*
X173826Y138067D01*
X173835Y138567D01*
X173835Y138567D01*
X173835Y138567D01*
Y150409D01*
X173380D01*
Y153921D01*
X173835D01*
Y154243D01*
X174335Y154577D01*
X174786Y154390D01*
X175700Y154270D01*
X176614Y154390D01*
X177465Y154743D01*
X178196Y155304D01*
X178757Y156035D01*
X179110Y156886D01*
X179230Y157800D01*
X179110Y158714D01*
X178757Y159565D01*
X178196Y160296D01*
X177465Y160857D01*
X176614Y161210D01*
X175700Y161330D01*
X174786Y161210D01*
X174335Y161023D01*
X173835Y161357D01*
Y164734D01*
X174703D01*
X180479Y158958D01*
D02*
G37*
G36*
X308904Y156534D02*
Y153165D01*
X308449D01*
Y142329D01*
X301787D01*
Y152322D01*
X301906Y152381D01*
X302287Y152521D01*
X303086Y152190D01*
X304000Y152070D01*
X304914Y152190D01*
X305765Y152543D01*
X306496Y153104D01*
X307057Y153835D01*
X307410Y154686D01*
X307530Y155600D01*
X307410Y156514D01*
X307057Y157365D01*
X307296Y157875D01*
X307533Y157904D01*
X308904Y156534D01*
D02*
G37*
G36*
X52244Y166174D02*
Y160809D01*
X50663Y159227D01*
X50331Y158731D01*
X50215Y158146D01*
Y151227D01*
X48404D01*
X48057Y152065D01*
X47496Y152796D01*
X46765Y153357D01*
X45914Y153710D01*
X45000Y153830D01*
X44086Y153710D01*
X43235Y153357D01*
X42504Y152796D01*
X41943Y152065D01*
X41590Y151214D01*
X41470Y150300D01*
X41590Y149386D01*
X41943Y148535D01*
X42504Y147804D01*
X43235Y147243D01*
X44086Y146890D01*
X45000Y146770D01*
X45914Y146890D01*
X46765Y147243D01*
X47496Y147804D01*
X47776Y148169D01*
X51111D01*
X51249Y148031D01*
X51745Y147699D01*
X52244Y147600D01*
Y139354D01*
X55317D01*
X55509Y138892D01*
X54655Y138039D01*
X40845D01*
X36142Y142742D01*
X35480Y143184D01*
X35307Y143219D01*
Y145276D01*
X35252Y145552D01*
Y150238D01*
X35482Y150284D01*
X35978Y150616D01*
X51744Y166381D01*
X52244Y166174D01*
D02*
G37*
G36*
X124843Y150425D02*
X125256Y150480D01*
X126108Y150832D01*
X126564Y151182D01*
X126604Y151201D01*
X127190Y151117D01*
X127229Y151086D01*
X127261Y151038D01*
X128842Y149457D01*
Y147327D01*
X135252D01*
Y150183D01*
X135752Y150450D01*
X135800Y150418D01*
Y134533D01*
X135752Y134508D01*
X135252Y134807D01*
Y136610D01*
X132547D01*
Y134469D01*
Y132327D01*
X133407D01*
X133685Y131911D01*
X133598Y131701D01*
X133477Y130787D01*
X133598Y129873D01*
X133824Y129326D01*
X133493Y128826D01*
X130460D01*
X125129Y134157D01*
Y146751D01*
X125129Y146751D01*
X124974Y147532D01*
X124532Y148193D01*
X124532Y148193D01*
X122296Y150430D01*
X122577Y150832D01*
X123429Y150480D01*
X123843Y150425D01*
Y153890D01*
X124843D01*
Y150425D01*
D02*
G37*
G36*
X95386Y160195D02*
Y159017D01*
X95220Y158984D01*
X94558Y158542D01*
X94558Y158542D01*
X93015Y156999D01*
X92573Y156337D01*
X92418Y155557D01*
Y139920D01*
X92573Y139139D01*
X93015Y138478D01*
X94186Y137306D01*
X94186Y137306D01*
X94848Y136864D01*
X95628Y136709D01*
X99254D01*
X100034Y136864D01*
X100696Y137306D01*
X103883Y140494D01*
X103883Y140494D01*
X104325Y141155D01*
X104480Y141936D01*
X104480Y141936D01*
Y155036D01*
X104896Y155314D01*
X105286Y155152D01*
X106200Y155032D01*
X107114Y155152D01*
X107555Y155335D01*
X108055Y155001D01*
Y154490D01*
X105619Y152053D01*
X105287Y151557D01*
X105171Y150972D01*
Y135933D01*
X104267Y135029D01*
X58066D01*
X57875Y135491D01*
X60942Y138558D01*
X61384Y139220D01*
X61539Y140000D01*
Y148355D01*
X62412Y149228D01*
X62874Y149037D01*
Y139354D01*
X66843D01*
Y145612D01*
X66872Y145760D01*
Y148228D01*
X67372Y148351D01*
X68035Y147843D01*
X68886Y147490D01*
X69800Y147370D01*
X70714Y147490D01*
X71565Y147843D01*
X72296Y148404D01*
X72857Y149135D01*
X73210Y149986D01*
X73330Y150900D01*
X73210Y151814D01*
X72857Y152665D01*
X72296Y153396D01*
X71565Y153957D01*
X70714Y154310D01*
X69800Y154430D01*
X68886Y154310D01*
X68035Y153957D01*
X67304Y153396D01*
X66756Y152683D01*
X66666Y152669D01*
X66565Y152674D01*
X66411Y152932D01*
X66346Y153185D01*
X66742Y153778D01*
X66898Y154558D01*
Y159785D01*
X72973Y165861D01*
X84827D01*
Y155103D01*
X85282D01*
Y151591D01*
X84827D01*
Y149391D01*
X84378Y149170D01*
X84265Y149257D01*
X83414Y149610D01*
X82500Y149730D01*
X81586Y149610D01*
X80735Y149257D01*
X80004Y148696D01*
X79443Y147965D01*
X79090Y147114D01*
X78970Y146200D01*
X79090Y145286D01*
X79443Y144435D01*
X80004Y143704D01*
X80735Y143143D01*
X81586Y142790D01*
X82500Y142670D01*
X83414Y142790D01*
X84265Y143143D01*
X84378Y143230D01*
X84827Y143008D01*
Y139748D01*
X88795D01*
Y151591D01*
X88340D01*
Y155103D01*
X88795D01*
Y165861D01*
X89720D01*
X95386Y160195D01*
D02*
G37*
G36*
X296073Y157571D02*
X295637Y157484D01*
X294976Y157042D01*
X291411Y153477D01*
X290969Y152816D01*
X290814Y152035D01*
Y148539D01*
X284156D01*
X283964Y149001D01*
X293034Y158071D01*
X296024D01*
X296073Y157571D01*
D02*
G37*
G36*
X202469Y148041D02*
X203206Y148138D01*
X204359Y148616D01*
X205349Y149375D01*
X206109Y150365D01*
X206587Y151519D01*
X206716Y152504D01*
X207221D01*
X207350Y151519D01*
X207828Y150365D01*
X208588Y149375D01*
X209578Y148616D01*
X210731Y148138D01*
X211969Y147975D01*
X213206Y148138D01*
X214359Y148616D01*
X215349Y149375D01*
X216109Y150365D01*
X216466Y151227D01*
X234236D01*
Y147425D01*
X233859Y147129D01*
X199758D01*
X196709Y150179D01*
Y152562D01*
X197209Y152595D01*
X197351Y151519D01*
X197828Y150365D01*
X198588Y149375D01*
X199578Y148616D01*
X200731Y148138D01*
X201469Y148041D01*
Y152756D01*
X202469D01*
Y148041D01*
D02*
G37*
G36*
X290311Y159674D02*
X277766Y147129D01*
X268575D01*
X268191Y147500D01*
X268215Y147880D01*
X270300D01*
X270885Y147997D01*
X271121Y148154D01*
X271135Y148143D01*
X271986Y147790D01*
X272900Y147670D01*
X273814Y147790D01*
X274665Y148143D01*
X275396Y148704D01*
X275957Y149435D01*
X276310Y150286D01*
X276430Y151200D01*
X276310Y152114D01*
X275957Y152965D01*
X275396Y153696D01*
X274665Y154257D01*
X273814Y154610D01*
X272900Y154730D01*
X272314Y154653D01*
X272081Y155127D01*
X277090Y160136D01*
X290120D01*
X290311Y159674D01*
D02*
G37*
G36*
X115146Y160839D02*
X115877Y160278D01*
X116728Y159926D01*
X117642Y159805D01*
X118556Y159926D01*
X119407Y160278D01*
X119654Y160468D01*
X120103Y160247D01*
Y159338D01*
X118401Y157636D01*
X117958Y156975D01*
X117803Y156194D01*
Y149999D01*
X117958Y149219D01*
X118401Y148557D01*
X121051Y145907D01*
Y143116D01*
X120551Y142909D01*
X115195Y148265D01*
X115113Y148677D01*
X114781Y149173D01*
X114464Y149490D01*
Y151610D01*
X110439D01*
X110194Y152110D01*
X110362Y152327D01*
X114464D01*
Y156610D01*
X110793D01*
X110743Y157110D01*
X110939Y157149D01*
X111205Y157327D01*
X114464D01*
Y160906D01*
X114964Y161075D01*
X115146Y160839D01*
D02*
G37*
G36*
X329376Y155367D02*
Y153165D01*
X328921D01*
Y141678D01*
X328280D01*
X328280Y141678D01*
X327500Y141522D01*
X326838Y141080D01*
X316128Y130370D01*
X303922D01*
X303922Y130370D01*
X303141Y130215D01*
X302480Y129773D01*
X302480Y129773D01*
X293961Y121254D01*
X293775Y121291D01*
X293610Y121834D01*
X302962Y131186D01*
X315505D01*
X316091Y131302D01*
X316587Y131634D01*
X324704Y139751D01*
X325035Y140247D01*
X325151Y140832D01*
Y152178D01*
X325035Y152763D01*
X324704Y153259D01*
X323046Y154916D01*
X322550Y155248D01*
X321965Y155364D01*
X318788D01*
X318203Y155248D01*
X317707Y154916D01*
X315891Y153101D01*
X315560Y152605D01*
X315443Y152020D01*
Y142329D01*
X312417D01*
Y153165D01*
X311962D01*
Y157167D01*
X311846Y157752D01*
X311514Y158248D01*
X310089Y159674D01*
X310280Y160136D01*
X324607D01*
X329376Y155367D01*
D02*
G37*
G36*
X187228Y155712D02*
Y148016D01*
X194546D01*
X198043Y144519D01*
X198539Y144187D01*
X199125Y144071D01*
X278378D01*
X278423Y144021D01*
X278619Y143604D01*
X275084Y140069D01*
X274642Y140252D01*
Y140252D01*
X265713D01*
Y134957D01*
X265213Y134750D01*
X258381Y141581D01*
X257885Y141913D01*
X257300Y142029D01*
X181600D01*
X181015Y141913D01*
X180519Y141581D01*
X179500Y140563D01*
X179038Y140754D01*
Y148175D01*
X186767Y155904D01*
X187228Y155712D01*
D02*
G37*
G36*
X169866Y163566D02*
Y153921D01*
X170321D01*
Y150409D01*
X169866D01*
Y140004D01*
X169366Y139797D01*
X168065Y141098D01*
Y162418D01*
X169404Y163757D01*
X169866Y163566D01*
D02*
G37*
G36*
X263800Y131837D02*
X264296Y131506D01*
X264881Y131389D01*
X265292D01*
X265713Y131197D01*
X265713Y130889D01*
Y128847D01*
X270177D01*
X274642D01*
Y130889D01*
X274642Y131197D01*
X275062Y131389D01*
X276936D01*
X277521Y131506D01*
X278017Y131837D01*
X282155Y135975D01*
X282617Y135783D01*
Y135146D01*
X288735D01*
X294853D01*
Y136486D01*
X316406D01*
X316457Y136431D01*
X316647Y136019D01*
X314872Y134245D01*
X302329D01*
X301743Y134128D01*
X301247Y133797D01*
X291672Y124221D01*
X260292D01*
X259706Y124105D01*
X259210Y123773D01*
X253867Y118429D01*
X234500D01*
X233915Y118313D01*
X233419Y117981D01*
X228984Y113547D01*
X228560Y113830D01*
X228764Y114323D01*
X228885Y115236D01*
X228764Y116150D01*
X228412Y117001D01*
X227851Y117733D01*
X227119Y118294D01*
X226268Y118646D01*
X225354Y118767D01*
X224441Y118646D01*
X223589Y118294D01*
X222858Y117733D01*
X222297Y117001D01*
X221944Y116150D01*
X221824Y115236D01*
X221944Y114323D01*
X222297Y113471D01*
X222858Y112740D01*
X223589Y112179D01*
X224441Y111827D01*
X225354Y111706D01*
X226268Y111827D01*
X226761Y112030D01*
X227044Y111607D01*
X226219Y110781D01*
X225887Y110285D01*
X225771Y109700D01*
Y89695D01*
X225322Y89474D01*
X225065Y89671D01*
X224214Y90024D01*
X223300Y90144D01*
X222386Y90024D01*
X221535Y89671D01*
X220804Y89110D01*
X220243Y88379D01*
X220145Y88144D01*
X219459D01*
X218874Y88027D01*
X218377Y87696D01*
X218326Y87644D01*
X217902Y87927D01*
X218160Y88549D01*
X218299Y89606D01*
X218160Y90664D01*
X217751Y91650D01*
X217102Y92496D01*
X216256Y93145D01*
X215270Y93553D01*
X214213Y93692D01*
X213155Y93553D01*
X212170Y93145D01*
X211970Y92992D01*
X204002Y100960D01*
X204032Y101020D01*
X204275Y101395D01*
X205270Y101526D01*
X206256Y101934D01*
X207102Y102583D01*
X207751Y103429D01*
X208159Y104415D01*
X208299Y105473D01*
X208159Y106530D01*
X207751Y107516D01*
X207102Y108362D01*
X206256Y109011D01*
X205270Y109420D01*
X204213Y109559D01*
X203155Y109420D01*
X202169Y109011D01*
X201323Y108362D01*
X200829Y107718D01*
X200329Y107888D01*
Y108000D01*
X200213Y108585D01*
X199881Y109081D01*
X197421Y111541D01*
X196925Y111873D01*
X196340Y111989D01*
X189200D01*
X188615Y111873D01*
X188119Y111541D01*
X186101Y109524D01*
X180161D01*
Y101421D01*
X186785D01*
X187052Y100921D01*
X187027Y100884D01*
X115400D01*
X115209Y101346D01*
X116781Y102919D01*
X117113Y103415D01*
X117152Y103613D01*
X117681Y103709D01*
X118213Y103016D01*
X119059Y102367D01*
X120045Y101959D01*
X121102Y101820D01*
X122160Y101959D01*
X123145Y102367D01*
X123992Y103016D01*
X124641Y103863D01*
X125049Y104848D01*
X125189Y105906D01*
X125049Y106963D01*
X124641Y107949D01*
X124126Y108620D01*
X124352Y109120D01*
X127853D01*
X128079Y108620D01*
X127564Y107949D01*
X127155Y106963D01*
X127016Y105906D01*
X127155Y104848D01*
X127564Y103863D01*
X128213Y103016D01*
X129059Y102367D01*
X130045Y101959D01*
X131102Y101820D01*
X132160Y101959D01*
X133145Y102367D01*
X133992Y103016D01*
X134641Y103863D01*
X135049Y104848D01*
X135188Y105906D01*
X135049Y106963D01*
X134641Y107949D01*
X134126Y108620D01*
X134352Y109120D01*
X137853D01*
X138079Y108620D01*
X137564Y107949D01*
X137155Y106963D01*
X137016Y105906D01*
X137155Y104848D01*
X137564Y103863D01*
X138213Y103016D01*
X139059Y102367D01*
X140045Y101959D01*
X141102Y101820D01*
X142160Y101959D01*
X143146Y102367D01*
X143992Y103016D01*
X144641Y103863D01*
X145049Y104848D01*
X145188Y105906D01*
X145049Y106963D01*
X144641Y107949D01*
X144126Y108620D01*
X144352Y109120D01*
X147853D01*
X148079Y108620D01*
X147564Y107949D01*
X147155Y106963D01*
X147016Y105906D01*
X147155Y104848D01*
X147564Y103863D01*
X148213Y103016D01*
X149059Y102367D01*
X150045Y101959D01*
X151102Y101820D01*
X152160Y101959D01*
X153146Y102367D01*
X153992Y103016D01*
X154641Y103863D01*
X155049Y104848D01*
X155189Y105906D01*
X155049Y106963D01*
X154641Y107949D01*
X154126Y108620D01*
X154352Y109120D01*
X157051D01*
Y101854D01*
X165154D01*
Y109120D01*
X174050D01*
X174635Y109237D01*
X175131Y109568D01*
X180590Y115027D01*
X180922Y115523D01*
X181038Y116109D01*
Y132172D01*
X181538Y132418D01*
X182169Y131934D01*
X183155Y131526D01*
X184213Y131386D01*
X185270Y131526D01*
X186256Y131934D01*
X187102Y132583D01*
X187751Y133430D01*
X188160Y134415D01*
X188299Y135473D01*
X188160Y136530D01*
X187751Y137516D01*
X187102Y138362D01*
X186926Y138497D01*
X187086Y138971D01*
X191339D01*
X191499Y138497D01*
X191323Y138362D01*
X190674Y137516D01*
X190266Y136530D01*
X190192Y135973D01*
X198233D01*
X198160Y136530D01*
X197751Y137516D01*
X197102Y138362D01*
X196926Y138497D01*
X197087Y138971D01*
X201339D01*
X201500Y138497D01*
X201323Y138362D01*
X200674Y137516D01*
X200266Y136530D01*
X200192Y135973D01*
X208233D01*
X208159Y136530D01*
X207751Y137516D01*
X207102Y138362D01*
X206926Y138497D01*
X207086Y138971D01*
X211339D01*
X211500Y138497D01*
X211323Y138362D01*
X210674Y137516D01*
X210266Y136530D01*
X210192Y135973D01*
X218233D01*
X218160Y136530D01*
X217751Y137516D01*
X217102Y138362D01*
X216926Y138497D01*
X217087Y138971D01*
X256666D01*
X263800Y131837D01*
D02*
G37*
G36*
X297674Y153348D02*
X297819Y153061D01*
Y141323D01*
X298450D01*
X298722Y140915D01*
X299592Y140045D01*
X299385Y139545D01*
X282033D01*
X281448Y139429D01*
X280952Y139097D01*
X276303Y134448D01*
X275099D01*
X274642Y134551D01*
Y135363D01*
X275300D01*
X276080Y135518D01*
X276742Y135960D01*
X283581Y142799D01*
X294853D01*
Y146342D01*
X294892Y146539D01*
Y151191D01*
X297115Y153413D01*
X297674Y153348D01*
D02*
G37*
G36*
X126642Y122919D02*
X127138Y122587D01*
X127723Y122471D01*
X131958D01*
X132179Y122022D01*
X131982Y121765D01*
X131629Y120914D01*
X131509Y120000D01*
X131629Y119086D01*
X131982Y118235D01*
X132543Y117504D01*
X133274Y116943D01*
X134125Y116590D01*
X135039Y116470D01*
X135953Y116590D01*
X136804Y116943D01*
X137535Y117504D01*
X138096Y118235D01*
X138390Y118943D01*
X163298D01*
X163883Y119059D01*
X164380Y119391D01*
X165459Y120471D01*
X173485D01*
X174071Y120587D01*
X174567Y120919D01*
X177517Y123869D01*
X177979Y123678D01*
Y116742D01*
X173416Y112179D01*
X118050D01*
X117464Y112063D01*
X116968Y111731D01*
X114619Y109381D01*
X114411Y109070D01*
X114343Y109026D01*
X113890Y108937D01*
X113790Y108950D01*
X113145Y109444D01*
X112160Y109853D01*
X111102Y109992D01*
X110329Y109890D01*
X109829Y110261D01*
Y128593D01*
X111533Y130297D01*
X114965D01*
X115049Y130314D01*
X115435Y129997D01*
Y128475D01*
X115228Y128447D01*
X114377Y128095D01*
X113646Y127534D01*
X113085Y126803D01*
X112732Y125951D01*
X112612Y125038D01*
X112732Y124124D01*
X113085Y123272D01*
X113646Y122541D01*
X114377Y121980D01*
X115228Y121628D01*
X116142Y121507D01*
X117055Y121628D01*
X117907Y121980D01*
X118638Y122541D01*
X119199Y123272D01*
X119552Y124124D01*
X119672Y125038D01*
X119552Y125951D01*
X119199Y126803D01*
X118638Y127534D01*
X118494Y127644D01*
Y130359D01*
X118994Y130566D01*
X126642Y122919D01*
D02*
G37*
G36*
X289158Y121079D02*
Y116606D01*
X284669D01*
X280613Y120662D01*
X280714Y121162D01*
X288692D01*
X289158Y121079D01*
D02*
G37*
G36*
X335872Y138243D02*
Y10662D01*
X335372Y10588D01*
X335151Y11317D01*
X334510Y12517D01*
X333647Y13568D01*
X332595Y14431D01*
X331396Y15072D01*
X330094Y15467D01*
X328740Y15600D01*
X327386Y15467D01*
X326085Y15072D01*
X324885Y14431D01*
X323834Y13568D01*
X322971Y12517D01*
X322329Y11317D01*
X321935Y10015D01*
X321801Y8661D01*
X321935Y7308D01*
X322329Y6006D01*
X322971Y4806D01*
X323834Y3755D01*
X324885Y2892D01*
X326085Y2251D01*
X326814Y2029D01*
X326740Y1529D01*
X300985D01*
X300718Y2029D01*
X300894Y2293D01*
X300944Y2543D01*
X303831D01*
Y9055D01*
Y15567D01*
X301011D01*
Y23019D01*
X300894Y23604D01*
X300563Y24100D01*
X295909Y28754D01*
X295412Y29086D01*
X294827Y29202D01*
X262536D01*
Y29850D01*
X278500D01*
X279280Y30006D01*
X279942Y30448D01*
X284463Y34969D01*
X299876D01*
Y33627D01*
X300018Y32544D01*
X300436Y31535D01*
X301102Y30668D01*
X301969Y30003D01*
X302978Y29585D01*
X304061Y29442D01*
X305145Y29585D01*
X306154Y30003D01*
X307021Y30668D01*
X307686Y31535D01*
X308104Y32544D01*
X308247Y33627D01*
Y45438D01*
X308104Y46522D01*
X307686Y47531D01*
X307021Y48398D01*
X306154Y49063D01*
X305145Y49481D01*
X304061Y49624D01*
X302978Y49481D01*
X301969Y49063D01*
X301102Y48398D01*
X300436Y47531D01*
X300018Y46522D01*
X299876Y45438D01*
Y39047D01*
X283618D01*
X282838Y38892D01*
X282176Y38450D01*
X277655Y33929D01*
X262536D01*
Y34740D01*
X253606D01*
Y29202D01*
X252490D01*
X252392Y29438D01*
X251831Y30169D01*
X251100Y30730D01*
X250249Y31083D01*
X249335Y31203D01*
X248421Y31083D01*
X247570Y30730D01*
X246839Y30169D01*
X246278Y29438D01*
X245925Y28586D01*
X245805Y27673D01*
X245925Y26759D01*
X246278Y25908D01*
X246839Y25177D01*
X247570Y24615D01*
X248421Y24263D01*
X249335Y24142D01*
X250249Y24263D01*
X251100Y24615D01*
X251831Y25177D01*
X252392Y25908D01*
X252490Y26143D01*
X253506D01*
X253606Y25685D01*
X253606Y25643D01*
Y23335D01*
X258071D01*
X262536D01*
Y25643D01*
X262536Y25685D01*
X262636Y26143D01*
X294194D01*
X297952Y22385D01*
Y16025D01*
X297850Y15567D01*
X296062D01*
X295979Y15986D01*
X295536Y16647D01*
X291036Y21148D01*
X290374Y21590D01*
X289594Y21745D01*
X265418D01*
X264638Y21590D01*
X263976Y21148D01*
X263036Y20207D01*
X262536Y20414D01*
Y22335D01*
X258571D01*
Y19984D01*
X262106D01*
X262313Y19484D01*
X259458Y16630D01*
X253606D01*
Y15819D01*
X250617D01*
X250370Y16319D01*
X250759Y16825D01*
X251111Y17676D01*
X251166Y18090D01*
X247701D01*
Y18590D01*
X247201D01*
Y22054D01*
X246788Y22000D01*
X245936Y21647D01*
X245689Y21457D01*
X245240Y21678D01*
Y37357D01*
X264864Y56981D01*
X265306Y57642D01*
X265462Y58422D01*
Y98746D01*
X265429Y98910D01*
Y99917D01*
X265429Y99917D01*
X265390Y100114D01*
Y106020D01*
X257287D01*
Y99557D01*
X256825Y99365D01*
X255284Y100907D01*
X255286Y100911D01*
X255425Y101968D01*
X255286Y103026D01*
X254877Y104011D01*
X254228Y104858D01*
X253382Y105507D01*
X252396Y105915D01*
X251339Y106054D01*
X250281Y105915D01*
X249295Y105507D01*
X248449Y104858D01*
X247800Y104011D01*
X247392Y103026D01*
X247252Y101968D01*
X247392Y100911D01*
X247800Y99925D01*
X248449Y99079D01*
X249295Y98430D01*
X250281Y98022D01*
X251339Y97882D01*
X252396Y98022D01*
X252400Y98023D01*
X255764Y94659D01*
Y81297D01*
X255819Y81021D01*
Y76166D01*
X255073Y75857D01*
X254829Y75670D01*
X254329Y75916D01*
Y76800D01*
X254213Y77385D01*
X253881Y77881D01*
X249743Y82020D01*
X249841Y82256D01*
X249961Y83169D01*
X249841Y84083D01*
X249488Y84934D01*
X248927Y85665D01*
X248196Y86226D01*
X247344Y86579D01*
X246431Y86699D01*
X245517Y86579D01*
X244666Y86226D01*
X243935Y85665D01*
X243422Y85725D01*
X243378Y85761D01*
Y98428D01*
X243382Y98430D01*
X244228Y99079D01*
X244877Y99925D01*
X245286Y100911D01*
X245425Y101968D01*
X245286Y103026D01*
X245284Y103030D01*
X251315Y109061D01*
X272855D01*
X282768Y99149D01*
X283429Y98707D01*
X284209Y98551D01*
X284209Y98551D01*
X295457D01*
Y96795D01*
X303047D01*
Y99213D01*
X303547Y99313D01*
X303811Y98677D01*
X304419Y97884D01*
X305212Y97275D01*
X306135Y96893D01*
X306626Y96828D01*
Y100591D01*
Y104353D01*
X306135Y104288D01*
X305212Y103906D01*
X304419Y103297D01*
X303811Y102505D01*
X303547Y101868D01*
X303047Y101968D01*
Y104386D01*
X295457D01*
Y102630D01*
X285054D01*
X275142Y112542D01*
X274480Y112984D01*
X273700Y113139D01*
X250470D01*
X249690Y112984D01*
X249028Y112542D01*
X242400Y105914D01*
X242396Y105915D01*
X241339Y106054D01*
X240281Y105915D01*
X239296Y105507D01*
X238449Y104858D01*
X237800Y104011D01*
X237392Y103026D01*
X237252Y101968D01*
X237392Y100911D01*
X237800Y99925D01*
X238449Y99079D01*
X239296Y98430D01*
X239299Y98428D01*
Y86561D01*
X231155Y78417D01*
X230527D01*
Y79347D01*
X221441D01*
Y73409D01*
X230527D01*
Y74339D01*
X232000D01*
X232780Y74494D01*
X233442Y74936D01*
X242506Y84000D01*
X242979Y83766D01*
X242901Y83169D01*
X243021Y82256D01*
X243374Y81404D01*
X243935Y80673D01*
X244666Y80112D01*
X245517Y79759D01*
X246431Y79639D01*
X247344Y79759D01*
X247580Y79857D01*
X251271Y76166D01*
Y57734D01*
X246066Y52529D01*
X229150D01*
X228809Y52461D01*
X228562Y52922D01*
X229955Y54315D01*
X230287Y54811D01*
X230403Y55397D01*
Y58549D01*
X230287Y59134D01*
X229955Y59630D01*
X228449Y61137D01*
X228640Y61598D01*
X230527D01*
Y64067D01*
X225984D01*
X221441D01*
Y62628D01*
X219790D01*
X217179Y65239D01*
X216683Y65571D01*
X216098Y65687D01*
X180540D01*
X179955Y65571D01*
X179459Y65239D01*
X170749Y56529D01*
X163167D01*
X163090Y56681D01*
X163034Y57029D01*
X163711Y57549D01*
X164297Y58313D01*
X164666Y59203D01*
X164791Y60158D01*
X164666Y61112D01*
X164297Y62002D01*
X163711Y62766D01*
X162947Y63352D01*
X162057Y63721D01*
X161102Y63847D01*
X160148Y63721D01*
X159258Y63352D01*
X158494Y62766D01*
X157908Y62002D01*
X157539Y61112D01*
X157413Y60158D01*
X157539Y59203D01*
X157908Y58313D01*
X158494Y57549D01*
X159171Y57029D01*
X159115Y56681D01*
X159038Y56529D01*
X153167D01*
X153090Y56681D01*
X153034Y57029D01*
X153711Y57549D01*
X154297Y58313D01*
X154666Y59203D01*
X154791Y60158D01*
X154666Y61112D01*
X154535Y61427D01*
X166178Y73071D01*
X179206D01*
X179791Y73187D01*
X180288Y73519D01*
X192641Y85872D01*
X193155Y85659D01*
X194213Y85520D01*
X195270Y85659D01*
X196256Y86068D01*
X197102Y86717D01*
X197590Y87353D01*
X197592Y87353D01*
X198109Y87208D01*
X198187Y86815D01*
X198519Y86319D01*
X203304Y81533D01*
X203801Y81201D01*
X204386Y81085D01*
X224957D01*
X225542Y81201D01*
X226038Y81533D01*
X228381Y83876D01*
X228713Y84372D01*
X228829Y84957D01*
Y109066D01*
X235134Y115371D01*
X254500D01*
X255085Y115487D01*
X255581Y115819D01*
X260925Y121162D01*
X265713D01*
Y116441D01*
X274642D01*
Y117252D01*
X278255D01*
X282383Y113125D01*
X283044Y112683D01*
X283825Y112528D01*
X289158D01*
Y108055D01*
X296669D01*
Y118195D01*
X298932Y120457D01*
X299394Y120266D01*
Y115067D01*
X302650D01*
Y121079D01*
X300206D01*
X300015Y121541D01*
X304766Y126292D01*
X313005D01*
X313183Y125792D01*
X312189Y124976D01*
X311203Y123775D01*
X310471Y122404D01*
X310020Y120917D01*
X309867Y119370D01*
X310020Y117823D01*
X310471Y116336D01*
X311203Y114965D01*
X312189Y113764D01*
X313391Y112778D01*
X314761Y112046D01*
X316248Y111594D01*
X317795Y111442D01*
X319342Y111594D01*
X320829Y112046D01*
X322200Y112778D01*
X323401Y113764D01*
X324387Y114965D01*
X325120Y116336D01*
X325571Y117823D01*
X325723Y119370D01*
X325571Y120917D01*
X325120Y122404D01*
X324387Y123775D01*
X323401Y124976D01*
X322200Y125962D01*
X320829Y126695D01*
X319370Y127137D01*
X319229Y127384D01*
X319145Y127619D01*
X329125Y137599D01*
X333730D01*
X334510Y137754D01*
X335172Y138197D01*
X335410Y138435D01*
X335872Y138243D01*
D02*
G37*
G36*
X106771Y128523D02*
Y108708D01*
X106887Y108123D01*
X107219Y107627D01*
X107368Y107477D01*
X107156Y106963D01*
X107016Y105906D01*
X107156Y104848D01*
X107564Y103863D01*
X107931Y103384D01*
X107685Y102884D01*
X104520D01*
X104274Y103384D01*
X104641Y103863D01*
X105049Y104848D01*
X105189Y105906D01*
X105049Y106963D01*
X104641Y107949D01*
X103992Y108795D01*
X103146Y109444D01*
X102632Y109657D01*
Y125038D01*
X106309Y128714D01*
X106771Y128523D01*
D02*
G37*
G36*
X29171Y151472D02*
Y138800D01*
X29287Y138215D01*
X29619Y137719D01*
X34919Y132419D01*
X35415Y132087D01*
X36000Y131971D01*
X104532D01*
X104739Y131471D01*
X100021Y126752D01*
X99689Y126256D01*
X99573Y125671D01*
Y109657D01*
X99059Y109444D01*
X98213Y108795D01*
X97564Y107949D01*
X97155Y106963D01*
X97016Y105906D01*
X97155Y104848D01*
X97564Y103863D01*
X97931Y103384D01*
X97685Y102884D01*
X94520D01*
X94274Y103384D01*
X94641Y103863D01*
X95049Y104848D01*
X95123Y105406D01*
X91102D01*
X87082D01*
X87155Y104848D01*
X87564Y103863D01*
X87931Y103384D01*
X87685Y102884D01*
X84520D01*
X84274Y103384D01*
X84641Y103863D01*
X85049Y104848D01*
X85189Y105906D01*
X85049Y106963D01*
X84641Y107949D01*
X83992Y108795D01*
X83145Y109444D01*
X82160Y109853D01*
X81102Y109992D01*
X80045Y109853D01*
X79059Y109444D01*
X78213Y108795D01*
X77564Y107949D01*
X77156Y106963D01*
X77016Y105906D01*
X77156Y104848D01*
X77564Y103863D01*
X77931Y103384D01*
X77684Y102884D01*
X74520D01*
X74274Y103384D01*
X74641Y103863D01*
X75049Y104848D01*
X75188Y105906D01*
X75049Y106963D01*
X74641Y107949D01*
X73992Y108795D01*
X73146Y109444D01*
X72160Y109853D01*
X71102Y109992D01*
X70045Y109853D01*
X69059Y109444D01*
X68213Y108795D01*
X67564Y107949D01*
X67155Y106963D01*
X67016Y105906D01*
X67155Y104848D01*
X67564Y103863D01*
X67931Y103384D01*
X67685Y102884D01*
X64520D01*
X64274Y103384D01*
X64641Y103863D01*
X65049Y104848D01*
X65188Y105906D01*
X65049Y106963D01*
X64641Y107949D01*
X63992Y108795D01*
X63146Y109444D01*
X62160Y109853D01*
X61102Y109992D01*
X60045Y109853D01*
X59059Y109444D01*
X58213Y108795D01*
X57564Y107949D01*
X57156Y106963D01*
X57016Y105906D01*
X57156Y104848D01*
X57564Y103863D01*
X57931Y103384D01*
X57684Y102884D01*
X56287D01*
X54836Y104334D01*
X55049Y104848D01*
X55189Y105906D01*
X55049Y106963D01*
X54641Y107949D01*
X53992Y108795D01*
X53145Y109444D01*
X52160Y109853D01*
X51102Y109992D01*
X50045Y109853D01*
X49059Y109444D01*
X48213Y108795D01*
X47564Y107949D01*
X47155Y106963D01*
X47016Y105906D01*
X47155Y104848D01*
X47564Y103863D01*
X48213Y103016D01*
X49059Y102367D01*
X50045Y101959D01*
X51102Y101820D01*
X52160Y101959D01*
X52674Y102172D01*
X53499Y101346D01*
X53308Y100884D01*
X38287D01*
X34837Y104334D01*
X35049Y104848D01*
X35188Y105906D01*
X35049Y106963D01*
X34641Y107949D01*
X34241Y108471D01*
X34487Y108971D01*
X35875D01*
X37368Y107477D01*
X37156Y106963D01*
X37016Y105906D01*
X37156Y104848D01*
X37564Y103863D01*
X38213Y103016D01*
X39059Y102367D01*
X40045Y101959D01*
X41102Y101820D01*
X42160Y101959D01*
X43145Y102367D01*
X43992Y103016D01*
X44641Y103863D01*
X45049Y104848D01*
X45189Y105906D01*
X45049Y106963D01*
X44641Y107949D01*
X43992Y108795D01*
X43145Y109444D01*
X42160Y109853D01*
X41102Y109992D01*
X40045Y109853D01*
X39531Y109640D01*
X37589Y111581D01*
X37093Y111913D01*
X36508Y112029D01*
X29000D01*
X28415Y111913D01*
X27919Y111581D01*
X25419Y109081D01*
X25087Y108585D01*
X24971Y108000D01*
Y102400D01*
X25087Y101815D01*
X25419Y101319D01*
X30297Y96440D01*
X30105Y95978D01*
X19500D01*
X19287Y96492D01*
X18637Y97338D01*
X17791Y97988D01*
X16806Y98396D01*
X15748Y98535D01*
X14690Y98396D01*
X13705Y97988D01*
X13129Y97546D01*
X12629Y97793D01*
Y101105D01*
X13129Y101352D01*
X13705Y100910D01*
X14690Y100502D01*
X15748Y100363D01*
X16806Y100502D01*
X17791Y100910D01*
X18637Y101560D01*
X19287Y102406D01*
X19695Y103391D01*
X19834Y104449D01*
X19695Y105507D01*
X19482Y106020D01*
X27981Y114520D01*
X28313Y115016D01*
X28429Y115601D01*
Y151505D01*
X28697Y151716D01*
X29171Y151472D01*
D02*
G37*
G36*
X197872Y102765D02*
X200819Y99819D01*
X200819Y99818D01*
X210232Y90405D01*
X210126Y89606D01*
X210266Y88549D01*
X210674Y87563D01*
X211041Y87085D01*
X210795Y86585D01*
X209397D01*
X207947Y88035D01*
X208159Y88549D01*
X208299Y89606D01*
X208159Y90664D01*
X207751Y91650D01*
X207102Y92496D01*
X206256Y93145D01*
X205270Y93553D01*
X204213Y93692D01*
X203155Y93553D01*
X202169Y93145D01*
X201629Y92731D01*
X201129Y92977D01*
Y95000D01*
X201013Y95585D01*
X200681Y96081D01*
X198781Y97981D01*
X198285Y98313D01*
X197700Y98429D01*
X189986D01*
X189794Y98891D01*
X192641Y101739D01*
X193155Y101526D01*
X194213Y101386D01*
X195270Y101526D01*
X196256Y101934D01*
X197102Y102583D01*
X197268Y102799D01*
X197872Y102765D01*
D02*
G37*
G36*
X198071Y94367D02*
Y92055D01*
X197571Y91885D01*
X197102Y92496D01*
X196256Y93145D01*
X195270Y93553D01*
X194213Y93692D01*
X193155Y93553D01*
X192169Y93145D01*
X191323Y92496D01*
X190674Y91650D01*
X190266Y90664D01*
X190127Y89606D01*
X190266Y88549D01*
X190479Y88035D01*
X178573Y76129D01*
X165545D01*
X164960Y76013D01*
X164463Y75681D01*
X152372Y63590D01*
X152057Y63721D01*
X151102Y63847D01*
X150148Y63721D01*
X149258Y63352D01*
X148494Y62766D01*
X147908Y62002D01*
X147539Y61112D01*
X147413Y60158D01*
X147539Y59203D01*
X147908Y58313D01*
X148494Y57549D01*
X149171Y57029D01*
X149115Y56681D01*
X149038Y56529D01*
X143167D01*
X143090Y56681D01*
X143034Y57029D01*
X143711Y57549D01*
X144297Y58313D01*
X144666Y59203D01*
X144791Y60158D01*
X144666Y61112D01*
X144297Y62002D01*
X143711Y62766D01*
X142947Y63352D01*
X142057Y63721D01*
X141102Y63847D01*
X140148Y63721D01*
X139258Y63352D01*
X138494Y62766D01*
X137908Y62002D01*
X137539Y61112D01*
X137413Y60158D01*
X137539Y59203D01*
X137908Y58313D01*
X138494Y57549D01*
X139171Y57029D01*
X139115Y56681D01*
X139038Y56529D01*
X133167D01*
X133090Y56681D01*
X133034Y57029D01*
X133711Y57549D01*
X134297Y58313D01*
X134666Y59203D01*
X134791Y60158D01*
X134666Y61112D01*
X134297Y62002D01*
X133711Y62766D01*
X132947Y63352D01*
X132057Y63721D01*
X131102Y63847D01*
X130148Y63721D01*
X129832Y63590D01*
X116829Y76594D01*
Y92000D01*
X116713Y92585D01*
X116381Y93081D01*
X114554Y94909D01*
X114746Y95371D01*
X197066D01*
X198071Y94367D01*
D02*
G37*
G36*
X108228Y92420D02*
X107908Y92002D01*
X107539Y91112D01*
X107413Y90158D01*
X107539Y89203D01*
X107908Y88313D01*
X108494Y87549D01*
X109258Y86963D01*
X110148Y86594D01*
X111102Y86469D01*
X112057Y86594D01*
X112947Y86963D01*
X113271Y87211D01*
X113771Y86965D01*
Y75960D01*
X113887Y75375D01*
X114219Y74879D01*
X127670Y61427D01*
X127539Y61112D01*
X127413Y60158D01*
X127539Y59203D01*
X127908Y58313D01*
X128494Y57549D01*
X129171Y57029D01*
X129115Y56681D01*
X129038Y56529D01*
X123167D01*
X123090Y56681D01*
X123034Y57029D01*
X123711Y57549D01*
X124297Y58313D01*
X124666Y59203D01*
X124791Y60158D01*
X124666Y61112D01*
X124297Y62002D01*
X123711Y62766D01*
X122947Y63352D01*
X122057Y63721D01*
X121102Y63847D01*
X120148Y63721D01*
X119258Y63352D01*
X118494Y62766D01*
X117908Y62002D01*
X117539Y61112D01*
X117413Y60158D01*
X117539Y59203D01*
X117908Y58313D01*
X118494Y57549D01*
X119171Y57029D01*
X119115Y56681D01*
X119038Y56529D01*
X113167D01*
X113090Y56681D01*
X113034Y57029D01*
X113711Y57549D01*
X114297Y58313D01*
X114666Y59203D01*
X114791Y60158D01*
X114666Y61112D01*
X114297Y62002D01*
X113711Y62766D01*
X112947Y63352D01*
X112057Y63721D01*
X111102Y63847D01*
X110148Y63721D01*
X109258Y63352D01*
X108494Y62766D01*
X107908Y62002D01*
X107539Y61112D01*
X107413Y60158D01*
X107539Y59203D01*
X107908Y58313D01*
X108494Y57549D01*
X109171Y57029D01*
X109115Y56681D01*
X109038Y56529D01*
X103167D01*
X103090Y56681D01*
X103034Y57029D01*
X103711Y57549D01*
X104297Y58313D01*
X104666Y59203D01*
X104791Y60158D01*
X104666Y61112D01*
X104297Y62002D01*
X103711Y62766D01*
X102947Y63352D01*
X102057Y63721D01*
X101102Y63847D01*
X100148Y63721D01*
X99258Y63352D01*
X98494Y62766D01*
X97908Y62002D01*
X97539Y61112D01*
X97413Y60158D01*
X97539Y59203D01*
X97908Y58313D01*
X98494Y57549D01*
X99171Y57029D01*
X99115Y56681D01*
X99038Y56529D01*
X93167D01*
X93090Y56681D01*
X93034Y57029D01*
X93711Y57549D01*
X94297Y58313D01*
X94666Y59203D01*
X94791Y60158D01*
X94666Y61112D01*
X94297Y62002D01*
X93711Y62766D01*
X92947Y63352D01*
X92057Y63721D01*
X91102Y63847D01*
X90148Y63721D01*
X89258Y63352D01*
X88494Y62766D01*
X87908Y62002D01*
X87539Y61112D01*
X87413Y60158D01*
X87539Y59203D01*
X87908Y58313D01*
X88494Y57549D01*
X89171Y57029D01*
X89115Y56681D01*
X89038Y56529D01*
X83167D01*
X83090Y56681D01*
X83034Y57029D01*
X83711Y57549D01*
X84297Y58313D01*
X84666Y59203D01*
X84791Y60158D01*
X84666Y61112D01*
X84297Y62002D01*
X83711Y62766D01*
X82947Y63352D01*
X82632Y63483D01*
Y66929D01*
X82515Y67514D01*
X82184Y68010D01*
X77459Y72735D01*
X76963Y73067D01*
X76378Y73183D01*
X72654D01*
Y75803D01*
X70848D01*
X68011Y78641D01*
X67514Y78972D01*
X66929Y79088D01*
X49080D01*
X48494Y78972D01*
X47998Y78641D01*
X46432Y77074D01*
X46184Y76703D01*
X45284Y75803D01*
X43478D01*
Y67848D01*
X37263D01*
X37203Y67836D01*
X36817Y68153D01*
Y75803D01*
X36362D01*
Y86427D01*
X36246Y87013D01*
X35914Y87509D01*
X34535Y88888D01*
X34666Y89203D01*
X34791Y90158D01*
X34666Y91112D01*
X34297Y92002D01*
X33977Y92420D01*
X34223Y92920D01*
X37981D01*
X38228Y92420D01*
X37908Y92002D01*
X37539Y91112D01*
X37413Y90158D01*
X37539Y89203D01*
X37908Y88313D01*
X38494Y87549D01*
X39258Y86963D01*
X40148Y86594D01*
X41102Y86469D01*
X42057Y86594D01*
X42947Y86963D01*
X43711Y87549D01*
X44297Y88313D01*
X44666Y89203D01*
X44791Y90158D01*
X44666Y91112D01*
X44297Y92002D01*
X43977Y92420D01*
X44223Y92920D01*
X47981D01*
X48228Y92420D01*
X47908Y92002D01*
X47539Y91112D01*
X47413Y90158D01*
X47539Y89203D01*
X47908Y88313D01*
X48494Y87549D01*
X49258Y86963D01*
X50148Y86594D01*
X51102Y86469D01*
X52057Y86594D01*
X52947Y86963D01*
X53711Y87549D01*
X54297Y88313D01*
X54666Y89203D01*
X54791Y90158D01*
X54666Y91112D01*
X54297Y92002D01*
X53977Y92420D01*
X54223Y92920D01*
X57981D01*
X58228Y92420D01*
X57908Y92002D01*
X57539Y91112D01*
X57413Y90158D01*
X57539Y89203D01*
X57908Y88313D01*
X58494Y87549D01*
X59258Y86963D01*
X60148Y86594D01*
X61102Y86469D01*
X62057Y86594D01*
X62947Y86963D01*
X63711Y87549D01*
X64297Y88313D01*
X64666Y89203D01*
X64791Y90158D01*
X64666Y91112D01*
X64297Y92002D01*
X63977Y92420D01*
X64223Y92920D01*
X67981D01*
X68228Y92420D01*
X67908Y92002D01*
X67539Y91112D01*
X67413Y90158D01*
X67539Y89203D01*
X67908Y88313D01*
X68494Y87549D01*
X69258Y86963D01*
X70148Y86594D01*
X71102Y86469D01*
X72057Y86594D01*
X72947Y86963D01*
X73711Y87549D01*
X74297Y88313D01*
X74666Y89203D01*
X74791Y90158D01*
X74666Y91112D01*
X74297Y92002D01*
X73977Y92420D01*
X74223Y92920D01*
X77981D01*
X78228Y92420D01*
X77908Y92002D01*
X77539Y91112D01*
X77413Y90158D01*
X77539Y89203D01*
X77908Y88313D01*
X78494Y87549D01*
X79258Y86963D01*
X80148Y86594D01*
X81102Y86469D01*
X82057Y86594D01*
X82947Y86963D01*
X83711Y87549D01*
X84297Y88313D01*
X84666Y89203D01*
X84791Y90158D01*
X84666Y91112D01*
X84297Y92002D01*
X83977Y92420D01*
X84223Y92920D01*
X87981D01*
X88228Y92420D01*
X87908Y92002D01*
X87539Y91112D01*
X87479Y90658D01*
X91102D01*
X94726D01*
X94666Y91112D01*
X94297Y92002D01*
X93977Y92420D01*
X94223Y92920D01*
X97981D01*
X98228Y92420D01*
X97908Y92002D01*
X97539Y91112D01*
X97413Y90158D01*
X97539Y89203D01*
X97908Y88313D01*
X98494Y87549D01*
X99258Y86963D01*
X100148Y86594D01*
X101102Y86469D01*
X102057Y86594D01*
X102947Y86963D01*
X103711Y87549D01*
X104297Y88313D01*
X104666Y89203D01*
X104791Y90158D01*
X104666Y91112D01*
X104297Y92002D01*
X103977Y92420D01*
X104223Y92920D01*
X107981D01*
X108228Y92420D01*
D02*
G37*
G36*
X58055Y75803D02*
Y73183D01*
X51718D01*
X51133Y73067D01*
X50636Y72735D01*
X47909Y70007D01*
X47447Y70199D01*
Y73640D01*
X48595Y74788D01*
X48842Y75159D01*
X49713Y76030D01*
X57649D01*
X58055Y75803D01*
D02*
G37*
G36*
X68685Y73640D02*
Y67504D01*
X72654D01*
Y70124D01*
X75744D01*
X79573Y66296D01*
Y63483D01*
X79258Y63352D01*
X78494Y62766D01*
X77908Y62002D01*
X77539Y61112D01*
X77413Y60158D01*
X77539Y59203D01*
X77908Y58313D01*
X78494Y57549D01*
X79171Y57029D01*
X79115Y56681D01*
X79038Y56529D01*
X73167D01*
X73090Y56681D01*
X73034Y57029D01*
X73711Y57549D01*
X74297Y58313D01*
X74666Y59203D01*
X74726Y59658D01*
X71102D01*
X67479D01*
X67539Y59203D01*
X67908Y58313D01*
X68494Y57549D01*
X69171Y57029D01*
X69115Y56681D01*
X69038Y56529D01*
X66894D01*
X64535Y58888D01*
X64666Y59203D01*
X64791Y60158D01*
X64666Y61112D01*
X64297Y62002D01*
X63711Y62766D01*
X62947Y63352D01*
X62057Y63721D01*
X61102Y63847D01*
X60148Y63721D01*
X59258Y63352D01*
X58494Y62766D01*
X57908Y62002D01*
X57539Y61112D01*
X57413Y60158D01*
X57539Y59203D01*
X57908Y58313D01*
X58494Y57549D01*
X59258Y56963D01*
X60148Y56594D01*
X61102Y56469D01*
X62057Y56594D01*
X62372Y56725D01*
X65179Y53919D01*
X65675Y53587D01*
X66260Y53471D01*
X171382D01*
X171968Y53587D01*
X172464Y53919D01*
X179700Y61154D01*
X180161Y60963D01*
Y60106D01*
X188264D01*
Y62628D01*
X190795D01*
X191041Y62128D01*
X190674Y61650D01*
X190266Y60664D01*
X190192Y60106D01*
X198233D01*
X198160Y60664D01*
X197751Y61650D01*
X197384Y62128D01*
X197631Y62628D01*
X200795D01*
X201041Y62128D01*
X200674Y61650D01*
X200266Y60664D01*
X200192Y60106D01*
X208233D01*
X208159Y60664D01*
X207751Y61650D01*
X207384Y62128D01*
X207630Y62628D01*
X210795D01*
X211041Y62128D01*
X210674Y61650D01*
X210266Y60664D01*
X210192Y60106D01*
X214213D01*
Y59606D01*
X214713D01*
Y55586D01*
X215270Y55660D01*
X216256Y56068D01*
X217102Y56717D01*
X217751Y57563D01*
X218160Y58549D01*
X218258Y59294D01*
X218344Y59402D01*
X218405Y59452D01*
X218754Y59640D01*
X218787Y59643D01*
X219157Y59569D01*
X221828D01*
X221997Y59069D01*
X221566Y58738D01*
X221005Y58007D01*
X220652Y57156D01*
X220532Y56242D01*
X220652Y55328D01*
X220750Y55092D01*
X218687Y53029D01*
X204742D01*
X204157Y52913D01*
X203661Y52582D01*
X198121Y47042D01*
X197644D01*
X197423Y47491D01*
X197620Y47748D01*
X197973Y48599D01*
X198093Y49513D01*
X197973Y50426D01*
X197620Y51278D01*
X197059Y52009D01*
X196328Y52570D01*
X195476Y52923D01*
X194563Y53043D01*
X193649Y52923D01*
X192798Y52570D01*
X192066Y52009D01*
X191505Y51278D01*
X191408Y51042D01*
X167763D01*
X166685Y52121D01*
X166189Y52452D01*
X165603Y52569D01*
X40854D01*
X34535Y58888D01*
X34666Y59203D01*
X34791Y60158D01*
X34666Y61112D01*
X34535Y61427D01*
X37897Y64789D01*
X46383D01*
X46968Y64905D01*
X47464Y65237D01*
X52351Y70124D01*
X58055D01*
Y67504D01*
X62024D01*
Y75803D01*
X62430Y76030D01*
X66296D01*
X68685Y73640D01*
D02*
G37*
G36*
X9571Y89097D02*
X9687Y88512D01*
X10019Y88016D01*
X11697Y86337D01*
Y80398D01*
X19799D01*
Y88500D01*
X13860D01*
X12629Y89731D01*
Y91105D01*
X13129Y91352D01*
X13705Y90910D01*
X14690Y90502D01*
X15748Y90363D01*
X16806Y90502D01*
X17791Y90910D01*
X18637Y91560D01*
X19287Y92406D01*
X19500Y92920D01*
X27981D01*
X28228Y92420D01*
X27908Y92002D01*
X27539Y91112D01*
X27413Y90158D01*
X27539Y89203D01*
X27908Y88313D01*
X28494Y87549D01*
X29258Y86963D01*
X30148Y86594D01*
X31102Y86469D01*
X32057Y86594D01*
X32372Y86725D01*
X33303Y85794D01*
Y75803D01*
X32848D01*
Y67504D01*
X35579D01*
X35786Y67004D01*
X32372Y63590D01*
X32057Y63721D01*
X31102Y63847D01*
X30148Y63721D01*
X29258Y63352D01*
X28494Y62766D01*
X27908Y62002D01*
X27539Y61112D01*
X27413Y60158D01*
X27539Y59203D01*
X27908Y58313D01*
X28494Y57549D01*
X29258Y56963D01*
X30148Y56594D01*
X31102Y56469D01*
X32057Y56594D01*
X32372Y56725D01*
X39139Y49958D01*
X39635Y49626D01*
X40221Y49510D01*
X53308D01*
X53499Y49048D01*
X52674Y48222D01*
X52160Y48435D01*
X51102Y48574D01*
X50045Y48435D01*
X49059Y48027D01*
X48213Y47377D01*
X47564Y46531D01*
X47155Y45546D01*
X47016Y44488D01*
X47155Y43431D01*
X47564Y42445D01*
X47959Y41929D01*
X47713Y41429D01*
X44492D01*
X44245Y41929D01*
X44641Y42445D01*
X45049Y43431D01*
X45189Y44488D01*
X45049Y45546D01*
X44641Y46531D01*
X43992Y47377D01*
X43145Y48027D01*
X42160Y48435D01*
X41102Y48574D01*
X40045Y48435D01*
X39059Y48027D01*
X38213Y47377D01*
X37564Y46531D01*
X37156Y45546D01*
X37016Y44488D01*
X37156Y43431D01*
X37564Y42445D01*
X37959Y41929D01*
X37713Y41429D01*
X34492D01*
X34245Y41929D01*
X34641Y42445D01*
X35049Y43431D01*
X35188Y44488D01*
X35049Y45546D01*
X34641Y46531D01*
X33992Y47377D01*
X33145Y48027D01*
X32160Y48435D01*
X31102Y48574D01*
X30045Y48435D01*
X29059Y48027D01*
X28213Y47377D01*
X27564Y46531D01*
X27156Y45546D01*
X27016Y44488D01*
X27156Y43431D01*
X27564Y42445D01*
X27959Y41929D01*
X27713Y41429D01*
X23726D01*
X19482Y45673D01*
X19695Y46187D01*
X19834Y47244D01*
X19695Y48302D01*
X19287Y49287D01*
X18638Y50134D01*
X17791Y50783D01*
X16806Y51191D01*
X15748Y51330D01*
X14691Y51191D01*
X13705Y50783D01*
X12859Y50134D01*
X12210Y49287D01*
X11801Y48302D01*
X11662Y47244D01*
X11801Y46187D01*
X12210Y45201D01*
X12859Y44355D01*
X13705Y43705D01*
X14691Y43297D01*
X15748Y43158D01*
X16806Y43297D01*
X17320Y43510D01*
X19072Y41757D01*
X18881Y41295D01*
X13860D01*
X6254Y48902D01*
X6254Y171047D01*
X9571D01*
Y89097D01*
D02*
G37*
G36*
X261383Y59267D02*
X258680Y56563D01*
X258291Y56882D01*
X258313Y56915D01*
X258429Y57500D01*
Y69671D01*
X258604Y69743D01*
X259335Y70304D01*
X259896Y71035D01*
X260248Y71886D01*
X260369Y72800D01*
X260248Y73714D01*
X259896Y74565D01*
X259658Y74875D01*
X259787Y75375D01*
X259787D01*
X259787Y75376D01*
Y81021D01*
X259842Y81297D01*
Y95504D01*
X259687Y96284D01*
X259245Y96946D01*
X258736Y97455D01*
X258927Y97917D01*
X261383D01*
Y59267D01*
D02*
G37*
G36*
X214551Y42701D02*
X218421D01*
X218804Y42319D01*
X218548Y41701D01*
X218428Y40787D01*
X218544Y39907D01*
X217667Y39029D01*
X118460D01*
X118268Y39491D01*
X119531Y40754D01*
X120045Y40541D01*
X121102Y40402D01*
X122160Y40541D01*
X123145Y40949D01*
X123992Y41599D01*
X124641Y42445D01*
X125049Y43431D01*
X125189Y44488D01*
X125049Y45546D01*
X124641Y46531D01*
X124274Y47010D01*
X124520Y47510D01*
X127684D01*
X127931Y47010D01*
X127564Y46531D01*
X127155Y45546D01*
X127016Y44488D01*
X127155Y43431D01*
X127564Y42445D01*
X128213Y41599D01*
X129059Y40949D01*
X130045Y40541D01*
X131102Y40402D01*
X132160Y40541D01*
X133145Y40949D01*
X133992Y41599D01*
X134641Y42445D01*
X135049Y43431D01*
X135188Y44488D01*
X135049Y45546D01*
X134641Y46531D01*
X134274Y47010D01*
X134520Y47510D01*
X137684D01*
X137931Y47010D01*
X137564Y46531D01*
X137155Y45546D01*
X137016Y44488D01*
X137155Y43431D01*
X137564Y42445D01*
X138213Y41599D01*
X139059Y40949D01*
X140045Y40541D01*
X141102Y40402D01*
X142160Y40541D01*
X143146Y40949D01*
X143992Y41599D01*
X144641Y42445D01*
X145049Y43431D01*
X145188Y44488D01*
X145049Y45546D01*
X144641Y46531D01*
X144274Y47010D01*
X144520Y47510D01*
X147684D01*
X147931Y47010D01*
X147564Y46531D01*
X147155Y45546D01*
X147016Y44488D01*
X147155Y43431D01*
X147564Y42445D01*
X148213Y41599D01*
X149059Y40949D01*
X150045Y40541D01*
X151102Y40402D01*
X152160Y40541D01*
X153146Y40949D01*
X153992Y41599D01*
X154641Y42445D01*
X155049Y43431D01*
X155189Y44488D01*
X155049Y45546D01*
X154641Y46531D01*
X154274Y47010D01*
X154520Y47510D01*
X157051D01*
Y40437D01*
X165154D01*
Y45845D01*
X165615Y46036D01*
X167220Y44431D01*
X167716Y44100D01*
X168302Y43983D01*
X198755D01*
X199340Y44100D01*
X199836Y44431D01*
X205376Y49971D01*
X214551D01*
Y42701D01*
D02*
G37*
G36*
X246208Y48971D02*
X237719Y40481D01*
X237387Y39985D01*
X237271Y39400D01*
Y30114D01*
X233965D01*
Y22835D01*
X232965D01*
Y30114D01*
X229000D01*
Y23017D01*
X228527Y22857D01*
X228496Y22896D01*
X227765Y23457D01*
X226914Y23810D01*
X226000Y23930D01*
X225086Y23810D01*
X224235Y23457D01*
X223504Y22896D01*
X222943Y22165D01*
X222845Y21929D01*
X214191D01*
X212012Y24109D01*
X212203Y24571D01*
X215615D01*
X215761Y24216D01*
X216322Y23485D01*
X217054Y22924D01*
X217905Y22571D01*
X218819Y22451D01*
X219732Y22571D01*
X220584Y22924D01*
X221315Y23485D01*
X221876Y24216D01*
X222229Y25068D01*
X222349Y25981D01*
X222229Y26895D01*
X221876Y27746D01*
X221315Y28478D01*
X220584Y29039D01*
X219732Y29391D01*
X218819Y29512D01*
X217905Y29391D01*
X217469Y29211D01*
X217154Y29622D01*
X217577Y30173D01*
X217952Y31077D01*
X218014Y31547D01*
X214831D01*
Y28364D01*
X215301Y28426D01*
X215817Y28640D01*
X216132Y28229D01*
X215761Y27746D01*
X215713Y27629D01*
X212034D01*
X205581Y34081D01*
X205085Y34413D01*
X204500Y34529D01*
X64890D01*
X64304Y34413D01*
X63808Y34081D01*
X45304Y15577D01*
X45029Y15691D01*
X44094Y15814D01*
X43160Y15691D01*
X42290Y15331D01*
X42029Y15131D01*
X41529Y15378D01*
Y32866D01*
X44633Y35971D01*
X212784D01*
X212884Y35471D01*
X212456Y35294D01*
X211680Y34698D01*
X211084Y33922D01*
X210710Y33017D01*
X210648Y32547D01*
X214331D01*
X218014D01*
X217952Y33017D01*
X217577Y33922D01*
X216982Y34698D01*
X216205Y35294D01*
X215778Y35471D01*
X215877Y35971D01*
X218300D01*
X218885Y36087D01*
X219381Y36419D01*
X220547Y37584D01*
X221045Y37378D01*
X221958Y37257D01*
X222872Y37378D01*
X223723Y37730D01*
X224454Y38291D01*
X225015Y39022D01*
X225368Y39874D01*
X225488Y40787D01*
X225368Y41701D01*
X225157Y42211D01*
X225495Y42701D01*
X229150D01*
Y48837D01*
X229783Y49471D01*
X246001D01*
X246208Y48971D01*
D02*
G37*
G36*
X192036Y24971D02*
X191680Y24698D01*
X191211Y24086D01*
X173937D01*
X173937Y24086D01*
X173156Y23931D01*
X172495Y23489D01*
X172495Y23489D01*
X164736Y15730D01*
X164094Y15814D01*
X163160Y15691D01*
X162290Y15331D01*
X161542Y14757D01*
X160968Y14010D01*
X160608Y13139D01*
X160485Y12205D01*
X160608Y11271D01*
X160968Y10400D01*
X161196Y10104D01*
X160975Y9655D01*
X157214D01*
X156993Y10104D01*
X157220Y10400D01*
X157581Y11271D01*
X157704Y12205D01*
X157581Y13139D01*
X157467Y13415D01*
X169523Y25471D01*
X191866D01*
X192036Y24971D01*
D02*
G37*
G36*
X166735Y27009D02*
X155304Y15577D01*
X155029Y15691D01*
X154094Y15814D01*
X153160Y15691D01*
X152290Y15331D01*
X151542Y14757D01*
X151102Y14184D01*
X150569Y14304D01*
X150513Y14585D01*
X150181Y15081D01*
X147881Y17381D01*
X147385Y17713D01*
X146800Y17829D01*
X132589D01*
X132382Y18329D01*
X141523Y27471D01*
X166544D01*
X166735Y27009D01*
D02*
G37*
G36*
X80735Y31009D02*
X65304Y15577D01*
X65029Y15691D01*
X64094Y15814D01*
X63160Y15691D01*
X62290Y15331D01*
X61542Y14757D01*
X60968Y14010D01*
X60608Y13139D01*
X60485Y12205D01*
X60608Y11271D01*
X60968Y10400D01*
X61542Y9652D01*
X62290Y9079D01*
X63160Y8718D01*
X64094Y8595D01*
X65029Y8718D01*
X65899Y9079D01*
X66647Y9652D01*
X67220Y10400D01*
X67581Y11271D01*
X67704Y12205D01*
X67581Y13139D01*
X67467Y13415D01*
X83523Y29471D01*
X138544D01*
X138735Y29009D01*
X125304Y15577D01*
X125029Y15691D01*
X124094Y15814D01*
X123160Y15691D01*
X122290Y15331D01*
X121542Y14757D01*
X120968Y14010D01*
X120608Y13139D01*
X120485Y12205D01*
X120608Y11271D01*
X120968Y10400D01*
X121542Y9652D01*
X122290Y9079D01*
X123160Y8718D01*
X124033Y8603D01*
X124267Y8245D01*
X124305Y8168D01*
X123366Y7229D01*
X51935D01*
X51744Y7691D01*
X52885Y8832D01*
X53160Y8718D01*
X54094Y8595D01*
X55029Y8718D01*
X55899Y9079D01*
X56647Y9652D01*
X57220Y10400D01*
X57581Y11271D01*
X57704Y12205D01*
X57581Y13139D01*
X57220Y14010D01*
X56647Y14757D01*
X55899Y15331D01*
X55029Y15691D01*
X54094Y15814D01*
X53160Y15691D01*
X52290Y15331D01*
X51542Y14757D01*
X50968Y14010D01*
X50608Y13139D01*
X50485Y12205D01*
X50608Y11271D01*
X50722Y10995D01*
X49356Y9629D01*
X47259D01*
X47013Y10129D01*
X47220Y10400D01*
X47581Y11271D01*
X47704Y12205D01*
X47581Y13139D01*
X47467Y13415D01*
X65523Y31471D01*
X80544D01*
X80735Y31009D01*
D02*
G37*
G36*
X241450Y39180D02*
X241317Y38982D01*
X241162Y38201D01*
Y16726D01*
X241317Y15945D01*
X241759Y15284D01*
X244706Y12337D01*
X245367Y11895D01*
X245650Y11839D01*
X245601Y11339D01*
X219900D01*
X219120Y11184D01*
X218458Y10742D01*
X218281Y10564D01*
X217857Y10848D01*
X217952Y11077D01*
X218079Y12047D01*
X217952Y13017D01*
X217626Y13804D01*
X218050Y14087D01*
X219219Y12919D01*
X219715Y12587D01*
X220300Y12471D01*
X236800D01*
X237385Y12587D01*
X237881Y12919D01*
X239881Y14919D01*
X240213Y15415D01*
X240329Y16000D01*
Y38767D01*
X241061Y39498D01*
X241450Y39180D01*
D02*
G37*
G36*
X209919Y10966D02*
X210415Y10634D01*
X210607Y10596D01*
X210729Y10339D01*
X210413Y9839D01*
X205376D01*
X196680Y18535D01*
X196723Y19198D01*
X196982Y19397D01*
X197577Y20173D01*
X197952Y21077D01*
X198079Y22047D01*
X198066Y22149D01*
X198514Y22370D01*
X209919Y10966D01*
D02*
G37*
G36*
X191680Y19397D02*
X192292Y18927D01*
Y18000D01*
X192447Y17220D01*
X192889Y16558D01*
X202799Y6648D01*
X202592Y6148D01*
X199615D01*
X196555Y9207D01*
X196059Y9539D01*
X195474Y9655D01*
X177214D01*
X176993Y10104D01*
X177220Y10400D01*
X177581Y11271D01*
X177638Y11705D01*
X174094D01*
X170551D01*
X170608Y11271D01*
X170968Y10400D01*
X171196Y10104D01*
X170975Y9655D01*
X167214D01*
X166993Y10104D01*
X167220Y10400D01*
X167581Y11271D01*
X167704Y12205D01*
X167620Y12846D01*
X174781Y20008D01*
X191211D01*
X191680Y19397D01*
D02*
G37*
G36*
X290488Y15928D02*
X290339Y15567D01*
X290339D01*
Y3529D01*
X281969D01*
X281709Y3921D01*
Y9566D01*
X281764Y9843D01*
Y13800D01*
X281709Y14076D01*
Y15764D01*
X280644D01*
X279203Y17205D01*
X279395Y17667D01*
X288749D01*
X290488Y15928D01*
D02*
G37*
G36*
X277685Y12955D02*
Y9843D01*
X277740Y9566D01*
Y3921D01*
X277479Y3529D01*
X271340D01*
X271079Y3921D01*
Y14225D01*
X276416D01*
X277685Y12955D01*
D02*
G37*
G36*
X267110Y4117D02*
Y3921D01*
X266849Y3529D01*
X222499D01*
X222292Y4029D01*
X222733Y4471D01*
X266757D01*
X267110Y4117D01*
D02*
G37*
G36*
X147762Y10402D02*
X148019Y10019D01*
X150993Y7045D01*
X151489Y6713D01*
X152074Y6597D01*
X194841D01*
X197408Y4029D01*
X197201Y3529D01*
X150728D01*
X145755Y8503D01*
X145827Y9049D01*
X145899Y9079D01*
X146647Y9652D01*
X147214Y10391D01*
X147340Y10424D01*
X147762Y10402D01*
D02*
G37*
%LPC*%
G36*
X232344Y182177D02*
X229161D01*
Y178994D01*
X229632Y179056D01*
X230536Y179431D01*
X231312Y180026D01*
X231908Y180803D01*
X232282Y181707D01*
X232344Y182177D01*
D02*
G37*
G36*
X228161D02*
X224979D01*
X225041Y181707D01*
X225415Y180803D01*
X226011Y180026D01*
X226787Y179431D01*
X227691Y179056D01*
X228161Y178994D01*
Y182177D01*
D02*
G37*
G36*
X248661Y176426D02*
X247691Y176298D01*
X246787Y175924D01*
X246011Y175328D01*
X245415Y174551D01*
X245040Y173647D01*
X244913Y172677D01*
X245040Y171707D01*
X245415Y170803D01*
X246011Y170027D01*
X246787Y169431D01*
X247691Y169056D01*
X248661Y168929D01*
X249632Y169056D01*
X250536Y169431D01*
X251312Y170027D01*
X251908Y170803D01*
X252282Y171707D01*
X252410Y172677D01*
X252282Y173647D01*
X251908Y174551D01*
X251312Y175328D01*
X250536Y175924D01*
X249632Y176298D01*
X248661Y176426D01*
D02*
G37*
G36*
X66059Y198618D02*
X58350D01*
Y196293D01*
X54583D01*
X54285Y196492D01*
X53700Y196608D01*
X51591D01*
Y197063D01*
X39748D01*
Y193094D01*
X51591D01*
Y193549D01*
X53132D01*
X53430Y193351D01*
X54015Y193234D01*
X58350D01*
Y190909D01*
X66059D01*
Y198618D01*
D02*
G37*
G36*
X181315Y200803D02*
X177347D01*
Y195060D01*
X174916Y192629D01*
X171755D01*
X171657Y192865D01*
X171096Y193596D01*
X170365Y194157D01*
X169514Y194510D01*
X168600Y194630D01*
X167686Y194510D01*
X166835Y194157D01*
X166559Y193946D01*
X166059Y194192D01*
Y198618D01*
X158350D01*
Y196293D01*
X154382D01*
X154085Y196492D01*
X153500Y196608D01*
X151197D01*
Y197063D01*
X139354D01*
Y193094D01*
X151197D01*
Y193549D01*
X152933D01*
X153229Y193351D01*
X153815Y193234D01*
X158350D01*
Y190910D01*
X165095D01*
X165190Y190186D01*
X165543Y189335D01*
X166104Y188604D01*
X166835Y188043D01*
X167686Y187690D01*
X168600Y187570D01*
X169514Y187690D01*
X170365Y188043D01*
X171096Y188604D01*
X171657Y189335D01*
X171755Y189571D01*
X175549D01*
X176134Y189687D01*
X176630Y190019D01*
X176885Y190273D01*
X177347Y190081D01*
Y188961D01*
X181315D01*
Y200803D01*
D02*
G37*
G36*
X162705Y188586D02*
Y185264D01*
X166026D01*
X165960Y185770D01*
X165571Y186708D01*
X164953Y187513D01*
X164148Y188130D01*
X163211Y188519D01*
X162705Y188586D01*
D02*
G37*
G36*
X161705D02*
X161198Y188519D01*
X160261Y188130D01*
X159456Y187513D01*
X158838Y186708D01*
X158449Y185770D01*
X158383Y185264D01*
X161705D01*
Y188586D01*
D02*
G37*
G36*
X62705Y188585D02*
Y185264D01*
X66026D01*
X65960Y185770D01*
X65571Y186707D01*
X64954Y187513D01*
X64148Y188130D01*
X63211Y188519D01*
X62705Y188585D01*
D02*
G37*
G36*
X61705D02*
X61198Y188519D01*
X60261Y188130D01*
X59456Y187513D01*
X58838Y186707D01*
X58450Y185770D01*
X58383Y185264D01*
X61705D01*
Y188585D01*
D02*
G37*
G36*
X271272Y186360D02*
Y183177D01*
X274455D01*
X274393Y183647D01*
X274018Y184552D01*
X273423Y185328D01*
X272646Y185924D01*
X271742Y186298D01*
X271272Y186360D01*
D02*
G37*
G36*
X187350D02*
Y183177D01*
X190533D01*
X190471Y183647D01*
X190097Y184552D01*
X189501Y185328D01*
X188725Y185924D01*
X187821Y186298D01*
X187350Y186360D01*
D02*
G37*
G36*
X186350D02*
X185880Y186298D01*
X184976Y185924D01*
X184200Y185328D01*
X183604Y184552D01*
X183229Y183647D01*
X183168Y183177D01*
X186350D01*
Y186360D01*
D02*
G37*
G36*
X166026Y184264D02*
X162705D01*
Y180942D01*
X163211Y181009D01*
X164148Y181397D01*
X164953Y182015D01*
X165571Y182820D01*
X165960Y183758D01*
X166026Y184264D01*
D02*
G37*
G36*
X33113D02*
X29791D01*
Y180942D01*
X30298Y181009D01*
X31235Y181397D01*
X32040Y182015D01*
X32658Y182820D01*
X33046Y183758D01*
X33113Y184264D01*
D02*
G37*
G36*
X161705D02*
X158383D01*
X158449Y183758D01*
X158838Y182820D01*
X159456Y182015D01*
X160261Y181397D01*
X161198Y181009D01*
X161705Y180942D01*
Y184264D01*
D02*
G37*
G36*
X28791D02*
X25470D01*
X25536Y183758D01*
X25925Y182820D01*
X26542Y182015D01*
X27348Y181397D01*
X28285Y181009D01*
X28791Y180942D01*
Y184264D01*
D02*
G37*
G36*
X66026Y184264D02*
X62705D01*
Y180942D01*
X63211Y181009D01*
X64148Y181397D01*
X64954Y182015D01*
X65571Y182820D01*
X65960Y183757D01*
X66026Y184264D01*
D02*
G37*
G36*
X61705D02*
X58383D01*
X58450Y183757D01*
X58838Y182820D01*
X59456Y182015D01*
X60261Y181397D01*
X61198Y181009D01*
X61705Y180942D01*
Y184264D01*
D02*
G37*
G36*
X274455Y182177D02*
X271272D01*
Y178994D01*
X271742Y179056D01*
X272646Y179431D01*
X273423Y180026D01*
X274018Y180803D01*
X274393Y181707D01*
X274455Y182177D01*
D02*
G37*
G36*
X190533D02*
X187350D01*
Y178994D01*
X187821Y179056D01*
X188725Y179431D01*
X189501Y180026D01*
X190097Y180803D01*
X190471Y181707D01*
X190533Y182177D01*
D02*
G37*
G36*
X186350D02*
X183168D01*
X183229Y181707D01*
X183604Y180803D01*
X184200Y180026D01*
X184976Y179431D01*
X185880Y179056D01*
X186350Y178994D01*
Y182177D01*
D02*
G37*
G36*
X309866Y173951D02*
Y170728D01*
X313088D01*
X313025Y171209D01*
X312646Y172123D01*
X312044Y172907D01*
X311260Y173509D01*
X310346Y173888D01*
X309866Y173951D01*
D02*
G37*
G36*
X308866D02*
X308385Y173888D01*
X307471Y173509D01*
X306687Y172907D01*
X306085Y172123D01*
X305706Y171209D01*
X305643Y170728D01*
X308866D01*
Y173951D01*
D02*
G37*
G36*
X275803Y200803D02*
X271834D01*
Y188961D01*
X272462D01*
X272737Y188549D01*
X287294Y173992D01*
X287151Y173647D01*
X287023Y172677D01*
X287151Y171707D01*
X287525Y170803D01*
X288121Y170027D01*
X288897Y169431D01*
X289802Y169056D01*
X290772Y168929D01*
X291742Y169056D01*
X292646Y169431D01*
X293423Y170027D01*
X294018Y170803D01*
X294393Y171707D01*
X294520Y172677D01*
X294393Y173647D01*
X294018Y174551D01*
X293423Y175328D01*
X292646Y175924D01*
X291742Y176298D01*
X290772Y176426D01*
X289802Y176298D01*
X289457Y176155D01*
X275803Y189809D01*
Y200803D01*
D02*
G37*
G36*
X313088Y169728D02*
X309866D01*
Y166506D01*
X310346Y166569D01*
X311260Y166948D01*
X312044Y167550D01*
X312646Y168334D01*
X313025Y169248D01*
X313088Y169728D01*
D02*
G37*
G36*
X308866D02*
X305643D01*
X305706Y169248D01*
X306085Y168334D01*
X306687Y167550D01*
X307471Y166948D01*
X308385Y166569D01*
X308866Y166506D01*
Y169728D01*
D02*
G37*
G36*
X24622Y166551D02*
X20654D01*
Y156517D01*
X20609Y156465D01*
X20108Y156429D01*
X19596Y157096D01*
X18865Y157657D01*
X18014Y158010D01*
X17100Y158130D01*
X16186Y158010D01*
X15335Y157657D01*
X14604Y157096D01*
X14043Y156365D01*
X13690Y155514D01*
X13570Y154600D01*
X13690Y153686D01*
X14043Y152835D01*
X14604Y152104D01*
X15335Y151543D01*
X16186Y151190D01*
X17100Y151070D01*
X18014Y151190D01*
X18865Y151543D01*
X19596Y152104D01*
X19702Y152241D01*
X20201Y152274D01*
X20778Y151697D01*
X20653Y151197D01*
X20654D01*
Y139354D01*
X24622D01*
Y151197D01*
X24167D01*
Y154709D01*
X24622D01*
Y166551D01*
D02*
G37*
G36*
X24594Y15749D02*
Y12705D01*
X27638D01*
X27581Y13139D01*
X27220Y14010D01*
X26647Y14757D01*
X25899Y15331D01*
X25029Y15691D01*
X24594Y15749D01*
D02*
G37*
G36*
X23594D02*
X23160Y15691D01*
X22290Y15331D01*
X21542Y14757D01*
X20968Y14010D01*
X20608Y13139D01*
X20551Y12705D01*
X23594D01*
Y15749D01*
D02*
G37*
G36*
X27638Y11705D02*
X24594D01*
Y8661D01*
X25029Y8718D01*
X25899Y9079D01*
X26647Y9652D01*
X27220Y10400D01*
X27581Y11271D01*
X27638Y11705D01*
D02*
G37*
G36*
X23594D02*
X20551D01*
X20608Y11271D01*
X20968Y10400D01*
X21542Y9652D01*
X22290Y9079D01*
X23160Y8718D01*
X23594Y8661D01*
Y11705D01*
D02*
G37*
G36*
X99491Y184264D02*
X96169D01*
Y180942D01*
X96675Y181009D01*
X97613Y181397D01*
X98418Y182015D01*
X99036Y182820D01*
X99424Y183758D01*
X99491Y184264D01*
D02*
G37*
G36*
X95169D02*
X91847D01*
X91914Y183758D01*
X92302Y182820D01*
X92920Y182015D01*
X93725Y181397D01*
X94663Y181009D01*
X95169Y180942D01*
Y184264D01*
D02*
G37*
G36*
X135252Y146610D02*
X132547D01*
Y144969D01*
X135252D01*
Y146610D01*
D02*
G37*
G36*
X131547D02*
X128842D01*
Y144969D01*
X131547D01*
Y146610D01*
D02*
G37*
G36*
X135252Y143969D02*
X132547D01*
Y142327D01*
X135252D01*
Y143969D01*
D02*
G37*
G36*
X131547D02*
X128842D01*
Y142327D01*
X131547D01*
Y143969D01*
D02*
G37*
G36*
X135252Y141610D02*
X132547D01*
Y139969D01*
X135252D01*
Y141610D01*
D02*
G37*
G36*
X131547D02*
X128842D01*
Y139969D01*
X131547D01*
Y141610D01*
D02*
G37*
G36*
X135252Y138969D02*
X132547D01*
Y137327D01*
X135252D01*
Y138969D01*
D02*
G37*
G36*
X131547D02*
X128842D01*
Y137327D01*
X131547D01*
Y138969D01*
D02*
G37*
G36*
Y136610D02*
X128842D01*
Y134969D01*
X131547D01*
Y136610D01*
D02*
G37*
G36*
Y133969D02*
X128842D01*
Y132327D01*
X131547D01*
Y133969D01*
D02*
G37*
G36*
X218233Y134973D02*
X214713D01*
Y131452D01*
X215270Y131526D01*
X216256Y131934D01*
X217102Y132583D01*
X217751Y133430D01*
X218160Y134415D01*
X218233Y134973D01*
D02*
G37*
G36*
X213713D02*
X210192D01*
X210266Y134415D01*
X210674Y133430D01*
X211323Y132583D01*
X212170Y131934D01*
X213155Y131526D01*
X213713Y131452D01*
Y134973D01*
D02*
G37*
G36*
X208233D02*
X204713D01*
Y131452D01*
X205270Y131526D01*
X206256Y131934D01*
X207102Y132583D01*
X207751Y133430D01*
X208159Y134415D01*
X208233Y134973D01*
D02*
G37*
G36*
X203713D02*
X200192D01*
X200266Y134415D01*
X200674Y133430D01*
X201323Y132583D01*
X202169Y131934D01*
X203155Y131526D01*
X203713Y131452D01*
Y134973D01*
D02*
G37*
G36*
X198233D02*
X194713D01*
Y131452D01*
X195270Y131526D01*
X196256Y131934D01*
X197102Y132583D01*
X197751Y133430D01*
X198160Y134415D01*
X198233Y134973D01*
D02*
G37*
G36*
X193713D02*
X190192D01*
X190266Y134415D01*
X190674Y133430D01*
X191323Y132583D01*
X192169Y131934D01*
X193155Y131526D01*
X193713Y131452D01*
Y134973D01*
D02*
G37*
G36*
X250035Y135626D02*
X246071D01*
Y128847D01*
X250035D01*
Y135626D01*
D02*
G37*
G36*
X245071D02*
X241106D01*
Y128847D01*
X245071D01*
Y135626D01*
D02*
G37*
G36*
X294853Y134146D02*
X288735D01*
X282617D01*
Y131775D01*
X284906D01*
X285076Y131275D01*
X284512Y130843D01*
X283951Y130112D01*
X283598Y129260D01*
X283543Y128847D01*
X290472D01*
X290418Y129260D01*
X290065Y130112D01*
X289504Y130843D01*
X288940Y131275D01*
X289110Y131775D01*
X294853D01*
Y134146D01*
D02*
G37*
G36*
X274642Y127847D02*
X270677D01*
Y125496D01*
X274642D01*
Y127847D01*
D02*
G37*
G36*
X269677D02*
X265713D01*
Y125496D01*
X269677D01*
Y127847D01*
D02*
G37*
G36*
X290472Y127847D02*
X287508D01*
Y124882D01*
X287922Y124937D01*
X288773Y125289D01*
X289504Y125850D01*
X290065Y126581D01*
X290418Y127433D01*
X290472Y127847D01*
D02*
G37*
G36*
X286508D02*
X283543D01*
X283598Y127433D01*
X283951Y126581D01*
X284512Y125850D01*
X285243Y125289D01*
X286094Y124937D01*
X286508Y124882D01*
Y127847D01*
D02*
G37*
G36*
X250035Y127847D02*
X246071D01*
Y121067D01*
X250035D01*
Y127847D01*
D02*
G37*
G36*
X245071D02*
X241106D01*
Y121067D01*
X245071D01*
Y127847D01*
D02*
G37*
G36*
X214713Y109493D02*
Y105973D01*
X218233D01*
X218160Y106530D01*
X217751Y107516D01*
X217102Y108362D01*
X216256Y109011D01*
X215270Y109420D01*
X214713Y109493D01*
D02*
G37*
G36*
X213713D02*
X213155Y109420D01*
X212170Y109011D01*
X211323Y108362D01*
X210674Y107516D01*
X210266Y106530D01*
X210192Y105973D01*
X213713D01*
Y109493D01*
D02*
G37*
G36*
X218233Y104973D02*
X214713D01*
Y101452D01*
X215270Y101526D01*
X216256Y101934D01*
X217102Y102583D01*
X217751Y103429D01*
X218160Y104415D01*
X218233Y104973D01*
D02*
G37*
G36*
X213713D02*
X210192D01*
X210266Y104415D01*
X210674Y103429D01*
X211323Y102583D01*
X212170Y101934D01*
X213155Y101526D01*
X213713Y101452D01*
Y104973D01*
D02*
G37*
G36*
X306906Y121079D02*
X303650D01*
Y115067D01*
X306906D01*
Y121079D01*
D02*
G37*
G36*
Y114067D02*
X303650D01*
Y108055D01*
X306906D01*
Y114067D01*
D02*
G37*
G36*
X302650D02*
X299394D01*
Y108055D01*
X302650D01*
Y114067D01*
D02*
G37*
G36*
X307626Y104353D02*
Y101091D01*
X310888D01*
X310824Y101581D01*
X310441Y102505D01*
X309833Y103297D01*
X309040Y103906D01*
X308117Y104288D01*
X307626Y104353D01*
D02*
G37*
G36*
X310888Y100091D02*
X307626D01*
Y96828D01*
X308117Y96893D01*
X309040Y97275D01*
X309833Y97884D01*
X310441Y98677D01*
X310824Y99600D01*
X310888Y100091D01*
D02*
G37*
G36*
X307126Y94576D02*
X306135Y94446D01*
X305212Y94063D01*
X304419Y93455D01*
X303811Y92662D01*
X303448Y91785D01*
X303319Y91739D01*
X303059D01*
X302930Y91785D01*
X302567Y92662D01*
X301959Y93455D01*
X301166Y94063D01*
X300243Y94446D01*
X299252Y94576D01*
X298261Y94446D01*
X297338Y94063D01*
X296545Y93455D01*
X295937Y92662D01*
X295554Y91739D01*
X295424Y90748D01*
X295554Y89757D01*
X295937Y88834D01*
X296545Y88041D01*
X297338Y87433D01*
X298261Y87050D01*
X299252Y86920D01*
X300243Y87050D01*
X301166Y87433D01*
X301959Y88041D01*
X302567Y88834D01*
X302930Y89711D01*
X303059Y89757D01*
X303319D01*
X303448Y89711D01*
X303811Y88834D01*
X304419Y88041D01*
X305212Y87433D01*
X306135Y87050D01*
X307126Y86920D01*
X308117Y87050D01*
X309040Y87433D01*
X309833Y88041D01*
X310441Y88834D01*
X310824Y89757D01*
X310954Y90748D01*
X310824Y91739D01*
X310441Y92662D01*
X309833Y93455D01*
X309040Y94063D01*
X308117Y94446D01*
X307126Y94576D01*
D02*
G37*
G36*
X279957Y88500D02*
X272248D01*
Y86175D01*
X271782D01*
X271197Y86059D01*
X270917Y85872D01*
X270417Y86135D01*
Y87218D01*
X266449D01*
Y75375D01*
X270417D01*
Y81118D01*
X271786Y82487D01*
X272248Y82296D01*
Y80791D01*
X279957D01*
Y88500D01*
D02*
G37*
G36*
X286602Y88468D02*
Y85146D01*
X289924D01*
X289858Y85652D01*
X289469Y86590D01*
X288851Y87395D01*
X288046Y88012D01*
X287109Y88401D01*
X286602Y88468D01*
D02*
G37*
G36*
X285602D02*
X285096Y88401D01*
X284159Y88012D01*
X283353Y87395D01*
X282736Y86590D01*
X282347Y85652D01*
X282281Y85146D01*
X285602D01*
Y88468D01*
D02*
G37*
G36*
X289924Y84146D02*
X286602D01*
Y80824D01*
X287109Y80891D01*
X288046Y81279D01*
X288851Y81897D01*
X289469Y82702D01*
X289858Y83640D01*
X289924Y84146D01*
D02*
G37*
G36*
X285602D02*
X282281D01*
X282347Y83640D01*
X282736Y82702D01*
X283353Y81897D01*
X284159Y81279D01*
X285096Y80891D01*
X285602Y80824D01*
Y84146D01*
D02*
G37*
G36*
X247200Y68720D02*
Y65756D01*
X250164D01*
X250110Y66170D01*
X249757Y67021D01*
X249196Y67752D01*
X248465Y68313D01*
X247614Y68666D01*
X247200Y68720D01*
D02*
G37*
G36*
X246200D02*
X245786Y68666D01*
X244935Y68313D01*
X244204Y67752D01*
X243643Y67021D01*
X243290Y66170D01*
X243236Y65756D01*
X246200D01*
Y68720D01*
D02*
G37*
G36*
X230527Y67536D02*
X226484D01*
Y65067D01*
X230527D01*
Y67536D01*
D02*
G37*
G36*
X225484D02*
X221441D01*
Y65067D01*
X225484D01*
Y67536D01*
D02*
G37*
G36*
X317795Y79896D02*
X316248Y79744D01*
X314761Y79293D01*
X313391Y78560D01*
X312189Y77574D01*
X311203Y76373D01*
X310471Y75002D01*
X310020Y73515D01*
X309867Y71969D01*
X310020Y70422D01*
X310471Y68935D01*
X311203Y67564D01*
X312189Y66363D01*
X313391Y65377D01*
X314761Y64644D01*
X316248Y64193D01*
X317795Y64041D01*
X319342Y64193D01*
X320829Y64644D01*
X322200Y65377D01*
X323401Y66363D01*
X324387Y67564D01*
X325120Y68935D01*
X325571Y70422D01*
X325723Y71969D01*
X325571Y73515D01*
X325120Y75002D01*
X324387Y76373D01*
X323401Y77574D01*
X322200Y78560D01*
X320829Y79293D01*
X319342Y79744D01*
X317795Y79896D01*
D02*
G37*
G36*
X250164Y64756D02*
X247200D01*
Y61792D01*
X247614Y61846D01*
X248465Y62199D01*
X249196Y62760D01*
X249757Y63491D01*
X250110Y64342D01*
X250164Y64756D01*
D02*
G37*
G36*
X246200D02*
X243236D01*
X243290Y64342D01*
X243643Y63491D01*
X244204Y62760D01*
X244935Y62199D01*
X245786Y61846D01*
X246200Y61792D01*
Y64756D01*
D02*
G37*
G36*
X321778Y62222D02*
X316372D01*
Y58537D01*
X325897D01*
X325820Y59120D01*
X325402Y60129D01*
X324737Y60996D01*
X323870Y61661D01*
X322861Y62080D01*
X321778Y62222D01*
D02*
G37*
G36*
X315372D02*
X309967D01*
X308883Y62080D01*
X307874Y61661D01*
X307007Y60996D01*
X306342Y60129D01*
X305924Y59120D01*
X305847Y58537D01*
X315372D01*
Y62222D01*
D02*
G37*
G36*
X325897Y57537D02*
X316372D01*
Y53851D01*
X321778D01*
X322861Y53994D01*
X323870Y54412D01*
X324737Y55077D01*
X325402Y55944D01*
X325820Y56954D01*
X325897Y57537D01*
D02*
G37*
G36*
X315372D02*
X305847D01*
X305924Y56954D01*
X306342Y55944D01*
X307007Y55077D01*
X307874Y54412D01*
X308883Y53994D01*
X309967Y53851D01*
X315372D01*
Y57537D01*
D02*
G37*
G36*
X328183Y49558D02*
Y40033D01*
X331869D01*
Y45438D01*
X331726Y46522D01*
X331308Y47531D01*
X330643Y48398D01*
X329776Y49063D01*
X328766Y49481D01*
X328183Y49558D01*
D02*
G37*
G36*
X327183D02*
X326600Y49481D01*
X325590Y49063D01*
X324724Y48398D01*
X324059Y47531D01*
X323640Y46522D01*
X323498Y45438D01*
Y40033D01*
X327183D01*
Y49558D01*
D02*
G37*
G36*
X331869Y39033D02*
X328183D01*
Y29508D01*
X328766Y29585D01*
X329776Y30003D01*
X330643Y30668D01*
X331308Y31535D01*
X331726Y32544D01*
X331869Y33627D01*
Y39033D01*
D02*
G37*
G36*
X327183D02*
X323498D01*
Y33627D01*
X323640Y32544D01*
X324059Y31535D01*
X324724Y30668D01*
X325590Y30003D01*
X326600Y29585D01*
X327183Y29508D01*
Y39033D01*
D02*
G37*
G36*
X257571Y22335D02*
X253606D01*
Y19984D01*
X257571D01*
Y22335D01*
D02*
G37*
G36*
X248201Y22054D02*
Y19090D01*
X251166D01*
X251111Y19503D01*
X250759Y20355D01*
X250198Y21086D01*
X249466Y21647D01*
X248615Y22000D01*
X248201Y22054D01*
D02*
G37*
G36*
X308087Y15567D02*
X304831D01*
Y9555D01*
X308087D01*
Y15567D01*
D02*
G37*
G36*
Y8555D02*
X304831D01*
Y2543D01*
X308087D01*
Y8555D01*
D02*
G37*
G36*
X91602Y109926D02*
Y106406D01*
X95123D01*
X95049Y106963D01*
X94641Y107949D01*
X93992Y108795D01*
X93146Y109444D01*
X92160Y109853D01*
X91602Y109926D01*
D02*
G37*
G36*
X90602D02*
X90045Y109853D01*
X89059Y109444D01*
X88213Y108795D01*
X87564Y107949D01*
X87155Y106963D01*
X87082Y106406D01*
X90602D01*
Y109926D01*
D02*
G37*
G36*
X164760Y93815D02*
X157445D01*
Y86500D01*
X164760D01*
Y93815D01*
D02*
G37*
G36*
X151102Y93847D02*
X150148Y93721D01*
X149258Y93352D01*
X148494Y92766D01*
X147908Y92002D01*
X147539Y91112D01*
X147413Y90158D01*
X147539Y89203D01*
X147908Y88313D01*
X148494Y87549D01*
X149258Y86963D01*
X150148Y86594D01*
X151102Y86469D01*
X152057Y86594D01*
X152947Y86963D01*
X153711Y87549D01*
X154297Y88313D01*
X154666Y89203D01*
X154791Y90158D01*
X154666Y91112D01*
X154297Y92002D01*
X153711Y92766D01*
X152947Y93352D01*
X152057Y93721D01*
X151102Y93847D01*
D02*
G37*
G36*
X141102D02*
X140148Y93721D01*
X139258Y93352D01*
X138494Y92766D01*
X137908Y92002D01*
X137539Y91112D01*
X137413Y90158D01*
X137539Y89203D01*
X137908Y88313D01*
X138494Y87549D01*
X139258Y86963D01*
X140148Y86594D01*
X141102Y86469D01*
X142057Y86594D01*
X142947Y86963D01*
X143711Y87549D01*
X144297Y88313D01*
X144666Y89203D01*
X144791Y90158D01*
X144666Y91112D01*
X144297Y92002D01*
X143711Y92766D01*
X142947Y93352D01*
X142057Y93721D01*
X141102Y93847D01*
D02*
G37*
G36*
X131102D02*
X130148Y93721D01*
X129258Y93352D01*
X128494Y92766D01*
X127908Y92002D01*
X127539Y91112D01*
X127413Y90158D01*
X127539Y89203D01*
X127908Y88313D01*
X128494Y87549D01*
X129258Y86963D01*
X130148Y86594D01*
X131102Y86469D01*
X132057Y86594D01*
X132947Y86963D01*
X133711Y87549D01*
X134297Y88313D01*
X134666Y89203D01*
X134791Y90158D01*
X134666Y91112D01*
X134297Y92002D01*
X133711Y92766D01*
X132947Y93352D01*
X132057Y93721D01*
X131102Y93847D01*
D02*
G37*
G36*
X121102D02*
X120148Y93721D01*
X119258Y93352D01*
X118494Y92766D01*
X117908Y92002D01*
X117539Y91112D01*
X117413Y90158D01*
X117539Y89203D01*
X117908Y88313D01*
X118494Y87549D01*
X119258Y86963D01*
X120148Y86594D01*
X121102Y86469D01*
X122057Y86594D01*
X122947Y86963D01*
X123711Y87549D01*
X124297Y88313D01*
X124666Y89203D01*
X124791Y90158D01*
X124666Y91112D01*
X124297Y92002D01*
X123711Y92766D01*
X122947Y93352D01*
X122057Y93721D01*
X121102Y93847D01*
D02*
G37*
G36*
X184213Y93692D02*
X183155Y93553D01*
X182169Y93145D01*
X181323Y92496D01*
X180674Y91650D01*
X180266Y90664D01*
X180127Y89606D01*
X180266Y88549D01*
X180674Y87563D01*
X181323Y86717D01*
X182169Y86068D01*
X183155Y85659D01*
X184213Y85520D01*
X185270Y85659D01*
X186256Y86068D01*
X187102Y86717D01*
X187751Y87563D01*
X188160Y88549D01*
X188299Y89606D01*
X188160Y90664D01*
X187751Y91650D01*
X187102Y92496D01*
X186256Y93145D01*
X185270Y93553D01*
X184213Y93692D01*
D02*
G37*
G36*
X94726Y89658D02*
X91602D01*
Y86534D01*
X92057Y86594D01*
X92947Y86963D01*
X93711Y87549D01*
X94297Y88313D01*
X94666Y89203D01*
X94726Y89658D01*
D02*
G37*
G36*
X90602D02*
X87479D01*
X87539Y89203D01*
X87908Y88313D01*
X88494Y87549D01*
X89258Y86963D01*
X90148Y86594D01*
X90602Y86534D01*
Y89658D01*
D02*
G37*
G36*
X81602Y81023D02*
Y78059D01*
X84567D01*
X84512Y78473D01*
X84160Y79324D01*
X83599Y80055D01*
X82867Y80616D01*
X82016Y80969D01*
X81602Y81023D01*
D02*
G37*
G36*
X80602D02*
X80189Y80969D01*
X79337Y80616D01*
X78606Y80055D01*
X78045Y79324D01*
X77693Y78473D01*
X77638Y78059D01*
X80602D01*
Y81023D01*
D02*
G37*
G36*
X84567Y77059D02*
X81602D01*
Y74095D01*
X82016Y74149D01*
X82867Y74502D01*
X83599Y75063D01*
X84160Y75794D01*
X84512Y76645D01*
X84567Y77059D01*
D02*
G37*
G36*
X80602D02*
X77638D01*
X77693Y76645D01*
X78045Y75794D01*
X78606Y75063D01*
X79337Y74502D01*
X80189Y74149D01*
X80602Y74095D01*
Y77059D01*
D02*
G37*
G36*
X71602Y63781D02*
Y60658D01*
X74726D01*
X74666Y61112D01*
X74297Y62002D01*
X73711Y62766D01*
X72947Y63352D01*
X72057Y63721D01*
X71602Y63781D01*
D02*
G37*
G36*
X70602D02*
X70148Y63721D01*
X69258Y63352D01*
X68494Y62766D01*
X67908Y62002D01*
X67539Y61112D01*
X67479Y60658D01*
X70602D01*
Y63781D01*
D02*
G37*
G36*
X51102Y63847D02*
X50148Y63721D01*
X49258Y63352D01*
X48494Y62766D01*
X47908Y62002D01*
X47539Y61112D01*
X47413Y60158D01*
X47539Y59203D01*
X47908Y58313D01*
X48494Y57549D01*
X49258Y56963D01*
X50148Y56594D01*
X51102Y56469D01*
X52057Y56594D01*
X52947Y56963D01*
X53711Y57549D01*
X54297Y58313D01*
X54666Y59203D01*
X54791Y60158D01*
X54666Y61112D01*
X54297Y62002D01*
X53711Y62766D01*
X52947Y63352D01*
X52057Y63721D01*
X51102Y63847D01*
D02*
G37*
G36*
X41102D02*
X40148Y63721D01*
X39258Y63352D01*
X38494Y62766D01*
X37908Y62002D01*
X37539Y61112D01*
X37413Y60158D01*
X37539Y59203D01*
X37908Y58313D01*
X38494Y57549D01*
X39258Y56963D01*
X40148Y56594D01*
X41102Y56469D01*
X42057Y56594D01*
X42947Y56963D01*
X43711Y57549D01*
X44297Y58313D01*
X44666Y59203D01*
X44791Y60158D01*
X44666Y61112D01*
X44297Y62002D01*
X43711Y62766D01*
X42947Y63352D01*
X42057Y63721D01*
X41102Y63847D01*
D02*
G37*
G36*
X213713Y59106D02*
X210192D01*
X210266Y58549D01*
X210674Y57563D01*
X211323Y56717D01*
X212170Y56068D01*
X213155Y55660D01*
X213713Y55586D01*
Y59106D01*
D02*
G37*
G36*
X208233D02*
X204713D01*
Y55586D01*
X205270Y55660D01*
X206256Y56068D01*
X207102Y56717D01*
X207751Y57563D01*
X208159Y58549D01*
X208233Y59106D01*
D02*
G37*
G36*
X203713D02*
X200192D01*
X200266Y58549D01*
X200674Y57563D01*
X201323Y56717D01*
X202169Y56068D01*
X203155Y55660D01*
X203713Y55586D01*
Y59106D01*
D02*
G37*
G36*
X198233D02*
X194713D01*
Y55586D01*
X195270Y55660D01*
X196256Y56068D01*
X197102Y56717D01*
X197751Y57563D01*
X198160Y58549D01*
X198233Y59106D01*
D02*
G37*
G36*
X193713D02*
X190192D01*
X190266Y58549D01*
X190674Y57563D01*
X191323Y56717D01*
X192169Y56068D01*
X193155Y55660D01*
X193713Y55586D01*
Y59106D01*
D02*
G37*
G36*
X188264D02*
X184713D01*
Y55555D01*
X188264D01*
Y59106D01*
D02*
G37*
G36*
X183713D02*
X180161D01*
Y55555D01*
X183713D01*
Y59106D01*
D02*
G37*
G36*
X15748Y61330D02*
X14691Y61191D01*
X13705Y60783D01*
X12859Y60133D01*
X12210Y59287D01*
X11801Y58302D01*
X11662Y57244D01*
X11801Y56187D01*
X12210Y55201D01*
X12859Y54355D01*
X13705Y53706D01*
X14691Y53297D01*
X15748Y53158D01*
X16806Y53297D01*
X17791Y53706D01*
X18638Y54355D01*
X19287Y55201D01*
X19695Y56187D01*
X19834Y57244D01*
X19695Y58302D01*
X19287Y59287D01*
X18638Y60133D01*
X17791Y60783D01*
X16806Y61191D01*
X15748Y61330D01*
D02*
G37*
G36*
X213831Y31547D02*
X210648D01*
X210710Y31077D01*
X211084Y30173D01*
X211680Y29397D01*
X212456Y28801D01*
X213361Y28426D01*
X213831Y28364D01*
Y31547D01*
D02*
G37*
G36*
X84594Y15749D02*
Y12705D01*
X87638D01*
X87581Y13139D01*
X87220Y14010D01*
X86647Y14757D01*
X85899Y15331D01*
X85029Y15691D01*
X84594Y15749D01*
D02*
G37*
G36*
X114594D02*
Y12705D01*
X117638D01*
X117581Y13139D01*
X117220Y14010D01*
X116647Y14757D01*
X115899Y15331D01*
X115029Y15691D01*
X114594Y15749D01*
D02*
G37*
G36*
X104594D02*
Y12705D01*
X107638D01*
X107581Y13139D01*
X107220Y14010D01*
X106647Y14757D01*
X105899Y15331D01*
X105029Y15691D01*
X104594Y15749D01*
D02*
G37*
G36*
X94594D02*
Y12705D01*
X97638D01*
X97581Y13139D01*
X97220Y14010D01*
X96647Y14757D01*
X95899Y15331D01*
X95029Y15691D01*
X94594Y15749D01*
D02*
G37*
G36*
X83594D02*
X83160Y15691D01*
X82290Y15331D01*
X81542Y14757D01*
X80968Y14010D01*
X80608Y13139D01*
X80551Y12705D01*
X83594D01*
Y15749D01*
D02*
G37*
G36*
X113594D02*
X113160Y15691D01*
X112290Y15331D01*
X111542Y14757D01*
X110968Y14010D01*
X110608Y13139D01*
X110551Y12705D01*
X113594D01*
Y15749D01*
D02*
G37*
G36*
X103594D02*
X103160Y15691D01*
X102290Y15331D01*
X101542Y14757D01*
X100968Y14010D01*
X100608Y13139D01*
X100551Y12705D01*
X103594D01*
Y15749D01*
D02*
G37*
G36*
X93594D02*
X93160Y15691D01*
X92290Y15331D01*
X91542Y14757D01*
X90968Y14010D01*
X90608Y13139D01*
X90551Y12705D01*
X93594D01*
Y15749D01*
D02*
G37*
G36*
X117638Y11705D02*
X114594D01*
Y8661D01*
X115029Y8718D01*
X115899Y9079D01*
X116647Y9652D01*
X117220Y10400D01*
X117581Y11271D01*
X117638Y11705D01*
D02*
G37*
G36*
X107638D02*
X104594D01*
Y8661D01*
X105029Y8718D01*
X105899Y9079D01*
X106647Y9652D01*
X107220Y10400D01*
X107581Y11271D01*
X107638Y11705D01*
D02*
G37*
G36*
X97638D02*
X94594D01*
Y8661D01*
X95029Y8718D01*
X95899Y9079D01*
X96647Y9652D01*
X97220Y10400D01*
X97581Y11271D01*
X97638Y11705D01*
D02*
G37*
G36*
X87638D02*
X84594D01*
Y8661D01*
X85029Y8718D01*
X85899Y9079D01*
X86647Y9652D01*
X87220Y10400D01*
X87581Y11271D01*
X87638Y11705D01*
D02*
G37*
G36*
X113594D02*
X110551D01*
X110608Y11271D01*
X110968Y10400D01*
X111542Y9652D01*
X112290Y9079D01*
X113160Y8718D01*
X113594Y8661D01*
Y11705D01*
D02*
G37*
G36*
X103594D02*
X100551D01*
X100608Y11271D01*
X100968Y10400D01*
X101542Y9652D01*
X102290Y9079D01*
X103160Y8718D01*
X103594Y8661D01*
Y11705D01*
D02*
G37*
G36*
X93594D02*
X90551D01*
X90608Y11271D01*
X90968Y10400D01*
X91542Y9652D01*
X92290Y9079D01*
X93160Y8718D01*
X93594Y8661D01*
Y11705D01*
D02*
G37*
G36*
X83594D02*
X80551D01*
X80608Y11271D01*
X80968Y10400D01*
X81542Y9652D01*
X82290Y9079D01*
X83160Y8718D01*
X83594Y8661D01*
Y11705D01*
D02*
G37*
G36*
X74094Y15814D02*
X73160Y15691D01*
X72290Y15331D01*
X71542Y14757D01*
X70968Y14010D01*
X70608Y13139D01*
X70485Y12205D01*
X70608Y11271D01*
X70968Y10400D01*
X71542Y9652D01*
X72290Y9079D01*
X73160Y8718D01*
X74094Y8595D01*
X75029Y8718D01*
X75899Y9079D01*
X76647Y9652D01*
X77220Y10400D01*
X77581Y11271D01*
X77704Y12205D01*
X77581Y13139D01*
X77220Y14010D01*
X76647Y14757D01*
X75899Y15331D01*
X75029Y15691D01*
X74094Y15814D01*
D02*
G37*
G36*
X174594Y15749D02*
Y12705D01*
X177638D01*
X177581Y13139D01*
X177220Y14010D01*
X176647Y14757D01*
X175899Y15331D01*
X175029Y15691D01*
X174594Y15749D01*
D02*
G37*
G36*
X173594D02*
X173160Y15691D01*
X172290Y15331D01*
X171542Y14757D01*
X170968Y14010D01*
X170608Y13139D01*
X170551Y12705D01*
X173594D01*
Y15749D01*
D02*
G37*
%LPD*%
D14*
X106200Y158562D02*
X110353D01*
X102200Y165170D02*
X102441Y165410D01*
X99941Y155497D02*
Y168752D01*
X102200Y156905D02*
X102441Y156664D01*
X97441Y152997D02*
X99941Y155497D01*
X119452Y172300D02*
X125400Y166352D01*
Y162429D02*
Y166352D01*
X111052Y164211D02*
X112076Y163187D01*
X125400Y162429D02*
X128342Y159487D01*
X112076Y163187D02*
X118401D01*
X198755Y45513D02*
X204742Y51500D01*
X168302Y45513D02*
X198755D01*
X164775Y49039D02*
X168302Y45513D01*
X55654Y49039D02*
X164775D01*
X51102Y44488D02*
X55654Y49039D01*
X40221Y51039D02*
X165603D01*
X31102Y60158D02*
X40221Y51039D01*
X167130Y49513D02*
X194563D01*
X165603Y51039D02*
X167130Y49513D01*
X204742Y51500D02*
X219320D01*
X81102Y77559D02*
Y80158D01*
X91102Y90158D01*
X34833Y71653D02*
Y86427D01*
X31102Y90158D02*
X34833Y86427D01*
X51718Y71653D02*
X60039D01*
X46383Y66318D02*
X51718Y71653D01*
X37263Y66318D02*
X46383D01*
X31102Y60158D02*
X37263Y66318D01*
X49080Y77559D02*
X66929D01*
X45463Y71653D02*
Y73819D01*
X47513Y75870D01*
Y75993D01*
X49080Y77559D01*
X70669Y71653D02*
Y73819D01*
X66929Y77559D02*
X70669Y73819D01*
Y71653D02*
X76378D01*
X81102Y60158D02*
Y66929D01*
X76378Y71653D02*
X81102Y66929D01*
X249335Y27673D02*
X294827D01*
X299481Y23019D01*
X251946Y22835D02*
X258071D01*
X247701Y18590D02*
X251946Y22835D01*
X221587Y40787D02*
X221958D01*
X218300Y37500D02*
X221587Y40787D01*
X224062Y56242D02*
Y56242D01*
X219320Y51500D02*
X224062Y56242D01*
X216535Y46850D02*
X220327D01*
X228874Y55397D01*
Y58549D01*
X216098Y64158D02*
X219157Y61098D01*
X226324D01*
X228874Y58549D01*
X23041Y187211D02*
X25629Y189800D01*
X36200D01*
X23041Y182144D02*
Y187211D01*
X20453Y179556D02*
X23041Y182144D01*
X4724Y176817D02*
X7464Y179556D01*
X20453D01*
X4724Y173031D02*
Y176817D01*
X11100Y183661D02*
X15037D01*
X15521Y184145D01*
Y189870D01*
X20415Y194764D01*
X29291D01*
X11100Y173031D02*
X11100Y173031D01*
X11100Y89097D02*
Y173031D01*
X166535Y140465D02*
Y163051D01*
X169748Y166264D02*
X175336D01*
X166535Y163051D02*
X169748Y166264D01*
X166535Y140465D02*
X171000Y136000D01*
X168600Y191100D02*
X175549D01*
X179331Y194882D01*
X316973Y141386D02*
Y152020D01*
X318788Y153835D02*
X321965D01*
X316973Y152020D02*
X318788Y153835D01*
X319791Y146760D02*
X320276Y147244D01*
X316387Y140800D02*
X316973Y141386D01*
X301000Y140800D02*
X316387D01*
X316431Y138016D02*
X319791Y141376D01*
X282033Y138016D02*
X316431D01*
X319791Y141376D02*
Y146760D01*
X321965Y153835D02*
X323622Y152178D01*
X150094Y2000D02*
X298603D01*
X299481Y2879D02*
Y23019D01*
X298603Y2000D02*
X299481Y2879D01*
X144094Y8000D02*
X150094Y2000D01*
X315505Y132715D02*
X323622Y140832D01*
X292305Y122692D02*
X302329Y132715D01*
X315505D01*
X260292Y122692D02*
X292305D01*
X323622Y140832D02*
Y152178D01*
X265702Y165298D02*
X269490Y161510D01*
X263189Y185600D02*
X265702Y183087D01*
Y165298D02*
Y183087D01*
X211969Y152756D02*
X267547D01*
X276457Y161665D02*
X325240D01*
X267547Y152756D02*
X276457Y161665D01*
X269490Y158990D02*
Y161510D01*
X268000Y157500D02*
X269490Y158990D01*
X276936Y132919D02*
X282033Y138016D01*
X51744Y158146D02*
X54228Y160630D01*
X51744Y149698D02*
Y158146D01*
X45000Y150300D02*
X45602Y149698D01*
X51744D01*
X54228Y145276D02*
Y148628D01*
X53744Y149112D02*
X54228Y148628D01*
X52330Y149112D02*
X53744D01*
X51744Y149698D02*
X52330Y149112D01*
X65928Y150900D02*
X69800D01*
X64858Y145276D02*
X65343Y145760D01*
Y150314D02*
X65928Y150900D01*
X65343Y145760D02*
Y150314D01*
X110353Y158562D02*
X111260Y159469D01*
X97441Y145669D02*
Y152997D01*
X99941Y168752D02*
X103489Y172300D01*
X106700Y150972D02*
X110197Y154469D01*
X106700Y135300D02*
Y150972D01*
X128342Y162315D02*
X130342Y160315D01*
Y160110D02*
Y160315D01*
X128342Y162315D02*
Y166238D01*
X130342Y160110D02*
X130984Y159469D01*
X128342Y152120D02*
Y159487D01*
X130984Y159469D02*
X132047D01*
X128342Y152120D02*
X130342Y150120D01*
X130984Y149469D02*
X132047D01*
X130342Y150110D02*
X130984Y149469D01*
X130342Y150110D02*
Y150120D01*
X103489Y172300D02*
X119452D01*
X110197Y154469D02*
X111260D01*
X96649Y175300D02*
X119281D01*
X105700Y180200D02*
Y186000D01*
X124343Y153502D02*
Y153890D01*
X119281Y175300D02*
X128342Y166238D01*
X110844Y164884D02*
X111260Y164469D01*
X124088Y153247D02*
X126207Y151128D01*
X124088Y153247D02*
X124343Y153502D01*
X126207Y148449D02*
X129545Y145110D01*
X126207Y148449D02*
Y151128D01*
X131405Y145110D02*
X132047Y144469D01*
X129545Y145110D02*
X131405D01*
X173485Y122000D02*
X177509Y126023D01*
Y148809D01*
X186700Y158000D01*
X174050Y110650D02*
X179509Y116109D01*
Y138409D02*
X181600Y140500D01*
X179509Y116109D02*
Y138409D01*
X172657Y124000D02*
X175000Y126343D01*
X172657Y132000D02*
X175000Y129657D01*
Y126343D02*
Y129657D01*
X201900Y100900D02*
X201900D01*
X213194Y89606D02*
X214213D01*
X201900Y100900D02*
X213194Y89606D01*
X4724Y173031D02*
X4724Y48268D01*
X15748Y37244D01*
X257300Y140500D02*
X264881Y132919D01*
X276936D01*
X175336Y166264D02*
X181561Y160039D01*
X119672Y132051D02*
X127723Y124000D01*
X135511Y120472D02*
X163298D01*
X135039Y120000D02*
X135511Y120472D01*
X127723Y124000D02*
X172657D01*
X113700Y147597D02*
X119672Y141625D01*
Y132051D02*
Y141625D01*
X113700Y147597D02*
Y148091D01*
X112323Y149469D02*
X113700Y148091D01*
X111260Y149469D02*
X112323D01*
X105700Y186000D02*
X106700Y187000D01*
X87500Y184449D02*
X96649Y175300D01*
X198981Y4619D02*
X220719D01*
X222100Y6000D01*
X195474Y8126D02*
X198981Y4619D01*
X224957Y82614D02*
X227300Y84957D01*
X204386Y82614D02*
X224957D01*
X199600Y87400D02*
X204386Y82614D01*
X227300Y84957D02*
Y109700D01*
X234500Y116900D01*
X217900Y85055D02*
X219459Y86614D01*
X223300D01*
X227165Y46850D02*
Y49016D01*
X229150Y51000D01*
X246700D01*
X252800Y57100D01*
Y76800D01*
X180540Y64158D02*
X216098D01*
X208764Y85055D02*
X217900D01*
X199600Y87400D02*
Y95000D01*
X204213Y89606D02*
X208764Y85055D01*
X151102Y60158D02*
X165545Y74600D01*
X179206D01*
X218700Y26100D02*
X218819Y25981D01*
X211400Y26100D02*
X218700D01*
X163298Y120472D02*
X164826Y122000D01*
X173485D01*
X137329Y131109D02*
Y151471D01*
X137008Y130787D02*
X137329Y131109D01*
X163220Y132000D02*
X172657D01*
X134331Y154469D02*
X137329Y151471D01*
X116965Y125860D02*
Y141504D01*
X116142Y125038D02*
X116965Y125860D01*
X118050Y110650D02*
X174050D01*
X115700Y108300D02*
X118050Y110650D01*
X115700Y104000D02*
Y108300D01*
X215540Y205860D02*
X221063Y200337D01*
X178110Y205860D02*
X215540D01*
X132047Y139469D02*
Y144469D01*
Y134469D02*
Y139469D01*
X254500Y116900D02*
X260292Y122692D01*
X303150Y104567D02*
Y114567D01*
Y104567D02*
X307126Y100591D01*
X66260Y55000D02*
X171382D01*
X180540Y64158D01*
X256839Y72800D02*
X256900Y72739D01*
Y57500D02*
Y72739D01*
X222100Y6000D02*
X269094D01*
X131500Y171049D02*
X132047D01*
X231693Y192400D02*
X237500D01*
X171850Y157800D02*
X175700D01*
X171850D02*
Y159842D01*
Y144488D02*
Y157800D01*
X22638Y145276D02*
Y152000D01*
X144094Y8000D02*
Y12205D01*
X124094D02*
X140890Y29000D01*
X199636D01*
X210236Y18400D01*
X215900D01*
X220300Y14000D01*
X236800D01*
X238800Y16000D01*
Y39400D01*
X256900Y57500D01*
X181561Y160039D02*
X240158D01*
X181600Y140500D02*
X257300D01*
X113054Y101354D02*
X115700Y104000D01*
X55654Y101354D02*
X113054D01*
X51102Y105906D02*
X55654Y101354D01*
X61102Y60158D02*
X66260Y55000D01*
X325240Y161665D02*
X330906Y156000D01*
Y147244D02*
Y156000D01*
X15748Y104449D02*
X26900Y115601D01*
Y152252D01*
X29616Y154968D01*
X33268D01*
Y160630D01*
X271782Y84646D02*
X276102D01*
X268433Y81297D02*
X271782Y84646D01*
X246431Y83169D02*
X252800Y76800D01*
X34094Y8000D02*
Y12205D01*
Y8000D02*
X36394Y5700D01*
X124000D01*
X130000Y11700D01*
Y14300D01*
X132000Y16300D01*
X146800D01*
X149100Y14000D01*
Y11100D02*
Y14000D01*
Y11100D02*
X152074Y8126D01*
X195474D01*
X269094Y6000D02*
Y9843D01*
X44000Y37500D02*
X218300D01*
X40000Y33500D02*
X44000Y37500D01*
X40000Y10100D02*
Y33500D01*
Y10100D02*
X42000Y8100D01*
X49990D01*
X54094Y12205D01*
X15748Y47244D02*
X23092Y39900D01*
X116514D01*
X121102Y44488D01*
X20038Y154600D02*
X22638Y152000D01*
X17100Y154600D02*
X20038D01*
X41551Y184449D02*
X45669D01*
X36200Y189800D02*
X41551Y184449D01*
X154094Y12205D02*
X168890Y27000D01*
X196047D01*
X211000Y12047D01*
X214331D01*
X213558Y20400D02*
X226000D01*
X202958Y31000D02*
X213558Y20400D01*
X82890Y31000D02*
X202958D01*
X64094Y12205D02*
X82890Y31000D01*
X83031Y145669D02*
X86811D01*
X82500Y146200D02*
X83031Y145669D01*
X138000Y184449D02*
X145276D01*
X132849Y189600D02*
X138000Y184449D01*
X75500Y189600D02*
X132849D01*
X64000Y178100D02*
X75500Y189600D01*
X61300Y178100D02*
X64000D01*
X34897Y151697D02*
X61300Y178100D01*
X30700Y151697D02*
X34897D01*
X30700Y138800D02*
Y151697D01*
Y138800D02*
X36000Y133500D01*
X104900D01*
X106700Y135300D01*
X44094Y12205D02*
X64890Y33000D01*
X204500D01*
X211400Y26100D01*
X153346Y159842D02*
Y169054D01*
X142000Y180400D02*
X153346Y169054D01*
X126600Y180400D02*
X142000D01*
X120000Y187000D02*
X126600Y180400D01*
X106700Y187000D02*
X120000D01*
X161220Y134000D02*
Y144488D01*
Y134000D02*
X163220Y132000D01*
X263189Y185600D02*
Y194882D01*
X233700Y157500D02*
X268000D01*
X233200Y158000D02*
X233700Y157500D01*
X186700Y158000D02*
X233200D01*
X132047Y169469D02*
Y171049D01*
X118100Y184449D02*
X131500Y171049D01*
X112244Y184449D02*
X118100D01*
X221063Y194882D02*
Y200337D01*
X272090Y151200D02*
X272900D01*
X270300Y149410D02*
X272090Y151200D01*
X262205Y149410D02*
X270300D01*
X231693Y192400D02*
Y194882D01*
X189961Y189567D02*
Y194882D01*
Y189567D02*
X206850Y172677D01*
X78740Y184449D02*
X87500D01*
X132047Y154469D02*
X134331D01*
X111260Y144469D02*
X114000D01*
X116965Y141504D01*
X111260Y139469D02*
X112300D01*
X114965Y136804D01*
Y131827D02*
Y136804D01*
X110900Y131827D02*
X114965D01*
X108300Y129227D02*
X110900Y131827D01*
X108300Y108708D02*
Y129227D01*
Y108708D02*
X111102Y105906D01*
X109900Y134469D02*
X111260D01*
X101102Y125671D02*
X109900Y134469D01*
X101102Y105906D02*
Y125671D01*
X36508Y110500D02*
X41102Y105906D01*
X29000Y110500D02*
X36508D01*
X26500Y108000D02*
X29000Y110500D01*
X26500Y102400D02*
Y108000D01*
Y102400D02*
X32000Y96900D01*
X197700D01*
X199600Y95000D01*
X234500Y116900D02*
X254500D01*
X299803Y141997D02*
X301000Y140800D01*
X299803Y141997D02*
Y147244D01*
X11100Y89097D02*
X15748Y84449D01*
X191969Y152756D02*
X199125Y145600D01*
X278400D01*
X292400Y159600D01*
X308000D01*
X310433Y157167D01*
Y147244D02*
Y157167D01*
X273819Y189630D02*
Y194882D01*
Y189630D02*
X290772Y172677D01*
X179206Y74600D02*
X194213Y89606D01*
X184213Y105473D02*
X189200Y110460D01*
X196340D01*
X198800Y108000D01*
Y104000D02*
Y108000D01*
Y104000D02*
X201900Y100900D01*
X115300Y75960D02*
X131102Y60158D01*
X115300Y75960D02*
Y92000D01*
X112851Y94449D02*
X115300Y92000D01*
X15748Y94449D02*
X112851D01*
X31102Y105906D02*
X37654Y99354D01*
X188094D01*
X194213Y105473D01*
X153815Y194764D02*
X162205D01*
X153500Y195079D02*
X153815Y194764D01*
X145276Y195079D02*
X153500D01*
X120815Y194764D02*
X129134D01*
X120500Y195079D02*
X120815Y194764D01*
X112244Y195079D02*
X120500D01*
X87315Y194764D02*
X95669D01*
X87000Y195079D02*
X87315Y194764D01*
X78740Y195079D02*
X87000D01*
X54015Y194764D02*
X62205D01*
X53700Y195079D02*
X54015Y194764D01*
X45669Y195079D02*
X53700D01*
X139626Y159842D02*
X142717D01*
X135000Y164469D02*
X139626Y159842D01*
X132047Y164469D02*
X135000D01*
X240158Y149410D02*
X262205D01*
X153346Y157430D02*
Y159842D01*
X142717Y146800D02*
X153346Y157430D01*
X142717Y144488D02*
Y146800D01*
X86811Y145669D02*
Y161024D01*
X22638Y152000D02*
Y160630D01*
D19*
X288735Y134646D02*
D03*
Y145669D02*
D03*
D27*
X304061Y39533D02*
D03*
X327683D02*
D03*
D28*
X315872Y58037D02*
D03*
D29*
X299252Y100591D02*
D03*
D30*
Y90748D02*
D03*
X307126D02*
D03*
Y100591D02*
D03*
D31*
X317795Y71969D02*
D03*
Y119370D02*
D03*
D32*
X31102Y105906D02*
D03*
X41102D02*
D03*
X51102D02*
D03*
X61102D02*
D03*
X71102D02*
D03*
X81102D02*
D03*
X91102D02*
D03*
X101102D02*
D03*
X111102D02*
D03*
X121102D02*
D03*
X131102D02*
D03*
X141102D02*
D03*
X151102D02*
D03*
X15748Y104449D02*
D03*
Y94449D02*
D03*
X15748Y47244D02*
D03*
Y57244D02*
D03*
X151102Y44488D02*
D03*
X141102D02*
D03*
X131102D02*
D03*
X121102D02*
D03*
X111102D02*
D03*
X101102D02*
D03*
X91102D02*
D03*
X81102D02*
D03*
X71102D02*
D03*
X61102D02*
D03*
X51102D02*
D03*
X41102D02*
D03*
X31102D02*
D03*
X194213Y59606D02*
D03*
X204213D02*
D03*
X214213D02*
D03*
Y89606D02*
D03*
X204213D02*
D03*
X194213D02*
D03*
X184213D02*
D03*
X194213Y105473D02*
D03*
X204213D02*
D03*
X214213D02*
D03*
Y135473D02*
D03*
X204213D02*
D03*
X194213D02*
D03*
X184213D02*
D03*
X251339Y101968D02*
D03*
X241339D02*
D03*
D33*
X15748Y84449D02*
D03*
X15748Y37244D02*
D03*
D34*
X286102Y84646D02*
D03*
X162205Y184764D02*
D03*
X129134D02*
D03*
X95669D02*
D03*
X62205Y184764D02*
D03*
X29291Y184764D02*
D03*
D35*
X276102Y84646D02*
D03*
D36*
X201969Y152756D02*
D03*
X211969D02*
D03*
D37*
X191969D02*
D03*
D40*
X161102Y105906D02*
D03*
Y44488D02*
D03*
X184213Y59606D02*
D03*
Y105473D02*
D03*
X261339Y101968D02*
D03*
D43*
X162205Y194764D02*
D03*
X129134D02*
D03*
X95669D02*
D03*
X62205Y194764D02*
D03*
X29291Y194764D02*
D03*
D48*
X102441Y165410D02*
X106499Y169469D01*
X96000Y157100D02*
X97425D01*
Y161008D01*
X102441Y141936D02*
Y156664D01*
X118748Y169469D02*
X122900Y165316D01*
Y159252D02*
Y165316D01*
X119843Y156194D02*
X122900Y159252D01*
X304061Y38994D02*
Y39533D01*
X302075Y37008D02*
X304061Y38994D01*
X283618Y37008D02*
X302075D01*
X243201Y16726D02*
X246148Y13779D01*
X243201Y16726D02*
Y38201D01*
X263422Y58422D01*
X246148Y13779D02*
X259685D01*
X111260Y169469D02*
X118748D01*
X161220Y167182D02*
X165299Y171260D01*
X106499Y169469D02*
X111260D01*
X165299Y171260D02*
X199900D01*
X161220Y156074D02*
Y167182D01*
X261339Y101968D02*
X263390Y99917D01*
Y98778D02*
Y99917D01*
Y98778D02*
X263422Y98746D01*
Y58422D02*
Y98746D01*
X294669Y119079D02*
X303922Y128331D01*
X316973D01*
X294669Y119079D02*
X294669D01*
X334901Y140810D02*
Y159999D01*
X328280Y139638D02*
X333730D01*
X334901Y140810D01*
X316973Y128331D02*
X328280Y139638D01*
X99254Y138748D02*
X102441Y141936D01*
X95628Y138748D02*
X99254D01*
X94457Y139920D02*
X95628Y138748D01*
X94457Y139920D02*
Y155557D01*
X96000Y157100D01*
X97425Y161008D02*
X97441Y161024D01*
X119843Y149999D02*
X123090Y146751D01*
X119843Y149999D02*
Y156194D01*
X123090Y133312D02*
Y146751D01*
Y133312D02*
X129615Y126787D01*
X141133D02*
X142346Y128000D01*
X153346Y139000D01*
X142346Y128000D02*
X171000D01*
X288735Y145669D02*
X291983D01*
X292853Y146539D01*
Y152035D01*
X296418Y155600D01*
X304000Y155600D01*
X314672Y180228D02*
X334901Y159999D01*
X248661Y192677D02*
Y193543D01*
X258660Y203542D02*
X279907D01*
X248661Y193543D02*
X258660Y203542D01*
X279907D02*
X290772Y192677D01*
X248661D02*
X261205Y180134D01*
X261221Y160039D02*
X262205D01*
X261205Y160055D02*
X261221Y160039D01*
X261205Y160055D02*
Y180134D01*
X214567Y170684D02*
Y187583D01*
X211945D02*
X214567D01*
X243567D01*
X206850Y192677D02*
X211945Y187583D01*
X243567D02*
X248661Y192677D01*
X199900Y171260D02*
X204799Y166361D01*
X210244D02*
X214567Y170684D01*
X204799Y166361D02*
X210244D01*
X72128Y167900D02*
X90565D01*
X97441Y161024D01*
X64858Y160630D02*
X72128Y167900D01*
X260536Y14823D02*
X265418Y19706D01*
X289594D01*
X259685Y13779D02*
X260536Y14630D01*
Y14823D01*
X129615Y126787D02*
X141133D01*
X292913Y114567D02*
Y117323D01*
X294669Y119079D01*
X293221Y190228D02*
X309366D01*
X290772Y192677D02*
X293221Y190228D01*
X283825Y114567D02*
X292913D01*
X279100Y119292D02*
X283825Y114567D01*
X309366Y180228D02*
X314672D01*
X270177Y119292D02*
X279100D01*
X266600Y11900D02*
Y15375D01*
X289594Y19706D02*
X294095Y15205D01*
X266600Y15375D02*
X267489Y16264D01*
X277260D01*
X33268Y141300D02*
X34700D01*
X257803Y81297D02*
Y95504D01*
X251339Y101968D02*
X257803Y95504D01*
X153346Y139000D02*
Y144488D01*
X173937Y22047D02*
X194331D01*
X164094Y12205D02*
X173937Y22047D01*
X294095Y9055D02*
Y15205D01*
X194331Y18000D02*
Y22047D01*
Y18000D02*
X204531Y7800D01*
X218400D01*
X219900Y9300D01*
X264000D01*
X266600Y11900D01*
X277260Y16264D02*
X279724Y13800D01*
Y9843D02*
Y13800D01*
X225984Y76378D02*
X232000D01*
X241339Y85717D01*
Y101968D01*
X33268Y141300D02*
Y145276D01*
X34700Y141300D02*
X40000Y136000D01*
X55500D01*
X59500Y140000D01*
Y149200D01*
X64858Y154558D01*
Y160630D01*
X283567Y145669D02*
X288735D01*
X275300Y137402D02*
X283567Y145669D01*
X270177Y137402D02*
X275300D01*
X241339Y101968D02*
X250470Y111100D01*
X273700D01*
X284209Y100591D01*
X299252D01*
X153346Y148200D02*
X161220Y156074D01*
X153346Y144488D02*
Y148200D01*
X278500Y31890D02*
X283618Y37008D01*
X258071Y31890D02*
X278500D01*
D49*
X161102Y60158D02*
D03*
X151102D02*
D03*
X141102D02*
D03*
X131102D02*
D03*
X121102D02*
D03*
X111102D02*
D03*
X101102D02*
D03*
X91102D02*
D03*
X81102D02*
D03*
X71102D02*
D03*
X61102D02*
D03*
X51102D02*
D03*
X41102D02*
D03*
X31102D02*
D03*
Y90158D02*
D03*
X41102D02*
D03*
X51102D02*
D03*
X61102D02*
D03*
X71102D02*
D03*
X81102D02*
D03*
X91102D02*
D03*
X101102D02*
D03*
X111102D02*
D03*
X121102D02*
D03*
X131102D02*
D03*
X141102D02*
D03*
X151102D02*
D03*
D50*
X161102D02*
D03*
D51*
X8661Y8661D02*
D03*
Y203937D02*
D03*
X328740Y8661D02*
D03*
Y203937D02*
D03*
D52*
X206850Y172677D02*
D03*
X186850Y182677D02*
D03*
X206850Y192677D02*
D03*
X214331Y32047D02*
D03*
X194331Y22047D02*
D03*
X214331Y12047D02*
D03*
X290772Y192677D02*
D03*
X270772Y182677D02*
D03*
X290772Y172677D02*
D03*
X248661Y192677D02*
D03*
X228661Y182677D02*
D03*
X248661Y172677D02*
D03*
D53*
X24094Y12205D02*
D03*
X34094D02*
D03*
X44094D02*
D03*
X54094D02*
D03*
X64094D02*
D03*
X74094D02*
D03*
X84094D02*
D03*
X94094D02*
D03*
X104094D02*
D03*
X114094D02*
D03*
X124094D02*
D03*
X134094D02*
D03*
X144094D02*
D03*
X154094D02*
D03*
X164094D02*
D03*
X174094D02*
D03*
D54*
X309366Y170228D02*
D03*
Y180228D02*
D03*
D55*
Y190228D02*
D03*
D56*
X106200Y158562D02*
D03*
X118401Y163187D02*
D03*
X194563Y49513D02*
D03*
X81102Y77559D02*
D03*
X225354Y115236D02*
D03*
X249335Y27673D02*
D03*
X247701Y18590D02*
D03*
X221958Y40787D02*
D03*
X224062Y56242D02*
D03*
X105700Y180200D02*
D03*
X124343Y153890D02*
D03*
X246700Y65256D02*
D03*
X171000Y128000D02*
D03*
X135039Y120000D02*
D03*
X223300Y86614D02*
D03*
X218819Y25981D02*
D03*
X137008Y130787D02*
D03*
X116142Y125038D02*
D03*
X178110Y205860D02*
D03*
X287008Y128347D02*
D03*
X256839Y72800D02*
D03*
X304000Y155600D02*
D03*
X171000Y136000D02*
D03*
X168600Y191100D02*
D03*
X246431Y83169D02*
D03*
X17100Y154600D02*
D03*
X226000Y20400D02*
D03*
X69800Y150900D02*
D03*
X45000Y150300D02*
D03*
X82500Y146200D02*
D03*
X175700Y157800D02*
D03*
X272900Y151200D02*
D03*
X237500Y192400D02*
D03*
D57*
X60039Y71653D02*
D03*
X70669D02*
D03*
X34833D02*
D03*
X45463D02*
D03*
X227165Y46850D02*
D03*
X216535D02*
D03*
D58*
X111260Y134469D02*
D03*
Y139469D02*
D03*
Y144469D02*
D03*
Y149469D02*
D03*
Y154469D02*
D03*
Y159469D02*
D03*
Y164469D02*
D03*
Y169469D02*
D03*
X132047Y134469D02*
D03*
Y139469D02*
D03*
Y144469D02*
D03*
Y149469D02*
D03*
Y154469D02*
D03*
Y159469D02*
D03*
Y164469D02*
D03*
Y169469D02*
D03*
D59*
X33268Y160630D02*
D03*
X22638D02*
D03*
X33268Y145276D02*
D03*
X22638D02*
D03*
X54228D02*
D03*
X64858D02*
D03*
X86811Y145669D02*
D03*
X97441D02*
D03*
X153346Y144488D02*
D03*
X142717D02*
D03*
X171850D02*
D03*
X161220D02*
D03*
Y159842D02*
D03*
X171850D02*
D03*
X153346D02*
D03*
X142717D02*
D03*
X97441Y161024D02*
D03*
X86811D02*
D03*
X64858Y160630D02*
D03*
X54228D02*
D03*
X273819Y194882D02*
D03*
X263189D02*
D03*
X231693D02*
D03*
X221063D02*
D03*
X189961D02*
D03*
X179331D02*
D03*
X310433Y147244D02*
D03*
X299803D02*
D03*
X330906D02*
D03*
X320276D02*
D03*
X269094Y9843D02*
D03*
X279724D02*
D03*
X268433Y81297D02*
D03*
X257803D02*
D03*
D60*
X245571Y128347D02*
D03*
X233465Y22835D02*
D03*
D61*
X270177Y119292D02*
D03*
Y128347D02*
D03*
Y137402D02*
D03*
X258071Y13779D02*
D03*
Y22835D02*
D03*
Y31890D02*
D03*
D62*
X112244Y184449D02*
D03*
Y195079D02*
D03*
X78740Y184449D02*
D03*
Y195079D02*
D03*
X45669Y184449D02*
D03*
Y195079D02*
D03*
X11100Y173031D02*
D03*
Y183661D02*
D03*
X145276Y184449D02*
D03*
Y195079D02*
D03*
X240158Y149410D02*
D03*
Y160039D02*
D03*
X262205D02*
D03*
Y149410D02*
D03*
D63*
X225984Y76378D02*
D03*
Y64567D02*
D03*
D64*
X304331Y9055D02*
D03*
X294095D02*
D03*
X303150Y114567D02*
D03*
X292913D02*
D03*
D65*
X102200Y156905D02*
Y165170D01*
M02*
