G04*
G04 #@! TF.GenerationSoftware,Altium Limited,Altium Designer,20.2.5 (213)*
G04*
G04 Layer_Color=16711935*
%FSLAX25Y25*%
%MOIN*%
G70*
G04*
G04 #@! TF.SameCoordinates,58A5799B-777F-4B07-89FE-91B8D634004C*
G04*
G04*
G04 #@! TF.FilePolarity,Positive*
G04*
G01*
G75*
%ADD11C,0.00787*%
%ADD13C,0.00600*%
%ADD15C,0.00394*%
%ADD73C,0.00500*%
D11*
X276378Y137402D02*
X275591D01*
X276378D01*
X264272Y31890D02*
X263484D01*
X264272D01*
X178110Y163937D02*
X215591D01*
Y201417D01*
X178110D02*
X215591D01*
X178110Y163937D02*
Y201417D01*
X185591Y3307D02*
Y40787D01*
X223071D01*
Y3307D02*
Y40787D01*
X185591Y3307D02*
X223071D01*
X19094Y7205D02*
X179094D01*
X19094D02*
Y17205D01*
X179094D01*
Y7205D02*
Y17205D01*
X262032Y163937D02*
Y201417D01*
X299512D01*
Y163937D02*
Y201417D01*
X262032Y163937D02*
X299512D01*
X219921D02*
Y201417D01*
X257402D01*
Y163937D02*
Y201417D01*
X219921Y163937D02*
X257402D01*
D13*
X255669Y2112D02*
X255288Y2949D01*
X254427Y3271D01*
X253590Y2890D01*
X253268Y2029D01*
X269469Y4221D02*
Y6221D01*
Y4221D02*
X275469D01*
Y6221D01*
X269469D02*
X275469D01*
X269469Y9221D02*
Y11221D01*
Y9221D02*
X275469D01*
Y11221D01*
X269469D02*
X275469D01*
X269469Y14221D02*
Y16221D01*
Y14221D02*
X275469D01*
Y16221D01*
X269469D02*
X275469D01*
X269469Y19221D02*
Y21221D01*
Y19221D02*
X275469D01*
Y21221D01*
X269469D02*
X275469D01*
X269469Y24221D02*
Y26221D01*
Y24221D02*
X275469D01*
Y26221D01*
X269469D02*
X275469D01*
X269469Y29221D02*
Y31221D01*
Y29221D02*
X275469D01*
Y31221D01*
X269469D02*
X275469D01*
X269469Y34221D02*
Y36221D01*
Y34221D02*
X275469D01*
Y36221D01*
X269469D02*
X275469D01*
X269469Y39221D02*
Y41221D01*
Y39221D02*
X275469D01*
Y41221D01*
X269469D02*
X275469D01*
X239469Y39221D02*
Y41221D01*
X233469D02*
X239469D01*
X233469Y39221D02*
Y41221D01*
Y39221D02*
X239469D01*
Y34221D02*
Y36221D01*
X233469D02*
X239469D01*
X233469Y34221D02*
Y36221D01*
Y34221D02*
X239469D01*
Y29221D02*
Y31221D01*
X233469D02*
X239469D01*
X233469Y29221D02*
Y31221D01*
Y29221D02*
X239469D01*
Y24221D02*
Y26221D01*
X233469D02*
X239469D01*
X233469Y24221D02*
Y26221D01*
Y24221D02*
X239469D01*
Y19221D02*
Y21221D01*
X233469D02*
X239469D01*
X233469Y19221D02*
Y21221D01*
Y19221D02*
X239469D01*
Y14221D02*
Y16221D01*
X233469D02*
X239469D01*
X233469Y14221D02*
Y16221D01*
Y14221D02*
X239469D01*
Y9221D02*
Y11221D01*
X233469D02*
X239469D01*
X233469Y9221D02*
Y11221D01*
Y9221D02*
X239469D01*
Y4221D02*
Y6221D01*
X233469D02*
X239469D01*
X233469Y4221D02*
Y6221D01*
Y4221D02*
X239469D01*
Y43321D02*
X269469D01*
X239469Y2121D02*
Y43321D01*
Y2121D02*
X255669D01*
X269469D01*
Y43321D01*
X230069Y34521D02*
Y35921D01*
X231069D01*
Y34521D02*
Y35921D01*
D15*
X127953Y168110D02*
X127689Y169095D01*
X126969Y169815D01*
X125984Y170079D01*
X125000Y169815D01*
X124279Y169095D01*
X124016Y168110D01*
X124279Y167126D01*
X125000Y166405D01*
X125984Y166142D01*
X126969Y166405D01*
X127689Y167126D01*
X127953Y168110D01*
X161102Y95158D02*
X166102Y90158D01*
X26102Y95158D02*
X166102D01*
X26102Y55158D02*
Y95158D01*
Y55158D02*
X166102D01*
Y95158D01*
X113780Y132283D02*
X129528D01*
X113780Y171654D02*
X129528D01*
X113780Y132283D02*
Y171654D01*
X129528Y132283D02*
Y171654D01*
X25098Y101162D02*
X167106D01*
Y110650D01*
X25098D02*
X167106D01*
X25098Y101162D02*
Y110650D01*
X241535Y86614D02*
X262402D01*
Y46457D02*
Y86614D01*
X241535Y46457D02*
X262402D01*
X241535D02*
Y86614D01*
Y84055D02*
X244094Y86614D01*
X25098Y39744D02*
Y49232D01*
X167106D01*
Y39744D02*
Y49232D01*
X25098Y39744D02*
X167106D01*
X304366Y164736D02*
X314366D01*
X304366D02*
Y195720D01*
X304366D02*
X314366D01*
X314366Y164736D02*
Y195720D01*
D73*
X250984Y115551D02*
X264764D01*
X250984Y141142D02*
X264764D01*
Y115551D02*
Y141142D01*
X250984Y115551D02*
Y141142D01*
X238878Y10039D02*
X252658D01*
X238878Y35630D02*
X252658D01*
Y10039D02*
Y35630D01*
X238878Y10039D02*
Y35630D01*
M02*
