G04*
G04 #@! TF.GenerationSoftware,Altium Limited,Altium Designer,20.2.5 (213)*
G04*
G04 Layer_Physical_Order=1*
G04 Layer_Color=255*
%FSLAX25Y25*%
%MOIN*%
G70*
G04*
G04 #@! TF.SameCoordinates,0846BD26-53A7-4D4D-980E-E920FDF7FE47*
G04*
G04*
G04 #@! TF.FilePolarity,Positive*
G04*
G01*
G75*
%ADD15C,0.01000*%
%ADD16R,0.05433X0.08268*%
%ADD18R,0.08268X0.05433*%
%ADD19R,0.10236X0.03740*%
%ADD29O,0.06299X0.18110*%
%ADD30O,0.18110X0.06299*%
%ADD31R,0.05591X0.05591*%
%ADD32C,0.05591*%
%ADD33C,0.13780*%
%ADD34C,0.06102*%
%ADD35R,0.06102X0.06102*%
%ADD36C,0.05709*%
%ADD37R,0.05709X0.05709*%
%ADD38C,0.07480*%
%ADD39R,0.07480X0.07480*%
%ADD40R,0.06102X0.06102*%
%ADD43R,0.05709X0.05709*%
%ADD45R,0.06299X0.01968*%
%ADD46R,0.07087X0.01772*%
%ADD47R,0.09000X0.02200*%
%ADD48C,0.02000*%
%ADD49C,0.05158*%
%ADD50C,0.05433*%
%ADD51C,0.05315*%
%ADD52R,0.05315X0.05315*%
%ADD53C,0.11811*%
%ADD54C,0.05512*%
%ADD55R,0.05512X0.05512*%
%ADD56C,0.05000*%
D15*
X137008Y126992D02*
Y130708D01*
X140114Y133631D02*
X141401Y132343D01*
Y106204D02*
Y132343D01*
X141102Y105906D02*
X141401Y106204D01*
X140114Y133631D02*
Y194051D01*
X135039Y116137D02*
Y119685D01*
X137008Y126992D02*
X137329Y126671D01*
X139102Y124898D01*
X28310Y154310D02*
X70714D01*
X19596Y145596D02*
X28310Y154310D01*
X77795Y144000D02*
X80004Y146209D01*
Y149170D01*
X77795Y138780D02*
Y144000D01*
X148886Y28000D02*
X156500Y35614D01*
Y144000D01*
X124094Y12205D02*
X139890Y28000D01*
X148886D01*
X66728Y4724D02*
X152382D01*
X64095Y7357D02*
Y12205D01*
Y7357D02*
X66728Y4724D01*
X73807Y6724D02*
X144382D01*
X152382Y4724D02*
X160016Y12358D01*
X70016Y10515D02*
X73807Y6724D01*
X160016Y12358D02*
Y15770D01*
X144382Y6724D02*
X148603Y10945D01*
X160016Y15770D02*
X172717Y28471D01*
X148603Y15347D02*
X155571Y22315D01*
X148603Y10945D02*
Y15347D01*
X52405Y16284D02*
X67581D01*
X70016Y13849D01*
Y10515D02*
Y13849D01*
X63679Y2621D02*
X241790D01*
X54094Y12205D02*
X63679Y2621D01*
X241790D02*
X243921Y4752D01*
X155571Y22315D02*
X159160D01*
X194563Y49513D02*
X199487D01*
X199510Y49490D01*
X245925Y27458D02*
X248162Y25221D01*
X44094Y12205D02*
X48326D01*
X52405Y16284D01*
X194331Y22047D02*
Y22325D01*
X182420Y34236D02*
X194331Y22325D01*
X171081Y34236D02*
X182420D01*
X159160Y22315D02*
X171081Y34236D01*
X174345Y23817D02*
X180763Y30236D01*
X174345Y12455D02*
Y23817D01*
X174094Y12205D02*
X174345Y12455D01*
X243921Y16287D02*
X247855Y20221D01*
X243921Y4752D02*
Y16287D01*
X250819Y15221D02*
X272269D01*
X248421Y12823D02*
X250819Y15221D01*
X247855Y20221D02*
X272269D01*
X256900Y39321D02*
X266000Y30221D01*
X256900Y39321D02*
Y72739D01*
X281374Y18595D02*
Y38546D01*
X278000Y15221D02*
X281374Y18595D01*
X236669Y30221D02*
X242669D01*
Y41942D01*
X24094Y12205D02*
X37087Y25197D01*
X71102D01*
Y44488D02*
Y60158D01*
Y25197D02*
Y44488D01*
X201969Y152756D02*
Y167559D01*
X196850Y172677D02*
X201969Y167559D01*
X209661Y44370D02*
Y62283D01*
X212236Y23883D02*
Y41796D01*
X210236Y22141D02*
X222156Y10221D01*
X210236Y22141D02*
Y38764D01*
X199510Y49490D02*
X210236Y38764D01*
X209661Y62283D02*
X223300Y75921D01*
X212236Y23883D02*
X221819Y14300D01*
X209661Y44370D02*
X212236Y41796D01*
X221819Y14300D02*
X232200D01*
X86551Y138913D02*
X106200Y158562D01*
X114933Y180200D02*
X122400Y172733D01*
Y157605D02*
Y172733D01*
X114165Y149369D02*
X122400Y157605D01*
X114165Y140602D02*
Y149369D01*
X106200Y144232D02*
X118401Y156433D01*
X106200Y75255D02*
Y144232D01*
X118401Y156433D02*
Y163187D01*
X71102Y60158D02*
X81102Y70158D01*
Y77559D01*
X213976Y115236D02*
X225354D01*
X204213Y105473D02*
X213976Y115236D01*
X241790Y42821D02*
X242669Y41942D01*
X223991Y42821D02*
X241790D01*
X221958Y40787D02*
X223991Y42821D01*
X217958Y39130D02*
Y42444D01*
X221814Y46300D01*
X248900D01*
X228267Y36787D02*
X231700Y40221D01*
X220302Y36787D02*
X228267D01*
X217958Y39130D02*
X220302Y36787D01*
X224062Y61736D02*
X224546Y62221D01*
X226484D01*
X224062Y56242D02*
Y61736D01*
X226476Y51179D02*
X232860Y57563D01*
X222836Y51179D02*
X226476D01*
X220493Y53522D02*
X222836Y51179D01*
X220493Y53522D02*
Y54435D01*
X215322Y59606D02*
X220493Y54435D01*
X91102Y60158D02*
X106200Y75255D01*
X307126Y81929D02*
Y90748D01*
X265945Y49902D02*
X275098D01*
X307126Y81929D01*
X248162Y25221D02*
X272269D01*
X279700Y40221D02*
X281374Y38546D01*
Y41895D02*
X288811D01*
X279700Y40221D02*
X281374Y41895D01*
X207162Y130860D02*
X209661Y133359D01*
X188764Y132736D02*
X190639Y130860D01*
X207162D01*
X209661Y133359D02*
Y137358D01*
X19596Y137296D02*
Y145596D01*
X7874Y125574D02*
X19596Y137296D01*
X7874Y65118D02*
X15748Y57244D01*
X7874Y65118D02*
Y125574D01*
X86551Y42603D02*
Y138913D01*
Y42603D02*
X89217Y39937D01*
X96551D01*
X101102Y44488D01*
X105700Y180200D02*
X114933D01*
X95669Y184764D02*
X129134D01*
X111949Y138386D02*
X114165Y140602D01*
X124343Y153890D02*
Y154657D01*
X129587Y159901D01*
Y174213D01*
X237992Y67815D02*
X243602D01*
X246161Y65256D01*
X246700D01*
X151923Y205860D02*
X178110D01*
X140114Y194051D02*
X151923Y205860D01*
X232860Y57563D02*
Y67229D01*
Y57563D02*
X232876Y57579D01*
X233446Y67815D02*
X237992D01*
X232860Y67229D02*
X233446Y67815D01*
X223300Y75921D02*
Y86614D01*
X226484Y72851D02*
X226525Y72892D01*
X237951D01*
X237992Y72933D01*
X214213Y59606D02*
X215322D01*
X218819Y25981D02*
X222000Y22800D01*
Y18400D02*
Y22800D01*
X131102Y112200D02*
X135039Y116137D01*
X139102Y112200D02*
Y124898D01*
X135800Y108898D02*
X139102Y112200D01*
X116142Y110866D02*
Y125038D01*
Y110866D02*
X121102Y105906D01*
X151102D02*
Y184302D01*
X156000Y189200D01*
X135800Y84855D02*
Y108898D01*
X131102Y105906D02*
Y112200D01*
Y90158D02*
Y105906D01*
X156000Y189200D02*
X166700D01*
X199510Y49490D02*
Y64006D01*
X214213Y78709D01*
Y59606D02*
X214272Y59547D01*
X222156Y10221D02*
X236669D01*
X279508Y78051D02*
X286102Y84646D01*
X265945Y78051D02*
X279508D01*
X287008Y120709D02*
X307126Y100591D01*
X287008Y120709D02*
Y128347D01*
X204213Y135473D02*
Y148758D01*
X201969Y151002D02*
X204213Y148758D01*
X201969Y151002D02*
Y152756D01*
X209661Y137358D02*
X219204Y146900D01*
X243100D01*
X159400D02*
X179221D01*
X188764Y137358D01*
Y132736D02*
Y137358D01*
X91102Y90158D02*
Y105906D01*
X256839Y72800D02*
X256900Y72739D01*
X260900Y65256D02*
Y75492D01*
Y57800D02*
Y65256D01*
X261121Y57579D02*
X265945D01*
X261000D02*
X261121D01*
X232200Y14300D02*
Y15221D01*
X216811Y132874D02*
X239079D01*
X214213Y135473D02*
X216811Y132874D01*
X266000Y30221D02*
X272269D01*
X231700Y40221D02*
X236669D01*
X248900Y46300D02*
X252800Y50200D01*
Y84300D01*
X265900Y97400D01*
Y124100D01*
X243100Y146900D02*
X265900Y124100D01*
X156500Y144000D02*
X159400Y146900D01*
X232200Y15221D02*
X236669D01*
X194213Y99606D02*
Y105473D01*
Y99606D02*
X204213Y89606D01*
X214213Y78709D02*
Y89606D01*
X161102Y126102D02*
X171000Y136000D01*
X161102Y105906D02*
Y126102D01*
X166700Y189200D02*
X168600Y191100D01*
X265945Y60138D02*
X273038D01*
X237992Y83169D02*
X246431D01*
X11634Y149134D02*
X17100Y154600D01*
X11634Y139202D02*
Y149134D01*
X231721Y35221D02*
X236669D01*
X228500Y32000D02*
X231721Y35221D01*
X228500Y22900D02*
Y32000D01*
X226000Y20400D02*
X228500Y22900D01*
X260479Y57058D02*
X261000Y57579D01*
X260479Y43742D02*
Y57058D01*
Y43742D02*
X264000Y40221D01*
X272269D01*
X44130Y139173D02*
Y149430D01*
X45000Y150300D01*
X222000Y18400D02*
X224000Y16400D01*
X228000D01*
X230600Y19000D01*
Y24000D01*
X231821Y25221D01*
X236669D01*
X144331Y138386D02*
Y164331D01*
X148600Y168600D01*
Y192500D01*
X155300Y199200D01*
X168000D01*
X175700Y191500D01*
Y157800D02*
Y191500D01*
X272269Y40221D02*
X279700D01*
X299252Y79413D02*
Y90748D01*
X272300Y52461D02*
X299252Y79413D01*
X265945Y52461D02*
X272300D01*
X274905Y115236D02*
X280600D01*
Y143500D01*
X272900Y151200D02*
X280600Y143500D01*
X111102Y60158D02*
X135800Y84855D01*
X272269Y15221D02*
X278000D01*
X260900Y57800D02*
X261121Y57579D01*
X233216Y75492D02*
X237992D01*
X260900Y65256D02*
X265945D01*
X260900Y75492D02*
X265945D01*
Y78051D01*
X272269Y10221D02*
Y15221D01*
Y5221D02*
Y10221D01*
X62205Y180037D02*
Y184764D01*
X61768Y179600D02*
X62205Y180037D01*
X61768Y175000D02*
Y179600D01*
X29291Y179820D02*
Y184764D01*
X29272Y179800D02*
X29291Y179820D01*
X29272Y175029D02*
Y179800D01*
X129134Y179653D02*
Y184764D01*
Y179653D02*
X129587Y179200D01*
Y174213D02*
Y179200D01*
X95669Y179736D02*
Y184764D01*
X95433Y179500D02*
X95669Y179736D01*
X95433Y174606D02*
Y179500D01*
X162205Y179536D02*
Y184764D01*
X161968Y179300D02*
X162205Y179536D01*
X161968Y174213D02*
Y179300D01*
X31102Y90158D02*
Y105906D01*
Y44488D02*
Y60158D01*
X161102Y90158D02*
Y105906D01*
X151102Y90158D02*
Y105906D01*
X141102Y90158D02*
Y105906D01*
X121102Y90158D02*
Y105906D01*
X111102Y90158D02*
Y105906D01*
X101102Y90158D02*
Y105906D01*
X81102Y90158D02*
Y105906D01*
X71102Y90158D02*
Y105906D01*
X61102Y90158D02*
Y105906D01*
X51102Y90158D02*
Y105906D01*
X41102Y90158D02*
Y105906D01*
Y44488D02*
Y60158D01*
X51102Y44488D02*
Y60158D01*
X61102Y44488D02*
Y60158D01*
X91102Y44488D02*
Y60158D01*
X101102Y44488D02*
Y60158D01*
X111102Y44488D02*
Y60158D01*
X121102Y44488D02*
Y60158D01*
X131102Y44488D02*
Y60158D01*
X141102Y44488D02*
Y60158D01*
X151102Y44488D02*
Y60158D01*
X161102Y44488D02*
Y60158D01*
X265945Y60138D02*
Y62697D01*
D16*
X111949Y174213D02*
D03*
Y138386D02*
D03*
X129587Y174213D02*
D03*
Y138386D02*
D03*
X29272Y139202D02*
D03*
Y175029D02*
D03*
X11634Y139202D02*
D03*
Y175029D02*
D03*
X144331Y174213D02*
D03*
Y138386D02*
D03*
X161968Y174213D02*
D03*
Y138386D02*
D03*
X77795Y174606D02*
D03*
Y138780D02*
D03*
X95433Y174606D02*
D03*
Y138780D02*
D03*
X61768Y139173D02*
D03*
Y175000D02*
D03*
X44130Y139173D02*
D03*
Y175000D02*
D03*
D18*
X239079Y115236D02*
D03*
X274905D02*
D03*
X239079Y132874D02*
D03*
X274905D02*
D03*
D19*
X288811Y41895D02*
D03*
Y52919D02*
D03*
D29*
X304061Y39533D02*
D03*
X327683D02*
D03*
D30*
X315872Y58037D02*
D03*
D31*
X299252Y100591D02*
D03*
D32*
Y90748D02*
D03*
X307126D02*
D03*
Y100591D02*
D03*
D33*
X317795Y71969D02*
D03*
Y119370D02*
D03*
D34*
X31102Y105906D02*
D03*
X41102D02*
D03*
X51102D02*
D03*
X61102D02*
D03*
X71102D02*
D03*
X81102D02*
D03*
X91102D02*
D03*
X101102D02*
D03*
X111102D02*
D03*
X121102D02*
D03*
X131102D02*
D03*
X141102D02*
D03*
X151102D02*
D03*
X15748Y104449D02*
D03*
Y94449D02*
D03*
X15748Y47244D02*
D03*
Y57244D02*
D03*
X151102Y44488D02*
D03*
X141102D02*
D03*
X131102D02*
D03*
X121102D02*
D03*
X111102D02*
D03*
X101102D02*
D03*
X91102D02*
D03*
X81102D02*
D03*
X71102D02*
D03*
X61102D02*
D03*
X51102D02*
D03*
X41102D02*
D03*
X31102D02*
D03*
X194213Y59606D02*
D03*
X204213D02*
D03*
X214213D02*
D03*
Y89606D02*
D03*
X204213D02*
D03*
X194213D02*
D03*
X184213D02*
D03*
X194213Y105473D02*
D03*
X204213D02*
D03*
X214213D02*
D03*
Y135473D02*
D03*
X204213D02*
D03*
X194213D02*
D03*
X184213D02*
D03*
X251339Y101968D02*
D03*
X241339D02*
D03*
D35*
X15748Y84449D02*
D03*
X15748Y37244D02*
D03*
D36*
X286102Y84646D02*
D03*
X162205Y184764D02*
D03*
X129134D02*
D03*
X95669D02*
D03*
X62205Y184764D02*
D03*
X29291Y184764D02*
D03*
D37*
X276102Y84646D02*
D03*
D38*
X201969Y152756D02*
D03*
X211969D02*
D03*
D39*
X191969D02*
D03*
D40*
X161102Y105906D02*
D03*
Y44488D02*
D03*
X184213Y59606D02*
D03*
Y105473D02*
D03*
X261339Y101968D02*
D03*
D43*
X162205Y194764D02*
D03*
X129134D02*
D03*
X95669D02*
D03*
X62205Y194764D02*
D03*
X29291Y194764D02*
D03*
D45*
X226484Y62221D02*
D03*
Y72851D02*
D03*
D46*
X237992Y83169D02*
D03*
Y80610D02*
D03*
Y78051D02*
D03*
Y75492D02*
D03*
Y72933D02*
D03*
Y70374D02*
D03*
Y67815D02*
D03*
Y65256D02*
D03*
Y62697D02*
D03*
Y60138D02*
D03*
Y57579D02*
D03*
Y55020D02*
D03*
Y52461D02*
D03*
Y49902D02*
D03*
X265945D02*
D03*
Y52461D02*
D03*
Y55020D02*
D03*
Y57579D02*
D03*
Y60138D02*
D03*
Y62697D02*
D03*
Y65256D02*
D03*
Y67815D02*
D03*
Y70374D02*
D03*
Y72933D02*
D03*
Y75492D02*
D03*
Y78051D02*
D03*
Y80610D02*
D03*
Y83169D02*
D03*
D47*
X272269Y5221D02*
D03*
Y10221D02*
D03*
Y15221D02*
D03*
Y20221D02*
D03*
Y25221D02*
D03*
Y30221D02*
D03*
Y35221D02*
D03*
Y40221D02*
D03*
X236669D02*
D03*
Y35221D02*
D03*
Y30221D02*
D03*
Y25221D02*
D03*
Y20221D02*
D03*
Y15221D02*
D03*
Y10221D02*
D03*
Y5221D02*
D03*
D48*
X112205Y68898D02*
X121653Y78347D01*
X109449Y68898D02*
X112205D01*
X202382Y79618D02*
X208764Y86000D01*
X185591Y88228D02*
X194201Y79618D01*
X202382D01*
X204331Y12047D02*
Y23177D01*
X185591Y41917D02*
Y49298D01*
Y41917D02*
X204331Y23177D01*
Y12047D02*
X204331D01*
X179161Y55727D02*
Y63486D01*
Y55727D02*
X185591Y49298D01*
X184213Y89606D02*
X185591Y88228D01*
Y69915D02*
Y88228D01*
X179161Y63486D02*
X185591Y69915D01*
X179600Y94219D02*
X184213Y89606D01*
X204331Y12047D02*
X211157Y5221D01*
X40542Y20472D02*
X76244D01*
X81102Y25331D02*
Y44488D01*
X76244Y20472D02*
X81102Y25331D01*
X34095Y12205D02*
Y13043D01*
X37620Y16569D01*
Y17551D01*
X40542Y20472D01*
X81102Y44488D02*
Y60158D01*
X171000Y102819D02*
Y128000D01*
X179600Y94219D02*
Y130860D01*
X184213Y135473D01*
X304061Y39533D02*
Y56980D01*
X300000Y52919D02*
X304061Y56980D01*
Y73361D01*
X171000Y102819D02*
X179600Y94219D01*
X273038Y60138D02*
X290957Y78057D01*
Y96757D02*
X294791Y100591D01*
X290957Y78057D02*
Y96757D01*
X304061Y73361D02*
X313391Y82691D01*
Y103009D01*
X304000Y112400D02*
X313391Y103009D01*
X246707Y106600D02*
X251339Y101968D01*
X223300Y106600D02*
X246707D01*
X208764Y92064D02*
X223300Y106600D01*
X208764Y86000D02*
Y92064D01*
X304000Y112400D02*
Y155600D01*
X294791Y100591D02*
X299252D01*
X211157Y5221D02*
X236669D01*
X230708Y78000D02*
X233216Y75492D01*
X230708Y78000D02*
Y91338D01*
X241339Y101968D01*
X288811Y52919D02*
X300000D01*
D49*
X24094Y12205D02*
D03*
X34095D02*
D03*
X44094D02*
D03*
X54094D02*
D03*
X64095D02*
D03*
X74094D02*
D03*
X84095D02*
D03*
X94095D02*
D03*
X104095D02*
D03*
X114094D02*
D03*
X124094D02*
D03*
X134095D02*
D03*
X144095D02*
D03*
X154095D02*
D03*
X164094D02*
D03*
X174094D02*
D03*
D50*
X196850Y192677D02*
D03*
Y172677D02*
D03*
X186850Y182677D02*
D03*
X228661D02*
D03*
X238661Y172677D02*
D03*
Y192677D02*
D03*
X280772D02*
D03*
Y172677D02*
D03*
X270772Y182677D02*
D03*
X194331Y22047D02*
D03*
X204331Y12047D02*
D03*
Y32047D02*
D03*
D51*
X161102Y60158D02*
D03*
X151102D02*
D03*
X141102D02*
D03*
X131102D02*
D03*
X121102D02*
D03*
X111102D02*
D03*
X101102D02*
D03*
X91102D02*
D03*
X81102D02*
D03*
X71102D02*
D03*
X61102D02*
D03*
X51102D02*
D03*
X41102D02*
D03*
X31102D02*
D03*
Y90158D02*
D03*
X41102D02*
D03*
X51102D02*
D03*
X61102D02*
D03*
X71102D02*
D03*
X81102D02*
D03*
X91102D02*
D03*
X101102D02*
D03*
X111102D02*
D03*
X121102D02*
D03*
X131102D02*
D03*
X141102D02*
D03*
X151102D02*
D03*
D52*
X161102D02*
D03*
D53*
X8661Y8661D02*
D03*
Y203937D02*
D03*
X328740Y8661D02*
D03*
Y203937D02*
D03*
D54*
X309366Y170228D02*
D03*
Y180228D02*
D03*
D55*
Y190228D02*
D03*
D56*
X135039Y119685D02*
D03*
X137008Y130708D02*
D03*
X70714Y154310D02*
D03*
X80004Y149170D02*
D03*
X109449Y68898D02*
D03*
X121653Y78347D02*
D03*
X172717Y28471D02*
D03*
X194563Y49513D02*
D03*
X245925Y27458D02*
D03*
X180763Y30236D02*
D03*
X248421Y12823D02*
D03*
X106200Y158562D02*
D03*
X118401Y163187D02*
D03*
X81102Y77559D02*
D03*
X225354Y115236D02*
D03*
X221958Y40787D02*
D03*
X224062Y56242D02*
D03*
X105700Y180200D02*
D03*
X124343Y153890D02*
D03*
X246700Y65256D02*
D03*
X171000Y128000D02*
D03*
X223300Y86614D02*
D03*
X218819Y25981D02*
D03*
X116142Y125038D02*
D03*
X178110Y205860D02*
D03*
X287008Y128347D02*
D03*
X256839Y72800D02*
D03*
X304000Y155600D02*
D03*
X171000Y136000D02*
D03*
X168600Y191100D02*
D03*
X246431Y83169D02*
D03*
X17100Y154600D02*
D03*
X226000Y20400D02*
D03*
X45000Y150300D02*
D03*
X175700Y157800D02*
D03*
X272900Y151200D02*
D03*
M02*
