G04*
G04 #@! TF.GenerationSoftware,Altium Limited,Altium Designer,20.2.5 (213)*
G04*
G04 Layer_Physical_Order=1*
G04 Layer_Color=255*
%FSLAX25Y25*%
%MOIN*%
G70*
G04*
G04 #@! TF.SameCoordinates,58A5799B-777F-4B07-89FE-91B8D634004C*
G04*
G04*
G04 #@! TF.FilePolarity,Positive*
G04*
G01*
G75*
%ADD14C,0.01000*%
%ADD16R,0.05433X0.08268*%
%ADD18R,0.08268X0.05433*%
%ADD19R,0.10236X0.03740*%
%ADD27O,0.06299X0.18110*%
%ADD28O,0.18110X0.06299*%
%ADD29R,0.05591X0.05591*%
%ADD30C,0.05591*%
%ADD31C,0.13780*%
%ADD32C,0.06102*%
%ADD33R,0.06102X0.06102*%
%ADD34C,0.05709*%
%ADD35R,0.05709X0.05709*%
%ADD36C,0.07480*%
%ADD37R,0.07480X0.07480*%
%ADD40R,0.06102X0.06102*%
%ADD43R,0.05709X0.05709*%
%ADD45R,0.06299X0.01968*%
%ADD46R,0.07087X0.01772*%
%ADD47R,0.09000X0.02200*%
%ADD48C,0.02000*%
%ADD49C,0.05315*%
%ADD50R,0.05315X0.05315*%
%ADD51C,0.11811*%
%ADD52C,0.05433*%
%ADD53C,0.05158*%
%ADD54C,0.05512*%
%ADD55R,0.05512X0.05512*%
%ADD56C,0.05000*%
D14*
X86551Y138913D02*
X106200Y158562D01*
X114933Y180200D02*
X122400Y172733D01*
Y157605D02*
Y172733D01*
X114165Y149369D02*
X122400Y157605D01*
X114165Y140602D02*
Y149369D01*
X106200Y144232D02*
X118401Y156433D01*
X106200Y75255D02*
Y144232D01*
X118401Y156433D02*
Y163187D01*
X194563Y49513D02*
X199487D01*
X199510Y49490D01*
X71102Y60158D02*
X81102Y70158D01*
Y77559D01*
X213976Y115236D02*
X225354D01*
X204213Y105473D02*
X213976Y115236D01*
X249335Y27673D02*
X253607D01*
X261059Y20221D02*
X272269D01*
X253607Y27673D02*
X261059Y20221D01*
X248205Y32200D02*
X258556D01*
X243701Y27696D02*
X248205Y32200D01*
X243701Y4532D02*
Y27696D01*
X241790Y2621D02*
X243701Y4532D01*
X143679Y2621D02*
X241790D01*
X134094Y12205D02*
X143679Y2621D01*
X247701Y18590D02*
X252368D01*
X255737Y15221D01*
X89345Y14736D02*
X93113Y18504D01*
X153996D02*
X158173Y14327D01*
X93113Y18504D02*
X153996D01*
X236669Y30221D02*
X242669D01*
Y41942D01*
X241790Y42821D02*
X242669Y41942D01*
X223991Y42821D02*
X241790D01*
X221958Y40787D02*
X223991Y42821D01*
X217958Y39130D02*
Y42444D01*
X221814Y46300D01*
X248900D01*
X228267Y36787D02*
X231700Y40221D01*
X220302Y36787D02*
X228267D01*
X217958Y39130D02*
X220302Y36787D01*
X224062Y61736D02*
X224546Y62221D01*
X226484D01*
X224062Y56242D02*
Y61736D01*
X226476Y51179D02*
X232860Y57563D01*
X222836Y51179D02*
X226476D01*
X220493Y53522D02*
X222836Y51179D01*
X220493Y53522D02*
Y54435D01*
X215322Y59606D02*
X220493Y54435D01*
X91102Y60158D02*
X106200Y75255D01*
X307126Y81929D02*
Y90748D01*
X265945Y49902D02*
X275098D01*
X307126Y81929D01*
X265536Y25221D02*
X272269D01*
X258556Y32200D02*
X265536Y25221D01*
X281374Y18595D02*
Y38546D01*
X279700Y40221D02*
X281374Y38546D01*
X278000Y15221D02*
X281374Y18595D01*
Y41895D02*
X288811D01*
X279700Y40221D02*
X281374Y41895D01*
X207162Y130860D02*
X209661Y133359D01*
X188764Y132736D02*
X190639Y130860D01*
X207162D01*
X209661Y133359D02*
Y137358D01*
X19596Y145596D02*
X28394Y154394D01*
X19596Y137296D02*
Y145596D01*
X28394Y154394D02*
X66306D01*
X7874Y125574D02*
X19596Y137296D01*
X7874Y65118D02*
X15748Y57244D01*
X7874Y65118D02*
Y125574D01*
X86551Y42603D02*
Y138913D01*
Y42603D02*
X89217Y39937D01*
X96551D01*
X101102Y44488D01*
X105700Y180200D02*
X114933D01*
X95669Y184764D02*
X129134D01*
X111949Y138386D02*
X114165Y140602D01*
X124343Y153890D02*
Y154657D01*
X129587Y159901D01*
Y174213D01*
X237992Y67815D02*
X243602D01*
X246161Y65256D01*
X246700D01*
X140114Y133631D02*
Y194051D01*
X151923Y205860D02*
X178110D01*
X140114Y194051D02*
X151923Y205860D01*
X89345Y11687D02*
Y14736D01*
X135039Y116137D02*
Y120000D01*
X232860Y57563D02*
Y67229D01*
X232876Y57579D02*
X237992D01*
X232860Y57563D02*
X232876Y57579D01*
X233446Y67815D02*
X237992D01*
X232860Y67229D02*
X233446Y67815D01*
X209600Y62221D02*
X223300Y75921D01*
X209600Y26519D02*
Y62221D01*
X223300Y75921D02*
Y86614D01*
X226484Y72851D02*
X226525Y72892D01*
X237951D01*
X237992Y72933D01*
X214213Y59606D02*
X215322D01*
X218819Y25981D02*
X222000Y22800D01*
Y18400D02*
Y22800D01*
X137008Y126992D02*
Y130787D01*
X131102Y112200D02*
X135039Y116137D01*
X137008Y126992D02*
X137329Y126671D01*
X139102Y124898D01*
Y112200D02*
Y124898D01*
X135800Y108898D02*
X139102Y112200D01*
X141102Y105906D02*
Y132642D01*
X140114Y133631D02*
X141102Y132642D01*
X116142Y110866D02*
Y125038D01*
Y110866D02*
X121102Y105906D01*
X151102D02*
Y184302D01*
X156000Y189200D01*
X135800Y84855D02*
Y108898D01*
X131102Y105906D02*
Y112200D01*
Y90158D02*
Y105906D01*
X156000Y189200D02*
X166700D01*
X24094Y12205D02*
X30000Y18110D01*
X78189D01*
X71102Y25197D02*
X78189Y18110D01*
X84094Y12205D01*
X84863Y7205D02*
X89345Y11687D01*
X74094Y11142D02*
Y12205D01*
Y11142D02*
X78031Y7205D01*
X84863D01*
X199510Y49490D02*
Y64006D01*
X214213Y78709D01*
X209600Y26519D02*
X221819Y14300D01*
X199510Y49490D02*
X205581Y43419D01*
X221819Y14300D02*
X232200D01*
X205581Y26795D02*
X222156Y10221D01*
X214213Y59606D02*
X214272Y59547D01*
Y32106D02*
Y59547D01*
Y32106D02*
X214331Y32047D01*
X205581Y26795D02*
Y43419D01*
X222156Y10221D02*
X236669D01*
X279508Y78051D02*
X286102Y84646D01*
X265945Y78051D02*
X279508D01*
X287008Y120709D02*
X307126Y100591D01*
X287008Y120709D02*
Y128347D01*
X201969Y152756D02*
Y167559D01*
X186850Y182677D02*
X201969Y167559D01*
X186850Y182677D02*
X228661D01*
X184213Y22323D02*
Y59606D01*
X174094Y12205D02*
X184213Y22323D01*
X204213Y135473D02*
Y148758D01*
X201969Y151002D02*
X204213Y148758D01*
X201969Y151002D02*
Y152756D01*
X209661Y137358D02*
X219204Y146900D01*
X243100D01*
X159400D02*
X179221D01*
X188764Y137358D01*
Y132736D02*
Y137358D01*
X71102Y25197D02*
Y44488D01*
X158173Y10000D02*
Y14327D01*
X71102Y44488D02*
Y60158D01*
X91102Y90158D02*
Y105906D01*
X256839Y72800D02*
X256900Y72739D01*
Y39321D02*
Y72739D01*
X260900Y75492D02*
Y77000D01*
Y65256D02*
Y75492D01*
Y57800D02*
Y65256D01*
X261121Y57579D02*
X265945D01*
X261000D02*
X261121D01*
X232200Y14300D02*
Y15221D01*
X255737D02*
X272269D01*
X216811Y132874D02*
X239079D01*
X214213Y135473D02*
X216811Y132874D01*
X256900Y39321D02*
X266000Y30221D01*
X272269D01*
X231700Y40221D02*
X236669D01*
X248900Y46300D02*
X252800Y50200D01*
Y84300D01*
X265900Y97400D01*
Y124100D01*
X243100Y146900D02*
X265900Y124100D01*
X156500Y144000D02*
X159400Y146900D01*
X156500Y28000D02*
Y144000D01*
Y28000D02*
X168200Y16300D01*
Y8700D02*
Y16300D01*
X166000Y6500D02*
X168200Y8700D01*
X161673Y6500D02*
X166000D01*
X158173Y10000D02*
X161673Y6500D01*
X232200Y15221D02*
X236669D01*
X194213Y99606D02*
Y105473D01*
Y99606D02*
X204213Y89606D01*
X214213Y78709D02*
Y89606D01*
X161102Y126102D02*
X171000Y136000D01*
X161102Y105906D02*
Y126102D01*
X166700Y189200D02*
X168600Y191100D01*
X265945Y60138D02*
X273038D01*
X237992Y83169D02*
X246431D01*
X11634Y149134D02*
X17100Y154600D01*
X11634Y139202D02*
Y149134D01*
X231721Y35221D02*
X236669D01*
X228500Y32000D02*
X231721Y35221D01*
X228500Y22900D02*
Y32000D01*
X226000Y20400D02*
X228500Y22900D01*
X260479Y57058D02*
X261000Y57579D01*
X260479Y43742D02*
Y57058D01*
Y43742D02*
X264000Y40221D01*
X272269D01*
X66306Y154394D02*
X69800Y150900D01*
X44130Y139173D02*
Y149430D01*
X45000Y150300D01*
X79995Y146200D02*
X82500D01*
X77795Y144000D02*
X79995Y146200D01*
X77795Y138780D02*
Y144000D01*
X222000Y18400D02*
X224000Y16400D01*
X228000D01*
X230600Y19000D01*
Y24000D01*
X231821Y25221D01*
X236669D01*
X144331Y138386D02*
Y164331D01*
X148600Y168600D01*
Y192500D01*
X155300Y199200D01*
X168000D01*
X175700Y191500D01*
Y157800D02*
Y191500D01*
X272269Y40221D02*
X279700D01*
X299252Y79413D02*
Y90748D01*
X272300Y52461D02*
X299252Y79413D01*
X265945Y52461D02*
X272300D01*
X274905Y115236D02*
X280600D01*
Y143500D01*
X272900Y151200D02*
X280600Y143500D01*
X245823Y172677D02*
X248661D01*
X237500Y181000D02*
X245823Y172677D01*
X237500Y181000D02*
Y192400D01*
X111102Y60158D02*
X135800Y84855D01*
X272269Y15221D02*
X278000D01*
X260900Y57800D02*
X261121Y57579D01*
X260900Y77000D02*
X261951Y78051D01*
X265945D01*
X233216Y75492D02*
X237992D01*
X260900Y65256D02*
X265945D01*
X260900Y75492D02*
X265945D01*
Y78051D01*
X272269Y10221D02*
Y15221D01*
Y5221D02*
Y10221D01*
X62205Y180037D02*
Y184764D01*
X61768Y179600D02*
X62205Y180037D01*
X61768Y175000D02*
Y179600D01*
X29291Y179820D02*
Y184764D01*
X29272Y179800D02*
X29291Y179820D01*
X29272Y175029D02*
Y179800D01*
X129134Y179653D02*
Y184764D01*
Y179653D02*
X129587Y179200D01*
Y174213D02*
Y179200D01*
X95669Y179736D02*
Y184764D01*
X95433Y179500D02*
X95669Y179736D01*
X95433Y174606D02*
Y179500D01*
X162205Y179536D02*
Y184764D01*
X161968Y179300D02*
X162205Y179536D01*
X161968Y174213D02*
Y179300D01*
X31102Y90158D02*
Y105906D01*
Y44488D02*
Y60158D01*
X161102Y90158D02*
Y105906D01*
X151102Y90158D02*
Y105906D01*
X141102Y90158D02*
Y105906D01*
X121102Y90158D02*
Y105906D01*
X111102Y90158D02*
Y105906D01*
X101102Y90158D02*
Y105906D01*
X81102Y90158D02*
Y105906D01*
X71102Y90158D02*
Y105906D01*
X61102Y90158D02*
Y105906D01*
X51102Y90158D02*
Y105906D01*
X41102Y90158D02*
Y105906D01*
Y44488D02*
Y60158D01*
X51102Y44488D02*
Y60158D01*
X61102Y44488D02*
Y60158D01*
X91102Y44488D02*
Y60158D01*
X101102Y44488D02*
Y60158D01*
X111102Y44488D02*
Y60158D01*
X121102Y44488D02*
Y60158D01*
X131102Y44488D02*
Y60158D01*
X141102Y44488D02*
Y60158D01*
X151102Y44488D02*
Y60158D01*
X161102Y44488D02*
Y60158D01*
X265945Y60138D02*
Y62697D01*
D16*
X111949Y174213D02*
D03*
Y138386D02*
D03*
X129587Y174213D02*
D03*
Y138386D02*
D03*
X29272Y139202D02*
D03*
Y175029D02*
D03*
X11634Y139202D02*
D03*
Y175029D02*
D03*
X144331Y174213D02*
D03*
Y138386D02*
D03*
X161968Y174213D02*
D03*
Y138386D02*
D03*
X77795Y174606D02*
D03*
Y138780D02*
D03*
X95433Y174606D02*
D03*
Y138780D02*
D03*
X61768Y139173D02*
D03*
Y175000D02*
D03*
X44130Y139173D02*
D03*
Y175000D02*
D03*
D18*
X239079Y115236D02*
D03*
X274905D02*
D03*
X239079Y132874D02*
D03*
X274905D02*
D03*
D19*
X288811Y41895D02*
D03*
Y52919D02*
D03*
D27*
X304061Y39533D02*
D03*
X327683D02*
D03*
D28*
X315872Y58037D02*
D03*
D29*
X299252Y100591D02*
D03*
D30*
Y90748D02*
D03*
X307126D02*
D03*
Y100591D02*
D03*
D31*
X317795Y71969D02*
D03*
Y119370D02*
D03*
D32*
X31102Y105906D02*
D03*
X41102D02*
D03*
X51102D02*
D03*
X61102D02*
D03*
X71102D02*
D03*
X81102D02*
D03*
X91102D02*
D03*
X101102D02*
D03*
X111102D02*
D03*
X121102D02*
D03*
X131102D02*
D03*
X141102D02*
D03*
X151102D02*
D03*
X15748Y104449D02*
D03*
Y94449D02*
D03*
X15748Y47244D02*
D03*
Y57244D02*
D03*
X151102Y44488D02*
D03*
X141102D02*
D03*
X131102D02*
D03*
X121102D02*
D03*
X111102D02*
D03*
X101102D02*
D03*
X91102D02*
D03*
X81102D02*
D03*
X71102D02*
D03*
X61102D02*
D03*
X51102D02*
D03*
X41102D02*
D03*
X31102D02*
D03*
X194213Y59606D02*
D03*
X204213D02*
D03*
X214213D02*
D03*
Y89606D02*
D03*
X204213D02*
D03*
X194213D02*
D03*
X184213D02*
D03*
X194213Y105473D02*
D03*
X204213D02*
D03*
X214213D02*
D03*
Y135473D02*
D03*
X204213D02*
D03*
X194213D02*
D03*
X184213D02*
D03*
X251339Y101968D02*
D03*
X241339D02*
D03*
D33*
X15748Y84449D02*
D03*
X15748Y37244D02*
D03*
D34*
X286102Y84646D02*
D03*
X162205Y184764D02*
D03*
X129134D02*
D03*
X95669D02*
D03*
X62205Y184764D02*
D03*
X29291Y184764D02*
D03*
D35*
X276102Y84646D02*
D03*
D36*
X201969Y152756D02*
D03*
X211969D02*
D03*
D37*
X191969D02*
D03*
D40*
X161102Y105906D02*
D03*
Y44488D02*
D03*
X184213Y59606D02*
D03*
Y105473D02*
D03*
X261339Y101968D02*
D03*
D43*
X162205Y194764D02*
D03*
X129134D02*
D03*
X95669D02*
D03*
X62205Y194764D02*
D03*
X29291Y194764D02*
D03*
D45*
X226484Y62221D02*
D03*
Y72851D02*
D03*
D46*
X237992Y83169D02*
D03*
Y80610D02*
D03*
Y78051D02*
D03*
Y75492D02*
D03*
Y72933D02*
D03*
Y70374D02*
D03*
Y67815D02*
D03*
Y65256D02*
D03*
Y62697D02*
D03*
Y60138D02*
D03*
Y57579D02*
D03*
Y55020D02*
D03*
Y52461D02*
D03*
Y49902D02*
D03*
X265945D02*
D03*
Y52461D02*
D03*
Y55020D02*
D03*
Y57579D02*
D03*
Y60138D02*
D03*
Y62697D02*
D03*
Y65256D02*
D03*
Y67815D02*
D03*
Y70374D02*
D03*
Y72933D02*
D03*
Y75492D02*
D03*
Y78051D02*
D03*
Y80610D02*
D03*
Y83169D02*
D03*
D47*
X272269Y5221D02*
D03*
Y10221D02*
D03*
Y15221D02*
D03*
Y20221D02*
D03*
Y25221D02*
D03*
Y30221D02*
D03*
Y35221D02*
D03*
Y40221D02*
D03*
X236669D02*
D03*
Y35221D02*
D03*
Y30221D02*
D03*
Y25221D02*
D03*
Y20221D02*
D03*
Y15221D02*
D03*
Y10221D02*
D03*
Y5221D02*
D03*
D48*
X81102Y44488D02*
Y60158D01*
X171000Y102819D02*
Y128000D01*
X179600Y94219D02*
Y130860D01*
X184213Y135473D01*
X304061Y39533D02*
Y56980D01*
X300000Y52919D02*
X304061Y56980D01*
Y73361D01*
X171000Y102819D02*
X179600Y94219D01*
X94484Y26378D02*
X149921D01*
X81102Y39759D02*
X94484Y26378D01*
X81102Y39759D02*
Y44488D01*
X149921Y26378D02*
X164094Y12205D01*
X273038Y60138D02*
X290957Y78057D01*
Y96757D02*
X294791Y100591D01*
X290957Y78057D02*
Y96757D01*
X304061Y73361D02*
X313391Y82691D01*
Y103009D01*
X304000Y112400D02*
X313391Y103009D01*
X189661Y66898D02*
Y84158D01*
X184213Y89606D02*
X189661Y84158D01*
X246707Y106600D02*
X251339Y101968D01*
X223300Y106600D02*
X246707D01*
X208764Y92064D02*
X223300Y106600D01*
X208764Y86000D02*
Y92064D01*
X189661Y66898D02*
X208764Y86000D01*
X189661Y26717D02*
Y66898D01*
Y26717D02*
X194331Y22047D01*
X179600Y94219D02*
X184213Y89606D01*
X304000Y112400D02*
Y155600D01*
X294791Y100591D02*
X299252D01*
X211157Y5221D02*
X236669D01*
X194331Y22047D02*
X211157Y5221D01*
X230708Y78000D02*
X233216Y75492D01*
X230708Y78000D02*
Y91338D01*
X241339Y101968D01*
X288811Y52919D02*
X300000D01*
D49*
X161102Y60158D02*
D03*
X151102D02*
D03*
X141102D02*
D03*
X131102D02*
D03*
X121102D02*
D03*
X111102D02*
D03*
X101102D02*
D03*
X91102D02*
D03*
X81102D02*
D03*
X71102D02*
D03*
X61102D02*
D03*
X51102D02*
D03*
X41102D02*
D03*
X31102D02*
D03*
Y90158D02*
D03*
X41102D02*
D03*
X51102D02*
D03*
X61102D02*
D03*
X71102D02*
D03*
X81102D02*
D03*
X91102D02*
D03*
X101102D02*
D03*
X111102D02*
D03*
X121102D02*
D03*
X131102D02*
D03*
X141102D02*
D03*
X151102D02*
D03*
D50*
X161102D02*
D03*
D51*
X8661Y8661D02*
D03*
Y203937D02*
D03*
X328740Y8661D02*
D03*
Y203937D02*
D03*
D52*
X206850Y172677D02*
D03*
X186850Y182677D02*
D03*
X206850Y192677D02*
D03*
X214331Y32047D02*
D03*
X194331Y22047D02*
D03*
X214331Y12047D02*
D03*
X290772Y192677D02*
D03*
X270772Y182677D02*
D03*
X290772Y172677D02*
D03*
X248661Y192677D02*
D03*
X228661Y182677D02*
D03*
X248661Y172677D02*
D03*
D53*
X24094Y12205D02*
D03*
X34094D02*
D03*
X44094D02*
D03*
X54094D02*
D03*
X64094D02*
D03*
X74094D02*
D03*
X84094D02*
D03*
X94094D02*
D03*
X104094D02*
D03*
X114094D02*
D03*
X124094D02*
D03*
X134094D02*
D03*
X144094D02*
D03*
X154094D02*
D03*
X164094D02*
D03*
X174094D02*
D03*
D54*
X309366Y170228D02*
D03*
Y180228D02*
D03*
D55*
Y190228D02*
D03*
D56*
X106200Y158562D02*
D03*
X118401Y163187D02*
D03*
X194563Y49513D02*
D03*
X81102Y77559D02*
D03*
X225354Y115236D02*
D03*
X249335Y27673D02*
D03*
X247701Y18590D02*
D03*
X221958Y40787D02*
D03*
X224062Y56242D02*
D03*
X105700Y180200D02*
D03*
X124343Y153890D02*
D03*
X246700Y65256D02*
D03*
X171000Y128000D02*
D03*
X135039Y120000D02*
D03*
X223300Y86614D02*
D03*
X218819Y25981D02*
D03*
X137008Y130787D02*
D03*
X116142Y125038D02*
D03*
X178110Y205860D02*
D03*
X287008Y128347D02*
D03*
X256839Y72800D02*
D03*
X304000Y155600D02*
D03*
X171000Y136000D02*
D03*
X168600Y191100D02*
D03*
X246431Y83169D02*
D03*
X17100Y154600D02*
D03*
X226000Y20400D02*
D03*
X69800Y150900D02*
D03*
X45000Y150300D02*
D03*
X82500Y146200D02*
D03*
X175700Y157800D02*
D03*
X272900Y151200D02*
D03*
X237500Y192400D02*
D03*
M02*
