M48
;Layer_Color=9474304
;FILE_FORMAT=2:4
INCH,TZ
;TYPE=PLATED
T1F00S00C0.0280
T2F00S00C0.0319
T3F00S00C0.0339
T4F00S00C0.0346
T5F00S00C0.0354
T6F00S00C0.0362
T7F00S00C0.0374
T8F00S00C0.0394
T10F00S00C0.0409
T11F00S00C0.0492
T12F00S00C0.0906
T13F00S00C0.1181
%
T01
X17272Y2847
X18076Y3024
X19456Y4951
X22196Y4079
X22406Y5624
X21882Y2598
X22600Y2040
X24592Y2746
X24842Y1282
X24670Y6526
X25684Y7280
X24643Y8317
X22330Y8661
X22535Y11524
X28701Y12835
X27290Y15120
X30400Y15560
X17570Y15780
X17100Y13600
Y12800
X13701Y13071
X13504Y11968
X11614Y12504
X12434Y15389
X11840Y16319
X10620Y15856
X10570Y18020
X8000Y14917
X7071Y15431
X8110Y7756
X10945Y6890
X12165Y7835
X16860Y19110
X17811Y20586
X4500Y15030
X1710Y15460
T02
X2409Y1220
X3409
X4409
X5409
X6409
X7409
X8409
X9409
X10409
X11409
X12409
X13409
X14409
X15409
X16409
X17409
T03
X30937Y17023
Y18023
Y19023
T04
X19433Y2205
X20433Y1205
Y3205
X22866Y18268
X23866Y17268
Y19268
X28077
Y17268
X27077Y18268
X19685Y19268
Y17268
X18685Y18268
T05
X6110Y6016
X7110
X8110
X9110
X10110
X11110
X12110
X13110
X14110
X15110
X16110
Y9016
X15110
X14110
X13110
X12110
X11110
X10110
X9110
X8110
X7110
X6110
X5110
X4110
X3110
Y6016
X4110
X5110
T06
X29925Y9075
X30713
Y10059
X29925
T07
X27610Y8465
X28610
X16220Y18476
Y19476
X12913
Y18476
X9567
Y19476
X6220Y19476
Y18476
X2929Y18476
Y19476
T08
X1575Y3724
Y4724
X21421Y5961
Y8961
Y10547
Y13547
X24134Y10197
X25134
X26134
X20421Y10547
X19421
X18421
Y8961
X19421
X20421
Y5961
X19421
X18421
Y13547
X19421
X20421
X1575Y10445
Y9445
Y8445
X1575Y5724
T10
X3110Y4449
X4110
X5110
X6110
X7110
X8110
X9110
X10110
X11110
X12110
X13110
X14110
X15110
X16110
Y10591
X15110
X14110
X13110
X12110
X11110
X10110
X9110
X8110
X7110
X6110
X5110
X4110
X3110
T11
X19197Y15276
X20197
X21197
T12
X31780Y7197
Y11937
T13
X866Y866
X32874
Y20394
X866
M30
